<svg width="143" height="143" viewBox="0 0 143 143" fill="none" xmlns="http://www.w3.org/2000/svg">
<circle cx="71.5" cy="71.5" r="71.5" fill="#D9D9D9"/>
<g clip-path="url(#clip0_2103_2381)">
<path opacity="0.5" d="M72.4172 13.1785C39.5301 13.1785 12.8536 39.855 12.8536 72.7421C12.8536 105.648 39.5301 132.325 72.4172 132.325C105.323 132.325 132 105.648 132 72.7421C132 39.855 105.323 13.1785 72.4172 13.1785ZM99.6288 64.9837L112.852 59.4994C113.139 60.3593 113.388 61.2192 113.617 62.0791L99.7435 65.4232C99.7244 65.2895 99.6862 65.1366 99.6288 64.9837ZM97.6988 60.0153C97.2211 59.079 96.7051 58.1808 96.151 57.3209L107.693 48.9128C108.897 50.7091 109.986 52.5818 110.903 54.5501L97.6988 60.0153ZM94.6986 55.2953C94.6222 55.1998 94.5458 55.0851 94.4502 54.9896L104.559 44.8808C105.132 45.5305 105.686 46.2184 106.222 46.9064L94.6986 55.2953ZM90.7239 51.1868C89.9022 50.4798 89.0423 49.8301 88.1442 49.2377L95.5777 37.0651C97.4313 38.269 99.1893 39.6066 100.833 41.078L90.7239 51.1868ZM86.0421 47.9383C85.9466 47.8809 85.851 47.8427 85.7555 47.7854L91.2208 34.5809C91.9851 34.963 92.7304 35.3643 93.4757 35.7847L86.0421 47.9383ZM80.8444 45.7216C79.8125 45.3967 78.7424 45.1483 77.6532 44.9381L79.8698 30.8545C82.0865 31.2367 84.2459 31.81 86.3288 32.5171L80.8444 45.7216ZM75.1881 44.5941C75.0925 44.5941 74.997 44.575 74.9014 44.575V30.2813C75.7422 30.3386 76.5639 30.415 77.4047 30.5106L75.1881 44.5941ZM69.5699 44.5941C68.4807 44.7088 67.3915 44.8808 66.3405 45.1101L62.9963 31.2558C65.1366 30.7781 67.3342 30.4533 69.5699 30.3004V44.5941ZM63.9518 45.7407C63.8563 45.7598 63.7798 45.798 63.6843 45.8362L58.219 32.6317C59.0025 32.3642 59.786 32.0967 60.5886 31.8673L63.9518 45.7407ZM58.7923 47.9383C57.8559 48.4542 56.9578 49.0275 56.0979 49.639L47.7089 38.1161C49.4861 36.8549 51.3588 35.7083 53.327 34.7146L58.7923 47.9383ZM54.1296 51.1486C54.0532 51.2059 53.9768 51.2824 53.9003 51.3397L43.7915 41.2309C44.403 40.6576 45.0527 40.1226 45.7024 39.6066L54.1296 51.1486ZM50.2313 55.1998C49.6007 55.9833 49.0083 56.8241 48.4733 57.684L36.3007 50.2505C37.4281 48.4351 38.7084 46.6961 40.1034 45.0719L50.2313 55.1998ZM47.2503 59.8242C47.193 59.9198 47.1356 60.0344 47.0974 60.13L33.912 54.6647C34.2751 53.8812 34.6573 53.1169 35.0777 52.3716L47.2503 59.8242ZM45.1674 65.1175C44.919 66.0347 44.7088 66.952 44.5368 67.9075L30.4532 65.6908C30.7972 63.6079 31.294 61.6014 31.9246 59.6331L45.1674 65.1175ZM44.231 70.3534C44.2119 70.4872 44.2119 70.6401 44.1928 70.7739H29.9182C29.9564 69.8948 30.0328 69.0158 30.1284 68.1368L44.231 70.3534ZM44.3266 76.1053C44.4412 77.0035 44.575 77.8634 44.7661 78.7424L30.9119 82.0866C30.4723 80.1374 30.1666 78.15 30.0137 76.1053H44.3266ZM45.3776 81.1311C45.4349 81.3031 45.4922 81.4559 45.5305 81.6088L32.3259 87.0741C32.0202 86.2142 31.7527 85.3542 31.5042 84.4752L45.3776 81.1311ZM47.6898 86.5008C48.0911 87.2269 48.5306 87.934 48.9892 88.6219L37.4663 97.0109C36.358 95.4057 35.3452 93.7241 34.4471 91.966L47.6898 86.5008ZM50.4798 90.6093C50.6135 90.7622 50.7282 90.915 50.8619 91.0679L40.7531 101.177C40.1225 100.489 39.5301 99.7626 38.9569 99.0174L50.4798 90.6093ZM54.6647 94.7751C55.2762 95.272 55.9068 95.7497 56.5756 96.1892L49.1421 108.362C47.5369 107.311 46.0082 106.145 44.5559 104.884L54.6647 94.7751ZM58.6776 97.4886C58.8687 97.6033 59.0598 97.6988 59.2509 97.7944L53.7857 110.999C52.9257 110.579 52.0849 110.12 51.2441 109.642L58.6776 97.4886ZM64.1811 99.8391C64.9264 100.068 65.6716 100.259 66.436 100.412L64.2193 114.515C62.3275 114.152 60.493 113.655 58.7159 113.044L64.1811 99.8391ZM68.882 100.814C69.1113 100.852 69.3406 100.871 69.5699 100.909V115.203C68.5954 115.146 67.6208 115.031 66.6653 114.916L68.882 100.814ZM74.9014 100.928C75.6849 100.852 76.4493 100.756 77.2137 100.623L80.5769 114.496C78.7233 114.859 76.8315 115.088 74.9014 115.203V100.928ZM79.6405 100.126C79.8698 100.068 80.0991 99.992 80.3285 99.9346L85.8128 113.158C84.8956 113.464 83.9592 113.751 83.0038 113.999L79.6405 100.126ZM85.2778 97.9664C86.0039 97.6033 86.711 97.202 87.3989 96.7816L95.807 108.324C94.2018 109.394 92.5011 110.349 90.7621 111.19L85.2778 97.9664ZM89.4245 95.3675C89.6156 95.2337 89.7876 95.0809 89.9595 94.9471L100.087 105.075C99.3422 105.706 98.5969 106.317 97.8326 106.89L89.4245 95.3675ZM93.8196 91.259C94.3738 90.6093 94.9088 89.9405 95.4057 89.2334L107.597 96.686C106.47 98.3294 105.247 99.8964 103.909 101.368L93.8196 91.259ZM96.7816 87.1696C96.8962 86.9785 96.9918 86.8065 97.1064 86.6154L110.33 92.0998C109.891 92.9406 109.432 93.7814 108.954 94.6031L96.7816 87.1696ZM99.2467 81.7426C99.5333 80.8827 99.7817 79.9845 99.9919 79.0864L114.114 81.3031C113.693 83.3287 113.139 85.2969 112.451 87.2078L99.2467 81.7426ZM100.451 76.6595C100.47 76.4684 100.508 76.2964 100.527 76.1053H114.84C114.763 77.0417 114.668 77.9589 114.534 78.8762L100.451 76.6595ZM100.642 70.7739C100.565 69.7802 100.451 68.8056 100.279 67.8501L114.171 64.506C114.572 66.5507 114.821 68.6527 114.935 70.793H100.642V70.7739Z" fill="#808080"/>
<path d="M73.0478 26.5167H67.7163V116.006H73.0478V26.5167Z" fill="#B9B5B7"/>
<path d="M75.769 26.8503L61.925 115.265L64.3794 115.65L78.2234 27.2346L75.769 26.8503Z" fill="#B9B5B7"/>
<path d="M60.7564 27.4777L58.3418 28.0618L79.3806 115.045L81.7953 114.461L60.7564 27.4777Z" fill="#B9B5B7"/>
<path d="M44.6995 34.3778L42.6925 35.8417L95.4282 108.14L97.4352 106.676L44.6995 34.3778Z" fill="#B9B5B7"/>
<path d="M32.5239 46.8833L31.2291 49.0033L107.599 95.6449L108.894 93.5249L32.5239 46.8833Z" fill="#B9B5B7"/>
<path d="M26.0486 63.1119L25.6641 65.566L114.07 79.4189L114.455 76.9648L26.0486 63.1119Z" fill="#B9B5B7"/>
<path d="M113.28 59.5416L26.2965 80.5804L26.8805 82.9951L113.864 61.9562L113.28 59.5416Z" fill="#B9B5B7"/>
<path d="M105.502 43.9028L33.1864 96.6117L34.6496 98.6192L106.965 45.9103L105.502 43.9028Z" fill="#B9B5B7"/>
<path d="M92.3323 32.4181L45.6997 108.797L47.82 110.091L94.4526 33.7126L92.3323 32.4181Z" fill="#B9B5B7"/>
<path d="M75.7696 26.8612L61.9167 115.267L64.3709 115.652L78.2238 27.2458L75.7696 26.8612Z" fill="#B9B5B7"/>
<path d="M55.7126 28.9085L50.7874 30.9494L85.0437 113.619L89.9689 111.578L55.7126 28.9085Z" fill="#B9B5B7"/>
<path d="M40.6311 37.74L36.8607 41.5093L100.129 104.796L103.9 101.026L40.6311 37.74Z" fill="#B9B5B7"/>
<path d="M30.0633 51.6766L28.0229 56.6023L110.702 90.8497L112.742 85.9239L30.0633 51.6766Z" fill="#B9B5B7"/>
<path d="M115.126 68.5954H25.6377V73.9269H115.126V68.5954Z" fill="#B9B5B7"/>
<path d="M110.701 51.6791L28.0226 85.9265L30.063 90.8523L112.742 56.6049L110.701 51.6791Z" fill="#B9B5B7"/>
<path d="M100.129 37.7332L36.8606 101.02L40.631 104.789L103.9 41.5026L100.129 37.7332Z" fill="#B9B5B7"/>
<path d="M85.0532 28.9127L50.788 111.582L55.7132 113.624L89.9785 30.9542L85.0532 28.9127Z" fill="#B9B5B7"/>
<path d="M70.5637 42.2819C54.9514 42.2819 42.2628 54.9514 42.2628 70.5636C42.2628 86.195 54.9323 98.8645 70.5637 98.8645C86.1951 98.8645 98.8645 86.195 98.8645 70.5636C98.8645 54.9514 86.1951 42.2819 70.5637 42.2819Z" fill="white"/>
<path d="M70.5636 11C37.6766 11 11 37.6766 11 70.5636C11 103.47 37.6766 130.146 70.5636 130.146C103.47 130.146 130.127 103.47 130.127 70.5636C130.146 37.6766 103.47 11 70.5636 11ZM70.5636 113.12C47.0592 113.12 28.0073 94.0681 28.0073 70.5636C28.0073 47.0592 47.0783 28.0264 70.5636 28.0264C94.0681 28.0264 113.12 47.0783 113.12 70.5828C113.12 94.0872 94.0681 113.12 70.5636 113.12Z" fill="#292325"/>
<path d="M89.4245 70.5636C89.4245 80.9782 80.9973 89.4054 70.5827 89.4054C60.1682 89.4054 51.741 80.9782 51.741 70.5636C51.741 60.1491 60.1682 51.7219 70.5827 51.7219C80.9782 51.7219 89.4245 60.1682 89.4245 70.5636Z" fill="#8C8788"/>
<path d="M82.1438 70.5636C82.1438 76.9461 76.9652 82.1248 70.5827 82.1248C64.2002 82.1248 59.0216 76.9461 59.0216 70.5636C59.0216 64.1811 64.2002 59.0025 70.5827 59.0025C76.9652 59.0025 82.1438 64.1811 82.1438 70.5636Z" fill="#524C4D"/>
</g>
<defs>
<clipPath id="clip0_2103_2381">
<rect width="121" height="121.325" fill="white" transform="translate(11 11)"/>
</clipPath>
</defs>
</svg>
