<svg width="143" height="143" viewBox="0 0 143 143" fill="none" xmlns="http://www.w3.org/2000/svg">
<circle cx="71.5" cy="71.5" r="71.5" fill="#D9D9D9"/>
<g clip-path="url(#clip0_511_2757)">
<g opacity="0.5">
<path d="M60.6453 78.4602C60.4299 78.8559 60.1839 79.2373 59.8607 79.5581C59.5376 79.8788 59.1534 80.123 58.7546 80.3368C59.7321 80.4389 60.6952 80.7293 61.5633 81.248C61.0408 80.3863 60.7482 79.432 60.6453 78.4602Z" fill="#4F5254"/>
<path d="M64.8125 86.3512C65.0296 85.9555 65.274 85.5741 65.5971 85.2533C65.9203 84.9326 66.3045 84.6884 66.7032 84.473C65.7257 84.3709 64.7627 84.082 63.8945 83.5634C64.4186 84.4251 64.7096 85.381 64.8125 86.3512Z" fill="#4F5254"/>
<path d="M72.5505 64.3361C71.9074 64.9744 71.5553 65.7723 71.163 66.5239C70.6405 67.5244 70.2932 69.2032 69.2144 70.2739C68.1357 71.3447 66.4443 71.6894 65.4363 72.208C64.6791 72.5989 63.8752 72.9468 63.2321 73.5851C60.917 75.883 60.917 79.6091 63.2321 81.907C65.5472 84.2049 69.3013 84.2049 71.6164 81.907C72.2595 81.2687 72.6115 80.4708 73.0038 79.7192C73.5263 78.7187 73.8736 77.0383 74.9524 75.9692C76.0312 74.8984 77.7225 74.5537 78.7305 74.0351C79.4878 73.6458 80.2916 73.2963 80.9347 72.658C83.2498 70.3601 83.2498 66.634 80.9347 64.3361C78.6196 62.0382 74.8656 62.0366 72.5505 64.3361ZM69.5183 79.8277C68.3607 80.9767 66.4829 80.9767 65.3254 79.8277C64.1678 78.6788 64.1678 76.8149 65.3254 75.666C66.4829 74.517 68.3607 74.517 69.5183 75.666C70.6759 76.8165 70.6759 78.6788 69.5183 79.8277ZM78.8382 70.5771C77.6807 71.7261 75.8029 71.7261 74.6453 70.5771C73.4878 69.4282 73.4878 67.5643 74.6453 66.4154C75.8029 65.2664 77.6807 65.2664 78.8382 66.4154C79.9958 67.5659 79.9958 69.4282 78.8382 70.5771Z" fill="#4F5254"/>
<path d="M53.8431 82.9028C53.2 83.5411 52.8479 84.339 52.4556 85.0906C51.9331 86.0911 51.5858 87.7698 50.5071 88.8406C49.4283 89.9114 47.737 90.256 46.7289 90.7747C45.9717 91.1656 45.1678 91.5135 44.5248 92.1518C42.2096 94.4497 42.2096 98.1758 44.5248 100.474C46.8399 102.772 50.5939 102.772 52.909 100.474C53.5521 99.8354 53.9042 99.0375 54.2965 98.2859C54.819 97.2854 55.1662 95.605 56.245 94.5359C57.3238 93.4651 59.0151 93.1204 60.0231 92.6018C60.7804 92.2124 61.5842 91.863 62.2273 91.2247C64.5424 88.9268 64.5424 85.2007 62.2273 82.9028C59.9122 80.6049 56.1598 80.6049 53.8431 82.9028ZM50.8125 98.396C49.655 99.545 47.7772 99.545 46.6196 98.396C45.4621 97.2471 45.4621 95.3832 46.6196 94.2343C47.7772 93.0853 49.655 93.0853 50.8125 94.2343C51.9701 95.3832 51.9701 97.2471 50.8125 98.396ZM60.1325 89.1454C58.9749 90.2943 57.0971 90.2943 55.9395 89.1454C54.782 87.9964 54.782 86.1326 55.9395 84.9836C57.0971 83.8347 58.9749 83.8347 60.1325 84.9836C61.29 86.1326 61.29 87.9964 60.1325 89.1454Z" fill="#4F5254"/>
<path d="M79.3126 59.9318C79.0971 60.3275 78.8511 60.7089 78.528 61.0297C78.2048 61.3504 77.8206 61.5946 77.4219 61.8084C78.3994 61.9105 79.3624 62.201 80.2306 62.7196C79.708 61.8579 79.4154 60.902 79.3126 59.9318Z" fill="#4F5254"/>
<path d="M83.4814 67.8228C83.6968 67.4271 83.9428 67.0457 84.2659 66.7249C84.5891 66.4042 84.9733 66.16 85.372 65.9462C84.3945 65.8441 83.4315 65.5553 82.5634 65.0366C83.0859 65.8967 83.3785 66.851 83.4814 67.8228Z" fill="#4F5254"/>
<path d="M91.2177 45.8061C90.5746 46.4444 90.2225 47.2423 89.8302 47.9939C89.3077 48.9944 88.9605 50.6748 87.8817 51.7439C86.8029 52.8147 85.1116 53.1594 84.1035 53.678C83.3463 54.069 82.5424 54.4168 81.8994 55.0551C79.5842 57.353 79.5842 61.0791 81.8994 63.377C84.2145 65.6749 87.9685 65.6749 90.2836 63.377C90.9283 62.7387 91.2788 61.9409 91.6711 61.1892C92.1936 60.1887 92.5408 58.5084 93.6196 57.4392C94.6984 56.3685 96.3897 56.0238 97.3978 55.5051C98.155 55.1142 98.9588 54.7663 99.6019 54.128C101.917 51.8301 101.917 48.104 99.6019 45.8061C97.2868 43.5082 93.5328 43.5082 91.2177 45.8061ZM88.1871 61.2994C87.0296 62.4483 85.1518 62.4483 83.9942 61.2994C82.8367 60.1504 82.8367 58.2866 83.9942 57.1376C85.1518 55.9887 87.0296 55.9887 88.1871 57.1376C89.3447 58.2866 89.3447 60.1504 88.1871 61.2994ZM97.5071 52.0487C96.3495 53.1977 94.4717 53.1977 93.3142 52.0487C92.1566 50.8998 92.1566 49.0359 93.3142 47.887C94.4717 46.738 96.3495 46.738 97.5071 47.887C98.6646 49.0359 98.6646 50.8998 97.5071 52.0487Z" fill="#4F5254"/>
<path d="M111.359 100.502C109.546 99.6407 108.779 97.4848 109.647 95.6848C109.888 95.1838 110.282 94.8199 110.641 94.4401C111.118 93.9359 112.026 93.3933 112.43 92.5539C112.833 91.7146 112.689 90.6725 112.787 89.988C112.859 89.4725 112.899 88.9395 113.139 88.4401C114.007 86.64 116.179 85.8789 117.993 86.7406C119.806 87.6023 120.573 89.7582 119.705 91.5582C119.464 92.0593 119.07 92.4231 118.713 92.8029C118.235 93.3071 117.327 93.8497 116.924 94.6891C116.52 95.5284 116.665 96.5705 116.567 97.2551C116.494 97.7705 116.454 98.3035 116.213 98.8029C115.346 100.603 113.173 101.364 111.359 100.502ZM115.637 91.6284C116.544 92.0593 117.631 91.6779 118.065 90.7779C118.499 89.8778 118.115 88.7991 117.208 88.3683C116.301 87.9374 115.215 88.3188 114.78 89.2188C114.348 90.1204 114.731 91.1975 115.637 91.6284ZM112.145 98.8732C113.052 99.304 114.139 98.9226 114.573 98.0226C115.007 97.1226 114.623 96.0439 113.716 95.613C112.809 95.1822 111.723 95.5635 111.288 96.4636C110.856 97.3636 111.239 98.4423 112.145 98.8732Z" fill="#4F5254"/>
<path d="M118.229 85.6938C116.229 85.4959 114.769 83.7262 114.968 81.7411C115.025 81.1889 115.269 80.7134 115.477 80.2362C115.753 79.5995 116.42 78.7841 116.513 77.8586C116.607 76.933 116.113 76.0027 115.97 75.3245C115.862 74.8154 115.716 74.3016 115.772 73.7495C115.972 71.7644 117.755 70.3154 119.755 70.5133C121.755 70.7112 123.214 72.4809 123.015 74.4676C122.959 75.0197 122.714 75.4952 122.507 75.9724C122.231 76.6075 121.563 77.4245 121.47 78.3501C121.377 79.2756 121.87 80.2059 122.013 80.8841C122.121 81.3932 122.268 81.907 122.211 82.4591C122.012 84.4427 120.229 85.8916 118.229 85.6938ZM119.213 75.9054C120.213 76.0043 121.105 75.2798 121.205 74.2873C121.304 73.2947 120.575 72.409 119.575 72.3101C118.575 72.2112 117.682 72.9356 117.583 73.9282C117.483 74.9208 118.213 75.8064 119.213 75.9054ZM118.409 83.8969C119.409 83.9959 120.301 83.2714 120.401 82.2788C120.501 81.2863 119.771 80.4006 118.771 80.3017C117.771 80.2027 116.878 80.9272 116.779 81.9198C116.679 82.9123 117.409 83.798 118.409 83.8969Z" fill="#4F5254"/>
<path d="M119.755 69.1425C117.798 69.6021 115.838 68.3989 115.375 66.4569C115.247 65.9175 115.322 65.3877 115.362 64.8691C115.414 64.1781 115.779 63.1903 115.563 62.2871C115.348 61.3823 114.576 60.6611 114.219 60.0658C113.951 59.619 113.644 59.1802 113.515 58.6408C113.052 56.6988 114.264 54.7535 116.219 54.294C118.176 53.8344 120.136 55.0376 120.599 56.9796C120.727 57.519 120.652 58.0488 120.612 58.5674C120.56 59.2584 120.195 60.2462 120.411 61.151C120.626 62.0557 121.398 62.777 121.755 63.3723C122.023 63.8191 122.33 64.2579 122.459 64.7973C122.922 66.7377 121.711 68.6845 119.755 69.1425ZM117.477 59.5696C118.454 59.3398 119.06 58.3679 118.83 57.3961C118.599 56.4259 117.618 55.8243 116.641 56.0541C115.663 56.2839 115.057 57.2557 115.288 58.2275C115.517 59.1977 116.497 59.7977 117.477 59.5696ZM119.337 67.3856C120.314 67.1558 120.92 66.184 120.689 65.2122C120.457 64.2419 119.478 63.6403 118.499 63.8701C117.522 64.0999 116.915 65.0717 117.147 66.0436C117.378 67.0138 118.358 67.6138 119.337 67.3856Z" fill="#4F5254"/>
<path d="M115.367 53.0429C113.694 54.1487 111.435 53.6971 110.321 52.0376C110.012 51.5764 109.896 51.0546 109.751 50.5535C109.559 49.8881 109.554 48.8365 109.036 48.0625C108.517 47.2886 107.541 46.8785 106.997 46.4444C106.589 46.1189 106.147 45.8125 105.838 45.3513C104.724 43.6901 105.178 41.4481 106.851 40.3422C108.525 39.2364 110.784 39.6864 111.898 41.3476C112.208 41.8087 112.322 42.3321 112.467 42.8316C112.66 43.497 112.665 44.5486 113.184 45.3226C113.703 46.0965 114.679 46.5066 115.223 46.9407C115.631 47.2662 116.073 47.5726 116.382 48.0338C117.494 49.695 117.041 51.937 115.367 53.0429ZM109.875 44.8534C110.711 44.3013 110.94 43.1795 110.382 42.3497C109.824 41.5199 108.695 41.2949 107.858 41.847C107.022 42.3992 106.793 43.521 107.351 44.3508C107.909 45.1822 109.039 45.4072 109.875 44.8534ZM114.359 51.5397C115.195 50.9875 115.424 49.8657 114.866 49.0343C114.309 48.2045 113.179 47.9795 112.342 48.5317C111.505 49.0838 111.277 50.2056 111.835 51.0354C112.393 51.8668 113.522 52.0918 114.359 51.5397Z" fill="#4F5254"/>
<path d="M106.03 39.4646C104.862 41.089 102.589 41.4672 100.952 40.3087C100.497 39.9864 100.203 39.5396 99.8881 39.1231C99.4685 38.5693 99.0875 37.5879 98.3254 37.0486C97.5633 36.5092 96.5039 36.4709 95.8399 36.2587C95.3415 36.0991 94.819 35.9682 94.364 35.6475C92.7273 34.489 92.3463 32.2326 93.5135 30.6081C94.6807 28.9836 96.954 28.6054 98.5907 29.7639C99.0457 30.0863 99.3399 30.5331 99.655 30.9496C100.075 31.5033 100.456 32.4847 101.218 33.0241C101.98 33.5634 103.039 33.6017 103.703 33.814C104.202 33.9735 104.724 34.1044 105.179 34.4251C106.816 35.5837 107.197 37.8401 106.03 39.4646ZM97.9588 33.7533C98.5424 32.9411 98.3527 31.8129 97.5328 31.2336C96.7145 30.6544 95.5778 30.8443 94.9942 31.6565C94.4106 32.4687 94.6019 33.5969 95.4203 34.1762C96.2402 34.7555 97.3769 34.5656 97.9588 33.7533ZM104.549 38.4145C105.132 37.6023 104.941 36.4741 104.123 35.8948C103.305 35.3156 102.168 35.5055 101.584 36.3177C101.001 37.13 101.192 38.2582 102.01 38.8374C102.829 39.4167 103.965 39.2284 104.549 38.4145Z" fill="#4F5254"/>
<path d="M91.9332 30.0017C91.3962 31.9246 89.3913 33.0512 87.4541 32.5198C86.9155 32.3714 86.4846 32.0522 86.0457 31.7682C85.4605 31.39 84.7643 30.5985 83.8608 30.3496C82.9589 30.1022 81.9492 30.4262 81.2531 30.4517C80.7306 30.4708 80.1936 30.5267 79.655 30.3783C77.7177 29.8453 76.5827 27.8554 77.118 25.9325C77.6534 24.0096 79.6598 22.8814 81.5971 23.4144C82.1357 23.5628 82.5666 23.8835 83.0055 24.166C83.5891 24.5442 84.2868 25.3357 85.1888 25.5846C86.0907 25.8336 87.1004 25.508 87.7965 25.4825C88.3206 25.4633 88.856 25.4075 89.3946 25.5559C91.3335 26.0873 92.4701 28.0788 91.9332 30.0017ZM82.3817 27.3767C82.6502 26.416 82.0811 25.4203 81.1132 25.1538C80.1454 24.8873 79.1422 25.4522 78.8737 26.4128C78.6052 27.3735 79.1727 28.3692 80.1422 28.6357C81.1116 28.9022 82.1132 28.3389 82.3817 27.3767ZM90.1791 29.5198C90.4476 28.5591 89.8785 27.5634 88.9106 27.2969C87.9412 27.0304 86.9396 27.5937 86.6711 28.5559C86.4026 29.5182 86.9701 30.5123 87.9396 30.7788C88.909 31.0453 89.9106 30.4804 90.1791 29.5198Z" fill="#4F5254"/>
<path d="M75.9701 25.8128C76.1019 27.8043 74.5826 29.523 72.5762 29.6538C72.0183 29.6905 71.5055 29.5277 70.9974 29.4033C70.3206 29.2373 69.3993 28.7171 68.4653 28.7793C67.5312 28.84 66.6855 29.4751 66.036 29.7272C65.5489 29.9171 65.0601 30.1437 64.5038 30.1804C62.4974 30.3113 60.7659 28.8033 60.6341 26.8118C60.5022 24.8203 62.0215 23.1016 64.028 22.9708C64.5858 22.9341 65.0987 23.0968 65.6067 23.2213C66.2836 23.3873 67.2048 23.9075 68.1389 23.8468C69.073 23.7862 69.9186 23.1511 70.5681 22.899C71.0569 22.7107 71.544 22.4825 72.1003 22.4458C74.1051 22.3133 75.8382 23.8213 75.9701 25.8128ZM66.0794 26.4575C66.0135 25.4618 65.1469 24.7086 64.1437 24.774C63.1405 24.8394 62.3817 25.6995 62.4476 26.6953C62.5135 27.691 63.38 28.4442 64.3833 28.3788C65.3865 28.3118 66.1453 27.4533 66.0794 26.4575ZM74.1534 25.9309C74.0874 24.9351 73.2209 24.182 72.2177 24.2458C71.2145 24.3112 70.4556 25.1713 70.5215 26.1671C70.5874 27.1628 71.454 27.916 72.4572 27.8506C73.4604 27.7852 74.2193 26.9267 74.1534 25.9309Z" fill="#4F5254"/>
<path d="M59.4846 27.2378C60.319 29.0538 59.5119 31.1953 57.6839 32.0235C57.1759 32.2533 56.6373 32.2836 56.118 32.3459C55.4251 32.4288 54.3785 32.2661 53.5264 32.6523C52.6743 33.0384 52.1116 33.9289 51.5939 34.3932C51.2048 34.7427 50.8302 35.1257 50.3222 35.3555C48.4926 36.1837 46.3351 35.3826 45.5007 33.5682C44.6662 31.7522 45.4733 29.6107 47.3013 28.7825C47.8093 28.5527 48.3479 28.524 48.8672 28.4602C49.5601 28.3772 50.6068 28.54 51.4589 28.1538C52.3109 27.7676 52.8736 26.8772 53.3913 26.4128C53.7804 26.0649 54.155 25.6804 54.663 25.4506C56.4926 24.6224 58.6502 25.4219 59.4846 27.2378ZM50.4669 31.3198C50.0505 30.4118 48.9701 30.0113 48.0569 30.4262C47.1421 30.8411 46.7386 31.9118 47.1566 32.8198C47.573 33.7278 48.6534 34.1283 49.5666 33.7134C50.4814 33.2985 50.8833 32.2278 50.4669 31.3198ZM57.8286 27.9862C57.4106 27.0783 56.3318 26.6777 55.4171 27.0926C54.5023 27.5059 54.0987 28.5783 54.5167 29.4847C54.9331 30.3927 56.0135 30.7932 56.9267 30.3783C57.8431 29.9666 58.245 28.8942 57.8286 27.9862Z" fill="#4F5254"/>
<path d="M44.2997 34.3948C45.7 35.8246 45.6678 38.1129 44.2273 39.5029C43.827 39.889 43.3302 40.0965 42.8624 40.3295C42.2386 40.639 41.1968 40.8369 40.5264 41.4848C39.8543 42.1327 39.6277 43.1603 39.2981 43.7699C39.0505 44.2279 38.8286 44.7146 38.4267 45.1008C36.9862 46.4907 34.6807 46.4588 33.2804 45.029C31.8785 43.5992 31.9122 41.3108 33.3527 39.9209C33.7531 39.5348 34.2498 39.3273 34.7177 39.0943C35.3415 38.7848 36.3833 38.5869 37.0537 37.939C37.7257 37.2911 37.9524 36.2635 38.282 35.6539C38.5296 35.1959 38.7514 34.7092 39.1534 34.323C40.5939 32.9315 42.8994 32.9634 44.2997 34.3948ZM37.1936 41.2518C36.4926 40.5369 35.3415 40.5194 34.6196 41.2151C33.8994 41.9109 33.8833 43.055 34.5842 43.7699C35.2852 44.4848 36.4363 44.5008 37.1566 43.8066C37.8785 43.1109 37.8945 41.9667 37.1936 41.2518ZM42.9942 35.6539C42.2933 34.939 41.1421 34.923 40.4203 35.6172C39.7 36.3129 39.6839 37.4571 40.3833 38.172C41.0842 38.8869 42.237 38.9028 42.9572 38.2087C43.6791 37.5129 43.6952 36.3688 42.9942 35.6539Z" fill="#4F5254"/>
<path d="M32.6598 46.3295C34.4653 47.2088 35.2097 49.3726 34.3238 51.1647C34.0778 51.6626 33.6807 52.0232 33.319 52.3998C32.8367 52.8993 31.9235 53.4338 31.5103 54.2684C31.0971 55.103 31.2322 56.1466 31.1277 56.8312C31.0505 57.3451 31.0055 57.878 30.7595 58.3759C29.8736 60.168 27.6936 60.9068 25.8881 60.0291C24.0843 59.1499 23.3383 56.986 24.2241 55.194C24.4701 54.6961 24.8672 54.3355 25.229 53.9604C25.7113 53.4594 26.6245 52.9264 27.0376 52.0918C27.4508 51.2572 27.3158 50.2136 27.4203 49.529C27.4974 49.0152 27.5425 48.4822 27.7884 47.9843C28.6743 46.1907 30.856 45.4503 32.6598 46.3295ZM28.2949 55.1605C27.3929 54.7216 26.3013 55.0902 25.8592 55.9871C25.4171 56.8823 25.7884 57.9658 26.692 58.4046C27.5939 58.8435 28.6839 58.4749 29.1277 57.578C29.5698 56.6828 29.1968 55.6009 28.2949 55.1605ZM31.8576 47.9508C30.9556 47.512 29.864 47.8806 29.4219 48.7774C28.9798 49.6726 29.3527 50.7546 30.2547 51.195C31.1566 51.6354 32.2466 51.2652 32.6904 50.3684C33.1325 49.4732 32.7611 48.3896 31.8576 47.9508Z" fill="#4F5254"/>
<path d="M25.4315 61.2962C27.438 61.427 28.9556 63.1488 28.8222 65.1404C28.7852 65.6941 28.5569 66.1776 28.3656 66.6611C28.1116 67.3058 27.4701 68.1436 27.409 69.0707C27.3463 69.9978 27.8704 70.9122 28.0376 71.5856C28.163 72.0915 28.3254 72.6005 28.2884 73.1527C28.155 75.1442 26.4219 76.6506 24.4154 76.5197C22.409 76.3873 20.8913 74.667 21.0248 72.6755C21.0617 72.1218 21.29 71.6383 21.4814 71.1548C21.7354 70.5101 22.3769 69.6723 22.438 68.7452C22.5007 67.818 21.9765 66.9037 21.8093 66.2303C21.6839 65.726 21.5216 65.2154 21.5585 64.6632C21.692 62.6717 23.4251 61.1637 25.4315 61.2962ZM24.7772 71.1117C23.774 71.0463 22.9074 71.7995 22.8415 72.7936C22.7756 73.7894 23.5344 74.6495 24.5376 74.7149C25.5408 74.7803 26.4074 74.0271 26.4733 73.0314C26.5392 72.0388 25.7788 71.1771 24.7772 71.1117ZM25.3109 63.0978C24.3077 63.0324 23.4412 63.7855 23.3753 64.7813C23.3093 65.7771 24.0682 66.6372 25.0714 66.7026C26.0746 66.768 26.9412 66.0148 27.0071 65.0191C27.073 64.0249 26.3142 63.1648 25.3109 63.0978Z" fill="#4F5254"/>
<path d="M24.2981 77.9016C26.2402 77.3878 28.2354 78.5336 28.7531 80.4612C28.8962 80.9974 28.8367 81.5272 28.8126 82.0474C28.7804 82.7384 28.4444 83.7373 28.6855 84.6358C28.9267 85.5342 29.7193 86.2331 30.0939 86.8172C30.3753 87.256 30.6952 87.6869 30.8383 88.2214C31.356 90.1491 30.2016 92.1295 28.2595 92.6433C26.3174 93.1571 24.3222 92.0114 23.8045 90.0837C23.6598 89.5475 23.7209 89.0177 23.745 88.4975C23.7772 87.8065 24.1132 86.8076 23.872 85.9092C23.6309 85.0108 22.8383 84.3118 22.4637 83.7278C22.1823 83.2889 21.8624 82.8581 21.7193 82.3235C21.2016 80.3958 22.3576 78.4155 24.2981 77.9016ZM26.8528 87.4076C25.8817 87.6645 25.3045 88.6539 25.5634 89.6177C25.8222 90.5816 26.819 91.1544 27.79 90.8975C28.7611 90.6406 29.3383 89.6512 29.0794 88.6874C28.8206 87.7236 27.8238 87.1507 26.8528 87.4076ZM24.7675 79.6474C23.7965 79.9043 23.2193 80.8937 23.4782 81.8591C23.737 82.823 24.7338 83.3959 25.7048 83.1389C26.6759 82.882 27.2531 81.8926 26.9942 80.9288C26.7354 79.9634 25.7386 79.3905 24.7675 79.6474Z" fill="#4F5254"/>
<path d="M28.8158 93.8465C30.4653 92.7055 32.7338 93.1093 33.8833 94.7465C34.2032 95.2013 34.3286 95.7215 34.483 96.2178C34.6904 96.8785 34.7177 97.9301 35.2531 98.6928C35.7884 99.4556 36.7724 99.845 37.3254 100.268C37.7402 100.585 38.1888 100.882 38.5071 101.337C39.6566 102.974 39.2499 105.226 37.6019 106.367C35.9524 107.508 33.6839 107.104 32.5344 105.467C32.2145 105.012 32.0891 104.492 31.9347 103.996C31.7273 103.335 31.7 102.283 31.1646 101.521C30.6293 100.758 29.6453 100.368 29.0923 99.9455C28.6775 99.6279 28.2289 99.3311 27.909 98.8763C26.7611 97.2391 27.1662 94.9875 28.8158 93.8465ZM34.4814 101.919C33.6566 102.489 33.454 103.616 34.028 104.434C34.6019 105.253 35.737 105.454 36.5617 104.884C37.3865 104.315 37.5891 103.188 37.0151 102.369C36.4396 101.551 35.3061 101.348 34.4814 101.919ZM29.856 95.329C29.0312 95.8987 28.8286 97.0253 29.4026 97.8439C29.9765 98.6625 31.1116 98.8636 31.9363 98.2939C32.7611 97.7242 32.9637 96.5976 32.3897 95.779C31.8158 94.9603 30.6807 94.7593 29.856 95.329Z" fill="#4F5254"/>
<path d="M38.4685 107.139C39.6518 105.526 41.9283 105.17 43.5537 106.344C44.0055 106.67 44.2949 107.122 44.6052 107.54C45.0184 108.097 45.3897 109.083 46.147 109.63C46.9042 110.178 47.9637 110.225 48.6245 110.446C49.1212 110.61 49.6421 110.746 50.0939 111.073C51.7193 112.247 52.0778 114.507 50.8946 116.12C49.7113 117.733 47.4348 118.089 45.8094 116.915C45.3576 116.588 45.0682 116.138 44.7579 115.72C44.3447 115.161 43.9733 114.176 43.2161 113.629C42.4589 113.082 41.3994 113.034 40.7386 112.814C40.2418 112.649 39.7209 112.514 39.2692 112.187C37.6438 111.011 37.2852 108.751 38.4685 107.139ZM46.4814 112.929C45.8897 113.736 46.0682 114.866 46.8817 115.453C47.6936 116.04 48.8319 115.863 49.4235 115.056C50.0151 114.25 49.8367 113.12 49.0232 112.533C48.2113 111.944 47.073 112.123 46.4814 112.929ZM39.9396 108.202C39.3479 109.008 39.5264 110.138 40.3399 110.726C41.1518 111.314 42.2901 111.135 42.8817 110.329C43.4733 109.523 43.2949 108.393 42.4814 107.806C41.6695 107.217 40.5312 107.396 39.9396 108.202Z" fill="#4F5254"/>
<path d="M52.3608 116.669C52.8752 114.74 54.8672 113.589 56.8093 114.1C57.3495 114.242 57.7836 114.556 58.2257 114.836C58.8141 115.207 59.5215 115.991 60.4267 116.229C61.3318 116.466 62.3366 116.13 63.0328 116.098C63.5553 116.072 64.0907 116.012 64.6309 116.154C66.5746 116.664 67.7338 118.641 67.2193 120.569C66.7048 122.498 64.7128 123.649 62.7707 123.138C62.2305 122.996 61.7965 122.68 61.3543 122.403C60.7659 122.032 60.0585 121.247 59.1534 121.01C58.2482 120.772 57.2434 121.107 56.5473 121.14C56.0247 121.166 55.4894 121.227 54.9492 121.085C53.0055 120.576 51.8463 118.598 52.3608 116.669ZM61.9428 119.182C61.6855 120.146 62.2659 121.136 63.237 121.391C64.208 121.646 65.2048 121.07 65.462 120.106C65.7193 119.143 65.1405 118.153 64.1678 117.898C63.1952 117.644 62.2 118.219 61.9428 119.182ZM54.1196 117.13C53.8624 118.094 54.4428 119.083 55.4138 119.339C56.3849 119.594 57.3817 119.018 57.6389 118.054C57.8961 117.09 57.3174 116.101 56.3447 115.846C55.372 115.59 54.3768 116.166 54.1196 117.13Z" fill="#4F5254"/>
<path d="M68.409 120.705C68.2321 118.718 69.7128 116.964 71.7144 116.789C72.2707 116.739 72.7884 116.891 73.2997 117.004C73.9813 117.154 74.9138 117.654 75.8463 117.572C76.7788 117.491 77.6083 116.837 78.253 116.57C78.737 116.371 79.2193 116.133 79.7755 116.083C81.7772 115.908 83.544 117.378 83.7209 119.364C83.8977 121.351 82.417 123.105 80.4154 123.28C79.8591 123.33 79.3431 123.178 78.8302 123.065C78.1485 122.915 77.2161 122.415 76.2836 122.497C75.3511 122.578 74.5199 123.232 73.8768 123.499C73.3929 123.698 72.9122 123.936 72.3543 123.986C70.3527 124.161 68.5858 122.691 68.409 120.705ZM78.282 119.84C78.3704 120.834 79.253 121.568 80.2546 121.48C81.2562 121.393 81.9958 120.516 81.9074 119.522C81.8189 118.528 80.9363 117.794 79.9347 117.882C78.9347 117.97 78.1935 118.846 78.282 119.84ZM70.2225 120.545C70.3109 121.539 71.1935 122.273 72.1952 122.186C73.1968 122.098 73.9363 121.222 73.8479 120.228C73.7595 119.233 72.8768 118.499 71.8752 118.587C70.8736 118.675 70.1341 119.551 70.2225 120.545Z" fill="#4F5254"/>
<path d="M85.0328 119.198C84.163 117.4 84.9267 115.242 86.7386 114.378C87.2418 114.138 87.7788 114.098 88.2981 114.025C88.9894 113.928 90.0392 114.07 90.8833 113.667C91.7273 113.265 92.2723 112.364 92.782 111.89C93.163 111.534 93.5296 111.143 94.0344 110.902C95.8463 110.039 98.0215 110.797 98.8897 112.595C99.7595 114.394 98.9958 116.553 97.1839 117.414C96.6807 117.654 96.1437 117.694 95.6244 117.767C94.9331 117.864 93.8833 117.722 93.0392 118.124C92.1952 118.527 91.6502 119.428 91.1405 119.904C90.7595 120.26 90.3913 120.65 89.8881 120.891C88.0778 121.755 85.9026 120.997 85.0328 119.198ZM93.9685 114.941C94.4026 115.841 95.491 116.219 96.3961 115.788C97.3013 115.357 97.6839 114.277 97.2498 113.379C96.8158 112.479 95.7273 112.1 94.8222 112.531C93.9154 112.964 93.5328 114.042 93.9685 114.941ZM86.6743 118.416C87.1084 119.316 88.1968 119.695 89.1019 119.264C90.0071 118.833 90.3897 117.753 89.9556 116.854C89.5215 115.954 88.4331 115.576 87.528 116.007C86.6212 116.438 86.2386 117.516 86.6743 118.416Z" fill="#4F5254"/>
<path d="M100.102 111.855C98.6775 110.446 98.6743 108.159 100.094 106.745C100.488 106.352 100.981 106.137 101.446 105.898C102.065 105.579 103.102 105.365 103.764 104.707C104.425 104.048 104.637 103.017 104.957 102.403C105.197 101.94 105.412 101.45 105.808 101.058C107.227 99.6455 109.531 99.6407 110.956 101.05C112.38 102.459 112.383 104.746 110.964 106.159C110.57 106.552 110.076 106.767 109.612 107.007C108.993 107.326 107.956 107.54 107.293 108.197C106.632 108.856 106.42 109.887 106.1 110.501C105.859 110.963 105.645 111.454 105.25 111.847C103.83 113.261 101.525 113.264 100.102 111.855ZM107.099 104.888C107.811 105.591 108.962 105.59 109.673 104.883C110.382 104.176 110.38 103.033 109.668 102.328C108.956 101.624 107.804 101.626 107.094 102.333C106.385 103.04 106.386 104.184 107.099 104.888ZM101.386 110.575C102.099 111.279 103.251 111.277 103.96 110.57C104.669 109.863 104.668 108.721 103.956 108.015C103.243 107.312 102.092 107.313 101.382 108.02C100.673 108.727 100.674 109.871 101.386 110.575Z" fill="#4F5254"/>
<g opacity="0.5">
<path d="M64.8125 86.3512C65.0296 85.9555 65.274 85.5741 65.5971 85.2533C65.9203 84.9326 66.3045 84.6884 66.7032 84.473C65.7257 84.3709 64.7627 84.082 63.8945 83.5634C64.4186 84.4251 64.7096 85.381 64.8125 86.3512Z" fill="#4F5254"/>
<path d="M74.9508 75.9692C76.0296 74.8984 77.7209 74.5537 78.729 74.0351C79.4862 73.6458 80.29 73.2963 80.9331 72.658C83.2402 70.3681 83.245 66.6643 80.9572 64.3632L78.8608 66.4441C79.9926 67.5946 79.9862 69.4361 78.8367 70.5771C77.6888 71.7165 75.8318 71.7229 74.6727 70.5994L69.5392 75.6947C70.6711 76.8453 70.6646 78.6868 69.5167 79.8277C68.3688 80.9687 66.5119 80.9735 65.3527 79.8517L63.2563 81.9325C65.5746 84.2049 69.3061 84.1985 71.6132 81.9086C72.2563 81.2703 72.6084 80.4724 73.0007 79.7208C73.5264 78.7187 73.872 77.0399 74.9508 75.9692Z" fill="#4F5254"/>
<path d="M56.245 94.5375C57.3238 93.4667 59.0151 93.122 60.0232 92.6034C60.7804 92.214 61.5843 91.8646 62.2274 91.2263C64.5344 88.9363 64.5393 85.2326 62.2515 82.9315L60.155 85.0124C61.2868 86.1629 61.2804 88.0044 60.1309 89.1454C58.983 90.2848 57.1261 90.2911 55.9669 89.1677L50.8335 94.263C51.9653 95.4135 51.9589 97.255 50.811 98.396C49.663 99.537 47.8061 99.5418 46.647 98.4199L44.5505 100.501C46.8688 102.773 50.6003 102.767 52.9074 100.477C53.5505 99.8386 53.9026 99.0407 54.2949 98.2891C54.819 97.287 55.1663 95.6082 56.245 94.5375Z" fill="#4F5254"/>
<path d="M83.4814 67.8228C83.6968 67.4271 83.9428 67.0457 84.2659 66.7249C84.5891 66.4042 84.9733 66.16 85.372 65.9462C84.3945 65.8441 83.4315 65.5552 82.5634 65.0366C83.0859 65.8967 83.3785 66.851 83.4814 67.8228Z" fill="#4F5254"/>
<path d="M93.6196 57.4408C94.6984 56.37 96.3897 56.0254 97.3978 55.5067C98.155 55.1158 98.9589 54.7679 99.602 54.1296C101.909 51.8397 101.914 48.1359 99.6261 45.8348L97.5296 47.9157C98.6614 49.0662 98.655 50.9094 97.5055 52.0487C96.356 53.1881 94.5007 53.1945 93.3415 52.0711L88.2081 57.1663C89.3399 58.3169 89.3335 60.1584 88.1856 61.2994C87.0377 62.4403 85.1807 62.4451 84.0216 61.3233L81.9251 63.4042C84.2434 65.6765 87.9749 65.6701 90.282 63.3802C90.9251 62.7419 91.2772 61.944 91.6695 61.1924C92.1936 60.1903 92.5409 58.5116 93.6196 57.4408Z" fill="#4F5254"/>
<path d="M111.359 100.502C109.546 99.6407 108.779 97.4848 109.647 95.6848C109.888 95.1837 110.282 94.8199 110.641 94.4401C111.118 93.9359 112.026 93.3933 112.43 92.5539C112.833 91.7146 112.689 90.6725 112.787 89.988C112.859 89.4725 112.899 88.9395 113.139 88.4401C114.007 86.64 116.179 85.8789 117.993 86.7406C119.806 87.6023 120.573 89.7582 119.705 91.5582C119.464 92.0592 119.07 92.4231 118.713 92.8029C118.235 93.3071 117.327 93.8497 116.924 94.6891C116.52 95.5284 116.665 96.5705 116.567 97.255C116.494 97.7705 116.454 98.3035 116.213 98.8029C115.346 100.603 113.173 101.364 111.359 100.502ZM115.637 91.6284C116.544 92.0592 117.631 91.6779 118.065 90.7778C118.499 89.8778 118.115 88.7991 117.208 88.3683C116.301 87.9374 115.215 88.3188 114.78 89.2188C114.348 90.1204 114.731 91.1975 115.637 91.6284ZM112.145 98.8731C113.052 99.304 114.139 98.9226 114.573 98.0226C115.007 97.1226 114.623 96.0439 113.716 95.613C112.809 95.1822 111.723 95.5635 111.288 96.4635C110.856 97.3636 111.239 98.4423 112.145 98.8731Z" fill="#4F5254"/>
<path d="M118.229 85.6938C116.229 85.4959 114.769 83.7262 114.969 81.7411C115.025 81.1889 115.269 80.7134 115.477 80.2362C115.753 79.5995 116.42 78.7841 116.514 77.8586C116.607 76.933 116.113 76.0027 115.97 75.3245C115.862 74.8154 115.716 74.3016 115.772 73.7495C115.972 71.7644 117.755 70.3154 119.755 70.5133C121.755 70.7112 123.215 72.4809 123.015 74.4676C122.959 75.0197 122.715 75.4952 122.507 75.9724C122.231 76.6075 121.563 77.4245 121.47 78.3501C121.377 79.2756 121.87 80.2059 122.014 80.8841C122.121 81.3932 122.268 81.907 122.211 82.4591C122.012 84.4427 120.229 85.8916 118.229 85.6938ZM119.213 75.9054C120.213 76.0043 121.105 75.2798 121.205 74.2873C121.305 73.2947 120.575 72.409 119.575 72.3101C118.575 72.2112 117.682 72.9356 117.583 73.9282C117.483 74.9208 118.213 75.8064 119.213 75.9054ZM118.409 83.8969C119.409 83.9959 120.301 83.2714 120.401 82.2788C120.501 81.2863 119.771 80.4006 118.771 80.3017C117.771 80.2027 116.879 80.9272 116.779 81.9198C116.679 82.9123 117.409 83.798 118.409 83.8969Z" fill="#4F5254"/>
<path d="M119.755 69.1425C117.798 69.6021 115.838 68.3989 115.375 66.4569C115.247 65.9175 115.322 65.3877 115.362 64.8691C115.414 64.1781 115.779 63.1903 115.563 62.2871C115.348 61.3823 114.576 60.6611 114.219 60.0658C113.951 59.619 113.644 59.1802 113.515 58.6408C113.052 56.6988 114.264 54.7535 116.219 54.294C118.176 53.8344 120.136 55.0376 120.599 56.9796C120.727 57.519 120.652 58.0488 120.612 58.5674C120.56 59.2584 120.195 60.2462 120.411 61.151C120.626 62.0557 121.398 62.777 121.755 63.3723C122.023 63.8191 122.33 64.2579 122.459 64.7973C122.922 66.7377 121.711 68.6845 119.755 69.1425ZM117.477 59.5696C118.454 59.3398 119.06 58.3679 118.83 57.3961C118.599 56.4259 117.618 55.8243 116.641 56.0541C115.663 56.2839 115.057 57.2557 115.288 58.2275C115.517 59.1977 116.497 59.7977 117.477 59.5696ZM119.337 67.3856C120.314 67.1558 120.92 66.184 120.689 65.2122C120.457 64.2419 119.478 63.6403 118.499 63.8701C117.522 64.0999 116.915 65.0717 117.147 66.0436C117.379 67.0138 118.358 67.6138 119.337 67.3856Z" fill="#4F5254"/>
<path d="M115.367 53.0429C113.694 54.1487 111.435 53.6971 110.321 52.0376C110.012 51.5764 109.896 51.0546 109.751 50.5535C109.559 49.8881 109.554 48.8365 109.036 48.0625C108.517 47.2886 107.541 46.8785 106.997 46.4444C106.589 46.1189 106.147 45.8125 105.838 45.3513C104.724 43.6901 105.178 41.4481 106.851 40.3422C108.525 39.2364 110.784 39.6864 111.898 41.3476C112.208 41.8087 112.322 42.3321 112.467 42.8316C112.66 43.497 112.665 44.5486 113.184 45.3226C113.703 46.0965 114.679 46.5066 115.223 46.9407C115.631 47.2662 116.073 47.5726 116.382 48.0338C117.494 49.695 117.041 51.937 115.367 53.0429ZM109.875 44.8534C110.711 44.3013 110.94 43.1795 110.382 42.3497C109.824 41.5199 108.695 41.2949 107.858 41.847C107.022 42.3992 106.793 43.521 107.351 44.3508C107.909 45.1822 109.039 45.4072 109.875 44.8534ZM114.359 51.5397C115.195 50.9875 115.424 49.8657 114.866 49.0343C114.309 48.2045 113.179 47.9795 112.342 48.5317C111.505 49.0838 111.277 50.2056 111.835 51.0354C112.393 51.8668 113.522 52.0918 114.359 51.5397Z" fill="#4F5254"/>
<path d="M38.4685 107.139C39.6518 105.526 41.9283 105.17 43.5537 106.345C44.0055 106.67 44.2949 107.122 44.6052 107.54C45.0184 108.097 45.3897 109.083 46.147 109.63C46.9042 110.178 47.9637 110.225 48.6245 110.446C49.1212 110.61 49.6421 110.746 50.0939 111.073C51.7193 112.247 52.0778 114.507 50.8946 116.12C49.7113 117.733 47.4348 118.089 45.8094 116.915C45.3576 116.588 45.0682 116.138 44.7579 115.72C44.3447 115.161 43.9733 114.176 43.2161 113.629C42.4589 113.082 41.3994 113.034 40.7386 112.814C40.2418 112.649 39.7209 112.514 39.2692 112.187C37.6438 111.011 37.2852 108.751 38.4685 107.139ZM46.4814 112.929C45.8897 113.736 46.0682 114.866 46.8817 115.453C47.6936 116.04 48.8319 115.863 49.4235 115.056C50.0151 114.25 49.8367 113.12 49.0232 112.533C48.2113 111.944 47.073 112.123 46.4814 112.929ZM39.9396 108.202C39.3479 109.008 39.5264 110.138 40.3399 110.726C41.1518 111.314 42.2901 111.135 42.8817 110.329C43.4733 109.523 43.2949 108.393 42.4814 107.806C41.6695 107.217 40.5312 107.396 39.9396 108.202Z" fill="#4F5254"/>
<path d="M52.3608 116.669C52.8753 114.74 54.8673 113.589 56.8094 114.1C57.3496 114.242 57.7837 114.556 58.2258 114.836C58.8142 115.207 59.5216 115.991 60.4267 116.229C61.3319 116.466 62.3367 116.13 63.0328 116.098C63.5554 116.072 64.0907 116.012 64.6309 116.154C66.5746 116.664 67.7338 118.641 67.2193 120.569C66.7049 122.498 64.7129 123.649 62.7708 123.138C62.2306 122.996 61.7965 122.68 61.3544 122.403C60.766 122.032 60.0586 121.247 59.1534 121.01C58.2483 120.772 57.2435 121.107 56.5473 121.14C56.0248 121.166 55.4894 121.227 54.9492 121.085C53.0055 120.575 51.8464 118.598 52.3608 116.669ZM61.9428 119.182C61.6856 120.146 62.266 121.136 63.237 121.391C64.2081 121.646 65.2049 121.07 65.4621 120.106C65.7193 119.143 65.1406 118.153 64.1679 117.898C63.1952 117.644 62.2001 118.219 61.9428 119.182ZM54.1197 117.13C53.8624 118.094 54.4428 119.083 55.4139 119.339C56.3849 119.594 57.3817 119.018 57.639 118.054C57.8962 117.09 57.3174 116.101 56.3447 115.846C55.3721 115.59 54.3769 116.166 54.1197 117.13Z" fill="#4F5254"/>
<path d="M68.409 120.705C68.2322 118.718 69.7129 116.964 71.7145 116.789C72.2708 116.739 72.7885 116.891 73.2997 117.004C73.9814 117.154 74.9139 117.654 75.8463 117.572C76.7788 117.491 77.6084 116.837 78.2531 116.57C78.737 116.371 79.2193 116.133 79.7756 116.083C81.7772 115.908 83.5441 117.378 83.7209 119.364C83.8978 121.351 82.4171 123.105 80.4155 123.28C79.8592 123.33 79.3431 123.178 78.8303 123.065C78.1486 122.915 77.2161 122.415 76.2836 122.497C75.3512 122.578 74.52 123.232 73.8769 123.499C73.393 123.698 72.9123 123.936 72.3544 123.986C70.3528 124.161 68.5859 122.691 68.409 120.705ZM78.282 119.84C78.3705 120.834 79.2531 121.568 80.2547 121.48C81.2563 121.393 81.9959 120.516 81.9074 119.522C81.819 118.528 80.9364 117.794 79.9348 117.882C78.9348 117.97 78.1936 118.846 78.282 119.84ZM70.2225 120.545C70.311 121.539 71.1936 122.273 72.1952 122.186C73.1968 122.098 73.9364 121.222 73.8479 120.228C73.7595 119.233 72.8769 118.499 71.8753 118.587C70.8737 118.675 70.1341 119.551 70.2225 120.545Z" fill="#4F5254"/>
<path d="M85.0328 119.198C84.163 117.4 84.9267 115.242 86.7386 114.378C87.2418 114.138 87.7788 114.098 88.2981 114.025C88.9894 113.928 90.0392 114.07 90.8833 113.667C91.7273 113.265 92.2723 112.364 92.782 111.89C93.163 111.534 93.5296 111.143 94.0344 110.902C95.8463 110.039 98.0215 110.797 98.8897 112.595C99.7595 114.394 98.9958 116.553 97.1839 117.414C96.6807 117.654 96.1437 117.694 95.6244 117.767C94.9331 117.864 93.8833 117.722 93.0392 118.124C92.1952 118.527 91.6502 119.428 91.1405 119.904C90.7595 120.26 90.3913 120.65 89.8881 120.891C88.0778 121.755 85.9026 120.997 85.0328 119.198ZM93.9685 114.941C94.4026 115.841 95.491 116.219 96.3961 115.788C97.3013 115.357 97.6839 114.277 97.2498 113.379C96.8158 112.479 95.7273 112.1 94.8222 112.531C93.9154 112.964 93.5328 114.042 93.9685 114.941ZM86.6743 118.416C87.1084 119.316 88.1968 119.695 89.1019 119.264C90.0071 118.833 90.3897 117.753 89.9556 116.854C89.5215 115.954 88.4331 115.576 87.528 116.007C86.6212 116.438 86.2386 117.516 86.6743 118.416Z" fill="#4F5254"/>
<path d="M100.102 111.855C98.6775 110.446 98.6743 108.159 100.094 106.745C100.488 106.352 100.981 106.137 101.446 105.898C102.065 105.579 103.102 105.365 103.764 104.707C104.425 104.048 104.637 103.017 104.957 102.403C105.197 101.94 105.412 101.45 105.808 101.058C107.227 99.6455 109.531 99.6407 110.956 101.05C112.38 102.459 112.383 104.746 110.964 106.159C110.57 106.552 110.076 106.767 109.612 107.007C108.993 107.326 107.956 107.54 107.293 108.197C106.633 108.856 106.42 109.887 106.1 110.501C105.859 110.963 105.645 111.454 105.25 111.847C103.83 113.261 101.525 113.264 100.102 111.855ZM107.099 104.888C107.811 105.591 108.962 105.59 109.673 104.883C110.382 104.176 110.38 103.033 109.668 102.328C108.956 101.624 107.805 101.626 107.094 102.333C106.385 103.04 106.387 104.184 107.099 104.888ZM101.387 110.575C102.099 111.279 103.251 111.277 103.96 110.57C104.669 109.863 104.668 108.721 103.956 108.015C103.243 107.312 102.092 107.313 101.382 108.02C100.673 108.727 100.674 109.871 101.387 110.575Z" fill="#4F5254"/>
</g>
</g>
<path d="M59.6287 77.024C59.4132 77.4197 59.1672 77.8011 58.8441 78.1219C58.5209 78.4426 58.1367 78.6868 57.738 78.9006C58.7155 79.0027 59.6785 79.2932 60.5467 79.8118C60.0241 78.9501 59.7315 77.9958 59.6287 77.024Z" fill="#F4B400"/>
<path d="M63.7959 84.915C64.0129 84.5193 64.2573 84.1379 64.5804 83.8171C64.9036 83.4964 65.2878 83.2522 65.6866 83.0368C64.7091 82.9347 63.746 82.6459 62.8779 82.1272C63.402 82.9889 63.693 83.9448 63.7959 84.915Z" fill="#F4B400"/>
<path d="M71.5338 62.8999C70.8907 63.5382 70.5386 64.3361 70.1463 65.0877C69.6238 66.0882 69.2766 67.767 68.1978 68.8377C67.119 69.9085 65.4277 70.2532 64.4196 70.7718C63.6624 71.1628 62.8585 71.5106 62.2155 72.1489C59.9003 74.4468 59.9003 78.1729 62.2155 80.4708C64.5306 82.7687 68.2846 82.7687 70.5997 80.4708C71.2428 79.8325 71.5949 79.0346 71.9872 78.283C72.5097 77.2825 72.8569 75.6022 73.9357 74.533C75.0145 73.4622 76.7058 73.1176 77.7139 72.5989C78.4711 72.2096 79.275 71.8601 79.918 71.2218C82.2331 68.9239 82.2331 65.1978 79.918 62.8999C77.6029 60.602 73.8489 60.6004 71.5338 62.8999ZM68.5016 78.3915C67.3441 79.5405 65.4663 79.5405 64.3087 78.3915C63.1512 77.2426 63.1512 75.3788 64.3087 74.2298C65.4663 73.0809 67.3441 73.0809 68.5016 74.2298C69.6592 75.3803 69.6592 77.2426 68.5016 78.3915ZM77.8216 69.1409C76.664 70.2899 74.7862 70.2899 73.6286 69.1409C72.4711 67.992 72.4711 66.1281 73.6286 64.9792C74.7862 63.8302 76.664 63.8302 77.8216 64.9792C78.9791 66.1297 78.9791 67.992 77.8216 69.1409Z" fill="#F4B400"/>
<path d="M52.8264 81.4666C52.1833 82.1049 51.8312 82.9028 51.4389 83.6544C50.9164 84.6549 50.5692 86.3337 49.4904 87.4044C48.4116 88.4752 46.7203 88.8199 45.7122 89.3385C44.955 89.7294 44.1511 90.0773 43.5081 90.7156C41.193 93.0135 41.193 96.7396 43.5081 99.0375C45.8232 101.335 49.5772 101.335 51.8923 99.0375C52.5354 98.3992 52.8875 97.6013 53.2798 96.8497C53.8023 95.8492 54.1495 94.1688 55.2283 93.0997C56.3071 92.0289 57.9984 91.6842 59.0065 91.1656C59.7637 90.7763 60.5675 90.4268 61.2106 89.7885C63.5257 87.4906 63.5257 83.7645 61.2106 81.4666C58.8955 79.1687 55.1431 79.1687 52.8264 81.4666ZM49.7958 96.9598C48.6383 98.1088 46.7605 98.1088 45.6029 96.9598C44.4454 95.8109 44.4454 93.947 45.6029 92.7981C46.7605 91.6491 48.6383 91.6491 49.7958 92.7981C50.9534 93.947 50.9534 95.8109 49.7958 96.9598ZM59.1158 87.7092C57.9582 88.8582 56.0804 88.8582 54.9229 87.7092C53.7653 86.5603 53.7653 84.6964 54.9229 83.5475C56.0804 82.3985 57.9582 82.3985 59.1158 83.5475C60.2733 84.6964 60.2733 86.5603 59.1158 87.7092Z" fill="#F4B400"/>
<path d="M78.2958 58.4956C78.0804 58.8913 77.8344 59.2727 77.5113 59.5935C77.1881 59.9142 76.8039 60.1584 76.4052 60.3722C77.3826 60.4743 78.3457 60.7648 79.2138 61.2834C78.6913 60.4217 78.3987 59.4658 78.2958 58.4956Z" fill="#F4B400"/>
<path d="M82.4646 66.3866C82.6801 65.9909 82.9261 65.6095 83.2492 65.2888C83.5724 64.968 83.9566 64.7239 84.3553 64.51C83.3778 64.4079 82.4148 64.1191 81.5466 63.6004C82.0691 64.4606 82.3617 65.4148 82.4646 66.3866Z" fill="#F4B400"/>
<path d="M90.201 44.3699C89.5579 45.0082 89.2058 45.8061 88.8136 46.5577C88.2911 47.5583 87.9438 49.2386 86.865 50.3078C85.7862 51.3785 84.0949 51.7232 83.0869 52.2418C82.3296 52.6328 81.5258 52.9807 80.8827 53.619C78.5676 55.9169 78.5676 59.643 80.8827 61.9408C83.1978 64.2387 86.9518 64.2387 89.2669 61.9408C89.9116 61.3025 90.2621 60.5047 90.6544 59.7531C91.1769 58.7525 91.5242 57.0722 92.603 56.003C93.6817 54.9323 95.3731 54.5876 96.3811 54.069C97.1383 53.678 97.9422 53.3301 98.5853 52.6918C100.9 50.3939 100.9 46.6678 98.5853 44.3699C96.2702 42.072 92.5161 42.072 90.201 44.3699ZM87.1705 59.8632C86.0129 61.0121 84.1351 61.0121 82.9776 59.8632C81.82 58.7142 81.82 56.8504 82.9776 55.7014C84.1351 54.5525 86.0129 54.5525 87.1705 55.7014C88.328 56.8504 88.328 58.7142 87.1705 59.8632ZM96.4904 50.6125C95.3329 51.7615 93.455 51.7615 92.2975 50.6125C91.1399 49.4636 91.1399 47.5997 92.2975 46.4508C93.455 45.3018 95.3329 45.3018 96.4904 46.4508C97.648 47.5997 97.648 49.4636 96.4904 50.6125Z" fill="#F4B400"/>
<path d="M110.342 99.0662C108.529 98.2045 107.762 96.0486 108.63 94.2486C108.871 93.7476 109.265 93.3837 109.624 93.0039C110.101 92.4997 111.01 91.9571 111.413 91.1177C111.817 90.2784 111.672 89.2363 111.77 88.5518C111.842 88.0363 111.883 87.5033 112.122 87.0039C112.99 85.2039 115.162 84.4427 116.976 85.3044C118.789 86.1661 119.556 88.322 118.688 90.122C118.447 90.6231 118.053 90.9869 117.696 91.3667C117.219 91.8709 116.31 92.4135 115.907 93.2529C115.503 94.0922 115.648 95.1343 115.55 95.8189C115.478 96.3343 115.437 96.8673 115.196 97.3667C114.33 99.1668 112.156 99.9279 110.342 99.0662ZM114.621 90.1922C115.527 90.6231 116.614 90.2417 117.048 89.3417C117.482 88.4417 117.098 87.3629 116.191 86.9321C115.285 86.5012 114.198 86.8826 113.764 87.7826C113.331 88.6842 113.714 89.7613 114.621 90.1922ZM111.129 97.437C112.035 97.8678 113.122 97.4864 113.556 96.5864C113.99 95.6864 113.606 94.6077 112.699 94.1768C111.793 93.746 110.706 94.1273 110.272 95.0274C109.839 95.9274 110.222 97.0061 111.129 97.437Z" fill="#4F5254"/>
<path d="M117.212 84.2576C115.212 84.0597 113.752 82.29 113.952 80.3049C114.008 79.7527 114.252 79.2772 114.46 78.8001C114.736 78.1633 115.404 77.3479 115.497 76.4224C115.59 75.4968 115.097 74.5665 114.953 73.8883C114.846 73.3793 114.699 72.8654 114.756 72.3133C114.955 70.3282 116.738 68.8792 118.738 69.0771C120.738 69.275 122.198 71.0447 121.998 73.0314C121.942 73.5835 121.698 74.0591 121.49 74.5362C121.214 75.1713 120.547 75.9883 120.453 76.9139C120.36 77.8394 120.854 78.7697 120.997 79.4479C121.105 79.957 121.251 80.4708 121.195 81.023C120.995 83.0065 119.212 84.4554 117.212 84.2576ZM118.196 74.4692C119.196 74.5681 120.088 73.8436 120.188 72.8511C120.288 71.8585 119.558 70.9729 118.558 70.8739C117.558 70.775 116.666 71.4994 116.566 72.492C116.466 73.4846 117.196 74.3702 118.196 74.4692ZM117.392 82.4607C118.392 82.5597 119.285 81.8352 119.384 80.8426C119.484 79.8501 118.754 78.9644 117.754 78.8655C116.754 78.7665 115.862 79.491 115.762 80.4836C115.662 81.4762 116.392 82.3618 117.392 82.4607Z" fill="#4F5254"/>
<path d="M118.738 67.7063C116.781 68.1659 114.822 66.9627 114.358 65.0207C114.23 64.4813 114.305 63.9515 114.346 63.4329C114.397 62.7419 114.762 61.7541 114.547 60.8509C114.331 59.9461 113.559 59.2249 113.203 58.6296C112.934 58.1828 112.627 57.744 112.498 57.2046C112.035 55.2626 113.248 53.3174 115.203 52.8578C117.159 52.3982 119.119 53.6014 119.582 55.5434C119.711 56.0828 119.635 56.6126 119.595 57.1312C119.543 57.8222 119.178 58.81 119.394 59.7148C119.609 60.6196 120.381 61.3408 120.738 61.9361C121.006 62.3829 121.313 62.8217 121.442 63.3611C121.905 65.3015 120.695 67.2484 118.738 67.7063ZM116.46 58.1334C117.437 57.9036 118.043 56.9318 117.813 55.9599C117.582 54.9897 116.601 54.3881 115.624 54.6179C114.646 54.8477 114.04 55.8195 114.272 56.7913C114.5 57.7615 115.481 58.3616 116.46 58.1334ZM118.32 65.9494C119.297 65.7196 119.904 64.7478 119.672 63.776C119.44 62.8058 118.461 62.2041 117.482 62.4339C116.505 62.6637 115.899 63.6355 116.13 64.6074C116.362 65.5776 117.341 66.1776 118.32 65.9494Z" fill="#4F5254"/>
<path d="M114.351 51.6067C112.677 52.7126 110.418 52.261 109.304 50.6014C108.995 50.1402 108.879 49.6184 108.735 49.1173C108.542 48.4519 108.537 47.4003 108.019 46.6263C107.5 45.8524 106.524 45.4423 105.981 45.0082C105.572 44.6827 105.13 44.3763 104.822 43.9151C103.707 42.2539 104.161 40.0119 105.834 38.906C107.508 37.8002 109.767 38.2502 110.881 39.9114C111.191 40.3725 111.305 40.8959 111.45 41.3954C111.643 42.0609 111.648 43.1125 112.167 43.8864C112.687 44.6603 113.662 45.0705 114.206 45.5045C114.614 45.83 115.056 46.1364 115.365 46.5976C116.478 48.2588 116.024 50.5008 114.351 51.6067ZM108.859 43.4172C109.695 42.8651 109.923 41.7433 109.365 40.9135C108.807 40.0837 107.678 39.8587 106.841 40.4108C106.005 40.963 105.777 42.0848 106.334 42.9146C106.892 43.746 108.023 43.971 108.859 43.4172ZM113.342 50.1035C114.178 49.5514 114.407 48.4295 113.849 47.5981C113.293 46.7683 112.162 46.5433 111.325 47.0955C110.489 47.6476 110.26 48.7694 110.818 49.5992C111.376 50.4306 112.505 50.6556 113.342 50.1035Z" fill="#4F5254"/>
<path d="M105.013 38.0284C103.846 39.6529 101.572 40.031 99.9357 38.8725C99.4807 38.5502 99.1865 38.1034 98.8714 37.6869C98.4518 37.1331 98.0707 36.1518 97.3087 35.6124C96.5466 35.073 95.4871 35.0347 94.8232 34.8225C94.3248 34.6629 93.8023 34.5321 93.3473 34.2113C91.7106 33.0528 91.3296 30.7964 92.4968 29.1719C93.664 27.5474 95.9373 27.1692 97.574 28.3277C98.0289 28.6501 98.3232 29.0969 98.6383 29.5134C99.0579 30.0671 99.4389 31.0485 100.201 31.5879C100.963 32.1272 102.023 32.1655 102.686 32.3778C103.185 32.5374 103.707 32.6682 104.162 32.989C105.799 34.1475 106.18 36.4039 105.013 38.0284ZM96.9421 32.3171C97.5257 31.5049 97.336 30.3767 96.5161 29.7974C95.6978 29.2182 94.5611 29.4081 93.9775 30.2203C93.3939 31.0325 93.5852 32.1608 94.4035 32.74C95.2235 33.3193 96.3601 33.1294 96.9421 32.3171ZM103.532 36.9784C104.116 36.1661 103.924 35.0379 103.106 34.4586C102.288 33.8794 101.151 34.0693 100.568 34.8815C99.9839 35.6938 100.175 36.822 100.994 37.4012C101.812 37.9805 102.949 37.7922 103.532 36.9784Z" fill="#4F5254"/>
<path d="M90.9164 28.5655C90.3795 30.4884 88.3746 31.615 86.4373 31.0836C85.8987 30.9352 85.4679 30.6161 85.029 30.332C84.4438 29.9538 83.7476 29.1623 82.8441 28.9134C81.9422 28.666 80.9325 28.99 80.2364 29.0155C79.7139 29.0347 79.1769 29.0905 78.6383 28.9421C76.701 28.4091 75.5659 26.4192 76.1013 24.4963C76.6367 22.5734 78.6431 21.4452 80.5804 21.9782C81.119 22.1266 81.5499 22.4474 81.9888 22.7298C82.5724 23.108 83.2701 23.8995 84.1721 24.1484C85.074 24.3974 86.0836 24.0718 86.7798 24.0463C87.3039 24.0272 87.8393 23.9713 88.3778 24.1197C90.3167 24.6511 91.4534 26.6426 90.9164 28.5655ZM81.365 25.9405C81.6335 24.9798 81.0643 23.9841 80.0965 23.7176C79.1286 23.4511 78.1254 24.016 77.8569 24.9766C77.5885 25.9373 78.156 26.933 79.1254 27.1995C80.0949 27.466 81.0965 26.9027 81.365 25.9405ZM89.1624 28.0836C89.4309 27.1229 88.8618 26.1272 87.8939 25.8607C86.9245 25.5942 85.9229 26.1575 85.6544 27.1197C85.3859 28.082 85.9534 29.0761 86.9229 29.3426C87.8923 29.6091 88.8939 29.0442 89.1624 28.0836Z" fill="#4F5254"/>
<path d="M74.9534 24.3766C75.0852 26.3681 73.5659 28.0868 71.5595 28.2176C71.0016 28.2543 70.4887 28.0916 69.9807 27.9671C69.3038 27.8011 68.3826 27.2809 67.4485 27.3432C66.5145 27.4038 65.6688 28.0389 65.0193 28.291C64.5321 28.4809 64.0434 28.7075 63.4871 28.7442C61.4807 28.8751 59.7492 27.3671 59.6173 25.3756C59.4855 23.3841 61.0048 21.6654 63.0112 21.5346C63.5691 21.4979 64.082 21.6606 64.59 21.7851C65.2669 21.9511 66.1881 22.4713 67.1222 22.4107C68.0563 22.35 68.9019 21.7149 69.5514 21.4628C70.0402 21.2745 70.5273 21.0463 71.0836 21.0096C73.0884 20.8771 74.8215 22.3851 74.9534 24.3766ZM65.0627 25.0213C64.9968 24.0256 64.1302 23.2724 63.127 23.3378C62.1238 23.4032 61.3649 24.2633 61.4309 25.2591C61.4968 26.2548 62.3633 27.008 63.3665 26.9426C64.3698 26.8756 65.1286 26.0171 65.0627 25.0213ZM73.1366 24.4947C73.0707 23.499 72.2042 22.7458 71.2009 22.8096C70.1977 22.875 69.4389 23.7351 69.5048 24.7309C69.5707 25.7266 70.4373 26.4798 71.4405 26.4144C72.4437 26.349 73.2026 25.4905 73.1366 24.4947Z" fill="#4F5254"/>
<path d="M58.4679 25.8016C59.3023 27.6176 58.4952 29.7591 56.6672 30.5873C56.1592 30.8171 55.6206 30.8474 55.1013 30.9097C54.4084 30.9927 53.3617 30.8299 52.5097 31.2161C51.6576 31.6022 51.0949 32.4927 50.5772 32.957C50.1881 33.3065 49.8135 33.6895 49.3055 33.9193C47.4759 34.7475 45.3183 33.9464 44.4839 32.132C43.6495 30.3161 44.4566 28.1745 46.2846 27.3463C46.7926 27.1166 47.3312 27.0878 47.8505 27.024C48.5434 26.941 49.59 27.1038 50.4421 26.7176C51.2942 26.3314 51.8569 25.441 52.3746 24.9766C52.7637 24.6288 53.1383 24.2442 53.6463 24.0144C55.4759 23.1862 57.6334 23.9857 58.4679 25.8016ZM49.4502 29.8836C49.0338 28.9756 47.9534 28.5751 47.0402 28.99C46.1254 29.4049 45.7219 30.4756 46.1399 31.3836C46.5563 32.2916 47.6367 32.6921 48.5498 32.2772C49.4646 31.8623 49.8666 30.7916 49.4502 29.8836ZM56.8119 26.5501C56.3939 25.6421 55.3151 25.2415 54.4003 25.6564C53.4855 26.0697 53.082 27.1421 53.5 28.0485C53.9164 28.9565 54.9968 29.357 55.91 28.9421C56.8264 28.5304 57.2283 27.458 56.8119 26.5501Z" fill="#4F5254"/>
<path d="M43.283 32.9586C44.6833 34.3884 44.6511 36.6768 43.2106 38.0667C42.8103 38.4528 42.3135 38.6603 41.8457 38.8933C41.2219 39.2028 40.1801 39.4007 39.5096 40.0486C38.8376 40.6965 38.6109 41.7241 38.2814 42.3337C38.0338 42.7917 37.8119 43.2784 37.41 43.6646C35.9695 45.0545 33.664 45.0226 32.2637 43.5928C30.8617 42.163 30.8955 39.8747 32.336 38.4848C32.7363 38.0986 33.2331 37.8911 33.701 37.6581C34.3248 37.3486 35.3666 37.1507 36.037 36.5028C36.7074 35.8549 36.9357 34.8273 37.2653 34.2177C37.5129 33.7597 37.7347 33.273 38.1367 32.8868C39.5772 31.4953 41.8826 31.5272 43.283 32.9586ZM36.1768 39.8156C35.4759 39.1007 34.3248 39.0832 33.6029 39.7789C32.8826 40.4747 32.8666 41.6188 33.5675 42.3337C34.2685 43.0486 35.4196 43.0646 36.1399 42.3704C36.8617 41.6747 36.8778 40.5305 36.1768 39.8156ZM41.9775 34.2177C41.2765 33.5028 40.1254 33.4868 39.4035 34.181C38.6833 34.8767 38.6672 36.0209 39.3666 36.7358C40.0675 37.4507 41.2203 37.4667 41.9405 36.7725C42.6624 36.0767 42.6785 34.9326 41.9775 34.2177Z" fill="#4F5254"/>
<path d="M31.6431 44.8933C33.4486 45.7726 34.1929 47.9364 33.3071 49.7285C33.0611 50.2264 32.664 50.587 32.3023 50.9636C31.8199 51.4631 30.9068 51.9977 30.4936 52.8322C30.0804 53.6668 30.2154 54.7105 30.1109 55.395C30.0338 55.9089 29.9888 56.4419 29.7428 56.9397C28.8569 58.7318 26.6769 59.4706 24.8714 58.5929C23.0675 57.7137 22.3216 55.5498 23.2074 53.7578C23.4534 53.2599 23.8505 52.8993 24.2122 52.5243C24.6945 52.0232 25.6077 51.4902 26.0209 50.6556C26.4341 49.821 26.299 48.7774 26.4035 48.0928C26.4807 47.579 26.5257 47.046 26.7717 46.5481C27.6576 44.7545 29.8392 44.0141 31.6431 44.8933ZM27.2781 53.7243C26.3762 53.2854 25.2846 53.6541 24.8425 54.5509C24.4003 55.4461 24.7717 56.5296 25.6753 56.9685C26.5772 57.4073 27.6672 57.0387 28.1109 56.1419C28.5531 55.2466 28.1801 54.1647 27.2781 53.7243ZM30.8408 46.5146C29.9389 46.0758 28.8473 46.4444 28.4052 47.3412C27.963 48.2365 28.336 49.3184 29.238 49.7588C30.1399 50.1992 31.2299 49.829 31.6736 48.9322C32.1158 48.037 31.7444 46.9535 30.8408 46.5146Z" fill="#4F5254"/>
<path d="M24.4148 59.86C26.4212 59.9908 27.9389 61.7126 27.8055 63.7042C27.7685 64.2579 27.5402 64.7414 27.3489 65.2249C27.0949 65.8696 26.4534 66.7074 26.3923 67.6345C26.3296 68.5617 26.8537 69.476 27.0209 70.1494C27.1463 70.6553 27.3087 71.1643 27.2717 71.7165C27.1383 73.708 25.4052 75.2144 23.3987 75.0835C21.3923 74.9511 19.8746 73.2309 20.008 71.2393C20.045 70.6856 20.2733 70.2021 20.4646 69.7186C20.7187 69.0739 21.3601 68.2361 21.4212 67.309C21.4839 66.3818 20.9598 65.4675 20.7926 64.7941C20.6672 64.2898 20.5048 63.7792 20.5418 63.227C20.6752 61.2355 22.4084 59.7275 24.4148 59.86ZM23.7605 69.6755C22.7572 69.6101 21.8907 70.3633 21.8248 71.3574C21.7588 72.3532 22.5177 73.2133 23.5209 73.2787C24.5241 73.3442 25.3907 72.591 25.4566 71.5952C25.5225 70.5994 24.7621 69.7409 23.7605 69.6755ZM24.2942 61.6616C23.291 61.5962 22.4244 62.3494 22.3585 63.3451C22.2926 64.3409 23.0515 65.201 24.0547 65.2664C25.0579 65.3318 25.9244 64.5786 25.9904 63.5829C26.0563 62.5871 25.2974 61.7286 24.2942 61.6616Z" fill="#4F5254"/>
<path d="M23.2814 76.4655C25.2235 75.9516 27.2187 77.0974 27.7363 79.0251C27.8794 79.5612 27.8199 80.091 27.7958 80.6113C27.7637 81.3022 27.4277 82.3012 27.6688 83.1996C27.91 84.098 28.7026 84.7969 29.0772 85.381C29.3585 85.8198 29.6785 86.2507 29.8216 86.7853C30.3392 88.7129 29.1849 90.6933 27.2428 91.2071C25.3007 91.7209 23.3055 90.5752 22.7878 88.6475C22.6431 88.1113 22.7042 87.5815 22.7283 87.0613C22.7605 86.3704 23.0965 85.3714 22.8553 84.473C22.6142 83.5746 21.8216 82.8756 21.447 82.2916C21.1656 81.8528 20.8457 81.4219 20.7026 80.8873C20.1849 78.9596 21.3409 76.9793 23.2814 76.4655ZM25.836 85.9714C24.865 86.2283 24.2878 87.2177 24.5466 88.1815C24.8055 89.1454 25.8023 89.7183 26.7733 89.4613C27.7444 89.2044 28.3216 88.2151 28.0627 87.2512C27.8039 86.2874 26.8071 85.7145 25.836 85.9714ZM23.7508 78.2112C22.7798 78.4681 22.2026 79.4575 22.4614 80.423C22.7203 81.3868 23.7171 81.9597 24.6881 81.7028C25.6592 81.4458 26.2363 80.4565 25.9775 79.4926C25.7187 78.5272 24.7219 77.9543 23.7508 78.2112Z" fill="#4F5254"/>
<path d="M27.799 92.4103C29.4486 91.2693 31.717 91.6731 32.8666 93.3103C33.1865 93.7651 33.3119 94.2853 33.4662 94.7816C33.6736 95.4423 33.701 96.4939 34.2363 97.2566C34.7717 98.0194 35.7556 98.4088 36.3087 98.8317C36.7235 99.1492 37.172 99.446 37.4904 99.9008C38.6399 101.538 38.2331 103.79 36.5852 104.931C34.9357 106.072 32.6672 105.668 31.5177 104.031C31.1978 103.576 31.0724 103.056 30.918 102.559C30.7106 101.899 30.6833 100.847 30.1479 100.084C29.6125 99.3216 28.6286 98.9322 28.0756 98.5093C27.6608 98.1918 27.2122 97.8949 26.8923 97.4401C25.7444 95.8029 26.1495 93.5513 27.799 92.4103ZM33.4646 100.483C32.6399 101.053 32.4373 102.18 33.0113 102.998C33.5852 103.817 34.7203 104.018 35.545 103.448C36.3698 102.879 36.5724 101.752 35.9984 100.933C35.4228 100.115 34.2894 99.912 33.4646 100.483ZM28.8392 93.8928C28.0145 94.4625 27.8119 95.5891 28.3859 96.4077C28.9598 97.2263 30.0949 97.4274 30.9196 96.8577C31.7444 96.288 31.947 95.1614 31.373 94.3428C30.799 93.5241 29.664 93.3231 28.8392 93.8928Z" fill="#4F5254"/>
<path d="M37.4518 105.703C38.6351 104.09 40.9116 103.734 42.537 104.908C42.9888 105.234 43.2782 105.685 43.5884 106.104C44.0016 106.66 44.373 107.647 45.1302 108.194C45.8875 108.741 46.947 108.789 47.6077 109.009C48.1045 109.174 48.6254 109.309 49.0772 109.637C50.7026 110.811 51.0611 113.071 49.8778 114.684C48.6946 116.297 46.418 116.653 44.7926 115.479C44.3409 115.152 44.0515 114.701 43.7412 114.283C43.328 113.725 42.9566 112.74 42.1994 112.193C41.4421 111.646 40.3827 111.598 39.7219 111.378C39.2251 111.213 38.7042 111.078 38.2524 110.75C36.627 109.574 36.2685 107.315 37.4518 105.703ZM45.4647 111.492C44.873 112.3 45.0515 113.43 45.865 114.017C46.6769 114.604 47.8151 114.427 48.4068 113.62C48.9984 112.814 48.82 111.684 48.0065 111.097C47.1946 110.508 46.0563 110.687 45.4647 111.492ZM38.9228 106.766C38.3312 107.572 38.5097 108.701 39.3232 109.29C40.1351 109.878 41.2733 109.699 41.865 108.893C42.4566 108.087 42.2782 106.957 41.4647 106.37C40.6528 105.781 39.5145 105.96 38.9228 106.766Z" fill="#4F5254"/>
<path d="M51.344 115.233C51.8585 113.304 53.8505 112.153 55.7926 112.664C56.3328 112.806 56.7669 113.12 57.209 113.399C57.7974 113.771 58.5048 114.555 59.41 114.792C60.3151 115.03 61.3199 114.694 62.0161 114.662C62.5386 114.636 63.0739 114.575 63.6141 114.717C65.5579 115.228 66.717 117.205 66.2026 119.133C65.6881 121.062 63.6961 122.213 61.754 121.702C61.2138 121.56 60.7797 121.244 60.3376 120.966C59.7492 120.596 59.0418 119.811 58.1366 119.573C57.2315 119.336 56.2267 119.671 55.5305 119.704C55.008 119.73 54.4727 119.79 53.9325 119.648C51.9887 119.139 50.8296 117.162 51.344 115.233ZM60.926 117.746C60.6688 118.71 61.2492 119.699 62.2202 119.955C63.1913 120.21 64.1881 119.634 64.4453 118.67C64.7026 117.706 64.1238 116.717 63.1511 116.462C62.1784 116.208 61.1833 116.782 60.926 117.746ZM53.1029 115.694C52.8456 116.658 53.426 117.647 54.3971 117.903C55.3682 118.158 56.3649 117.582 56.6222 116.618C56.8794 115.654 56.3006 114.665 55.328 114.409C54.3553 114.154 53.3601 114.73 53.1029 115.694Z" fill="#4F5254"/>
<path d="M67.3923 119.269C67.2155 117.282 68.6962 115.528 70.6978 115.353C71.2541 115.303 71.7717 115.455 72.283 115.568C72.9647 115.718 73.8971 116.217 74.8296 116.136C75.7621 116.055 76.5917 115.4 77.2364 115.134C77.7203 114.934 78.2026 114.697 78.7589 114.647C80.7605 114.472 82.5274 115.941 82.7042 117.928C82.8811 119.915 81.4004 121.669 79.3988 121.844C78.8425 121.894 78.3264 121.742 77.8135 121.629C77.1319 121.479 76.1994 120.979 75.2669 121.061C74.3344 121.142 73.5033 121.796 72.8602 122.063C72.3762 122.262 71.8955 122.5 71.3377 122.549C69.3361 122.725 67.5692 121.255 67.3923 119.269ZM77.2653 118.404C77.3537 119.398 78.2364 120.132 79.238 120.044C80.2396 119.956 80.9791 119.08 80.8907 118.086C80.8023 117.092 79.9197 116.358 78.918 116.446C77.918 116.533 77.1769 117.41 77.2653 118.404ZM69.2058 119.109C69.2942 120.103 70.1769 120.837 71.1785 120.749C72.1801 120.662 72.9196 119.786 72.8312 118.791C72.7428 117.797 71.8602 117.063 70.8586 117.151C69.8569 117.239 69.1174 118.115 69.2058 119.109Z" fill="#4F5254"/>
<path d="M84.0161 117.762C83.1463 115.964 83.91 113.806 85.7219 112.941C86.2251 112.702 86.7621 112.662 87.2813 112.589C87.9727 112.491 89.0225 112.633 89.8666 112.231C90.7106 111.829 91.2556 110.928 91.7653 110.454C92.1463 110.098 92.5129 109.707 93.0177 109.466C94.8296 108.603 97.0048 109.36 97.873 111.159C98.7428 112.957 97.9791 115.116 96.1672 115.978C95.664 116.217 95.127 116.257 94.6077 116.331C93.9164 116.428 92.8666 116.286 92.0225 116.688C91.1785 117.09 90.6334 117.992 90.1238 118.467C89.7428 118.823 89.3746 119.214 88.8714 119.455C87.0611 120.319 84.8858 119.561 84.0161 117.762ZM92.9518 113.505C93.3858 114.405 94.4743 114.783 95.3794 114.352C96.2846 113.921 96.6672 112.841 96.2331 111.942C95.799 111.042 94.7106 110.664 93.8055 111.095C92.8987 111.528 92.5161 112.606 92.9518 113.505ZM85.6576 116.98C86.0916 117.88 87.1801 118.258 88.0852 117.828C88.9903 117.397 89.373 116.316 88.9389 115.418C88.5048 114.518 87.4164 114.14 86.5113 114.571C85.6045 115.002 85.2219 116.08 85.6576 116.98Z" fill="#4F5254"/>
<path d="M99.0852 110.418C97.6608 109.009 97.6575 106.723 99.0772 105.309C99.471 104.916 99.9646 104.701 100.429 104.462C101.048 104.142 102.085 103.929 102.748 103.271C103.408 102.612 103.621 101.581 103.94 100.967C104.18 100.504 104.395 100.014 104.791 99.6216C106.211 98.2093 108.514 98.2045 109.939 99.6136C111.363 101.023 111.367 103.309 109.947 104.723C109.553 105.116 109.059 105.331 108.595 105.571C107.976 105.89 106.939 106.104 106.277 106.761C105.616 107.42 105.404 108.451 105.084 109.065C104.842 109.526 104.629 110.018 104.233 110.41C102.813 111.824 100.508 111.828 99.0852 110.418ZM106.082 103.451C106.794 104.155 107.945 104.154 108.656 103.447C109.365 102.74 109.363 101.597 108.651 100.892C107.939 100.188 106.788 100.19 106.077 100.897C105.368 101.603 105.37 102.748 106.082 103.451ZM100.37 109.139C101.082 109.842 102.235 109.841 102.944 109.134C103.653 108.427 103.651 107.284 102.939 106.579C102.227 105.875 101.076 105.877 100.365 106.584C99.6559 107.291 99.6575 108.435 100.37 109.139Z" fill="#4F5254"/>
<g opacity="0.5">
<path d="M63.7958 84.915C64.0129 84.5193 64.2572 84.1379 64.5804 83.8171C64.9035 83.4964 65.2878 83.2522 65.6865 83.0368C64.709 82.9347 63.746 82.6459 62.8778 82.1272C63.4019 82.9889 63.6929 83.9448 63.7958 84.915Z" fill="#F4B400"/>
<path d="M73.9341 74.533C75.0129 73.4622 76.7042 73.1176 77.7122 72.5989C78.4695 72.2096 79.2733 71.8601 79.9164 71.2218C82.2235 68.9319 82.2283 65.2281 79.9405 62.927L77.8441 65.0079C78.9759 66.1584 78.9695 67.9999 77.8199 69.1409C76.672 70.2803 74.8151 70.2867 73.656 69.1633L68.5225 74.2585C69.6544 75.4091 69.6479 77.2506 68.5 78.3915C67.3521 79.5325 65.4952 79.5373 64.336 78.4155L62.2396 80.4964C64.5579 82.7687 68.2894 82.7623 70.5965 80.4724C71.2396 79.8341 71.5917 79.0362 71.9839 78.2846C72.5097 77.2825 72.8553 75.6038 73.9341 74.533Z" fill="#F4B400"/>
<path d="M55.2283 93.1013C56.3071 92.0305 57.9984 91.6858 59.0065 91.1672C59.7637 90.7778 60.5675 90.4284 61.2106 89.7901C63.5177 87.5001 63.5225 83.7964 61.2347 81.4953L59.1383 83.5762C60.2701 84.7267 60.2637 86.5682 59.1142 87.7092C57.9663 88.8486 56.1093 88.8549 54.9502 87.7315L49.8167 92.8268C50.9486 93.9773 50.9421 95.8189 49.7942 96.9598C48.6463 98.1008 46.7894 98.1056 45.6302 96.9838L43.5338 99.0646C45.8521 101.337 49.5836 101.331 51.8907 99.0407C52.5338 98.4024 52.8859 97.6045 53.2782 96.8529C53.8023 95.8508 54.1495 94.172 55.2283 93.1013Z" fill="#F4B400"/>
<path d="M82.4646 66.3866C82.6801 65.9909 82.9261 65.6095 83.2492 65.2888C83.5724 64.968 83.9566 64.7239 84.3553 64.51C83.3778 64.4079 82.4148 64.1191 81.5466 63.6004C82.0691 64.4605 82.3617 65.4148 82.4646 66.3866Z" fill="#F4B400"/>
<path d="M92.6029 56.0046C93.6817 54.9339 95.373 54.5892 96.3811 54.0706C97.1383 53.6796 97.9421 53.3317 98.5852 52.6934C100.892 50.4035 100.897 46.6997 98.6094 44.3986L96.5129 46.4795C97.6447 47.6301 97.6383 49.4732 96.4888 50.6125C95.3393 51.7519 93.4839 51.7583 92.3248 50.6349L87.1913 55.7301C88.3232 56.8807 88.3167 58.7222 87.1688 59.8632C86.0209 61.0041 84.164 61.0089 83.0049 59.8871L80.9084 61.968C83.2267 64.2403 86.9582 64.234 89.2653 61.944C89.9084 61.3057 90.2605 60.5079 90.6528 59.7562C91.1769 58.7541 91.5241 57.0754 92.6029 56.0046Z" fill="#F4B400"/>
<path d="M110.342 99.0662C108.529 98.2045 107.762 96.0486 108.63 94.2486C108.871 93.7476 109.265 93.3837 109.624 93.0039C110.101 92.4997 111.01 91.9571 111.413 91.1177C111.817 90.2784 111.672 89.2363 111.77 88.5518C111.842 88.0363 111.883 87.5033 112.122 87.0039C112.99 85.2039 115.162 84.4427 116.976 85.3044C118.789 86.1661 119.556 88.322 118.688 90.122C118.447 90.6231 118.053 90.9869 117.696 91.3667C117.219 91.8709 116.31 92.4135 115.907 93.2529C115.503 94.0922 115.648 95.1343 115.55 95.8189C115.478 96.3343 115.437 96.8673 115.196 97.3667C114.33 99.1668 112.156 99.9279 110.342 99.0662ZM114.621 90.1922C115.527 90.6231 116.614 90.2417 117.048 89.3417C117.482 88.4417 117.098 87.3629 116.191 86.9321C115.285 86.5012 114.198 86.8826 113.764 87.7826C113.331 88.6842 113.714 89.7613 114.621 90.1922ZM111.129 97.437C112.035 97.8678 113.122 97.4864 113.556 96.5864C113.99 95.6864 113.606 94.6077 112.699 94.1768C111.793 93.746 110.706 94.1273 110.272 95.0274C109.839 95.9274 110.222 97.0061 111.129 97.437Z" fill="#4F5254"/>
<path d="M117.212 84.2576C115.212 84.0597 113.752 82.29 113.952 80.3049C114.008 79.7527 114.252 79.2772 114.46 78.8001C114.736 78.1634 115.404 77.3479 115.497 76.4224C115.59 75.4968 115.097 74.5665 114.953 73.8883C114.846 73.3793 114.699 72.8654 114.756 72.3133C114.955 70.3282 116.738 68.8792 118.738 69.0771C120.738 69.275 122.198 71.0447 121.998 73.0314C121.942 73.5835 121.698 74.0591 121.49 74.5362C121.214 75.1713 120.547 75.9883 120.453 76.9139C120.36 77.8394 120.854 78.7697 120.997 79.4479C121.105 79.957 121.251 80.4708 121.195 81.023C120.995 83.0065 119.212 84.4554 117.212 84.2576ZM118.196 74.4692C119.196 74.5681 120.088 73.8436 120.188 72.8511C120.288 71.8585 119.558 70.9729 118.558 70.8739C117.558 70.775 116.666 71.4995 116.566 72.492C116.466 73.4846 117.196 74.3702 118.196 74.4692ZM117.392 82.4607C118.392 82.5597 119.285 81.8352 119.384 80.8426C119.484 79.8501 118.754 78.9644 117.754 78.8655C116.754 78.7666 115.862 79.491 115.762 80.4836C115.662 81.4762 116.392 82.3618 117.392 82.4607Z" fill="#4F5254"/>
<path d="M118.738 67.7063C116.781 68.1659 114.822 66.9627 114.359 65.0207C114.23 64.4813 114.306 63.9515 114.346 63.4329C114.397 62.7419 114.762 61.7541 114.547 60.8509C114.331 59.9461 113.56 59.2249 113.203 58.6296C112.934 58.1828 112.627 57.744 112.498 57.2046C112.035 55.2626 113.248 53.3174 115.203 52.8578C117.159 52.3982 119.119 53.6014 119.582 55.5434C119.711 56.0828 119.635 56.6126 119.595 57.1312C119.543 57.8222 119.178 58.81 119.394 59.7148C119.609 60.6196 120.381 61.3408 120.738 61.9361C121.006 62.3829 121.314 62.8217 121.442 63.3611C121.905 65.3015 120.695 67.2483 118.738 67.7063ZM116.46 58.1334C117.437 57.9036 118.043 56.9318 117.814 55.9599C117.582 54.9897 116.601 54.3881 115.624 54.6179C114.646 54.8477 114.04 55.8195 114.272 56.7913C114.5 57.7615 115.481 58.3616 116.46 58.1334ZM118.32 65.9494C119.297 65.7196 119.904 64.7478 119.672 63.776C119.441 62.8057 118.461 62.2041 117.482 62.4339C116.505 62.6637 115.899 63.6355 116.13 64.6074C116.362 65.5776 117.341 66.1776 118.32 65.9494Z" fill="#4F5254"/>
<path d="M114.351 51.6067C112.677 52.7126 110.418 52.261 109.304 50.6014C108.995 50.1402 108.879 49.6184 108.735 49.1173C108.542 48.4519 108.537 47.4003 108.019 46.6263C107.5 45.8524 106.524 45.4423 105.981 45.0082C105.572 44.6827 105.13 44.3763 104.822 43.9151C103.707 42.2539 104.161 40.0119 105.834 38.906C107.508 37.8002 109.767 38.2502 110.881 39.9114C111.191 40.3725 111.305 40.8959 111.45 41.3954C111.643 42.0609 111.648 43.1125 112.167 43.8864C112.687 44.6603 113.662 45.0705 114.206 45.5045C114.614 45.83 115.056 46.1364 115.365 46.5976C116.478 48.2588 116.024 50.5008 114.351 51.6067ZM108.859 43.4172C109.695 42.8651 109.923 41.7433 109.365 40.9135C108.807 40.0837 107.678 39.8587 106.841 40.4108C106.005 40.963 105.777 42.0848 106.334 42.9146C106.892 43.746 108.023 43.971 108.859 43.4172ZM113.342 50.1035C114.178 49.5514 114.407 48.4295 113.849 47.5981C113.293 46.7683 112.162 46.5433 111.325 47.0955C110.489 47.6476 110.26 48.7694 110.818 49.5992C111.376 50.4306 112.505 50.6556 113.342 50.1035Z" fill="#4F5254"/>
<path d="M37.4518 105.703C38.6351 104.09 40.9116 103.734 42.537 104.908C42.9888 105.234 43.2782 105.685 43.5884 106.104C44.0016 106.66 44.373 107.647 45.1302 108.194C45.8875 108.741 46.947 108.789 47.6077 109.009C48.1045 109.174 48.6254 109.309 49.0772 109.637C50.7026 110.811 51.0611 113.071 49.8778 114.684C48.6946 116.297 46.418 116.653 44.7926 115.479C44.3409 115.152 44.0515 114.702 43.7412 114.283C43.328 113.725 42.9566 112.74 42.1994 112.193C41.4421 111.646 40.3827 111.598 39.7219 111.378C39.2251 111.213 38.7042 111.078 38.2524 110.75C36.627 109.574 36.2685 107.315 37.4518 105.703ZM45.4647 111.492C44.873 112.3 45.0515 113.43 45.865 114.017C46.6769 114.604 47.8151 114.427 48.4068 113.62C48.9984 112.814 48.82 111.684 48.0065 111.097C47.1946 110.508 46.0563 110.687 45.4647 111.492ZM38.9228 106.766C38.3312 107.572 38.5097 108.701 39.3232 109.29C40.1351 109.878 41.2733 109.699 41.865 108.893C42.4566 108.087 42.2782 106.957 41.4647 106.37C40.6528 105.781 39.5145 105.96 38.9228 106.766Z" fill="#4F5254"/>
<path d="M51.3441 115.233C51.8586 113.304 53.8505 112.153 55.7927 112.664C56.3328 112.806 56.7669 113.12 57.2091 113.399C57.7975 113.771 58.5049 114.555 59.41 114.792C60.3152 115.03 61.32 114.694 62.0161 114.662C62.5386 114.636 63.074 114.575 63.6142 114.717C65.5579 115.228 66.7171 117.205 66.2026 119.133C65.6882 121.062 63.6962 122.213 61.7541 121.702C61.2139 121.56 60.7798 121.244 60.3377 120.966C59.7492 120.596 59.0418 119.811 58.1367 119.573C57.2316 119.336 56.2267 119.671 55.5306 119.704C55.0081 119.73 54.4727 119.79 53.9325 119.648C51.9888 119.139 50.8296 117.162 51.3441 115.233ZM60.9261 117.746C60.6689 118.71 61.2492 119.699 62.2203 119.955C63.1914 120.21 64.1882 119.634 64.4454 118.67C64.7026 117.706 64.1238 116.717 63.1512 116.462C62.1785 116.208 61.1833 116.782 60.9261 117.746ZM53.1029 115.694C52.8457 116.658 53.4261 117.647 54.3972 117.903C55.3682 118.158 56.365 117.582 56.6222 116.618C56.8795 115.654 56.3007 114.665 55.328 114.409C54.3554 114.154 53.3602 114.73 53.1029 115.694Z" fill="#4F5254"/>
<path d="M67.3923 119.269C67.2155 117.282 68.6962 115.528 70.6978 115.353C71.2541 115.303 71.7717 115.455 72.283 115.568C72.9647 115.718 73.8971 116.217 74.8296 116.136C75.7621 116.055 76.5917 115.4 77.2364 115.134C77.7203 114.934 78.2026 114.697 78.7589 114.647C80.7605 114.472 82.5274 115.941 82.7042 117.928C82.8811 119.915 81.4004 121.669 79.3988 121.844C78.8425 121.894 78.3264 121.742 77.8135 121.629C77.1319 121.479 76.1994 120.979 75.2669 121.061C74.3344 121.142 73.5033 121.796 72.8602 122.063C72.3762 122.262 71.8955 122.5 71.3377 122.549C69.3361 122.725 67.5692 121.255 67.3923 119.269ZM77.2653 118.404C77.3537 119.398 78.2364 120.132 79.238 120.044C80.2396 119.956 80.9791 119.08 80.8907 118.086C80.8023 117.092 79.9197 116.358 78.918 116.446C77.918 116.533 77.1769 117.41 77.2653 118.404ZM69.2058 119.109C69.2942 120.103 70.1769 120.837 71.1785 120.749C72.1801 120.662 72.9196 119.786 72.8312 118.791C72.7428 117.797 71.8602 117.063 70.8586 117.151C69.8569 117.239 69.1174 118.115 69.2058 119.109Z" fill="#4F5254"/>
<path d="M84.0161 117.762C83.1463 115.964 83.91 113.806 85.7219 112.941C86.2251 112.702 86.7621 112.662 87.2813 112.589C87.9727 112.491 89.0225 112.633 89.8666 112.231C90.7106 111.829 91.2556 110.928 91.7653 110.454C92.1463 110.098 92.5129 109.707 93.0177 109.466C94.8296 108.603 97.0048 109.36 97.873 111.159C98.7428 112.957 97.9791 115.116 96.1672 115.978C95.664 116.217 95.127 116.257 94.6077 116.331C93.9164 116.428 92.8666 116.286 92.0225 116.688C91.1785 117.09 90.6334 117.992 90.1238 118.467C89.7428 118.823 89.3746 119.214 88.8714 119.455C87.0611 120.319 84.8858 119.561 84.0161 117.762ZM92.9518 113.505C93.3858 114.405 94.4743 114.783 95.3794 114.352C96.2846 113.921 96.6672 112.841 96.2331 111.942C95.799 111.042 94.7106 110.664 93.8055 111.095C92.8987 111.528 92.5161 112.606 92.9518 113.505ZM85.6576 116.98C86.0916 117.88 87.1801 118.258 88.0852 117.828C88.9903 117.397 89.373 116.316 88.9389 115.418C88.5048 114.518 87.4164 114.14 86.5113 114.571C85.6045 115.002 85.2219 116.08 85.6576 116.98Z" fill="#4F5254"/>
<path d="M99.0853 110.418C97.6608 109.009 97.6576 106.723 99.0772 105.309C99.4711 104.916 99.9647 104.701 100.429 104.462C101.048 104.142 102.085 103.929 102.748 103.271C103.408 102.612 103.621 101.581 103.941 100.967C104.18 100.504 104.396 100.014 104.791 99.6216C106.211 98.2093 108.515 98.2045 109.939 99.6136C111.363 101.023 111.367 103.309 109.947 104.723C109.553 105.116 109.06 105.331 108.595 105.571C107.976 105.89 106.939 106.104 106.277 106.761C105.616 107.42 105.404 108.451 105.084 109.065C104.842 109.526 104.629 110.018 104.233 110.41C102.814 111.824 100.508 111.828 99.0853 110.418ZM106.082 103.451C106.794 104.155 107.945 104.154 108.656 103.447C109.365 102.74 109.363 101.597 108.651 100.892C107.939 100.188 106.788 100.19 106.077 100.897C105.368 101.603 105.37 102.748 106.082 103.451ZM100.37 109.139C101.082 109.842 102.235 109.841 102.944 109.134C103.653 108.427 103.651 107.284 102.939 106.579C102.227 105.875 101.076 105.877 100.365 106.584C99.656 107.291 99.6576 108.435 100.37 109.139Z" fill="#4F5254"/>
</g>
</g>
<defs>
<clipPath id="clip0_511_2757">
<rect width="107" height="103" fill="white" transform="translate(20 21)"/>
</clipPath>
</defs>
</svg>
