<svg width="143" height="143" viewBox="0 0 143 143" fill="none" xmlns="http://www.w3.org/2000/svg">
<circle cx="71.5" cy="71.5" r="71.5" fill="#D9D9D9"/>
<g opacity="0.5">
<path d="M90.5907 87.158V84.9885H86.9874C86.9404 83.6048 86.8031 82.2445 86.5826 80.9114L90.1733 80.1834L89.7414 78.0573L86.1544 78.7852C85.8436 77.481 85.4514 76.2075 84.9834 74.9719L88.2994 73.5846L87.4609 71.5831L84.1431 72.9704C83.6046 71.7999 82.9938 70.6672 82.3197 69.5798L85.3593 67.5476L84.1521 65.743L81.1144 67.7734C80.332 66.6859 79.4808 65.6508 78.5701 64.6736L81.118 62.1247L79.582 60.5911L77.034 63.1381C76.0456 62.2169 74.9975 61.357 73.897 60.5676L75.9082 57.5346L74.0975 56.3352L72.0899 59.3645C70.9496 58.66 69.7624 58.0278 68.5317 57.4714L69.8961 54.1458L67.8884 53.3221L66.5241 56.6477C65.3368 56.2087 64.1152 55.8384 62.8629 55.544L63.5677 52.0016L61.439 51.5789L60.736 55.1195C59.4223 54.9045 58.0796 54.7708 56.7153 54.7257V51.1237H54.545V54.7257C53.1788 54.7726 51.8325 54.9063 50.517 55.1213L49.8032 51.606L47.6763 52.0377L48.3901 55.5458C47.0673 55.8583 45.777 56.2539 44.5265 56.7272L43.1387 53.4124L41.1364 54.2506L42.5243 57.5672C41.3587 58.1037 40.2311 58.7088 39.1469 59.3808L37.1645 56.4183L35.3592 57.625L37.3398 60.5857C36.2465 61.3715 35.2056 62.2241 34.2244 63.1399L31.6764 60.5929L30.1404 62.1265L32.6884 64.6754C31.7613 65.6671 30.8975 66.7202 30.106 67.8258L27.1479 65.8676L25.9498 67.6776L28.9043 69.634C28.205 70.7684 27.5743 71.9498 27.0214 73.1763L23.6945 71.8125L22.8669 73.8176L26.1937 75.1815C25.7492 76.3845 25.3733 77.6237 25.0769 78.89L21.611 78.2018L21.1881 80.3297L24.6559 81.018C24.4463 82.3168 24.3144 83.6409 24.2692 84.9867H20.6641V87.1562H24.2674C24.3144 88.5489 24.4535 89.92 24.6758 91.2603L21.2116 91.963L21.6435 94.0891L25.1059 93.3865C25.4149 94.6817 25.8052 95.9461 26.2696 97.1727L22.9536 98.56L23.7921 100.562L27.1099 99.1742C27.6593 100.368 28.2809 101.521 28.9712 102.628L26.0257 104.597L27.2328 106.402L30.1819 104.429C30.9536 105.495 31.7884 106.51 32.6847 107.469L30.1368 110.018L31.6728 111.552L34.2208 109.005C35.2363 109.951 36.3134 110.833 37.4482 111.64L35.4803 114.61L37.291 115.808L39.2607 112.836C40.3721 113.517 41.5286 114.129 42.7267 114.671L41.3623 117.997L43.37 118.821L44.7343 115.495C45.9613 115.95 47.2263 116.33 48.5202 116.63L47.8226 120.141L49.9514 120.564L50.6507 117.045C51.9247 117.247 53.224 117.374 54.5432 117.419V121.021H56.7135V117.419C58.123 117.37 59.5108 117.231 60.8697 117.002L61.589 120.539L63.7159 120.107L62.9967 116.568C64.2761 116.261 65.523 115.874 66.7355 115.417L68.1233 118.732L70.1256 117.894L68.7378 114.577C69.9376 114.027 71.096 113.4 72.2073 112.708L74.2277 115.728L76.0329 114.521L74.0072 111.498C75.0679 110.73 76.0799 109.897 77.034 109.006L79.582 111.554L81.118 110.02L78.5701 107.471C79.5134 106.461 80.3916 105.388 81.1957 104.261L84.2425 106.279L85.4406 104.469L82.392 102.451C83.0769 101.335 83.6931 100.173 84.2371 98.9719L87.5639 100.336L88.3879 98.3288L85.0611 96.965C85.5092 95.7529 85.8851 94.5064 86.1833 93.2311L89.7739 93.9446L90.1968 91.8167L86.6025 91.1032C86.8103 89.8134 86.9404 88.4983 86.9856 87.1598H90.5907V87.158ZM64.1134 86.0723C63.9237 97.2233 47.3293 97.2215 47.1414 86.0723C47.3329 74.9231 63.9255 74.9231 64.1134 86.0723Z" fill="#4F5254"/>
<path d="M78.3875 76.4622C71.9941 60.5405 50.0724 56.2394 38.162 68.6152C22.6591 83.9624 33.8069 110.873 55.6292 110.766C72.9482 111.097 85.4153 92.2737 78.3875 76.4622ZM55.6292 107.673C27.2292 107.166 27.2328 64.977 55.6292 64.4713C84.0274 64.9807 84.0238 107.169 55.6292 107.673Z" fill="#4F5254"/>
<path d="M75.5179 77.6725C69.9304 63.7577 50.7718 60.0004 40.363 70.8136C26.8136 84.228 36.5573 107.744 55.6274 107.652C70.7653 107.941 81.6602 91.4915 75.5179 77.6725ZM55.6292 104.951C30.809 104.507 30.8126 67.6343 55.6292 67.1935C80.4476 67.6397 80.444 104.51 55.6292 104.951Z" fill="#4F5254"/>
<path d="M122.637 42.9912V41.846H120.735C120.709 41.1162 120.637 40.3972 120.521 39.6927L122.417 39.308L122.189 38.1844L120.295 38.5691C120.131 37.8809 119.925 37.2089 119.677 36.5568L121.428 35.8234L120.986 34.7666L119.233 35.5C118.947 34.8823 118.626 34.2843 118.27 33.7099L119.874 32.6369L119.237 31.6849L117.632 32.7579C117.218 32.1835 116.77 31.6379 116.287 31.1213L117.634 29.7755L116.822 28.9663L115.476 30.312C114.954 29.8261 114.401 29.3709 113.819 28.9536L114.881 27.3513L113.926 26.7191L112.867 28.3196C112.265 27.9474 111.638 27.6133 110.987 27.3206L111.708 25.5648L110.647 25.1294L109.926 26.8853C109.299 26.6541 108.654 26.4572 107.993 26.3018L108.365 24.4322L107.241 24.2082L106.871 26.0778C106.177 25.964 105.468 25.8936 104.747 25.8701V23.9643H103.602V25.8665C102.881 25.8917 102.17 25.9622 101.475 26.076L101.097 24.219L99.9731 24.4466L100.349 26.3C99.6514 26.4644 98.9701 26.6739 98.3088 26.9232L97.5751 25.1728L96.5179 25.6154L97.2516 27.3676C96.6354 27.6512 96.0409 27.9709 95.468 28.325L94.4217 26.7606L93.4694 27.3983L94.5157 28.9626C93.9392 29.3781 93.3881 29.8279 92.8713 30.312L91.525 28.9663L90.7136 29.7755L92.0599 31.1213C91.5702 31.6452 91.1148 32.2015 90.6955 32.785L89.1342 31.7499L88.5017 32.7055L90.0612 33.7388C89.6908 34.3385 89.3583 34.9617 89.0674 35.6084L87.3109 34.8877L86.8754 35.948L88.6318 36.6688C88.3969 37.3046 88.1982 37.9586 88.0427 38.6269L86.2122 38.2639L85.9881 39.3874L87.8187 39.7505C87.7066 40.4352 87.638 41.136 87.6145 41.846H85.7116V42.9912H87.6145C87.6398 43.7264 87.712 44.4508 87.8295 45.1589L86.0007 45.5292L86.2284 46.6528L88.0572 46.2825C88.2198 46.9671 88.4258 47.6337 88.6716 48.2822L86.9205 49.0156L87.3633 50.0724L89.1161 49.339C89.4053 49.9694 89.7342 50.5781 90.0992 51.1634L88.5433 52.2039L89.1812 53.1559L90.7389 52.1154C91.1455 52.679 91.5882 53.2137 92.0599 53.7213L90.7136 55.0671L91.525 55.8763L92.8713 54.5306C93.408 55.0309 93.9754 55.4952 94.5753 55.9215L93.5363 57.4895L94.4922 58.1217L95.5313 56.5538C96.1186 56.9132 96.7294 57.2366 97.3618 57.522L96.6408 59.2778L97.7016 59.7132L98.4226 57.9573C99.0713 58.1976 99.7382 58.3981 100.421 58.5571L100.053 60.4122L101.177 60.6362L101.545 58.7774C102.217 58.884 102.904 58.9509 103.602 58.9743V60.8765H104.747V58.9743C105.492 58.9491 106.224 58.875 106.941 58.754L107.321 60.6218L108.445 60.3942L108.065 58.5245C108.741 58.362 109.399 58.1578 110.038 57.9158L110.772 59.6662L111.829 59.2236L111.096 57.4714C111.728 57.1806 112.341 56.85 112.928 56.4833L113.994 58.0784L114.947 57.4407L113.879 55.8438C114.439 55.4392 114.972 54.9984 115.476 54.5288L116.822 55.8745L117.634 55.0653L116.287 53.7195C116.786 53.1866 117.249 52.6194 117.673 52.0251L119.282 53.0909L119.914 52.1353L118.304 51.0695C118.665 50.4806 118.991 49.8664 119.278 49.2324L121.035 49.9531L121.47 48.8928L119.714 48.172C119.95 47.5325 120.149 46.875 120.306 46.1994L122.202 46.5751L122.426 45.4516L120.529 45.074C120.639 44.393 120.707 43.6975 120.731 42.9912H122.637ZM108.656 42.4186C108.555 48.3057 99.7942 48.3057 99.6948 42.4186C99.796 36.5315 108.557 36.5315 108.656 42.4186Z" fill="#4F5254"/>
<path d="M116.193 37.3444C112.879 28.9626 101.175 26.6667 94.953 33.2005C86.7579 41.2354 92.6942 55.5693 104.176 55.4573C113.273 55.6794 119.929 45.6304 116.193 37.3444ZM104.176 53.8261C89.1812 53.5569 89.183 31.2803 104.176 31.0129C119.171 31.2821 119.168 53.5587 104.176 53.8261Z" fill="#4F5254"/>
<path d="M114.677 37.9839C111.847 30.6878 101.48 28.6538 96.115 34.362C88.9535 41.3853 94.1416 53.911 104.176 53.8134C112.075 54.0591 117.97 45.1571 114.677 37.9839ZM104.176 52.3882C91.0714 52.1533 91.0732 32.6839 104.176 32.4508C117.281 32.6857 117.279 52.1551 104.176 52.3882Z" fill="#4F5254"/>
</g>
<path d="M86.9766 85.5322V83.3627H83.3733C83.3263 81.979 83.189 80.6188 82.9685 79.2856L86.5592 78.5576L86.1273 76.4315L82.5402 77.1595C82.2294 75.8553 81.8373 74.5817 81.3692 73.3462L84.6852 71.9588L83.8467 69.9573L80.5289 71.3447C79.9904 70.1741 79.3797 69.0415 78.7056 67.954L81.7451 65.9218L80.538 64.1172L77.5003 66.1476C76.7178 65.0601 75.8667 64.0251 74.9559 63.0478L77.5039 60.499L75.9679 58.9653L73.4199 61.5124C72.4314 60.5911 71.3833 59.7312 70.2828 58.9418L72.2941 55.9089L70.4834 54.7094L68.4757 57.7388C67.3355 57.0343 66.1482 56.402 64.9176 55.8456L66.282 52.5201L64.2743 51.6963L62.9099 55.0219C61.7227 54.583 60.5011 54.2127 59.2488 53.9182L59.9536 50.3758L57.8248 49.9531L57.1219 53.4937C55.8081 53.2787 54.4655 53.1451 53.1011 53.0999V49.4979H50.9308V53.0999C49.5647 53.1469 48.2184 53.2805 46.9028 53.4955L46.1891 49.9802L44.0621 50.412L44.7759 53.92C43.4531 54.2325 42.1629 54.6281 40.9124 55.1014L39.5246 51.7866L37.5223 52.6248L38.9101 55.9414C37.7446 56.4779 36.617 57.083 35.5327 57.755L33.5504 54.7925L31.7451 55.9992L33.7256 58.9599C32.6324 59.7457 31.5915 60.5983 30.6102 61.5142L28.0623 58.9671L26.5262 60.5008L29.0742 63.0496C28.1472 64.0413 27.2834 65.0945 26.4919 66.2L23.5337 64.2418L22.3356 66.0519L25.2902 68.0082C24.5909 69.1426 23.9602 70.324 23.4072 71.5506L20.0804 70.1867L19.2528 72.1919L22.5796 73.5557C22.135 74.7588 21.7592 75.998 21.4628 77.2643L17.9968 76.576L17.574 78.704L21.0418 79.3922C20.8321 80.691 20.7002 82.0151 20.655 83.3609H17.0499V85.5304H20.6532C20.7002 86.9231 20.8394 88.2942 21.0616 89.6346L17.5975 90.3372L18.0294 92.4634L21.4917 91.7607C21.8007 93.0559 22.1911 94.3204 22.6555 95.5469L19.3395 96.9342L20.178 98.9358L23.4958 97.5484C24.0451 98.7425 24.6668 99.895 25.3571 101.002L22.4115 102.971L23.6187 104.776L26.5678 102.803C27.3394 103.869 28.1743 104.884 29.0706 105.843L26.5226 108.392L28.0586 109.926L30.6066 107.379C31.6222 108.325 32.6992 109.207 33.8341 110.014L31.8662 112.986L33.6768 114.184L35.6466 111.212C36.7579 111.893 37.9144 112.506 39.1125 113.047L37.7482 116.373L39.7559 117.197L41.1202 113.871C42.3472 114.326 43.6122 114.706 44.906 115.006L44.2085 118.517L46.3372 118.94L47.0366 115.421C48.3106 115.623 49.6099 115.75 50.929 115.795V119.397H53.0993V115.795C54.5088 115.746 55.8967 115.607 57.2556 115.378L57.9748 118.915L60.1017 118.483L59.3825 114.944C60.6619 114.637 61.9088 114.251 63.1214 113.793L64.5092 117.108L66.5114 116.27L65.1236 112.954C66.3235 112.403 67.4819 111.776 68.5932 111.084L70.6135 114.104L72.4188 112.898L70.3931 109.872C71.4538 109.104 72.4658 108.271 73.4199 107.381L75.9679 109.928L77.5039 108.394L74.9559 105.845C75.8992 104.835 76.7775 103.762 77.5816 102.635L80.6283 104.653L81.8264 102.843L78.7779 100.825C79.4628 99.7089 80.079 98.5474 80.6229 97.3461L83.9497 98.71L84.7738 96.703L81.447 95.3392C81.8951 94.1271 82.271 92.8807 82.5691 91.6053L86.1598 92.3189L86.5827 90.1909L82.9884 89.4774C83.1962 88.1876 83.3263 86.8726 83.3715 85.534H86.9766V85.5322ZM60.4993 84.4465C60.3096 95.5975 43.7152 95.5957 43.5272 84.4465C43.7188 73.2974 60.3114 73.2974 60.4993 84.4465Z" fill="#C6C6C6"/>
<path d="M74.7734 74.8364C68.38 58.9147 46.4583 54.6137 34.5479 66.9894C19.0449 82.3367 30.1928 109.247 52.0151 109.14C69.3341 109.471 81.8011 90.648 74.7734 74.8364ZM52.0151 106.048C23.615 105.54 23.6187 63.3513 52.0151 62.8455C80.4133 63.3549 80.4097 105.544 52.0151 106.048Z" fill="#575757"/>
<path d="M71.9038 76.0467C66.3163 62.132 47.1577 58.3746 36.7489 69.1878C23.1994 82.6022 32.9432 106.118 52.0133 106.026C67.1512 106.315 78.046 89.8658 71.9038 76.0467ZM52.0151 103.325C27.1949 102.881 27.1985 66.0085 52.0151 65.5678C76.8335 66.0139 76.8299 102.885 52.0151 103.325Z" fill="#B2B2B2"/>
<path d="M119.023 41.3655V40.2202H117.12C117.095 39.4904 117.023 38.7715 116.907 38.067L118.803 37.6822L118.575 36.5586L116.681 36.9434C116.517 36.2551 116.311 35.5831 116.063 34.931L117.814 34.1976L117.372 33.1409L115.619 33.8743C115.333 33.2565 115.012 32.6586 114.656 32.0841L116.26 31.0111L115.622 30.0591L114.018 31.1322C113.604 30.5577 113.156 30.0122 112.673 29.4955L114.019 28.1498L113.208 27.3405L111.862 28.6863C111.34 28.2003 110.787 27.7451 110.205 27.3279L111.267 25.7256L110.311 25.0933L109.252 26.6938C108.651 26.3217 108.024 25.9875 107.373 25.6949L108.094 23.939L107.033 23.5037L106.312 25.2595C105.685 25.0283 105.04 24.8314 104.379 24.676L104.751 22.8064L103.627 22.5824L103.257 24.452C102.563 24.3382 101.854 24.2678 101.133 24.2443V22.3385H99.9875V24.2407C99.2665 24.266 98.5563 24.3364 97.8606 24.4502L97.4829 22.5933L96.3589 22.8209L96.7348 24.6742C96.0373 24.8386 95.356 25.0482 94.6946 25.2974L93.9609 23.547L92.9038 23.9896L93.6375 25.7418C93.0213 26.0254 92.4267 26.3452 91.8539 26.6992L90.8076 25.1349L89.8553 25.7725L90.9016 27.3369C90.3251 27.7524 89.7739 28.2022 89.2571 28.6863L87.9108 27.3405L87.0995 28.1498L88.4457 29.4955C87.956 30.0194 87.5006 30.5758 87.0814 31.1592L85.5201 30.1242L84.8876 31.0798L86.4471 32.113C86.0767 32.7128 85.7442 33.336 85.4532 33.9827L83.6967 33.2619L83.2612 34.3223L85.0177 35.043C84.7828 35.6789 84.584 36.3328 84.4286 37.0012L82.598 36.6381L82.374 37.7617L84.2045 38.1248C84.0925 38.8094 84.0238 39.5103 84.0003 40.2202H82.0975V41.3655H84.0003C84.0256 42.1007 84.0979 42.825 84.2154 43.5332L82.3866 43.9035L82.6143 45.0271L84.4431 44.6567C84.6057 45.3414 84.8117 46.0079 85.0575 46.6564L83.3064 47.3898L83.7491 48.4466L85.502 47.7132C85.7911 48.3436 86.12 48.9524 86.4851 49.5377L84.9292 50.5782L85.5671 51.5301L87.1248 50.4896C87.5314 51.0532 87.9741 51.5879 88.4457 52.0955L87.0995 53.4413L87.9108 54.2506L89.2571 52.9048C89.7938 53.4052 90.3612 53.8694 90.9612 54.2957L89.9221 55.8637L90.8781 56.496L91.9171 54.928C92.5044 55.2875 93.1152 55.6108 93.7477 55.8962L93.0267 57.6521L94.0874 58.0874L94.8085 56.3316C95.4572 56.5718 96.124 56.7723 96.8071 56.9313L96.4384 58.7865L97.5624 59.0105L97.9311 57.1517C98.6033 57.2583 99.29 57.3251 99.9875 57.3486V59.2507H101.133V57.3486C101.878 57.3233 102.61 57.2492 103.327 57.1282L103.707 58.996L104.831 58.7684L104.451 56.8988C105.127 56.7362 105.785 56.5321 106.424 56.29L107.158 58.0404L108.215 57.5979L107.481 55.8456C108.114 55.5548 108.727 55.2242 109.314 54.8575L110.38 56.4526L111.332 55.8149L110.264 54.2181C110.825 53.8134 111.358 53.3727 111.862 52.903L113.208 54.2488L114.019 53.4395L112.673 52.0937C113.172 51.5608 113.635 50.9936 114.059 50.3993L115.668 51.4651L116.3 50.5095L114.69 49.4437C115.051 48.8548 115.377 48.2407 115.664 47.6066L117.42 48.3274L117.856 47.267L116.099 46.5462C116.336 45.9068 116.535 45.2492 116.692 44.5736L118.588 44.9494L118.812 43.8258L116.914 43.4483C117.025 42.7672 117.093 42.0718 117.117 41.3655H119.023ZM105.042 40.7928C104.941 46.6799 96.18 46.6799 96.0806 40.7928C96.1818 34.9057 104.943 34.9057 105.042 40.7928Z" fill="#C6C6C6"/>
<path d="M112.579 35.7186C109.265 27.3369 97.5607 25.0409 91.3389 31.5747C83.1438 39.6096 89.0801 53.9435 100.562 53.8315C109.659 54.0537 116.315 44.0046 112.579 35.7186ZM100.562 52.2003C85.5671 51.9312 85.5689 29.6545 100.562 29.3872C115.557 29.6563 115.554 51.933 100.562 52.2003Z" fill="#575757"/>
<path d="M111.063 36.3581C108.233 29.062 97.866 27.028 92.5008 32.7362C85.3394 39.7596 90.5275 52.2852 100.562 52.1877C108.461 52.4333 114.356 43.5314 111.063 36.3581ZM100.562 50.7624C87.4573 50.5276 87.4591 31.0581 100.562 30.8251C113.667 31.0599 113.665 50.5294 100.562 50.7624Z" fill="#B2B2B2"/>
</svg>
