<svg width="76" height="76" viewBox="0 0 76 76" fill="none" xmlns="http://www.w3.org/2000/svg">
<g id="Group 19229">
<path id="Vector" fill-rule="evenodd" clip-rule="evenodd" d="M38.0247 6.90672C36.2856 6.90672 34.5746 7.3445 33.0492 8.17972C31.5238 9.01493 30.2332 10.2207 29.2964 11.6859C28.5138 12.9098 27.0489 13.5131 25.6314 13.1953C23.9293 12.8137 22.1585 12.868 20.483 13.3532C18.8075 13.8385 17.2817 14.7389 16.047 15.971C14.8123 17.2032 13.9086 18.7271 13.4199 20.4016C12.9311 22.076 12.8731 23.8468 13.2511 25.5497C13.5667 26.971 12.9569 28.4376 11.7266 29.2162C10.2502 30.1505 9.03403 31.4431 8.19133 32.9737C7.34863 34.5043 6.90672 36.2232 6.90672 37.9704C6.90672 39.7177 7.34863 41.4366 8.19133 42.9671C9.03403 44.4977 10.2502 45.7903 11.7266 46.7247C12.9569 47.5033 13.5667 48.9699 13.2511 50.3912C12.8731 52.0941 12.9311 53.8648 13.4199 55.5393C13.9086 57.2138 14.8123 58.7377 16.047 59.9698C17.2817 61.202 18.8075 62.1024 20.483 62.5876C22.1585 63.0729 23.9293 63.1272 25.6314 62.7456C27.0518 62.4272 28.5194 63.0336 29.3007 64.2618C30.2363 65.7326 31.5279 66.9435 33.0559 67.7824C34.5839 68.6214 36.2988 69.0612 38.042 69.0612C39.7851 69.0612 41.5001 68.6214 43.0281 67.7824C44.5561 66.9435 45.8477 65.7326 46.7833 64.2618C47.5632 63.0358 49.027 62.4291 50.4455 62.744C52.1484 63.1221 53.9191 63.064 55.5936 62.5753C57.2681 62.0865 58.792 61.1829 60.0241 59.9482C61.2563 58.7135 62.1567 57.1876 62.6419 55.5122C63.1272 53.8367 63.1815 52.0658 62.7999 50.3637C62.4821 48.9462 63.0854 47.4814 64.3093 46.6988C65.7745 45.762 66.9802 44.4714 67.8154 42.946C68.6507 41.4206 69.0884 39.7095 69.0884 37.9704C69.0884 36.2314 68.6507 34.5203 67.8154 32.9949C66.9802 31.4695 65.7745 30.1789 64.3093 29.2421C63.0847 28.4591 62.4815 26.9932 62.8004 25.5751C63.1836 23.8704 63.1295 22.0965 62.6431 20.4184C62.1567 18.7402 61.2538 17.2124 60.0183 15.9769C58.7828 14.7414 57.2549 13.8385 55.5768 13.3521C53.8986 12.8656 52.1247 12.8115 50.4201 13.1948C49.002 13.5136 47.5361 12.9104 46.7531 11.6859C45.8163 10.2207 44.5257 9.01493 43.0003 8.17972C41.4749 7.3445 39.7638 6.90672 38.0247 6.90672ZM29.7321 2.12166C32.2744 0.72964 35.1263 0 38.0247 0C40.9232 0 43.775 0.72964 46.3173 2.12166C48.1791 3.14108 49.8311 4.49171 51.1953 6.10081C53.3102 5.91672 55.4478 6.12368 57.4996 6.71838C60.2965 7.52908 62.8429 9.03398 64.9021 11.0931C66.9612 13.1522 68.4661 15.6987 69.2768 18.4956C69.8715 20.5473 70.0785 22.685 69.8944 24.7999C71.5034 26.1641 72.8541 27.816 73.8735 29.6778C75.2655 32.2201 75.9952 35.072 75.9952 37.9704C75.9952 40.8689 75.2655 43.7207 73.8735 46.263C72.8539 48.1252 71.5029 49.7775 69.8933 51.1419C70.0759 53.2526 69.8691 55.3858 69.276 57.4335C68.4673 60.226 66.9666 62.769 64.913 64.8269C62.8595 66.8847 60.3195 68.3908 57.5288 69.2053C55.4825 69.8026 53.35 70.014 51.239 69.8359C49.8741 71.4535 48.219 72.8117 46.3522 73.8366C43.8055 75.2349 40.9472 75.9679 38.042 75.9679C35.1367 75.9679 32.2785 75.2349 29.7318 73.8366C27.8664 72.8124 26.2124 71.4556 24.8481 69.8395C22.739 70.0213 20.6077 69.8143 18.5617 69.2217C15.7692 68.413 13.2262 66.9123 11.1683 64.8587C9.11043 62.8052 7.6044 60.2653 6.78982 57.4745C6.19304 55.4299 5.98156 53.2992 6.15888 51.19C4.53465 49.8252 3.17061 48.1683 2.14101 46.2983C0.736507 43.7473 0 40.8825 0 37.9704C0 35.0584 0.736507 32.1936 2.14101 29.6426C3.1706 27.7726 4.53465 26.1157 6.15887 24.7509C5.98155 22.6416 6.19304 20.5109 6.78982 18.4664C7.6044 15.6756 9.11044 13.1357 11.1683 11.0821C13.2262 9.02859 15.7692 7.52787 18.5617 6.71914C20.6094 6.1261 22.7425 5.91924 24.8533 6.10185C26.2177 4.49229 27.8699 3.1413 29.7321 2.12166Z" fill="white"/>
<path id="Vector_2" fill-rule="evenodd" clip-rule="evenodd" d="M38.0249 20.7034C39.9321 20.7034 41.4783 22.2495 41.4783 24.1567V37.9702C41.4783 39.8774 39.9321 41.4235 38.0249 41.4235C36.1177 41.4235 34.5715 39.8774 34.5715 37.9702V24.1567C34.5715 22.2495 36.1177 20.7034 38.0249 20.7034Z" fill="white"/>
<path id="Vector_3" fill-rule="evenodd" clip-rule="evenodd" d="M34.5715 51.7834C34.5715 49.8762 36.1177 48.3301 38.0249 48.3301H38.0594C39.9667 48.3301 41.5128 49.8762 41.5128 51.7834C41.5128 53.6907 39.9667 55.2368 38.0594 55.2368H38.0249C36.1177 55.2368 34.5715 53.6907 34.5715 51.7834Z" fill="white"/>
</g>
</svg>
