<svg width="143" height="143" viewBox="0 0 143 143" fill="none" xmlns="http://www.w3.org/2000/svg">
<circle cx="71.5" cy="71.5" r="71.5" fill="#D9D9D9"/>
<g clip-path="url(#clip0_2102_2386)">
<path d="M128.937 60.1265C128.921 60.0642 128.906 60.0174 128.89 59.9551C128.765 59.5031 128.641 59.0356 128.516 58.5836C127.363 54.438 125.695 50.417 123.544 46.5831C123.279 46.1156 123.03 45.6636 122.765 45.196H122.75C120.568 41.5492 117.918 38.0893 114.832 34.9099C114.645 34.7073 114.474 34.5203 114.287 34.3333C114.1 34.1463 113.897 33.9748 113.71 33.7722C110.531 30.6708 107.071 28.0213 103.409 25.855C103.175 25.7148 102.957 25.5745 102.723 25.4498C102.489 25.3251 102.255 25.2005 102.021 25.0602V25.0758C98.1876 22.925 94.1666 21.2574 90.021 20.0886C89.5067 19.9483 89.008 19.808 88.4937 19.6834C84.2701 18.608 79.9375 18.0469 75.6048 18.0002C75.0749 18.0002 74.5451 17.9846 74.0152 18.0002C69.6825 18.0469 65.3499 18.608 61.1263 19.6834C60.612 19.808 60.0977 19.9483 59.599 20.0886C55.4534 21.2574 51.4325 22.925 47.5985 25.0758L47.583 25.0602C47.3492 25.2005 47.131 25.3251 46.8972 25.4498C46.6634 25.5745 46.4452 25.7148 46.2115 25.855C42.549 28.0213 39.0891 30.6708 35.9098 33.7722C35.7227 33.9592 35.5201 34.1307 35.3331 34.3333C35.1461 34.5203 34.9747 34.7229 34.7876 34.9099C31.7018 38.0893 29.0523 41.5336 26.8704 45.196H26.8549C26.8081 45.274 26.7613 45.3675 26.7146 45.4454C26.4964 45.8195 26.2782 46.1935 26.0756 46.5831H26.0912C23.956 50.417 22.2729 54.438 21.104 58.5836C20.9637 59.0356 20.839 59.5031 20.7299 59.9551C20.7144 60.0174 20.6988 60.0642 20.6832 60.1265C19.6078 64.3501 19.0468 68.6827 19 73.0153V74.605C19.0468 78.9376 19.6078 83.2547 20.6832 87.4782C20.8079 87.9926 20.9481 88.5069 21.104 89.0212H21.1196C22.2884 93.1668 23.9405 97.1877 26.0756 101.022H26.06C26.2626 101.411 26.4808 101.801 26.699 102.175C26.7458 102.253 26.7925 102.331 26.8393 102.409C29.1459 106.289 31.9823 109.952 35.3175 113.287C35.5046 113.474 35.6916 113.646 35.8942 113.833C39.0735 116.918 42.5334 119.568 46.1959 121.75C46.2271 121.765 46.2426 121.781 46.2738 121.796C46.6011 121.999 46.9284 122.186 47.2712 122.373C47.3803 122.435 47.4739 122.498 47.583 122.545V122.529C51.4169 124.664 55.4534 126.347 59.599 127.516C60.0977 127.656 60.612 127.797 61.1263 127.921C65.3499 128.997 69.6825 129.558 74.0152 129.605C74.5451 129.62 75.0749 129.62 75.6048 129.605C79.9375 129.558 84.2701 128.997 88.4937 127.921C89.008 127.797 89.5067 127.656 90.021 127.516C94.1666 126.347 98.1876 124.68 102.021 122.545C102.411 122.326 102.801 122.108 103.175 121.906C103.253 121.859 103.331 121.812 103.409 121.765C107.071 119.583 110.531 116.918 113.71 113.833C113.897 113.646 114.1 113.474 114.287 113.287C117.622 109.952 120.459 106.289 122.765 102.409C122.812 102.331 122.859 102.253 122.905 102.175C123.108 101.785 123.326 101.411 123.544 101.022H123.529C125.664 97.1877 127.316 93.1668 128.485 89.0212H128.5C128.656 88.5069 128.797 87.9926 128.921 87.4782C129.997 83.2547 130.558 78.9376 130.604 74.605V72.9997C130.573 68.6671 130.012 64.3501 128.937 60.1265ZM115.175 83.8002C115.051 84.3145 114.926 84.8132 114.77 85.3275C113.928 88.2731 112.744 91.1563 111.217 93.8993C110.983 94.3668 110.702 94.8188 110.422 95.2863C108.863 97.889 106.978 100.351 104.78 102.642C104.593 102.83 104.406 103.032 104.219 103.219C104.032 103.406 103.829 103.593 103.642 103.765C101.367 105.978 98.8889 107.863 96.2862 109.422C95.8342 109.718 95.3667 109.983 94.8991 110.217C92.1717 111.744 89.2885 112.929 86.3429 113.786C85.8442 113.926 85.3299 114.066 84.8156 114.191C81.7921 114.939 78.7063 115.344 75.6048 115.391C75.0749 115.407 74.5451 115.407 74.0152 115.391C70.9137 115.344 67.8279 114.939 64.8044 114.191C64.2901 114.066 63.7758 113.926 63.2771 113.77C60.3159 112.929 57.4483 111.744 54.7053 110.217C54.2378 109.967 53.7858 109.702 53.3338 109.422C50.7311 107.863 48.2531 105.978 45.9777 103.765C45.7907 103.593 45.5881 103.406 45.401 103.219C45.214 103.032 45.027 102.83 44.84 102.642C42.6425 100.367 40.7567 97.889 39.1982 95.2863C38.9021 94.8344 38.6371 94.3668 38.4034 93.8993C36.876 91.1719 35.6916 88.2887 34.8344 85.3431C34.6941 84.8288 34.5539 84.3145 34.4292 83.8002C33.6811 80.7923 33.2759 77.6908 33.2291 74.605C33.2136 74.0751 33.2136 73.5452 33.2291 73.0153C33.2759 69.9139 33.6811 66.8281 34.4292 63.8046C34.5539 63.2903 34.6941 62.776 34.85 62.2617C35.6916 59.3161 36.876 56.4329 38.4034 53.7055C38.6527 53.2379 38.9177 52.7704 39.1982 52.3184C40.7723 49.7157 42.6425 47.2533 44.8556 44.9779C45.027 44.7908 45.214 44.5882 45.401 44.4012C45.5881 44.2142 45.7907 44.0272 45.9777 43.8557C48.2531 41.6427 50.7311 39.7569 53.3338 38.1828C53.7858 37.9023 54.2378 37.6373 54.7053 37.3879C57.4483 35.8606 60.3159 34.6762 63.2771 33.8346C63.7758 33.6943 64.2901 33.554 64.8044 33.4293C67.8279 32.6813 70.9137 32.2761 74.0152 32.2293C74.5451 32.2137 75.0749 32.2137 75.6048 32.2293C78.7063 32.2761 81.7921 32.6813 84.8156 33.4293C85.3299 33.554 85.8442 33.6943 86.3429 33.8346C89.2885 34.6762 92.1717 35.8606 94.8991 37.3879C95.3667 37.6373 95.8342 37.9023 96.2862 38.1828C98.8889 39.7569 101.367 41.6427 103.642 43.8557C103.829 44.0272 104.032 44.2142 104.219 44.4012C104.406 44.5882 104.593 44.7908 104.764 44.9779C106.978 47.2533 108.848 49.7157 110.422 52.3184C110.702 52.7704 110.967 53.2379 111.217 53.7055C112.744 56.4484 113.928 59.3161 114.754 62.2772C114.91 62.7916 115.051 63.3059 115.175 63.8202C115.923 66.8281 116.329 69.9139 116.375 72.9997C116.406 73.5296 116.406 74.0595 116.375 74.605C116.329 77.6908 115.923 80.7767 115.175 83.8002Z" fill="#949697"/>
<path d="M33.2291 74.6048H19V73.0152H33.2291C33.2136 73.5451 33.2136 74.075 33.2291 74.6048Z" fill="#949697"/>
<path d="M34.8344 85.3429L21.104 89.021C20.9481 88.5067 20.8078 87.9924 20.6832 87.4781L34.4292 83.8C34.5538 84.3143 34.6941 84.8286 34.8344 85.3429Z" fill="#949697"/>
<path d="M34.4292 63.8044L20.6832 60.1263C20.6988 60.064 20.7143 60.0172 20.7299 59.9549C20.839 59.5029 20.9637 59.0354 21.104 58.5834L34.85 62.2615C34.6941 62.7758 34.5538 63.2901 34.4292 63.8044Z" fill="#949697"/>
<path d="M39.1982 95.2862L26.8548 102.409C26.8081 102.331 26.7613 102.253 26.7145 102.175C26.4964 101.801 26.2782 101.411 26.0756 101.021L38.4033 93.8991C38.6371 94.3667 38.902 94.8342 39.1982 95.2862Z" fill="#949697"/>
<path d="M38.4033 53.7053L26.0756 46.5829C26.2782 46.1933 26.4964 45.8193 26.7145 45.4452C26.7613 45.3673 26.8081 45.2738 26.8548 45.1959H26.8704L39.1982 52.3182C38.9176 52.7702 38.6527 53.2378 38.4033 53.7053Z" fill="#949697"/>
<path d="M45.401 103.219C45.588 103.406 45.7906 103.593 45.9777 103.764L35.9097 113.832C35.7071 113.645 35.5201 113.474 35.3331 113.287C35.1461 113.084 34.9746 112.897 34.7876 112.695L44.8399 102.642C45.027 102.829 45.214 103.032 45.401 103.219Z" fill="#949697"/>
<path d="M35.9097 33.772L45.9777 43.8556C45.7906 44.027 45.588 44.214 45.401 44.401C45.214 44.5881 45.027 44.7907 44.8555 44.9777L34.7876 34.9098C34.9746 34.7227 35.1461 34.5201 35.3331 34.3331C35.5201 34.1305 35.7227 33.9591 35.9097 33.772Z" fill="#949697"/>
<path d="M53.3338 109.422C53.7858 109.702 54.2377 109.967 54.7053 110.217L47.5829 122.544C47.1154 122.279 46.6634 122.03 46.2114 121.75L53.3338 109.422Z" fill="#949697"/>
<path d="M47.5829 25.06L54.7053 37.3878C54.2377 37.6371 53.7858 37.9021 53.3338 38.1826L46.2114 25.8548C46.4452 25.7146 46.6634 25.5743 46.8972 25.4496C47.1309 25.325 47.3491 25.2003 47.5829 25.06Z" fill="#949697"/>
<path d="M63.2771 113.77C63.7758 113.926 64.2901 114.066 64.8044 114.191L61.1263 127.921C60.612 127.797 60.0977 127.656 59.599 127.516L63.2771 113.77Z" fill="#949697"/>
<path d="M61.1263 19.6832L64.8044 33.4292C64.2901 33.5539 63.7758 33.6941 63.2771 33.8344L59.599 20.0884C60.0977 19.9481 60.612 19.8079 61.1263 19.6832Z" fill="#949697"/>
<path d="M74.0151 18C74.545 17.9844 75.0749 18 75.6048 18V32.2291C75.0749 32.2135 74.545 32.2135 74.0151 32.2291V18Z" fill="#949697"/>
<path d="M74.0151 115.391C74.545 115.406 75.0749 115.406 75.6048 115.391V129.604C75.0749 129.62 74.545 129.62 74.0151 129.604V115.391Z" fill="#949697"/>
<path d="M86.3429 113.786L90.021 127.516C89.5066 127.656 89.0079 127.797 88.4936 127.921L84.8156 114.191C85.3299 114.066 85.8442 113.926 86.3429 113.786Z" fill="#949697"/>
<path d="M88.4936 19.6832C89.0079 19.8079 89.5066 19.9481 90.021 20.0884L86.3429 33.8344C85.8442 33.6941 85.3299 33.5539 84.8156 33.4292L88.4936 19.6832Z" fill="#949697"/>
<path d="M102.723 25.4496C102.957 25.5743 103.175 25.7146 103.408 25.8548L96.2861 38.1826C95.8341 37.9021 95.3666 37.6371 94.899 37.3878L102.021 25.06C102.255 25.2003 102.489 25.325 102.723 25.4496Z" fill="#949697"/>
<path d="M96.2861 109.422L103.408 121.765C103.331 121.812 103.253 121.859 103.175 121.905C102.801 122.108 102.411 122.326 102.021 122.544L94.899 110.217C95.3666 109.983 95.8341 109.718 96.2861 109.422Z" fill="#949697"/>
<path d="M104.78 102.642L114.832 112.695C114.645 112.897 114.474 113.084 114.287 113.287C114.1 113.474 113.897 113.645 113.71 113.832L103.642 103.764C103.829 103.593 104.032 103.406 104.219 103.219C104.406 103.032 104.593 102.829 104.78 102.642Z" fill="#949697"/>
<path d="M104.219 44.401C104.032 44.214 103.829 44.027 103.642 43.8556L113.71 33.772C113.897 33.9747 114.1 34.1461 114.287 34.3331C114.474 34.5201 114.645 34.7072 114.832 34.9098L104.764 44.9777C104.593 44.7907 104.406 44.5881 104.219 44.401Z" fill="#949697"/>
<path d="M111.217 93.8991L123.544 101.021C123.326 101.411 123.108 101.785 122.905 102.175C122.859 102.253 122.812 102.331 122.765 102.409L110.422 95.2862C110.702 94.8186 110.983 94.3667 111.217 93.8991Z" fill="#949697"/>
<path d="M110.422 52.3182L122.75 45.1959H122.765C123.03 45.6634 123.279 46.1154 123.544 46.5829L111.217 53.7053C110.967 53.2378 110.702 52.7702 110.422 52.3182Z" fill="#949697"/>
<path d="M114.754 62.2771L128.516 58.5834C128.641 59.0354 128.765 59.5029 128.89 59.9549C128.906 60.0172 128.921 60.064 128.937 60.1263L115.175 63.82C115.051 63.3057 114.91 62.7914 114.754 62.2771Z" fill="#949697"/>
<path d="M115.175 83.8L128.937 87.4781C128.812 87.9924 128.672 88.5067 128.516 89.021L114.77 85.3273C114.926 84.813 115.051 84.3143 115.175 83.8Z" fill="#949697"/>
<path d="M130.62 72.9996V74.6048H116.375C116.406 74.0594 116.406 73.5295 116.375 72.9996H130.62Z" fill="#949697"/>
</g>
<g clip-path="url(#clip1_2102_2386)">
<path d="M125.937 58.1265C125.921 58.0642 125.906 58.0174 125.89 57.9551C125.765 57.5031 125.641 57.0356 125.516 56.5836C124.363 52.438 122.695 48.417 120.544 44.5831C120.279 44.1156 120.03 43.6636 119.765 43.1961H119.75C117.568 39.5492 114.918 36.0893 111.832 32.9099C111.645 32.7073 111.474 32.5203 111.287 32.3333C111.1 32.1463 110.897 31.9748 110.71 31.7722C107.531 28.6708 104.071 26.0213 100.409 23.855C100.175 23.7148 99.9566 23.5745 99.7228 23.4498C99.489 23.3251 99.2552 23.2005 99.0215 23.0602V23.0758C95.1876 20.925 91.1666 19.2574 87.021 18.0886C86.5067 17.9483 86.008 17.808 85.4937 17.6834C81.2701 16.608 76.9375 16.0469 72.6048 16.0002C72.0749 16.0002 71.5451 15.9846 71.0152 16.0002C66.6825 16.0469 62.3499 16.608 58.1263 17.6834C57.612 17.808 57.0977 17.9483 56.599 18.0886C52.4534 19.2574 48.4325 20.925 44.5985 23.0758L44.583 23.0602C44.3492 23.2005 44.131 23.3251 43.8972 23.4498C43.6634 23.5745 43.4452 23.7148 43.2115 23.855C39.549 26.0213 36.0891 28.6708 32.9098 31.7722C32.7227 31.9592 32.5201 32.1307 32.3331 32.3333C32.1461 32.5203 31.9747 32.7229 31.7876 32.9099C28.7018 36.0893 26.0523 39.5336 23.8704 43.1961H23.8549C23.8081 43.274 23.7613 43.3675 23.7146 43.4454C23.4964 43.8195 23.2782 44.1935 23.0756 44.5831H23.0912C20.956 48.417 19.2729 52.438 18.104 56.5836C17.9637 57.0356 17.839 57.5031 17.7299 57.9551C17.7144 58.0174 17.6988 58.0642 17.6832 58.1265C16.6078 62.3501 16.0468 66.6827 16 71.0153V72.605C16.0468 76.9376 16.6078 81.2547 17.6832 85.4782C17.8079 85.9926 17.9481 86.5069 18.104 87.0212H18.1196C19.2884 91.1668 20.9405 95.1877 23.0756 99.0216H23.06C23.2626 99.4113 23.4808 99.8009 23.699 100.175C23.7458 100.253 23.7925 100.331 23.8393 100.409C26.1459 104.289 28.9823 107.952 32.3175 111.287C32.5046 111.474 32.6916 111.646 32.8942 111.833C36.0735 114.918 39.5334 117.568 43.1959 119.75C43.2271 119.765 43.2426 119.781 43.2738 119.796C43.6011 119.999 43.9284 120.186 44.2712 120.373C44.3803 120.435 44.4739 120.498 44.583 120.545V120.529C48.4169 122.664 52.4534 124.347 56.599 125.516C57.0977 125.656 57.612 125.797 58.1263 125.921C62.3499 126.997 66.6825 127.558 71.0152 127.605C71.5451 127.62 72.0749 127.62 72.6048 127.605C76.9375 127.558 81.2701 126.997 85.4937 125.921C86.008 125.797 86.5067 125.656 87.021 125.516C91.1666 124.347 95.1876 122.68 99.0215 120.545C99.4111 120.326 99.8007 120.108 100.175 119.906C100.253 119.859 100.331 119.812 100.409 119.765C104.071 117.583 107.531 114.918 110.71 111.833C110.897 111.646 111.1 111.474 111.287 111.287C114.622 107.952 117.459 104.289 119.765 100.409C119.812 100.331 119.859 100.253 119.905 100.175C120.108 99.7853 120.326 99.4113 120.544 99.0216H120.529C122.664 95.1877 124.316 91.1668 125.485 87.0212H125.5C125.656 86.5069 125.797 85.9926 125.921 85.4782C126.997 81.2547 127.558 76.9376 127.604 72.605V70.9997C127.573 66.6671 127.012 62.3501 125.937 58.1265ZM112.175 81.8002C112.051 82.3145 111.926 82.8132 111.77 83.3275C110.928 86.2731 109.744 89.1563 108.217 91.8993C107.983 92.3668 107.702 92.8188 107.422 93.2863C105.863 95.889 103.978 98.3515 101.78 100.642C101.593 100.829 101.406 101.032 101.219 101.219C101.032 101.406 100.829 101.593 100.642 101.765C98.3669 103.978 95.8889 105.863 93.2862 107.422C92.8342 107.718 92.3667 107.983 91.8991 108.217C89.1717 109.744 86.2885 110.929 83.3429 111.786C82.8442 111.926 82.3299 112.066 81.8156 112.191C78.7921 112.939 75.7063 113.344 72.6048 113.391C72.0749 113.407 71.5451 113.407 71.0152 113.391C67.9137 113.344 64.8279 112.939 61.8044 112.191C61.2901 112.066 60.7758 111.926 60.2771 111.77C57.3159 110.929 54.4483 109.744 51.7053 108.217C51.2378 107.967 50.7858 107.702 50.3338 107.422C47.7311 105.863 45.2531 103.978 42.9777 101.765C42.7907 101.593 42.5881 101.406 42.401 101.219C42.214 101.032 42.027 100.829 41.84 100.642C39.6425 98.3671 37.7567 95.889 36.1982 93.2863C35.9021 92.8344 35.6371 92.3668 35.4034 91.8993C33.876 89.1719 32.6916 86.2887 31.8344 83.3431C31.6941 82.8288 31.5539 82.3145 31.4292 81.8002C30.6811 78.7923 30.2759 75.6908 30.2291 72.605C30.2135 72.0751 30.2135 71.5452 30.2291 71.0153C30.2759 67.9139 30.6811 64.8281 31.4292 61.8046C31.5539 61.2903 31.6941 60.776 31.85 60.2617C32.6916 57.3161 33.876 54.4329 35.4034 51.7055C35.6527 51.2379 35.9177 50.7704 36.1982 50.3184C37.7723 47.7157 39.6425 45.2533 41.8556 42.9779C42.027 42.7908 42.214 42.5882 42.401 42.4012C42.5881 42.2142 42.7907 42.0272 42.9777 41.8557C45.2531 39.6427 47.7311 37.7569 50.3338 36.1828C50.7858 35.9023 51.2378 35.6373 51.7053 35.3879C54.4483 33.8606 57.3159 32.6762 60.2771 31.8346C60.7758 31.6943 61.2901 31.554 61.8044 31.4293C64.8279 30.6813 67.9137 30.2761 71.0152 30.2293C71.5451 30.2137 72.0749 30.2137 72.6048 30.2293C75.7063 30.2761 78.7921 30.6813 81.8156 31.4293C82.3299 31.554 82.8442 31.6943 83.3429 31.8346C86.2885 32.6762 89.1717 33.8606 91.8991 35.3879C92.3667 35.6373 92.8342 35.9023 93.2862 36.1828C95.8889 37.7569 98.3669 39.6427 100.642 41.8557C100.829 42.0272 101.032 42.2142 101.219 42.4012C101.406 42.5882 101.593 42.7908 101.764 42.9779C103.978 45.2533 105.848 47.7157 107.422 50.3184C107.702 50.7704 107.967 51.2379 108.217 51.7055C109.744 54.4484 110.928 57.3161 111.754 60.2772C111.91 60.7915 112.051 61.3059 112.175 61.8202C112.923 64.8281 113.329 67.9139 113.375 70.9997C113.406 71.5296 113.406 72.0595 113.375 72.605C113.329 75.6908 112.923 78.7767 112.175 81.8002Z" fill="#353535"/>
<path d="M30.2291 72.6048H16V71.0152H30.2291C30.2135 71.5451 30.2135 72.075 30.2291 72.6048Z" fill="black"/>
<path d="M31.8344 83.3429L18.104 87.021C17.9481 86.5067 17.8078 85.9924 17.6832 85.4781L31.4292 81.8C31.5538 82.3143 31.6941 82.8286 31.8344 83.3429Z" fill="black"/>
<path d="M31.4292 61.8044L17.6832 58.1263C17.6988 58.064 17.7143 58.0172 17.7299 57.9549C17.839 57.5029 17.9637 57.0354 18.104 56.5834L31.85 60.2615C31.6941 60.7758 31.5538 61.2901 31.4292 61.8044Z" fill="black"/>
<path d="M36.1982 93.2862L23.8549 100.409C23.8081 100.331 23.7614 100.253 23.7146 100.175C23.4964 99.8007 23.2782 99.4111 23.0756 99.0215L35.4034 91.8991C35.6372 92.3667 35.9021 92.8342 36.1982 93.2862Z" fill="black"/>
<path d="M35.4034 51.7053L23.0756 44.5829C23.2782 44.1933 23.4964 43.8193 23.7146 43.4452C23.7614 43.3673 23.8081 43.2738 23.8549 43.1959H23.8705L36.1982 50.3182C35.9177 50.7702 35.6527 51.2378 35.4034 51.7053Z" fill="black"/>
<path d="M42.401 101.219C42.588 101.406 42.7906 101.593 42.9777 101.764L32.9097 111.832C32.7071 111.645 32.5201 111.474 32.3331 111.287C32.1461 111.084 31.9746 110.897 31.7876 110.695L41.8399 100.642C42.027 100.829 42.214 101.032 42.401 101.219Z" fill="black"/>
<path d="M32.9097 31.772L42.9777 41.8556C42.7906 42.027 42.588 42.214 42.401 42.401C42.214 42.5881 42.027 42.7907 41.8555 42.9777L31.7876 32.9098C31.9746 32.7227 32.1461 32.5201 32.3331 32.3331C32.5201 32.1305 32.7227 31.9591 32.9097 31.772Z" fill="black"/>
<path d="M50.3338 107.422C50.7858 107.702 51.2377 107.967 51.7053 108.217L44.5829 120.544C44.1154 120.279 43.6634 120.03 43.2114 119.75L50.3338 107.422Z" fill="black"/>
<path d="M44.5829 23.06L51.7053 35.3878C51.2377 35.6371 50.7858 35.9021 50.3338 36.1826L43.2114 23.8548C43.4452 23.7146 43.6634 23.5743 43.8972 23.4496C44.1309 23.325 44.3491 23.2003 44.5829 23.06Z" fill="black"/>
<path d="M60.2771 111.77C60.7758 111.926 61.2901 112.066 61.8044 112.191L58.1263 125.921C57.612 125.797 57.0977 125.656 56.599 125.516L60.2771 111.77Z" fill="black"/>
<path d="M58.1263 17.6832L61.8044 31.4292C61.2901 31.5539 60.7758 31.6941 60.2771 31.8344L56.599 18.0884C57.0977 17.9481 57.612 17.8079 58.1263 17.6832Z" fill="black"/>
<path d="M71.0151 16C71.545 15.9844 72.0749 16 72.6048 16V30.2291C72.0749 30.2135 71.545 30.2135 71.0151 30.2291V16Z" fill="black"/>
<path d="M71.0151 113.391C71.545 113.406 72.0749 113.406 72.6048 113.391V127.604C72.0749 127.62 71.545 127.62 71.0151 127.604V113.391Z" fill="black"/>
<path d="M83.3429 111.786L87.021 125.516C86.5066 125.656 86.0079 125.797 85.4936 125.921L81.8156 112.191C82.3299 112.066 82.8442 111.926 83.3429 111.786Z" fill="black"/>
<path d="M85.4936 17.6832C86.0079 17.8079 86.5066 17.9481 87.021 18.0884L83.3429 31.8344C82.8442 31.6941 82.3299 31.5539 81.8156 31.4292L85.4936 17.6832Z" fill="black"/>
<path d="M99.7227 23.4496C99.9565 23.5743 100.175 23.7146 100.408 23.8548L93.2861 36.1826C92.8341 35.9021 92.3666 35.6371 91.899 35.3878L99.0214 23.06C99.2552 23.2003 99.489 23.325 99.7227 23.4496Z" fill="black"/>
<path d="M93.2861 107.422L100.408 119.765C100.331 119.812 100.253 119.859 100.175 119.905C99.8007 120.108 99.411 120.326 99.0214 120.544L91.899 108.217C92.3666 107.983 92.8341 107.718 93.2861 107.422Z" fill="black"/>
<path d="M101.78 100.642L111.832 110.695C111.645 110.897 111.474 111.084 111.287 111.287C111.1 111.474 110.897 111.645 110.71 111.832L100.642 101.764C100.829 101.593 101.032 101.406 101.219 101.219C101.406 101.032 101.593 100.829 101.78 100.642Z" fill="black"/>
<path d="M101.219 42.401C101.032 42.214 100.829 42.027 100.642 41.8556L110.71 31.772C110.897 31.9747 111.1 32.1461 111.287 32.3331C111.474 32.5201 111.645 32.7072 111.832 32.9098L101.764 42.9777C101.593 42.7907 101.406 42.5881 101.219 42.401Z" fill="black"/>
<path d="M108.217 91.8991L120.544 99.0215C120.326 99.4111 120.108 99.7851 119.905 100.175C119.859 100.253 119.812 100.331 119.765 100.409L107.422 93.2862C107.702 92.8186 107.983 92.3667 108.217 91.8991Z" fill="black"/>
<path d="M107.422 50.3182L119.75 43.1959H119.765C120.03 43.6634 120.279 44.1154 120.544 44.5829L108.217 51.7053C107.967 51.2378 107.702 50.7702 107.422 50.3182Z" fill="black"/>
<path d="M111.754 60.2771L125.516 56.5834C125.641 57.0354 125.765 57.5029 125.89 57.9549C125.906 58.0172 125.921 58.064 125.937 58.1263L112.175 61.82C112.051 61.3057 111.91 60.7914 111.754 60.2771Z" fill="black"/>
<path d="M112.175 81.8L125.937 85.4781C125.812 85.9924 125.672 86.5067 125.516 87.021L111.77 83.3273C111.926 82.813 112.051 82.3143 112.175 81.8Z" fill="black"/>
<path d="M127.62 70.9996V72.6048H113.375C113.406 72.0594 113.406 71.5295 113.375 70.9996H127.62Z" fill="black"/>
</g>
<defs>
<clipPath id="clip0_2102_2386">
<rect width="111.62" height="111.62" fill="white" transform="translate(19 18)"/>
</clipPath>
<clipPath id="clip1_2102_2386">
<rect width="111.62" height="111.62" fill="white" transform="translate(16 16)"/>
</clipPath>
</defs>
</svg>
