<svg width="143" height="143" viewBox="0 0 143 143" fill="none" xmlns="http://www.w3.org/2000/svg">
<circle cx="71.5" cy="71.5" r="71.5" fill="#D9D9D9"/>
<g clip-path="url(#clip0_511_2788)">
<path opacity="0.5" d="M126.26 38.94C124.76 38.4 123.19 37.87 121.55 37.35L121.6 37.12C121.76 36.36 121.27 35.62 120.51 35.47L117.77 34.91C117.1 34.77 116.44 35.14 116.19 35.76C113.22 34.94 110.06 34.18 106.73 33.5C103.65 32.88 100.68 32.38 97.83 31.99C97.85 31.33 97.39 30.73 96.71 30.59L93.97 30.03C93.21 29.87 92.47 30.36 92.32 31.12L92.27 31.35C90.56 31.18 88.9 31.05 87.31 30.95C85.76 30.63 84.24 31.63 83.92 33.18L83.8 33.8L83.6 34.76L82.73 39.01L83.94 39.26L83.64 40.91L82.38 40.65L82.04 42.3L83.34 42.57L83.13 43.72H73.83H64.63L64.38 42.54L65.5 42.31L65.16 40.66L64.03 40.89L63.68 39.25L64.82 39.02L63.95 34.77L63.75 33.81L63.62 33.19C63.3 31.64 61.78 30.64 60.23 30.96C58.64 31.06 56.98 31.19 55.27 31.36L55.22 31.13C55.06 30.37 54.32 29.88 53.57 30.04L50.83 30.6C50.16 30.74 49.7 31.34 49.71 32C46.87 32.39 43.9 32.88 40.81 33.51C37.48 34.19 34.32 34.95 31.35 35.77C31.1 35.15 30.44 34.78 29.77 34.92L27.03 35.48C26.27 35.64 25.78 36.38 25.94 37.13L25.99 37.36C24.35 37.88 22.78 38.41 21.28 38.95C19.73 39.27 18.73 40.79 19.05 42.34L19.18 42.96L19.38 43.92L20.25 48.17L21.4 47.93L21.76 49.57L20.6 49.81L20.94 51.46L22.12 51.22L22.39 52.45L21.2 52.7L21.54 54.35L22.75 54.1L23 55.31L21.77 55.56L21.84 55.91C22.19 56.33 22.63 56.7 23.2 56.99L25.48 56.52C26.15 56.74 26.92 57.02 27.74 57.34L25.32 57.84C26.29 58.17 27.33 58.5 28.42 58.92L30.4 58.51C30.99 58.8 31.58 59.11 32.14 59.44L30.42 59.79C31.13 60.15 31.85 60.56 32.57 61.06L34.11 60.74C34.54 61.07 34.93 61.42 35.29 61.78L33.88 62.07C34.37 62.49 34.86 62.96 35.35 63.48L36.55 63.23C36.84 63.59 37.12 63.96 37.4 64.34L36.3 64.57C36.67 65.03 37.03 65.53 37.39 66.06L38.42 65.85C38.66 66.23 38.89 66.61 39.11 66.99L38.1 67.2C38.39 67.68 38.67 68.2 38.95 68.74L39.95 68.53C40.15 68.92 40.35 69.31 40.54 69.7L39.52 69.91C39.64 70.17 39.76 70.43 39.87 70.69C39.98 70.95 40.1 71.21 40.21 71.48L41.27 71.26C41.45 71.66 41.62 72.05 41.78 72.44L40.71 72.66C40.93 73.18 41.14 73.71 41.36 74.24L42.41 74.02C42.57 74.43 42.71 74.82 42.85 75.22L41.83 75.43C42.04 75.96 42.24 76.49 42.45 77.02L43.42 76.82C43.58 77.26 43.73 77.66 43.86 78.02L42.89 78.22C43.09 78.75 43.29 79.28 43.48 79.81L44.5 79.6C44.75 80.17 44.93 80.54 45.05 80.77L43.92 81C44.11 81.54 51.72 81.11 51.72 81.11L52.55 80.94L53.12 82.46C52.85 82.62 52.7 82.94 52.76 83.26L53.2 85.43C52.56 85.85 52.21 86.63 52.37 87.42L53.43 92.95L53.63 94.14L47.23 95.35C47.08 94.85 46.27 109.74 46.05 110.24L50.66 112.34L49.69 114.32C49.29 115.13 49.62 116.12 50.44 116.52L52.89 117.73C53.7 118.13 54.69 117.8 55.09 116.98L56.15 114.84L62.87 117.9H73.8H84.61L91.33 114.84L92.39 116.98C92.54 117.29 92.77 117.52 93.05 117.68C93.51 117.94 94.08 117.98 94.59 117.73L97.04 116.52C97.14 116.47 97.24 116.41 97.32 116.34C97.67 116.07 97.88 115.68 97.94 115.26C97.95 115.16 97.96 115.05 97.95 114.94C97.94 114.73 97.88 114.51 97.78 114.31L96.81 112.33L99.12 111.28L101.43 110.23C101.38 110.12 101.31 109.32 101.22 108.15C101.21 107.98 101.19 107.81 101.18 107.62C101.15 107.26 101.12 106.86 101.1 106.45C101.06 105.83 101.01 105.17 100.97 104.49C100.94 104.04 100.91 103.57 100.88 103.11C100.79 101.71 100.69 100.3 100.61 99.07C100.58 98.66 100.55 98.27 100.53 97.91C100.51 97.69 100.5 97.48 100.48 97.28L101.33 96.72L109.35 90.34L109.79 89.9C110.25 90.01 110.73 90.08 111.22 90.08C114.49 90.08 117.15 87.43 117.15 84.15C117.15 80.88 114.5 78.22 111.22 78.22C108.13 78.22 105.59 80.59 105.32 83.61L104.77 83.9L99.75 87.89L94.73 91.88L94.29 91.76L95.13 87.41C95.29 86.62 94.94 85.84 94.3 85.42L94.74 83.25C94.81 82.9 94.63 82.57 94.32 82.42L95.05 80.94L95.78 81.09C95.78 81.09 103.39 81.51 103.58 80.98L102.42 80.74C102.42 80.74 102.59 80.29 102.87 79.55L104.01 79.78C104.2 79.25 104.4 78.72 104.6 78.19L103.48 77.96C103.63 77.59 103.78 77.19 103.95 76.77L105.05 77C105.25 76.47 105.46 75.94 105.67 75.41L104.58 75.19C104.74 74.8 104.9 74.4 105.06 74L106.14 74.22C106.35 73.69 106.57 73.16 106.79 72.64L105.71 72.42C105.88 72.02 106.05 71.62 106.21 71.24L107.29 71.46C107.4 71.2 107.52 70.93 107.63 70.67C107.75 70.4 107.87 70.14 107.98 69.89L106.9 69.67C107.09 69.25 107.27 68.85 107.45 68.5L108.56 68.73C108.84 68.19 109.12 67.67 109.41 67.19L108.28 66.96C108.5 66.58 108.74 66.2 109 65.82L110.13 66.05C110.49 65.52 110.85 65.02 111.22 64.56L110.09 64.33C110.38 63.95 110.69 63.59 111 63.23L112.16 63.47C112.65 62.95 113.14 62.48 113.63 62.06L112.34 61.8C112.72 61.42 113.11 61.07 113.49 60.75L114.94 61.05C115.66 60.55 116.38 60.13 117.09 59.78L115.38 59.43C115.9 59.15 116.55 58.84 117.25 58.53L119.08 58.91C120.17 58.49 121.21 58.16 122.18 57.83L119.98 57.38C120.74 57.07 121.46 56.78 122.08 56.52L124.31 56.98C124.88 56.7 125.32 56.33 125.67 55.9L125.74 55.55L124.72 55.34L124.97 54.1L125.99 54.31L126.33 52.66L125.3 52.45L125.55 51.21L126.58 51.42L126.92 49.77L125.88 49.56L126.21 47.91L127.25 48.12L128.12 43.87L128.32 42.91L128.45 42.29C128.81 40.78 127.81 39.26 126.26 38.94Z" fill="#4F5254"/>
<path opacity="0.5" d="M106.99 88.32L106.98 88.31C106.99 88.31 106.99 88.31 106.99 88.32Z" fill="#4F5254"/>
<path d="M48.36 76.39L49.46 79.32V88.99L49.82 91.07L69.78 86.87L95.24 92.23L96.49 93.32L97.35 92.76L105.37 86.37L106.24 85.51L102.99 84.31L101.66 81.35L101.7 79.47L100.79 79.94L90.76 87.93L89.49 87.59V80.19L90.07 79.03L91.8 75.52L80.35 74.26L55.4 73.96L48.36 76.39Z" fill="#1195C2"/>
<path d="M81.02 39.72H58.54C49.9 39.72 42.9 46.72 42.9 55.36V59.29C42.9 66.53 47.82 72.62 54.5 74.4C53.03 74.58 51.92 74.68 51.74 74.61L50.94 74.77L51.41 76.39L58.83 74.93H80.87L88.14 76.39L88.61 74.77L87.81 74.61C87.62 74.69 86.48 74.59 85.02 74.41C91.71 72.64 96.65 66.54 96.65 59.29V55.36C96.66 46.72 89.65 39.72 81.02 39.72Z" fill="#F4B400"/>
<path d="M80.1 34.38L78.96 40.74L85.76 41.38L92.12 46.06L94.46 50.33L95.49 58.64L93.86 65.98L88.79 71.74L83.32 74.26L86.08 74.95L88.14 76.39L91.8 77.14L93.8 76.41L98.44 76.79C98.44 76.79 102.25 66.67 104.01 63.48C105.77 60.29 108.96 56.76 111.41 55.44C113.86 54.12 119.1 52.22 119.8 51.76C120.5 51.3 120.75 51.35 120.75 51.35L122.55 42.41L124.16 39.9L124.36 38.94L99.27 31.33L79.8 29.8L79.6 30.76L80.1 34.38Z" fill="#4F5254"/>
<path d="M15.19 38.95L15.39 39.91L17.19 42.92L19.11 51.8C19.11 51.8 28.03 54.05 31.73 58.22C35.43 62.39 37.75 67.97 39.16 72.04C40.57 76.1 41.26 77.12 41.26 77.12L47.75 77.15L51.41 76.4L55.81 74.27L49.65 70.74L45.23 65.7L43.72 57.9L44.22 51.99L46.94 46.3L53.41 41.39L60.85 40.64L59.4 33.79L59.98 30.77L59.78 29.81L37.79 33.13L15.19 38.95Z" fill="#4F5254"/>
<path d="M59.9497 30.7636L15.3779 39.9091L16.2502 44.1606L60.822 35.0151L59.9497 30.7636Z" fill="#65CDF0"/>
<path d="M59.63 29.18C59.31 27.63 57.79 26.63 56.24 26.95C54.65 27.05 52.99 27.18 51.28 27.35L51.23 27.12C51.07 26.36 50.33 25.87 49.58 26.03L46.84 26.59C46.17 26.73 45.71 27.33 45.72 27.99C42.88 28.38 39.91 28.87 36.82 29.5C33.49 30.18 30.33 30.94 27.36 31.76C27.11 31.14 26.45 30.77 25.78 30.91L23.05 31.48C22.29 31.63 21.8 32.37 21.96 33.13L22.01 33.36C20.37 33.88 18.79 34.41 17.29 34.94C15.74 35.26 14.74 36.78 15.06 38.33L15.19 38.95L59.76 29.8L59.63 29.18Z" fill="#65CDF0"/>
<path d="M79.5943 30.7577L78.7219 35.0091L123.294 44.1546L124.166 39.9032L79.5943 30.7577Z" fill="#65CDF0"/>
<path d="M122.26 34.94C120.76 34.4 119.19 33.87 117.55 33.35L117.6 33.12C117.76 32.36 117.27 31.62 116.51 31.47L113.77 30.91C113.1 30.77 112.44 31.14 112.19 31.76C109.22 30.94 106.06 30.18 102.73 29.5C99.65 28.88 96.68 28.38 93.83 27.99C93.85 27.33 93.39 26.73 92.71 26.59L89.97 26.03C89.21 25.87 88.47 26.36 88.32 27.12L88.27 27.35C86.56 27.18 84.9 27.05 83.31 26.95C81.76 26.63 80.24 27.63 79.92 29.18L79.8 29.8L124.37 38.95L124.5 38.33C124.81 36.78 123.81 35.26 122.26 34.94Z" fill="#65CDF0"/>
<path d="M97.75 43.63L95.49 43.17L95.02 44.79L97.28 45.25L97.75 43.63Z" fill="#B7BDC2"/>
<path d="M98.58 40.8L96.32 40.34L95.85 41.96L98.11 42.42L98.58 40.8Z" fill="#B7BDC2"/>
<path d="M96.45 48.08L96.92 46.46L94.95 46.06C95.37 46.68 95.74 47.33 96.07 48.01L96.45 48.08Z" fill="#B7BDC2"/>
<path d="M92.67 39.59L78.39 36.66L78.05 38.31L79.48 38.6H81.02C83.82 38.6 86.46 39.29 88.78 40.51L92.2 41.21L92.67 39.59Z" fill="#B7BDC2"/>
<path d="M97.78 56.77V57.36L108.19 59.5C108.68 58.98 109.17 58.51 109.66 58.09L98.09 55.72L97.78 56.77Z" fill="#B7BDC2"/>
<path d="M96.34 66.07L103.32 67.5C103.43 67.24 103.55 66.97 103.66 66.71C103.78 66.44 103.9 66.18 104.01 65.93L96.95 64.48C96.78 65.02 96.57 65.55 96.34 66.07Z" fill="#B7BDC2"/>
<path d="M97.3 63.26L104.59 64.76C104.87 64.22 105.15 63.7 105.44 63.22L97.62 61.61C97.54 62.17 97.43 62.72 97.3 63.26Z" fill="#B7BDC2"/>
<path d="M94.84 68.76L102.18 70.27C102.39 69.74 102.61 69.21 102.83 68.69L95.78 67.24C95.49 67.76 95.17 68.27 94.84 68.76Z" fill="#B7BDC2"/>
<path d="M91.8 77.14C91.8 77.14 99.41 77.56 99.6 77.03L92.27 75.53L91.8 77.14Z" fill="#B7BDC2"/>
<path d="M97.78 59.29C97.78 59.65 97.77 60 97.75 60.35L106.16 62.08C106.52 61.55 106.88 61.05 107.25 60.59L97.78 58.65V59.29Z" fill="#B7BDC2"/>
<path d="M93.9 70.01L93.47 71.49L101.09 73.05C101.29 72.52 101.5 71.99 101.71 71.46L94 69.88C93.97 69.92 93.93 69.96 93.9 70.01Z" fill="#B7BDC2"/>
<path d="M92.63 74.31L100.03 75.83C100.22 75.3 100.42 74.77 100.62 74.24L93.1 72.7L92.63 74.31Z" fill="#B7BDC2"/>
<path d="M102.24 41.55L101.77 43.17L122.62 47.45L122.96 45.81L102.24 41.55Z" fill="#B7BDC2"/>
<path d="M100.93 46L122.03 50.33L122.37 48.69L101.41 44.38L100.93 46Z" fill="#B7BDC2"/>
<path d="M99.27 51.66L115.11 54.91C116.2 54.49 117.24 54.16 118.21 53.83L99.74 50.04L99.27 51.66Z" fill="#B7BDC2"/>
<path d="M98.44 54.49L110.96 57.06C111.68 56.56 112.4 56.14 113.11 55.79L98.91 52.88L98.44 54.49Z" fill="#B7BDC2"/>
<path d="M100.1 48.83L120.34 52.98C120.91 52.7 121.35 52.33 121.7 51.9L121.77 51.55L100.57 47.2L100.1 48.83Z" fill="#B7BDC2"/>
<path d="M43.1001 48.08L43.4701 48C43.8001 47.32 44.1801 46.68 44.5901 46.05L42.6201 46.45L43.1001 48.08Z" fill="#B7BDC2"/>
<path d="M42.2701 45.25L44.5301 44.79L44.06 43.17L41.8 43.63L42.2701 45.25Z" fill="#B7BDC2"/>
<path d="M43.7 41.96L43.23 40.34L40.97 40.8L41.44 42.42L43.7 41.96Z" fill="#B7BDC2"/>
<path d="M38.1401 44.38L17.1801 48.69L17.5201 50.33L38.6201 46L38.1401 44.38Z" fill="#B7BDC2"/>
<path d="M37.31 41.55L16.59 45.81L16.93 47.45L37.79 43.17L37.31 41.55Z" fill="#B7BDC2"/>
<path d="M61.16 36.66L46.88 39.59L47.35 41.21L50.77 40.51C53.09 39.29 55.73 38.6 58.53 38.6H60.07L61.5 38.31L61.16 36.66Z" fill="#B7BDC2"/>
<path d="M38.97 47.22L17.77 51.57L17.84 51.92C18.19 52.34 18.63 52.71 19.2 53L39.44 48.85L38.97 47.22Z" fill="#B7BDC2"/>
<path d="M46.44 72.69L38.92 74.23C39.12 74.76 39.32 75.29 39.51 75.82L46.91 74.3L46.44 72.69Z" fill="#B7BDC2"/>
<path d="M45.66 70.01C45.62 69.97 45.59 69.92 45.55 69.88L37.85 71.46C38.06 71.99 38.26 72.52 38.47 73.05L46.09 71.49L45.66 70.01Z" fill="#B7BDC2"/>
<path d="M41.9401 61.61L34.1201 63.22C34.4101 63.7 34.6901 64.22 34.9701 64.76L42.2601 63.26C42.1201 62.72 42.0201 62.17 41.9401 61.61Z" fill="#B7BDC2"/>
<path d="M43.78 67.24L36.73 68.69C36.95 69.21 37.17 69.74 37.38 70.27L44.72 68.76C44.38 68.27 44.07 67.76 43.78 67.24Z" fill="#B7BDC2"/>
<path d="M42.6 64.48L35.54 65.93C35.66 66.19 35.78 66.45 35.89 66.71C36 66.97 36.12 67.23 36.23 67.5L43.21 66.07C42.98 65.55 42.78 65.02 42.6 64.48Z" fill="#B7BDC2"/>
<path d="M41.78 59.29V58.64L32.31 60.58C32.68 61.04 33.04 61.54 33.4 62.07L41.81 60.34C41.79 60 41.78 59.65 41.78 59.29Z" fill="#B7BDC2"/>
<path d="M41.78 56.77L41.47 55.71L29.9 58.08C30.39 58.5 30.88 58.97 31.37 59.49L41.78 57.35V56.77Z" fill="#B7BDC2"/>
<path d="M40.6301 52.88L26.4301 55.79C27.1401 56.15 27.8601 56.56 28.5801 57.06L41.1001 54.49L40.6301 52.88Z" fill="#B7BDC2"/>
<path d="M39.8 50.05L21.34 53.84C22.31 54.17 23.35 54.5 24.44 54.92L40.28 51.67L39.8 50.05Z" fill="#B7BDC2"/>
<path d="M39.95 77.03C40.14 77.57 47.75 77.14 47.75 77.14L47.28 75.52L39.95 77.03Z" fill="#B7BDC2"/>
<path d="M78.64 46.84H60.92C55.31 46.84 50.77 51.39 50.77 56.99V57.66C50.77 63.27 55.32 67.81 60.92 67.81H78.64C84.25 67.81 88.79 63.26 88.79 57.66V56.99C88.79 51.38 84.24 46.84 78.64 46.84Z" fill="#727679"/>
<path d="M81.02 39.72H58.54C49.9 39.72 42.9 46.72 42.9 55.36V59.29C42.9 66.53 47.82 72.62 54.5 74.4C53.03 74.58 51.92 74.68 51.74 74.61L50.94 74.77L51.41 76.39L58.83 74.93H80.87L88.14 76.39L88.61 74.77L87.81 74.61C87.62 74.69 86.48 74.59 85.02 74.41C91.71 72.64 96.65 66.54 96.65 59.29V55.36C96.66 46.72 89.65 39.72 81.02 39.72ZM94.65 58.37C94.65 66.37 88.48 72.85 80.87 72.85H58.69C51.08 72.85 44.91 66.37 44.91 58.37V56.28C44.91 48.28 51.08 41.8 58.69 41.8H80.86C88.47 41.8 94.64 48.28 94.64 56.28V58.37H94.65Z" fill="#727679"/>
<path d="M48.4 83.46L49.46 88.99L64.1 85.96L63.04 80.43C62.87 79.58 62.15 78.97 61.33 78.9L60.86 76.58C60.78 76.16 60.37 75.9 59.95 75.98L58.04 76.37C57.62 76.45 57.36 76.86 57.44 77.28L57.9 79.53L52.6 80.63L52.19 78.61C52.11 78.19 51.7 77.93 51.28 78.01L49.37 78.4C48.95 78.48 48.69 78.89 48.77 79.31L49.21 81.48C48.59 81.89 48.24 82.67 48.4 83.46Z" fill="#B7BDC2"/>
<path d="M91.15 83.46C91.31 82.67 90.96 81.89 90.32 81.47L90.76 79.3C90.84 78.88 90.58 78.48 90.16 78.39L88.25 78C87.83 77.92 87.43 78.18 87.34 78.6L86.93 80.62L81.63 79.52L82.09 77.27C82.17 76.85 81.91 76.45 81.49 76.36L79.58 75.97C79.16 75.89 78.76 76.15 78.67 76.57L78.2 78.89C77.38 78.97 76.66 79.57 76.49 80.42L75.43 85.95L90.07 88.98L91.15 83.46Z" fill="#B7BDC2"/>
<path d="M107.24 85.79C110.333 85.79 112.84 83.2828 112.84 80.19C112.84 77.0972 110.333 74.59 107.24 74.59C104.147 74.59 101.64 77.0972 101.64 80.19C101.64 83.2828 104.147 85.79 107.24 85.79Z" fill="#D64122"/>
<path d="M107.24 74.26C103.97 74.26 101.31 76.91 101.31 80.19C101.31 83.46 103.96 86.12 107.24 86.12C110.51 86.12 113.17 83.47 113.17 80.19C113.17 76.92 110.52 74.26 107.24 74.26ZM107.24 85.09C104.54 85.09 102.34 82.9 102.34 80.19C102.34 77.48 104.53 75.29 107.24 75.29C109.94 75.29 112.14 77.48 112.14 80.19C112.14 82.9 109.95 85.09 107.24 85.09Z" fill="#4F5254"/>
<path d="M107.24 75.9C104.87 75.9 102.95 77.82 102.95 80.19C102.95 82.56 104.87 84.48 107.24 84.48C109.61 84.48 111.53 82.56 111.53 80.19C111.53 77.82 109.61 75.9 107.24 75.9Z" fill="#4F5254"/>
<path d="M96.29 91.38L69.78 86.38L43.27 91.38C43.12 90.88 42.31 105.77 42.09 106.27L46.7 108.37L45.73 110.35C45.33 111.16 45.66 112.15 46.48 112.55L48.93 113.76C49.74 114.16 50.73 113.83 51.13 113.01L52.19 110.87L58.91 113.93H80.66L87.38 110.87L88.44 113.01C88.84 113.82 89.83 114.16 90.64 113.76L93.09 112.55C93.9 112.15 94.24 111.16 93.84 110.35L92.87 108.37L97.48 106.27C97.25 105.77 96.44 90.88 96.29 91.38Z" fill="#727679"/>
<path d="M69.78 93.32C65.37 93.32 61.8 96.89 61.8 101.3C61.8 105.71 65.37 109.28 69.78 109.28C74.19 109.28 77.76 105.71 77.76 101.3C77.76 96.89 74.18 93.32 69.78 93.32ZM69.78 108.29C65.92 108.29 62.79 105.16 62.79 101.3C62.79 97.44 65.92 94.31 69.78 94.31C73.64 94.31 76.77 97.44 76.77 101.3C76.77 105.16 73.64 108.29 69.78 108.29Z" fill="#B7BDC2"/>
<path d="M42.09 106.27H42.07C42.08 106.29 42.08 106.29 42.09 106.27Z" fill="#B7BDC2"/>
<path d="M96.29 91.38L69.78 86.38L43.27 91.38C43.12 90.88 42.31 105.77 42.09 106.27L46.7 108.37L45.73 110.35C45.33 111.16 45.66 112.15 46.48 112.55L48.93 113.76C49.74 114.16 50.73 113.83 51.13 113.01L52.19 110.87L58.91 113.93H80.66L87.38 110.87L88.44 113.01C88.84 113.82 89.83 114.16 90.64 113.76L93.09 112.55C93.9 112.15 94.24 111.16 93.84 110.35L92.87 108.37L97.48 106.27C97.25 105.77 96.44 90.88 96.29 91.38ZM92.63 92.65C93.51 92.65 94.22 93.36 94.22 94.24C94.22 95.12 93.51 95.83 92.63 95.83C91.75 95.83 91.04 95.12 91.04 94.24C91.05 93.36 91.76 92.65 92.63 92.65ZM69.78 87.42C70.66 87.42 71.37 88.13 71.37 89.01C71.37 89.89 70.66 90.6 69.78 90.6C68.9 90.6 68.19 89.89 68.19 89.01C68.19 88.13 68.9 87.42 69.78 87.42ZM46.92 92.65C47.8 92.65 48.51 93.36 48.51 94.24C48.51 95.12 47.8 95.83 46.92 95.83C46.04 95.83 45.33 95.12 45.33 94.24C45.33 93.36 46.04 92.65 46.92 92.65ZM44.12 104.13C44.12 103.25 44.83 102.54 45.71 102.54C46.59 102.54 47.3 103.25 47.3 104.13C47.3 105.01 46.59 105.72 45.71 105.72C44.83 105.71 44.12 105 44.12 104.13ZM59.56 112.39C58.68 112.39 57.97 111.68 57.97 110.8C57.97 109.92 58.68 109.21 59.56 109.21C60.44 109.21 61.15 109.92 61.15 110.8C61.14 111.68 60.43 112.39 59.56 112.39ZM69.78 110.96C64.44 110.96 60.12 106.63 60.12 101.3C60.12 95.96 64.45 91.64 69.78 91.64C75.12 91.64 79.44 95.97 79.44 101.3C79.44 106.63 75.11 110.96 69.78 110.96ZM80 112.39C79.12 112.39 78.41 111.68 78.41 110.8C78.41 109.92 79.12 109.21 80 109.21C80.88 109.21 81.59 109.92 81.59 110.8C81.58 111.68 80.87 112.39 80 112.39ZM93.85 105.71C92.97 105.71 92.26 105 92.26 104.12C92.26 103.24 92.97 102.53 93.85 102.53C94.73 102.53 95.44 103.24 95.44 104.12C95.43 105 94.72 105.71 93.85 105.71Z" fill="#4F5254"/>
<path d="M97.48 106.27H97.46C97.47 106.29 97.47 106.29 97.48 106.27Z" fill="#B7BDC2"/>
<path d="M65.45 85.51L69.78 84.9L74.11 85.51C74.11 85.51 74.81 80.28 75.23 79.35C75.65 78.42 77.19 78.09 77.19 78.09L77.8 75.84L69.79 75.97L61.78 75.84L62.39 78.09C62.39 78.09 63.93 78.42 64.35 79.35C64.75 80.28 65.45 85.51 65.45 85.51Z" fill="#B7BDC2"/>
<path d="M100.19 87.72L99.77 87.19L95.94 90.24C96.67 90.39 97.14 90.49 97.14 90.49L97.36 92.76L105.38 86.38C104.6 86.15 103.89 85.77 103.27 85.28L100.19 87.72Z" fill="#4F5254"/>
<path d="M100.79 80.19C100.79 80.11 100.79 80.03 100.8 79.94L90.77 87.92L90.58 89.1C91.44 89.28 92.34 89.47 93.19 89.65L98.43 85.48L98.01 84.95L101.2 82.41C100.92 81.72 100.79 80.97 100.79 80.19Z" fill="#4F5254"/>
<g opacity="0.5">
<path d="M102.99 84.31L101.66 81.35L101.7 79.47L100.79 79.94L90.76 87.93L89.49 87.59V80.19L90.07 79.03L91.8 75.52L80.35 74.26L69.84 74.13V86.88L95.24 92.23L96.49 93.32L97.35 92.76L105.37 86.37L106.24 85.51L102.99 84.31Z" fill="#1195C2"/>
<path d="M81.02 39.72H69.84V74.94H80.87L88.14 76.4L88.61 74.78L87.81 74.62C87.62 74.7 86.48 74.6 85.02 74.42C91.71 72.65 96.65 66.55 96.65 59.3V55.37C96.66 46.72 89.65 39.72 81.02 39.72Z" fill="#F4B400"/>
<path d="M80.1 34.38L78.96 40.74L85.76 41.38L92.12 46.06L94.46 50.33L95.49 58.64L93.86 65.98L88.79 71.74L83.32 74.26L86.08 74.95L88.14 76.39L91.8 77.14L93.8 76.41L98.44 76.79C98.44 76.79 102.25 66.67 104.01 63.48C105.77 60.29 108.96 56.76 111.41 55.44C113.86 54.12 119.1 52.22 119.8 51.76C120.5 51.3 120.75 51.35 120.75 51.35L122.55 42.41L124.16 39.9L124.36 38.94L99.27 31.33L79.8 29.8L79.6 30.76L80.1 34.38Z" fill="#4F5254"/>
<path d="M79.5942 30.7577L78.7219 35.0091L123.294 44.1546L124.166 39.9032L79.5942 30.7577Z" fill="#65CDF0"/>
<path d="M122.26 34.94C120.76 34.4 119.19 33.87 117.55 33.35L117.6 33.12C117.76 32.36 117.27 31.62 116.51 31.47L113.77 30.91C113.1 30.77 112.44 31.14 112.19 31.76C109.22 30.94 106.06 30.18 102.73 29.5C99.65 28.88 96.68 28.38 93.83 27.99C93.85 27.33 93.39 26.73 92.71 26.59L89.97 26.03C89.21 25.87 88.47 26.36 88.32 27.12L88.27 27.35C86.56 27.18 84.9 27.05 83.31 26.95C81.76 26.63 80.24 27.63 79.92 29.18L79.8 29.8L124.37 38.95L124.5 38.33C124.81 36.78 123.81 35.26 122.26 34.94Z" fill="#65CDF0"/>
<path d="M97.75 43.63L95.49 43.17L95.02 44.79L97.28 45.25L97.75 43.63Z" fill="#B7BDC2"/>
<path d="M98.58 40.8L96.32 40.34L95.85 41.96L98.11 42.42L98.58 40.8Z" fill="#B7BDC2"/>
<path d="M96.45 48.08L96.92 46.46L94.95 46.06C95.37 46.68 95.74 47.33 96.07 48.01L96.45 48.08Z" fill="#B7BDC2"/>
<path d="M92.67 39.59L78.39 36.66L78.05 38.31L79.48 38.6H81.02C83.82 38.6 86.46 39.29 88.78 40.51L92.2 41.21L92.67 39.59Z" fill="#B7BDC2"/>
<path d="M97.78 56.77V57.36L108.19 59.5C108.68 58.98 109.17 58.51 109.66 58.09L98.09 55.72L97.78 56.77Z" fill="#B7BDC2"/>
<path d="M96.34 66.07L103.32 67.5C103.43 67.24 103.55 66.97 103.66 66.71C103.78 66.44 103.9 66.18 104.01 65.93L96.95 64.48C96.78 65.02 96.57 65.55 96.34 66.07Z" fill="#B7BDC2"/>
<path d="M97.3 63.26L104.59 64.76C104.87 64.22 105.15 63.7 105.44 63.22L97.62 61.61C97.54 62.17 97.43 62.72 97.3 63.26Z" fill="#B7BDC2"/>
<path d="M94.84 68.76L102.18 70.27C102.39 69.74 102.61 69.21 102.83 68.69L95.78 67.24C95.49 67.76 95.17 68.27 94.84 68.76Z" fill="#B7BDC2"/>
<path d="M91.8 77.14C91.8 77.14 99.41 77.56 99.6 77.03L92.27 75.53L91.8 77.14Z" fill="#B7BDC2"/>
<path d="M97.78 59.29C97.78 59.65 97.77 60 97.75 60.35L106.16 62.08C106.52 61.55 106.88 61.05 107.25 60.59L97.78 58.65V59.29Z" fill="#B7BDC2"/>
<path d="M93.9 70.01L93.47 71.49L101.09 73.05C101.29 72.52 101.5 71.99 101.71 71.46L94 69.88C93.97 69.92 93.93 69.96 93.9 70.01Z" fill="#B7BDC2"/>
<path d="M92.63 74.31L100.03 75.83C100.22 75.3 100.42 74.77 100.62 74.24L93.1 72.7L92.63 74.31Z" fill="#B7BDC2"/>
<path d="M102.24 41.55L101.77 43.17L122.62 47.45L122.96 45.81L102.24 41.55Z" fill="#B7BDC2"/>
<path d="M100.93 46L122.03 50.33L122.37 48.69L101.41 44.38L100.93 46Z" fill="#B7BDC2"/>
<path d="M99.27 51.66L115.11 54.91C116.2 54.49 117.24 54.16 118.21 53.83L99.74 50.04L99.27 51.66Z" fill="#B7BDC2"/>
<path d="M98.44 54.49L110.96 57.06C111.68 56.56 112.4 56.14 113.11 55.79L98.91 52.88L98.44 54.49Z" fill="#B7BDC2"/>
<path d="M100.1 48.83L120.34 52.98C120.91 52.7 121.35 52.33 121.7 51.9L121.77 51.55L100.57 47.2L100.1 48.83Z" fill="#B7BDC2"/>
<path d="M78.64 46.84H69.84V67.82H78.64C84.25 67.82 88.79 63.27 88.79 57.67V57C88.79 51.38 84.24 46.84 78.64 46.84Z" fill="#727679"/>
<path d="M81.02 39.72H69.84V41.8H80.87C88.48 41.8 94.65 48.28 94.65 56.28V58.37C94.65 66.37 88.48 72.85 80.87 72.85H69.84V74.93H80.87L88.14 76.39L88.61 74.77L87.81 74.61C87.62 74.69 86.48 74.59 85.02 74.41C91.71 72.64 96.65 66.54 96.65 59.29V55.36C96.66 46.72 89.65 39.72 81.02 39.72Z" fill="#727679"/>
<path d="M91.15 83.46C91.31 82.67 90.96 81.89 90.32 81.47L90.76 79.3C90.84 78.88 90.58 78.48 90.16 78.39L88.25 78C87.83 77.92 87.43 78.18 87.34 78.6L86.93 80.62L81.63 79.52L82.09 77.27C82.17 76.85 81.91 76.45 81.49 76.36L79.58 75.97C79.16 75.89 78.76 76.15 78.67 76.57L78.2 78.89C77.38 78.97 76.66 79.57 76.49 80.42L75.43 85.95L90.07 88.98L91.15 83.46Z" fill="#B7BDC2"/>
<path d="M107.24 85.79C110.333 85.79 112.84 83.2828 112.84 80.19C112.84 77.0972 110.333 74.59 107.24 74.59C104.147 74.59 101.64 77.0972 101.64 80.19C101.64 83.2828 104.147 85.79 107.24 85.79Z" fill="#F4B400"/>
<path d="M107.24 74.26C103.97 74.26 101.31 76.91 101.31 80.19C101.31 83.46 103.96 86.12 107.24 86.12C110.51 86.12 113.17 83.47 113.17 80.19C113.17 76.92 110.52 74.26 107.24 74.26ZM107.24 85.09C104.54 85.09 102.34 82.9 102.34 80.19C102.34 77.48 104.53 75.29 107.24 75.29C109.94 75.29 112.14 77.48 112.14 80.19C112.14 82.9 109.95 85.09 107.24 85.09Z" fill="#4F5254"/>
<path d="M107.24 75.9C104.87 75.9 102.95 77.82 102.95 80.19C102.95 82.56 104.87 84.48 107.24 84.48C109.61 84.48 111.53 82.56 111.53 80.19C111.53 77.82 109.61 75.9 107.24 75.9Z" fill="#4F5254"/>
<path d="M92.85 108.37L97.46 106.27C97.25 105.77 96.44 90.88 96.28 91.38L69.84 86.4V113.93H80.65L87.37 110.87L88.43 113.01C88.83 113.82 89.82 114.16 90.63 113.76L93.08 112.55C93.89 112.15 94.23 111.16 93.83 110.35L92.85 108.37Z" fill="#727679"/>
<path d="M69.84 93.32V94.31C73.67 94.34 76.77 97.46 76.77 101.3C76.77 105.14 73.67 108.25 69.84 108.29V109.28C74.22 109.25 77.76 105.69 77.76 101.3C77.76 96.91 74.22 93.35 69.84 93.32Z" fill="#B7BDC2"/>
<path d="M92.85 108.37L97.46 106.27C97.25 105.77 96.44 90.88 96.28 91.38L69.84 86.4V87.43C70.69 87.46 71.37 88.15 71.37 89.01C71.37 89.87 70.69 90.56 69.84 90.59V91.64C75.15 91.67 79.44 95.98 79.44 101.3C79.44 106.62 75.15 110.92 69.84 110.96V113.93H80.65L87.37 110.87L88.43 113.01C88.83 113.82 89.82 114.16 90.63 113.76L93.08 112.55C93.89 112.15 94.23 111.16 93.83 110.35L92.85 108.37ZM80 112.39C79.12 112.39 78.41 111.68 78.41 110.8C78.41 109.92 79.12 109.21 80 109.21C80.88 109.21 81.59 109.92 81.59 110.8C81.58 111.68 80.87 112.39 80 112.39ZM91.05 94.23C91.05 93.35 91.76 92.64 92.64 92.64C93.52 92.64 94.23 93.35 94.23 94.23C94.23 95.11 93.52 95.82 92.64 95.82C91.76 95.82 91.05 95.11 91.05 94.23ZM92.26 104.13C92.26 103.25 92.97 102.54 93.85 102.54C94.73 102.54 95.44 103.25 95.44 104.13C95.44 105.01 94.73 105.72 93.85 105.72C92.97 105.71 92.26 105 92.26 104.13Z" fill="#4F5254"/>
<path d="M97.48 106.27H97.46C97.47 106.29 97.47 106.29 97.48 106.27Z" fill="#B7BDC2"/>
<path d="M69.84 75.96V84.9L74.11 85.5C74.11 85.5 74.81 80.27 75.23 79.34C75.65 78.41 77.19 78.08 77.19 78.08L77.8 75.83L69.84 75.96Z" fill="#B7BDC2"/>
<path d="M100.19 87.72L99.7699 87.19L95.9399 90.24C96.6699 90.39 97.1399 90.49 97.1399 90.49L97.3599 92.76L105.38 86.38C104.6 86.15 103.89 85.77 103.27 85.28L100.19 87.72Z" fill="#4F5254"/>
<path d="M100.79 80.19C100.79 80.11 100.79 80.03 100.8 79.94L90.77 87.92L90.58 89.1C91.44 89.28 92.34 89.47 93.19 89.65L98.43 85.48L98.01 84.95L101.2 82.41C100.92 81.72 100.79 80.97 100.79 80.19Z" fill="#4F5254"/>
</g>
</g>
<defs>
<clipPath id="clip0_511_2788">
<rect width="113.55" height="91.93" fill="white" transform="translate(15 26)"/>
</clipPath>
</defs>
</svg>
