<svg width="450" height="450" viewBox="0 0 450 450" fill="none" xmlns="http://www.w3.org/2000/svg">
<path d="M224.6 101.707C224.6 101.707 232.691 153.733 319.9 155.169C397.35 156.444 372.735 248.563 345.243 277.529C309.63 315.052 239.835 305.236 236.172 348.911C232.509 392.586 134.114 375.63 135.79 309.78C137.875 227.865 93.0061 252.773 70.2912 230.862C53.9886 215.136 59.5922 142.341 111.266 134.007C154.748 126.994 152.494 108.572 155.951 94.9337C160.936 75.2646 211.344 57.4474 224.6 101.707Z" fill="#FFE59A"/>
<path d="M306.642 286.902C306.647 288.224 306.39 289.534 305.888 290.756C305.385 291.979 304.646 293.09 303.713 294.027C302.78 294.963 301.672 295.706 300.451 296.213C299.231 296.721 297.922 296.982 296.6 296.982L135.524 297.31C134.203 297.313 132.894 297.056 131.672 296.553C130.45 296.05 129.339 295.311 128.403 294.378C127.466 293.445 126.723 292.337 126.216 291.117C125.708 289.897 125.446 288.589 125.444 287.267L125.218 174.011L214.376 118.037C214.775 117.785 215.236 117.651 215.708 117.648C216.18 117.646 216.643 117.777 217.044 118.024L304.327 172.349L306.416 173.646V175.458L306.642 286.902Z" fill="#F4B400"/>
<path d="M293.5 127.785H137.175C136.803 127.785 136.5 128.087 136.5 128.46V295.736C136.5 296.109 136.803 296.411 137.175 296.411H293.5C293.873 296.411 294.175 296.109 294.175 295.736V128.46C294.175 128.087 293.873 127.785 293.5 127.785Z" fill="#F2CC62"/>
<path d="M296.439 296.822L216.489 235.864C216.425 235.815 216.373 235.751 216.338 235.678C216.303 235.605 216.286 235.525 216.288 235.444C216.29 235.363 216.311 235.284 216.35 235.213C216.389 235.141 216.444 235.081 216.511 235.035L305.611 174.137C305.687 174.084 305.777 174.054 305.87 174.049C305.963 174.043 306.055 174.063 306.138 174.107C306.22 174.15 306.289 174.215 306.337 174.295C306.385 174.374 306.41 174.465 306.411 174.558L306.636 286.848C306.641 289.486 305.611 292.02 303.767 293.906C301.923 295.792 299.412 296.879 296.775 296.933C296.653 296.935 296.535 296.896 296.439 296.822Z" fill="#DCA200"/>
<path d="M135.66 297.144L215.365 235.867C215.429 235.817 215.481 235.754 215.515 235.68C215.55 235.607 215.567 235.527 215.565 235.446C215.562 235.365 215.54 235.286 215.501 235.215C215.463 235.144 215.407 235.083 215.34 235.038L125.999 174.496C125.922 174.444 125.832 174.414 125.739 174.409C125.646 174.404 125.554 174.424 125.472 174.468C125.39 174.512 125.321 174.577 125.273 174.657C125.225 174.736 125.2 174.828 125.2 174.921L125.425 287.21C125.43 289.848 126.471 292.378 128.322 294.256C130.173 296.135 132.688 297.212 135.325 297.256C135.446 297.257 135.564 297.217 135.66 297.144Z" fill="#DCA200"/>
<path d="M296.587 296.935L135.512 297.257C133.075 297.255 130.722 296.372 128.885 294.77C127.049 293.168 125.855 290.956 125.522 288.542C125.467 288.13 125.515 287.711 125.661 287.323C125.806 286.934 126.046 286.587 126.358 286.313L214.209 208.59C214.668 208.184 215.259 207.959 215.872 207.958C216.484 207.957 217.076 208.179 217.537 208.583L305.697 285.954C306.01 286.227 306.251 286.573 306.398 286.961C306.546 287.349 306.595 287.768 306.542 288.18C306.219 290.595 305.033 292.812 303.204 294.421C301.374 296.03 299.024 296.923 296.587 296.935Z" fill="#F4B400"/>
<path d="M176.514 169.313C179.642 169.313 182.177 165.932 182.177 161.762C182.177 157.592 179.642 154.212 176.514 154.212C173.387 154.212 170.851 157.592 170.851 161.762C170.851 165.932 173.387 169.313 176.514 169.313Z" fill="white"/>
<path d="M255.794 169.313C258.922 169.313 261.457 165.932 261.457 161.762C261.457 157.592 258.922 154.212 255.794 154.212C252.667 154.212 250.132 157.592 250.132 161.762C250.132 165.932 252.667 169.313 255.794 169.313Z" fill="white"/>
<path d="M237.548 194.348C237.357 194.348 237.169 194.3 237.002 194.207C236.835 194.114 236.694 193.981 236.593 193.819C236.534 193.725 230.375 184.211 216.061 183.019C210.103 182.523 204.449 184.182 199.263 187.951C196.95 189.612 194.895 191.607 193.165 193.869C192.993 194.111 192.732 194.276 192.44 194.326C192.147 194.377 191.846 194.309 191.603 194.139C191.359 193.968 191.193 193.708 191.141 193.416C191.089 193.123 191.154 192.822 191.323 192.578C191.417 192.443 193.68 189.243 197.873 186.18C203.446 182.107 209.8 180.24 216.248 180.776C231.732 182.066 238.232 192.196 238.5 192.627C238.607 192.797 238.666 192.992 238.671 193.193C238.676 193.394 238.628 193.592 238.531 193.768C238.433 193.944 238.291 194.09 238.118 194.192C237.945 194.294 237.748 194.348 237.547 194.348L237.548 194.348Z" fill="white"/>
</svg>
