<svg width="108" height="107" viewBox="0 0 82 81" fill="none" xmlns="http://www.w3.org/2000/svg">
    <path opacity="0.8"
        d="M73.5095 61.0277C73.4279 55.2866 67.224 53.3782 64.5582 52.8318C58.8109 51.6361 52.3705 52.9743 49.2645 55.9993C47.8297 57.393 47.3732 58.8579 47.2264 59.8557L39.6448 60.8218C39.8078 60.703 39.9709 60.5842 40.1421 60.4575C40.2644 60.3625 40.3948 60.2675 40.5171 60.1724C40.778 59.9745 41.0307 59.7844 41.2834 59.5865C41.4057 59.4914 41.5198 59.3964 41.6421 59.3093C41.903 59.1034 42.1638 58.9054 42.4166 58.7075C42.6041 58.557 42.7753 58.4224 42.9546 58.2799C43.134 58.1373 43.3133 57.9948 43.4845 57.8523C43.8269 57.5751 44.153 57.3059 44.4546 57.0525C44.5932 56.9337 44.7237 56.807 44.8297 56.6724C45.0742 56.3715 45.2536 56.0151 45.3514 55.6429C45.3922 55.5083 45.4248 55.3737 45.4411 55.2312L45.8487 51.7153C46.1503 51.2797 46.3623 50.7729 46.4357 50.2345L46.8107 47.5184C46.9003 46.8532 46.7617 46.2039 46.4357 45.6496C46.1666 45.1982 45.7835 44.8102 45.2862 44.5409L37.5741 40.2728L37.5823 37.7309C37.5823 37.5962 37.5007 37.4616 37.3132 37.3587C36.9545 37.1528 36.3676 37.1528 36.0089 37.3508C35.8295 37.4537 35.7398 37.5804 35.7398 37.715V37.7229L35.7317 39.2592L27.4163 34.6584C27.1392 29.1391 21.1065 27.2782 18.4896 26.7318C15.3835 26.0904 12.09 26.1854 9.21224 26.8822C7.94863 26.32 7.12525 26.0191 7.12525 26.0191C6.73394 25.8766 6.29372 26.0666 6.14697 26.4467C6.03284 26.7476 6.13067 27.0802 6.36709 27.2703C6.36709 27.2703 6.53828 27.4049 6.83177 27.6345C5.38066 28.2205 4.1252 28.9807 3.17954 29.8993C2.50289 30.5565 2.04637 31.2296 1.73658 31.8631L0.774605 31.3167L0.0979643 31.6968C0.0408981 31.9898 0.0164412 32.2907 0.00828893 32.5837L0.000136628 37.4141C-0.016168 39.568 1.42679 41.7298 4.34531 43.3848C4.67141 43.5669 5.0138 43.7332 5.3562 43.8995L5.31544 48.9279C5.32359 49.4426 5.5274 49.7673 6.01654 50.0603C7.38612 50.8838 8.92691 51.3273 10.378 51.9687C13.4351 53.3307 15.2042 54.5264 15.7912 54.9144C16.3292 55.2787 17.6091 56.1973 18.7097 57.3851C19.7858 60.703 22.1092 64.3298 24.7668 66.1194C24.7016 66.444 24.6527 66.9192 24.6446 67.418C24.6364 67.711 24.6446 68.004 24.669 68.2653C24.6772 68.3287 24.6772 68.392 24.6853 68.4475C24.7261 68.8038 24.7913 68.9859 24.8565 68.9939L25.7859 69.0097C25.8837 69.3027 26.0794 69.5561 26.3565 69.7145L27.2207 70.2054V70.348C27.2207 70.5618 27.1229 70.7597 26.9435 70.8943L22.1826 74.4815C22.1744 74.4894 22.1744 74.4894 22.1663 74.4974C21.9787 74.529 21.7994 74.6399 21.6934 74.8062L19.6146 78.1558C19.2477 78.1558 18.9053 78.2983 18.726 78.5913C18.4406 79.0744 18.6852 79.7316 19.2803 80.0642C19.8755 80.3968 20.5847 80.2859 20.8782 79.8029C21.0575 79.5099 21.0249 79.1456 20.8456 78.8289L22.9081 75.511C22.957 75.4318 22.9815 75.3447 22.9978 75.2496L27.6446 71.7496C27.6854 71.7179 27.718 71.6783 27.7587 71.6387C27.7587 71.6466 27.7587 71.6545 27.7587 71.6545C27.8403 72.1851 28.2397 72.6365 28.8185 72.874C28.9816 72.9374 29.1202 72.9374 29.2098 72.9215C29.9925 72.8344 30.6936 71.1478 30.0006 70.6172C29.8783 70.5222 29.6908 70.4588 29.4952 70.4192L30.5631 69.8253C30.824 69.6828 30.987 69.4136 30.987 69.1206V69.0572L31.3784 68.978C31.8349 69.5007 32.4545 69.9362 33.18 70.2292C33.5795 70.3876 33.93 70.3876 34.1583 70.3559C35.1366 70.245 36.0578 69.1522 36.5306 67.9169L48.596 65.4304C50.789 68.2495 54.9385 69.271 57.0581 69.6194C57.0092 69.6115 57.0092 69.6115 57.0581 69.6194C64.5501 70.6014 72.3926 68.1545 73.3709 62.4213C73.379 62.3818 73.3872 62.3422 73.3953 62.3026C73.3953 62.2867 73.4035 62.2709 73.4035 62.2551C73.4035 62.263 73.3953 62.2709 73.3953 62.2788C73.4524 61.9937 73.4932 61.7166 73.4932 61.4315L73.5095 61.0277ZM51.433 61.875L55.9086 61.1702L56.9358 61.1464L55.9576 61.3998C55.9576 61.3998 52.7374 61.7562 51.4575 61.9066C51.4493 61.8908 51.4412 61.8829 51.433 61.875ZM51.3026 61.7087C51.2048 61.5661 51.1069 61.4157 51.0254 61.2652L54.5391 61.1939L51.3026 61.7087ZM54.6695 61.7245L51.9303 62.4293C51.808 62.3105 51.702 62.1917 51.5961 62.0729L54.6695 61.7245ZM56.0146 61.574L57.7348 61.384L56.3896 61.9779L52.5499 62.9757C52.3868 62.849 52.2238 62.7223 52.0852 62.5876L56.0146 61.574ZM56.1206 56.5932L58.1342 58.2878L58.2402 58.4462L57.482 58.5412L57.425 58.5095L55.4032 56.8149C55.6396 56.7436 55.876 56.6645 56.1206 56.5932ZM57.588 56.2764L58.9576 58.0819L59.0473 58.3432L58.5744 58.4066L58.2973 58.169L57.0418 56.3715C57.2212 56.3398 57.4005 56.3081 57.588 56.2764ZM58.6478 56.126C58.7538 56.1181 58.8598 56.1181 58.9658 56.1022L59.7402 57.9314L59.7565 58.2482L59.3734 58.2957L59.1369 57.979L58.5092 56.1418C58.5581 56.1418 58.5989 56.1339 58.6478 56.126ZM64.868 56.6407L63.1968 58.3511L62.4223 58.85C62.4142 58.8342 62.406 58.8183 62.3897 58.8104L62.724 58.3036C62.724 58.3036 63.849 57.3217 64.6805 56.5932C64.7457 56.6011 64.8028 56.6249 64.868 56.6407ZM69.205 62.358L66.1968 61.6216C66.1968 61.6216 68.6099 61.8512 69.5637 61.9383C69.4496 62.0808 69.3355 62.2234 69.205 62.358ZM69.686 61.7799L64.9495 61.3286L63.5881 60.996L65.1778 60.9643C65.1778 60.9643 68.7159 61.3444 69.8817 61.4632C69.8246 61.5661 69.7594 61.6691 69.686 61.7799ZM60.4169 65.2562L60.2701 63.4429L60.4087 62.9757L60.7756 62.8965L61.0201 63.4745L61.1017 65.2325C60.8734 65.2483 60.6451 65.2562 60.4169 65.2562ZM54.3434 63.0707L56.4793 62.1363L57.8163 61.7878L56.8706 62.3897L55.8597 62.8014L54.3434 63.0707ZM62.5446 59.0163V59.0084L62.5772 58.9846L62.5446 59.0163ZM62.2267 62.548L62.0555 62.4055C62.0718 62.3976 62.0881 62.3817 62.1044 62.3738L62.2267 62.548ZM61.6152 62.7539L61.5174 62.6272C61.5337 62.6193 61.55 62.6193 61.5663 62.6114L61.6152 62.7539ZM60.9957 62.9044L60.9712 62.849C60.9794 62.849 60.9875 62.841 60.9957 62.841V62.9044ZM58.5092 61.6136C58.5092 61.6532 58.5174 61.6849 58.5255 61.7245L57.8896 61.9858L58.444 61.6295L58.5092 61.6136ZM57.6614 59.6023L57.588 59.5865L57.6206 59.5785L57.6614 59.6023ZM58.7456 62.1204L58.3788 62.358L58.6804 62.0492C58.6967 62.0729 58.7212 62.0888 58.7456 62.1204ZM62.6343 60.7426L62.8544 60.7109L63.7838 60.8139L62.9033 60.8297L62.6343 60.7663V60.7426ZM62.6587 59.9903V59.8636L63.3925 59.6736L62.6587 59.9903ZM62.6424 59.6181V59.5231L63.0664 59.3568L62.6424 59.6181ZM56.8462 59.7052L57.5554 59.9824L56.0391 59.8399L56.0228 59.8319L56.8462 59.7052ZM58.1668 60.2279L58.4114 60.3229L58.069 60.3308L57.2864 60.1408L58.1668 60.2279ZM58.5092 61.2969V61.3602L58.338 61.4711L57.5799 61.6691L58.3951 61.3127L58.5092 61.2969ZM57.001 62.556L58.4848 61.9541L58.0364 62.4134L56.8951 62.6193L57.001 62.556ZM61.2892 65.2404L61.2321 63.9813L61.7538 65.2166C61.5989 65.2246 61.444 65.2325 61.2892 65.2404ZM61.2076 63.4033L61.175 62.7223C61.1832 62.7143 61.1913 62.7064 61.1995 62.6985C61.2321 62.6906 61.2729 62.6906 61.3055 62.6827L61.8191 63.3478L62.4305 65.1533C62.2756 65.1691 62.1207 65.1771 61.9658 65.1929L61.2076 63.4033ZM62.1941 63.8467L63.1153 65.0583C62.9522 65.082 62.7892 65.1058 62.6261 65.1216L62.1941 63.8467ZM61.9903 63.2528L61.7538 62.548C61.7946 62.5322 61.8272 62.5164 61.868 62.5005L62.6587 63.1657L63.8897 64.9237C63.7104 64.9632 63.531 64.9949 63.3435 65.0266L61.9903 63.2528ZM64.1017 64.8841L63.2457 63.6646L64.5664 64.7732C64.4115 64.8128 64.2566 64.8524 64.1017 64.8841ZM64.8028 64.7178L62.8218 63.0469L62.2756 62.263C62.3082 62.2392 62.3326 62.2155 62.3571 62.1917L63.531 62.8173L65.5284 64.496C65.2838 64.5752 65.0392 64.6465 64.8028 64.7178ZM62.4875 62.0571C62.5038 62.0333 62.512 62.0096 62.5283 61.9937L62.8218 62.2392L62.4875 62.0571ZM62.6424 61.0593V61.0197L62.887 61.0118L63.6696 61.2019L62.7892 61.1148L62.6424 61.0593ZM69.9795 61.289L66.5719 60.9247C66.5719 60.9247 69.4578 60.8614 70.1752 60.8297C70.1263 60.9881 70.061 61.1385 69.9795 61.289ZM65.1778 60.7743L63.5392 60.6L65.0881 60.3546C65.0881 60.3546 69.311 60.2675 70.0366 60.2358C70.1018 60.3783 70.1589 60.5129 70.2078 60.6555L65.1778 60.7743ZM69.5637 59.4598L65.0474 60.1724L64.0202 60.1962L64.9985 59.9428L69.5474 59.436C69.5474 59.4439 69.5556 59.4518 69.5637 59.4598ZM66.4088 60.1408L69.686 59.6181C69.7839 59.7686 69.8817 59.9111 69.9632 60.0616L66.4088 60.1408ZM66.2865 59.6181L69.0746 58.9054C69.1969 59.0242 69.3029 59.143 69.4089 59.2697L66.2865 59.6181ZM64.9414 59.7686L63.2213 59.9586L64.5664 59.3647L68.455 58.3591C68.6181 58.4858 68.773 58.6125 68.9197 58.7471L64.9414 59.7686ZM65.6588 58.8896L67.8436 57.9314C67.9903 58.0265 68.1289 58.1136 68.2675 58.2086L65.6588 58.8896ZM64.4686 59.1984L63.1316 59.5469L64.0772 58.945L67.33 57.6305C67.3708 57.6543 67.4197 57.678 67.4686 57.7018C67.5338 57.7414 67.5909 57.781 67.648 57.8127L64.4686 59.1984ZM64.9658 58.3749L66.6615 57.29C66.8083 57.3613 66.955 57.4326 67.1017 57.5118L64.9658 58.3749ZM66.4414 57.195L63.955 58.7867L62.6343 59.3172V59.238L62.6261 59.2222L63.3354 58.4937L65.7648 56.9258C66.0012 57.0129 66.2213 57.1 66.4414 57.195ZM63.9631 57.8523C63.9631 57.8523 64.5501 57.2504 65.08 56.704C65.2267 56.7516 65.3816 56.7912 65.5284 56.8466L63.9631 57.8523ZM63.1397 57.6701L63.9631 56.419C64.1262 56.4506 64.2892 56.4902 64.4441 56.5298L63.1397 57.6701ZM62.5609 58.169L62.0962 58.5729C62.0799 58.5649 62.0799 58.557 62.0636 58.5491C61.9576 58.4858 61.8435 58.4382 61.7212 58.3907L61.8191 58.0185L63.0093 56.2448C63.2457 56.2844 63.4821 56.3081 63.7104 56.3556C63.7267 56.3556 63.7348 56.3635 63.743 56.3635L62.5609 58.169ZM62.7892 56.2131L61.9984 57.4009L62.3408 56.1577C62.4875 56.1656 62.6343 56.1893 62.7892 56.2131ZM61.6479 57.9156L61.3951 58.2957C61.3218 58.2799 61.2402 58.264 61.1669 58.2561C61.0935 58.1848 60.9957 58.1452 60.8897 58.1373L60.8734 57.9473L61.4359 56.0785C61.6723 56.0943 61.9006 56.1101 62.1288 56.1339L61.6479 57.9156ZM60.8326 57.4009L60.7185 56.0468C60.8897 56.0468 61.0609 56.0468 61.2321 56.0547L60.8326 57.4009ZM60.6777 57.8998L60.6044 58.1453L60.0826 58.2086L59.9277 57.8523L59.8462 56.0468C60.0745 56.0389 60.3027 56.0468 60.531 56.0468L60.6777 57.8998ZM59.7158 57.3613L59.1777 56.0943C59.3326 56.0864 59.4956 56.0706 59.6505 56.0626L59.7158 57.3613ZM58.7538 57.488L57.8081 56.2448C57.9712 56.221 58.1342 56.1973 58.3054 56.1735L58.7538 57.488ZM57.7021 57.678L56.357 56.5457C56.5119 56.5061 56.6749 56.4665 56.8298 56.4348L57.7021 57.678ZM55.1912 56.8941L56.5934 58.0661L54.7102 57.0604C54.8651 56.997 55.0363 56.9495 55.1912 56.8941ZM54.4901 57.1554L57.1641 58.5887L56.4222 58.6837L54.0825 57.3534C54.2211 57.29 54.3515 57.2188 54.4901 57.1554ZM53.4874 57.6385C53.6097 57.5672 53.7483 57.5197 53.8787 57.4563L55.819 58.557L53.3977 57.6939C53.4222 57.678 53.4548 57.6543 53.4874 57.6385ZM53.1939 57.8127L55.8353 58.755L55.1668 58.8421L52.9493 57.9631C53.0309 57.9156 53.1124 57.8681 53.1939 57.8127ZM52.7618 58.0898L54.7836 58.8896L54.6206 58.9134L52.3542 58.3986C52.4928 58.2878 52.6233 58.1848 52.7618 58.0898ZM52.1912 58.5333L54.1233 58.9767L53.0472 59.1113L51.8732 58.8263C51.9792 58.7312 52.077 58.6283 52.1912 58.5333ZM51.7265 58.9767L52.558 59.1826L51.4412 59.3251C51.5308 59.2064 51.6205 59.0876 51.7265 58.9767ZM53.1369 60.2754L54.3842 60.41L51.9059 60.4654L53.1369 60.2754ZM53.8298 60.1724L55.2809 59.9507L55.9983 60.022L57.3597 60.3546L55.7701 60.3862L53.8298 60.1724ZM58.0445 60.5129L58.3706 60.5921L58.0935 60.6317L57.1559 60.5288L58.0445 60.5129ZM52.7374 63.1103L55.2972 62.4451L53.5282 63.2211L53.039 63.3082C52.933 63.2449 52.8352 63.1736 52.7374 63.1103ZM55.9902 63.8863L55.232 64.3773C55.0445 64.306 54.857 64.2347 54.6776 64.1555L55.9902 63.8863ZM56.5364 63.7754L56.7483 63.7358L55.9005 64.6069C55.7537 64.5673 55.6233 64.5119 55.4766 64.4644L56.5364 63.7754ZM57.107 63.6567L57.6532 63.5458L56.3163 64.7099C56.251 64.694 56.1858 64.6782 56.1287 64.6623L57.107 63.6567ZM57.8163 63.6725L57.0173 64.8841C56.8625 64.8524 56.6994 64.8128 56.5445 64.7732L57.8163 63.6725ZM58.2239 63.427L59.1533 63.237L59.1288 63.3162L57.963 65.0504C57.7184 65.0108 57.4739 64.9712 57.2293 64.9237L58.2239 63.427ZM58.9576 63.9417L58.6234 65.1454C58.4766 65.1295 58.3299 65.1058 58.1831 65.082L58.9576 63.9417ZM59.3081 63.427L59.4793 63.1657L60.05 63.0469L60.0745 63.3953L59.5201 65.2246C59.2837 65.2087 59.0554 65.185 58.819 65.1612L59.3081 63.427ZM60.1234 63.9338L60.2294 65.2483C60.0663 65.2483 59.8951 65.2404 59.7321 65.2325L60.1234 63.9338ZM65.7322 64.4248L64.3544 63.2686L66.1887 64.2506C66.042 64.3139 65.8952 64.3773 65.7322 64.4248ZM63.6615 62.6827L62.7892 61.9462L64.1262 62.4213L66.849 63.9734C66.7104 64.0368 66.5637 64.1001 66.417 64.1635L63.6615 62.6827ZM67.4849 63.6567C67.3463 63.7358 67.1996 63.8071 67.0528 63.8784L65.137 62.7856L67.5257 63.6329C67.5094 63.6408 67.5012 63.6487 67.4849 63.6567ZM67.7213 63.5141L64.224 62.2709L63.2865 61.7403L64.6234 62.0492L67.9659 63.3716C67.8844 63.4112 67.8028 63.4587 67.7213 63.5141ZM68.1615 63.237L65.8218 62.3105L68.5529 62.9361C68.4224 63.039 68.3001 63.1419 68.1615 63.237ZM64.6968 61.867L63.3925 61.3523L64.9088 61.4949L69.042 62.5005C68.936 62.6035 68.8382 62.6985 68.7241 62.8014L64.6968 61.867ZM70.3708 59.7448C70.3708 59.6498 70.3545 59.5548 70.3464 59.4598C70.3627 59.5627 70.3708 59.6577 70.3708 59.7448ZM50.6259 59.3647C50.6341 59.2776 50.6341 59.1905 50.6504 59.1113C50.6423 59.1905 50.6341 59.2776 50.6259 59.3647ZM50.7238 58.8342C50.7482 58.755 50.7645 58.6679 50.789 58.5887C50.7645 58.6679 50.7482 58.7471 50.7238 58.8342ZM55.7701 60.5605L57.4087 60.7347L55.8597 60.9801L50.9357 61.0831C50.8705 60.9485 50.8134 60.8139 50.7645 60.6713L55.7701 60.5605ZM48.0743 63.9892C47.9846 63.8625 47.9031 63.7279 47.8297 63.6012C47.9031 63.7358 47.9846 63.8625 48.0743 63.9892ZM47.6748 63.3399C47.6014 63.1974 47.5362 63.0548 47.4792 62.9044C47.5444 63.0469 47.6014 63.1974 47.6748 63.3399ZM47.3813 62.6668C47.308 62.4451 47.2427 62.2155 47.202 61.9858C47.2427 62.2155 47.308 62.4372 47.3813 62.6668ZM55.5825 67.8219C56.0228 67.9169 56.463 68.0119 56.9277 68.0832C56.626 68.0357 56.3244 67.9803 56.0309 67.9248C55.8679 67.8932 55.7293 67.8536 55.5825 67.8219ZM54.0581 67.8061C53.8787 67.7506 53.6912 67.6952 53.52 67.6398C53.6994 67.6952 53.8787 67.7506 54.0581 67.8061ZM51.0173 66.1431C51.3923 66.3569 51.7836 66.547 52.2075 66.737C51.7917 66.5549 51.3923 66.3569 51.0173 66.1431ZM52.6233 66.9112C52.9167 67.03 53.2102 67.1488 53.52 67.2518C53.2184 67.1409 52.9167 67.03 52.6233 66.9112ZM54.0662 67.418C54.3597 67.5131 54.6613 67.5923 54.9711 67.6714C54.6613 67.6002 54.3597 67.5131 54.0662 67.418ZM58.7864 68.2891C58.6315 68.2812 58.4766 68.2733 58.3299 68.2574C58.4766 68.2733 58.6315 68.2733 58.7864 68.2891ZM69.8817 66.0877C69.6208 66.2382 69.3436 66.3886 69.0665 66.5232C69.3436 66.3886 69.6208 66.2461 69.8817 66.0877ZM68.83 66.6341C68.6099 66.737 68.3735 66.84 68.1452 66.935C68.3735 66.84 68.6018 66.745 68.83 66.6341ZM66.8001 67.426C66.5229 67.5131 66.2376 67.5923 65.9441 67.6714C66.2295 67.5923 66.5148 67.5131 66.8001 67.426ZM64.5745 67.9723C64.2158 68.0357 63.8571 68.099 63.4903 68.1466C63.8571 68.099 64.224 68.0436 64.5745 67.9723ZM63.2131 68.1862C63.0582 68.202 62.8952 68.2257 62.7403 68.2416C62.6506 68.2495 62.5609 68.2495 62.4712 68.2574C62.7158 68.2337 62.9685 68.2099 63.2131 68.1862ZM72.5638 63.7358C72.4497 63.9021 72.3274 64.0605 72.1888 64.211C72.3274 64.0526 72.4497 63.8942 72.5638 63.7358ZM27.2207 36.6381C27.2207 36.6539 27.2125 36.6618 27.2125 36.6777C27.2207 36.6618 27.2207 36.6539 27.2207 36.6381ZM18.8075 30.5486L17.9515 31.4276C17.87 31.3801 17.7966 31.3325 17.7151 31.293C18.0167 31.0316 18.3347 30.7545 18.62 30.5011C18.6852 30.509 18.7504 30.5248 18.8075 30.5486ZM12.6688 32.6946L12.7014 32.7262L12.6933 32.7342L12.6688 32.6946ZM19.1499 32.1244L20.601 31.1979C20.7477 31.2692 20.8945 31.3405 21.0412 31.4197L19.207 32.164C19.1907 32.1482 19.1744 32.1403 19.1499 32.1244ZM23.5032 33.3597L21.6445 33.6527C21.5956 33.6211 21.5467 33.5894 21.4978 33.5577L23.4869 33.336C23.4951 33.3439 23.4951 33.3518 23.5032 33.3597ZM23.9435 35.1573C23.8456 35.0939 23.756 35.0306 23.65 34.9593C23.5521 34.896 23.4462 34.8247 23.3483 34.7613C23.6826 34.7534 23.9598 34.7455 24.1228 34.7376C24.0739 34.8801 24.0087 35.0227 23.9435 35.1573ZM15.2368 39.1404L15.1797 37.8813L15.7015 39.1166C15.5384 39.1245 15.3917 39.1325 15.2368 39.1404ZM14.9433 36.8123L14.8699 36.6381C14.8944 36.6381 14.9107 36.6381 14.9352 36.6302L14.9433 36.8123ZM14.0221 37.3032L13.6308 38.594L12.9949 38.2377L13.2395 37.3349L13.7449 36.5747C13.8101 36.5906 13.8835 36.5985 13.9569 36.6143L14.0221 37.3032ZM15.5547 36.6618L15.4569 36.5351C15.4732 36.5272 15.4895 36.5272 15.5058 36.5193L15.5547 36.6618ZM16.7613 36.1392L16.427 35.9571C16.4433 35.9333 16.4515 35.9096 16.4678 35.8937L16.7613 36.1392ZM18.0493 38.792L17.1933 37.5725L18.514 38.6811C18.3591 38.7207 18.2042 38.7603 18.0493 38.792ZM18.7423 38.6177L16.7613 36.9469L16.2151 36.163C16.2477 36.1392 16.2721 36.1154 16.2966 36.0917L17.4705 36.7173L19.4678 38.396C19.2233 38.4831 18.9869 38.5544 18.7423 38.6177ZM16.1743 36.4559L16.0031 36.3134C16.0194 36.3055 16.0357 36.2897 16.052 36.2817L16.1743 36.4559ZM16.5982 33.8982V33.7794C16.639 33.8032 16.6798 33.8269 16.7205 33.8507L16.5982 33.8982ZM15.8075 36.4084L16.5982 37.0736L17.8292 38.8316C17.6499 38.8711 17.4705 38.9028 17.283 38.9345L15.9297 37.1528L15.6933 36.448C15.7341 36.4401 15.7748 36.4243 15.8075 36.4084ZM17.0629 38.9662C16.8999 38.9899 16.7368 39.0137 16.5738 39.0295L16.1335 37.7546L17.0629 38.9662ZM19.6798 38.3327L18.3021 37.1765L20.1363 38.1585C19.9896 38.2218 19.8347 38.2772 19.6798 38.3327ZM17.601 36.5906L16.7287 35.8541L18.0656 36.3292L20.7967 37.8813C20.6581 37.9447 20.5113 38.008 20.3646 38.0714L17.601 36.5906ZM21.4325 37.5566C21.294 37.6358 21.1472 37.6992 21.0005 37.7784L19.0847 36.6856L21.4733 37.5329C21.457 37.5487 21.4407 37.5566 21.4325 37.5566ZM21.9135 37.2637C21.832 37.3112 21.7505 37.3666 21.669 37.4141L18.1716 36.1709L17.2341 35.6403L18.5711 35.9491L21.9135 37.2637ZM19.7695 36.2184L22.5005 36.844C22.3701 36.9469 22.2478 37.0498 22.1092 37.1449L19.7695 36.2184ZM16.7368 35.0227L16.5901 34.9672V34.9276L16.8346 34.9197L17.6173 35.1098L16.7368 35.0227ZM16.5819 34.6663V34.6426L16.802 34.6109L17.7314 34.7138L16.8509 34.7297L16.5819 34.6663ZM17.4787 34.5L17.8211 34.4446C17.8944 34.4842 17.9678 34.5238 18.0412 34.5634L17.4787 34.5ZM13.5493 36.5114L13.4188 36.7093L13.4759 36.4876C13.5004 36.4955 13.5248 36.5035 13.5493 36.5114ZM12.4569 35.5215C12.4569 35.5611 12.465 35.5928 12.4732 35.6324L11.8373 35.8937L12.3916 35.5374L12.4569 35.5215ZM12.6933 36.0204L12.3264 36.258L12.6281 35.9491C12.6444 35.9729 12.6688 35.9967 12.6933 36.0204ZM12.9052 36.2105C12.9297 36.2263 12.946 36.2421 12.9705 36.258L12.7503 36.448L12.9052 36.2105ZM12.4487 35.2602L12.2775 35.3711L11.5193 35.569L12.3346 35.2127L12.4569 35.1969L12.4487 35.2602ZM11.7639 35.6958L10.8182 36.2976L10.1008 36.5906L9.70138 36.3609L10.4269 36.0442L11.7639 35.6958ZM10.9405 36.4559L12.4242 35.8541L11.552 36.7489L11.0057 37.0974L10.4351 36.7727L10.9405 36.4559ZM11.6987 36.8915L12.5791 36.3213L12.1715 36.939L11.6009 37.4299L11.3155 37.2716L11.6987 36.8915ZM12.3346 37.0736L13.158 36.353C13.1987 36.3768 13.2476 36.3926 13.2965 36.4164L13.0764 37.2161L12.571 37.9763L11.9677 37.6358L12.3346 37.0736ZM12.9052 37.8496L12.8237 38.1347L12.7422 38.0872L12.9052 37.8496ZM14.2259 36.6381L14.177 36.8044L14.1607 36.6381C14.1851 36.6381 14.2015 36.6381 14.2259 36.6381ZM15.2531 36.5826L15.7667 37.2557L16.3781 39.0612C16.2232 39.077 16.0683 39.085 15.9134 39.1008L15.1553 37.3112L15.1227 36.6064C15.1634 36.5985 15.2042 36.5906 15.2531 36.5826ZM18.6445 35.7749L17.3401 35.2602L18.8564 35.4028L20.3646 35.767C20.8945 36.0363 21.4081 36.2897 21.8891 36.5193L18.6445 35.7749ZM18.8972 35.2285L17.5357 34.896L18.6282 34.8722C18.8564 34.991 19.0928 35.1256 19.3211 35.2365C19.3456 35.2523 19.37 35.2602 19.3863 35.2681L18.8972 35.2285ZM13.696 32.1323V32.2036C13.59 32.2274 13.4759 32.259 13.3781 32.2986L13.0764 31.8948L13.0194 31.7285C13.2476 31.8631 13.4759 31.9977 13.696 32.1323ZM12.9052 31.9898L13.0601 32.4412C12.9786 32.4887 12.9134 32.5362 12.8482 32.5837L12.2367 32.069L11.2177 30.6119C11.609 30.8574 12.0166 31.1108 12.4324 31.3642L12.9052 31.9898ZM12.4569 33.2568V33.3281L12.0737 33.0113L12.465 33.2172C12.465 33.233 12.4569 33.2489 12.4569 33.2568ZM12.0085 34.2308L11.2259 34.0407L12.1063 34.1278L12.3509 34.2229L12.0085 34.2308ZM12.3183 34.4921L12.0411 34.5317L11.1036 34.4288L11.9922 34.405L12.3183 34.4921ZM10.3291 35.8779L9.31007 36.1392L8.7068 35.7987L9.96225 35.4819L11.6824 35.2919L10.3291 35.8779ZM8.47038 35.6641L8.43777 35.6482L8.60897 35.6324L8.47038 35.6641ZM9.89703 35.2998C9.89703 35.2998 9.11441 35.3869 8.16875 35.4899L7.95679 35.3711L9.85627 35.0702L10.8835 35.0464L9.89703 35.2998ZM7.69591 35.2285L7.50841 35.1256L8.48668 35.1018L7.69591 35.2285ZM14.0629 37.8417L14.1525 38.887L13.8101 38.6969L14.0629 37.8417ZM14.3482 38.9978L14.2096 37.3508L14.4216 36.6539C14.4949 36.6539 14.5765 36.6539 14.6498 36.6539L14.9596 37.3904L15.0411 39.1483C14.9025 39.1562 14.764 39.1562 14.6254 39.1562L14.3482 38.9978ZM23.0875 34.5871C22.8837 34.4525 22.6798 34.3179 22.4679 34.1833C23.1608 34.1674 23.7478 34.1516 23.9761 34.1437C24.0413 34.2862 24.0983 34.4208 24.1473 34.5634L23.0875 34.5871ZM22.1989 34.0091C22.0929 33.9457 21.9869 33.8744 21.8809 33.8032L23.6255 33.526C23.7233 33.6765 23.8212 33.819 23.9027 33.9695L22.1989 34.0091ZM21.245 33.4072C21.188 33.3756 21.1309 33.336 21.082 33.3043L23.0141 32.8054C23.1364 32.9242 23.2424 33.043 23.3483 33.1697L21.245 33.4072ZM20.8619 33.1618C20.7885 33.1143 20.7233 33.0747 20.6499 33.0271C20.5358 32.9559 20.4054 32.8767 20.2831 32.8054L22.3945 32.259C22.5576 32.3857 22.7125 32.5124 22.8592 32.6471L20.8619 33.1618ZM20.063 32.6787C20.0385 32.6629 20.014 32.6471 19.9814 32.6312L21.7831 31.8393C21.9298 31.9344 22.0684 32.0215 22.207 32.1165L20.063 32.6787ZM19.7776 32.5045C19.6553 32.4332 19.5331 32.3541 19.4108 32.2828L21.2695 31.5305C21.3103 31.5543 21.3592 31.578 21.4081 31.6018C21.4733 31.6414 21.5304 31.681 21.5874 31.7126L19.7776 32.5045ZM20.389 31.1029L18.9624 32.0136C18.7749 31.9027 18.5874 31.7918 18.3999 31.681L19.7124 30.8337C19.9407 30.9129 20.1689 31.0079 20.389 31.1029ZM18.2042 31.5701C18.1798 31.5543 18.1553 31.5464 18.1309 31.5305C18.351 31.3088 18.6934 30.9525 19.0195 30.6119C19.1662 30.6595 19.3211 30.6991 19.4678 30.7545L18.2042 31.5701ZM17.5357 31.1742C17.4868 31.1504 17.4461 31.1187 17.3972 31.095L17.9026 30.319C18.0656 30.3506 18.2287 30.3902 18.3836 30.4298L17.5357 31.1742ZM17.2178 30.992C17.1933 30.9762 17.1689 30.9604 17.1444 30.9525C16.9732 30.8495 16.7939 30.7545 16.6227 30.6515L16.9569 30.1527C17.1933 30.1923 17.4298 30.216 17.658 30.2635C17.6743 30.2635 17.6825 30.2714 17.6906 30.2714L17.2178 30.992ZM16.4352 30.5486C16.3455 30.5011 16.264 30.4536 16.1743 30.4061L16.2721 30.0576C16.427 30.0735 16.5738 30.0972 16.7287 30.121L16.4352 30.5486ZM16.0031 30.311C15.8075 30.2002 15.6118 30.0972 15.4161 29.9864C15.6363 30.0022 15.8564 30.018 16.0765 30.0418L16.0031 30.311ZM10.7856 30.3427L11.6498 31.578L10.3046 30.4457C10.4595 30.4061 10.6144 30.3665 10.7775 30.3348C10.7693 30.3348 10.7775 30.3427 10.7856 30.3427ZM10.0601 30.5011L12.0737 32.1957L12.571 32.9004C12.5465 32.94 12.5221 32.9876 12.5058 33.0271L11.3726 32.4174L9.35083 30.7228C9.58725 30.6436 9.81551 30.5644 10.0601 30.5011ZM9.13887 30.7941L10.5411 31.966L8.65788 30.9604C8.81278 30.9049 8.97582 30.8574 9.13887 30.7941ZM8.43777 31.0554L11.2422 32.5599L12.1145 33.2964L10.7775 32.8213L8.03016 31.2613C8.16059 31.19 8.29103 31.1187 8.43777 31.0554ZM7.42689 31.5384C7.54917 31.4672 7.68776 31.4197 7.8182 31.3563L9.75844 32.457L7.33721 31.6018C7.36982 31.578 7.39428 31.5622 7.42689 31.5384ZM7.14155 31.7206L10.6715 32.9796L11.6009 33.5102L10.2639 33.2014L6.88883 31.871C6.97036 31.8235 7.06003 31.7681 7.14155 31.7206ZM6.70948 31.9977L9.07365 32.9321L6.31002 32.2986C6.4323 32.1957 6.56274 32.0927 6.70948 31.9977ZM6.13067 32.4332L10.1905 33.3677L11.4949 33.8824L9.97856 33.7398L5.81273 32.7342C5.91871 32.6312 6.01654 32.5362 6.13067 32.4332ZM5.66599 32.8767L8.69864 33.6131L5.31544 33.2885C5.42957 33.1538 5.5437 33.0113 5.66599 32.8767ZM5.20131 33.4627L9.94595 33.914L11.3074 34.2466L9.71768 34.2783L5.17685 33.7873L5.04641 33.7161C5.08717 33.6369 5.14424 33.5498 5.20131 33.4627ZM5.56816 34.0249L8.32364 34.3179L6.17958 34.3654L5.56816 34.0249ZM9.71768 34.4684L11.3563 34.6426L9.80736 34.888L7.19862 34.9435L6.48937 34.5396L9.71768 34.4684ZM25.4516 38.8236C25.6065 38.689 25.737 38.5465 25.8755 38.4039L25.8837 38.4119C25.7451 38.5465 25.5984 38.689 25.4516 38.8236ZM25.4435 39.2037C25.4027 39.2433 25.3538 39.275 25.313 39.3146C25.3538 39.2829 25.4027 39.2433 25.4435 39.2037ZM23.4462 40.2015C23.4299 40.2094 23.4136 40.2173 23.3972 40.2252C23.5358 40.1461 23.6907 40.0748 23.8293 39.9956C23.707 40.0669 23.5766 40.1302 23.4462 40.2015ZM4.66325 32.7421C4.68771 32.655 4.70402 32.5758 4.72847 32.4887C4.70402 32.5679 4.68771 32.655 4.66325 32.7421ZM26.0957 38.5465C26.0712 38.5782 26.0467 38.6098 26.0141 38.6415C26.0386 38.6098 26.0631 38.5782 26.0957 38.5465ZM26.4625 38.7999C26.4136 38.8236 26.3647 38.8474 26.3076 38.8791C26.3321 38.8395 26.3565 38.792 26.3891 38.7524L26.4625 38.7999ZM26.9517 36.9073C26.968 36.8756 26.9843 36.844 27.0006 36.8123C26.9924 36.8519 26.968 36.8756 26.9517 36.9073ZM43.9574 47.7955C43.9737 47.7797 43.9818 47.7559 43.9981 47.7322C43.99 47.7559 43.9737 47.7797 43.9574 47.7955ZM30.1311 40.0669C29.5848 39.766 29.0876 39.5046 28.6718 39.275L28.6473 38.499C28.6392 38.2139 28.4924 37.9447 28.2479 37.7784L27.1555 37.034C27.1962 36.9073 27.2125 36.7727 27.2451 36.6381L35.2425 41.0567C33.0007 40.1936 31.0523 39.7897 30.1311 40.0669ZM44.9601 47.2729L44.7807 48.5399C44.5606 48.3973 44.3242 48.2469 44.0633 48.0885L44.0715 47.4629C44.0796 46.8136 43.2155 45.7921 41.7562 44.6755L44.3731 46.1247C44.797 46.3543 45.0253 46.8057 44.9601 47.2729ZM40.1747 65.6047L40.191 62.2867L47.1368 61.2098V61.2335C47.1368 61.4869 47.1531 61.7403 47.202 61.9858C47.2998 62.8252 47.5362 63.5616 47.8705 64.2347L40.1747 65.6047ZM49.4602 65.4621C49.6151 65.5888 49.7781 65.7076 49.9493 65.8343C49.7781 65.7155 49.6151 65.5888 49.4602 65.4621ZM60.2701 68.7325C60.5473 68.7325 60.8326 68.7325 61.1098 68.7246C60.8245 68.7325 60.5473 68.7325 60.2701 68.7325ZM62.4631 68.6454C62.2022 68.6692 61.9332 68.685 61.6723 68.7009C61.9413 68.685 62.2022 68.6692 62.4631 68.6454ZM64.5745 68.3604C64.6398 68.3445 64.6968 68.3366 64.762 68.3208C64.705 68.3287 64.6398 68.3445 64.5745 68.3604ZM66.8001 67.8061C66.849 67.7902 66.9061 67.7744 66.955 67.7585C66.8979 67.7744 66.849 67.7902 66.8001 67.8061ZM67.8925 67.426C67.974 67.3943 68.0474 67.3626 68.1289 67.3309C68.0556 67.3547 67.974 67.3943 67.8925 67.426ZM68.83 67.0221C68.9116 66.9825 68.9849 66.9508 69.0665 66.9112C68.9849 66.9508 68.9034 66.9825 68.83 67.0221ZM69.8817 66.4757C69.9143 66.4599 69.9388 66.4361 69.9632 66.4203C69.9388 66.4361 69.9061 66.4599 69.8817 66.4757ZM70.6317 65.9848C70.6969 65.9372 70.7703 65.8897 70.8355 65.8422C70.7621 65.8897 70.6969 65.9372 70.6317 65.9848ZM72.0665 64.7415C72.1073 64.694 72.148 64.6465 72.1888 64.599C72.148 64.6465 72.1154 64.694 72.0665 64.7415ZM73.2649 62.7698C73.273 62.746 73.2812 62.7223 73.2812 62.7064C73.2812 62.7302 73.273 62.7539 73.2649 62.7698Z"
        fill="#E4E5E5" />
    <path
        d="M63.5147 13.5552L73.4932 43.8205C73.5747 44.0739 73.4361 44.3431 73.1752 44.4223C72.9225 44.5015 72.6453 44.3669 72.5638 44.1214L61.7375 14.1333C61.5663 13.6582 61.8272 13.1355 62.3163 12.9692C62.8055 12.8029 63.3435 13.0563 63.5147 13.5315C63.5066 13.5394 63.5066 13.5473 63.5147 13.5552Z"
        fill="#333333" />
    <path
        d="M25.9978 16.6277C25.5902 16.3981 25.2152 16.3743 24.9462 16.5327L24.1065 17.0078C23.8375 17.1662 23.6744 17.4829 23.6744 17.9343C23.6744 18.8449 24.3348 19.9535 25.1419 20.4049C25.6473 20.69 26.0549 20.5316 26.0386 20.5395L27.0413 20.0169C27.3022 19.8664 27.4653 19.5497 27.4653 19.0983C27.4653 18.1877 26.8049 17.0791 25.9978 16.6277Z"
        fill="#A0A0A0" />
    <path
        d="M31.4191 11.3298C31.3865 11.2902 31.3865 11.2902 31.4191 11.3298C29.6012 9.17595 24.9381 4.59102 19.7206 6.79242C21.4081 6.1906 23.5196 6.54694 25.6718 7.75058C27.2615 8.63748 28.8675 9.99157 30.3349 11.7654C34.8023 17.158 36.3105 24.3957 33.7181 27.9433C33.4817 28.2679 33.2208 28.5372 32.9436 28.7747C37.7535 25.1559 36.0578 17.2213 31.4191 11.3298Z"
        fill="#383838" />
    <path
        d="M33.3512 16.5958C32.5931 14.925 31.574 13.2779 30.3267 11.7734C30.1311 11.5358 29.9354 11.3141 29.7397 11.0924C28.4354 9.65115 27.0413 8.5267 25.6636 7.75859C23.2016 6.38073 20.7885 6.1115 19.0032 7.11717L18.6689 7.30722C20.4461 6.30155 22.8674 6.56286 25.3293 7.94863C26.7071 8.72467 28.1011 9.8412 29.4055 11.2824C29.6012 11.5041 29.7968 11.7259 29.9925 11.9634C31.2398 13.468 32.2588 15.1151 33.017 16.7859C34.9817 21.1016 35.2425 25.5756 33.3757 28.1334C32.9599 28.6956 32.4708 29.1311 31.9164 29.4479L32.2588 29.2578C32.8132 28.9411 33.3023 28.5056 33.7181 27.9433C35.5849 25.3935 35.3159 20.9195 33.3512 16.5958Z"
        fill="#4F4F4F" />
    <path
        d="M29.9925 11.9635C28.5251 10.1898 26.9191 8.83567 25.3294 7.94877C22.8674 6.57092 20.4543 6.30168 18.6689 7.30736C18.0494 7.67162 16.1499 8.78023 15.3836 11.5043C14.2178 15.6299 16.2232 21.7194 20.1445 25.9796C21.9625 27.9514 26.7397 32.2433 31.9164 29.4559C32.4708 29.1392 32.9599 28.7037 33.3757 28.1414C35.96 24.5939 34.4518 17.3562 29.9925 11.9635ZM31.0115 27.7218C29.487 29.8044 26.7234 29.8994 23.8864 28.3077C22.4924 27.5238 21.082 26.3439 19.794 24.7839C15.8727 20.0565 14.552 13.6977 16.8265 10.5936C18.351 8.511 21.1146 8.40806 23.9516 9.99971C25.3457 10.7837 26.7479 11.9635 28.0441 13.5235C31.9654 18.251 33.286 24.6097 31.0115 27.7218Z"
        fill="#383838" />
    <path
        d="M28.3049 13.1591C26.9353 11.5041 25.4353 10.2371 23.9516 9.40565C20.9352 7.71105 17.9923 7.81399 16.37 10.0391C13.9487 13.3412 15.3591 20.1038 19.5249 25.1401C20.8945 26.7951 22.3945 28.0621 23.8782 28.8936C26.8946 30.5882 29.8376 30.4852 31.4599 28.268C33.8893 24.958 32.4789 18.1954 28.3049 13.1591ZM30.93 26.7793C30.7343 27.0247 30.6691 27.0723 30.5305 27.1594C29.1202 27.9592 27.2044 27.7453 25.2478 26.6526C23.9924 25.9478 22.7206 24.8788 21.5548 23.4693C18.0167 19.1932 16.8102 13.4521 18.8727 10.641C19.1988 10.1896 19.5901 9.8491 20.0711 9.57986C20.1445 9.55611 20.2341 9.51651 20.3075 9.50068C22.1989 9.06515 26.275 10.7518 29.4381 15.8594C33.7588 22.8437 30.93 26.7793 30.93 26.7793Z"
        fill="#1E1E1E" />
    <path
        d="M24.237 26.9691L25.9327 26.011C27.8811 27.1038 29.642 27.1988 30.9219 26.4861L29.2262 27.4443C27.9463 28.1569 26.1854 28.054 24.237 26.9691Z"
        fill="#C2C2C2" />
    <path
        d="M19.2967 10.831L20.9923 9.87286C19.7287 10.5855 18.9461 12.098 18.9461 14.244C18.938 15.8832 19.3863 17.6569 20.1608 19.3515L18.4651 20.3097C17.6988 18.6151 17.2504 16.8413 17.2504 15.2021C17.2504 13.0562 18.033 11.5437 19.2967 10.831Z"
        fill="#C2C2C2" />
    <path
        d="M18.457 20.3097L20.1527 19.3516C20.8375 20.8561 21.775 22.2894 22.8674 23.501L21.1717 24.4591C20.0793 23.2476 19.1418 21.8143 18.457 20.3097Z"
        fill="#E7E7E7" />
    <path
        d="M21.1799 24.4669L22.8755 23.5088C23.7967 24.5303 24.8402 25.3934 25.9326 26.0111L24.237 26.9692C23.1364 26.3516 22.1011 25.4884 21.1799 24.4669Z"
        fill="#C2C2C2" />
    <path
        d="M31.7941 22.0518L29.3729 20.6185L31.6637 21.4025C31.6474 21.3312 31.6392 21.2599 31.6229 21.1808L28.5658 20.1355L27.2207 19.3436L28.4109 19.4307L31.4762 20.476C31.4599 20.4047 31.4354 20.3255 31.4191 20.2543L29.1772 19.4862L31.2316 19.6366C31.2072 19.5733 31.1909 19.502 31.1664 19.4386L28.4435 19.2328L27.2288 18.821L28.1908 18.6309L31.0115 18.9556C30.9871 18.8843 30.9708 18.821 30.9463 18.7497L28.8185 18.5042L30.7017 18.1321C30.6773 18.0687 30.6447 18.0133 30.6202 17.9499L28.1827 18.4251L27.0903 18.2984L27.9299 17.8787L30.4409 17.5619C30.4001 17.4986 30.3512 17.4431 30.3104 17.3798L28.4517 17.6173L29.9354 16.8809C29.8946 16.8334 29.862 16.778 29.8213 16.7305L27.8973 17.6886L26.7397 17.8391L27.4897 17.0789L29.4218 16.1999C29.3811 16.1524 29.3484 16.097 29.3077 16.0494L27.8566 16.7146L28.9653 15.5981C28.9245 15.5426 28.8838 15.4951 28.843 15.4397L27.3593 16.9363L26.4218 17.3639L27.0087 16.2632L28.4354 14.8933C28.3946 14.8458 28.3539 14.7904 28.3131 14.7429L27.3022 15.7169L28.0033 14.3786C27.9544 14.3232 27.9055 14.2677 27.8566 14.2123L26.8212 16.1682L26.0305 16.9205L26.3158 15.6139L27.3674 13.658C27.3185 13.6026 27.2696 13.5551 27.2207 13.4996L26.4707 14.8775L26.862 13.1116C26.8049 13.0483 26.7479 12.9849 26.6908 12.9295L26.112 15.5426L25.7614 16.192L25.8348 15.1705L26.5685 12.8107C26.5114 12.7553 26.4544 12.7078 26.3973 12.6523L25.8919 14.2757L26.0305 12.296C25.9652 12.2326 25.9 12.1693 25.8348 12.1139L25.631 15.123L25.2641 16.3028L25.0603 14.7508L25.2641 11.6229C25.1989 11.5675 25.1337 11.512 25.0685 11.4645L24.9217 13.6976L24.5875 11.0765C24.5141 11.0211 24.4408 10.9736 24.3674 10.9181L24.8565 14.727L24.7913 15.8198L24.4571 14.537L24.0821 10.7122C24.0087 10.6647 23.9435 10.6093 23.8701 10.5618L24.1473 13.3888L23.3157 10.3321C23.2424 10.3242 23.1771 10.3084 23.1038 10.2926L24.2614 14.5449L24.4 15.9782L23.7152 14.434L22.5494 10.2054C22.4761 10.1896 22.4027 10.1659 22.3375 10.15L23.1853 13.2225L21.7668 10.0075C21.6934 9.98372 21.6201 9.97581 21.5467 9.95205C21.5467 9.97581 23.5277 14.4736 23.5277 14.4736L23.7886 15.4239L23.2994 14.5528L21.5793 10.0787C21.5385 10.0233 21.5141 10.0154 21.4896 9.99956C21.4652 10.0075 21.4081 10.0392 21.4081 10.0392C21.3918 10.0312 21.3755 10.0708 21.3918 10.1183L22.6473 13.3888L20.9027 10.2609C20.8456 10.2134 20.8293 10.2054 20.8048 10.1975C20.7967 10.1975 20.7396 10.2371 20.7396 10.2371C20.7152 10.245 20.7152 10.2846 20.7396 10.3321L23.1282 14.6003L23.6744 16.0257L22.7043 14.727L20.2831 10.3797C20.226 10.3321 20.2097 10.3242 20.1853 10.3163C20.1771 10.3163 20.12 10.3559 20.12 10.3559C20.0956 10.3638 20.0874 10.4034 20.1119 10.4509L21.8809 13.6263L19.7206 10.7518C19.6554 10.7043 19.639 10.7043 19.6227 10.7122L19.5657 10.7518C19.582 10.7439 19.5983 10.7439 19.6146 10.7518C19.5983 10.7439 19.5738 10.7439 19.5575 10.7518C19.5331 10.7756 19.5331 10.8152 19.5657 10.8627L22.5331 14.822L23.2913 16.1761L22.3212 15.1942L19.4515 11.2666C19.3863 11.219 19.37 11.219 19.3537 11.227L19.2967 11.2666C19.313 11.2586 19.3293 11.2586 19.3456 11.2666C19.3293 11.2586 19.3048 11.2586 19.2885 11.2666C19.264 11.2824 19.264 11.3299 19.2967 11.3695L21.4407 14.2994L18.9787 11.805C18.9624 11.7971 18.938 11.7971 18.9298 11.805L18.8727 11.8446C18.8401 11.8842 18.8564 11.9317 18.889 11.9634L22.1907 15.3209L23.0712 16.5325L21.9625 15.6931L18.5956 12.201C18.5792 12.193 18.5548 12.193 18.5466 12.201L18.4896 12.2406C18.457 12.2722 18.4733 12.3277 18.5059 12.3593L21.0086 14.9725L18.3347 12.9374C18.3184 12.9295 18.3021 12.9295 18.2858 12.9374L18.2287 12.977C18.2042 13.0324 18.2205 13.0799 18.2613 13.1116L21.8565 15.8515L22.794 16.8255L21.8565 16.3028L18.3347 13.4125C18.3184 13.4046 18.3021 13.4046 18.2858 13.4125L18.2287 13.4521C18.2042 13.5075 18.2205 13.5551 18.2613 13.5867L20.9516 15.7881L18.1961 14.2519C18.1798 14.244 18.1635 14.244 18.1472 14.2519H18.0575C18.0493 14.2598 18.0412 14.2677 18.0412 14.2915C18.033 14.3311 18.0657 14.3786 18.1064 14.3944L21.7586 16.4375L22.8511 17.3323L21.7586 16.9601L18.0738 14.7825C18.0575 14.7745 18.0412 14.7745 18.033 14.7825L17.976 14.822C17.9434 14.8141 17.9352 14.83 17.9352 14.8458C17.9271 14.8775 17.9597 14.9329 18.0004 14.9567L20.8782 16.6592L18.0983 15.7089C18.082 15.701 18.0657 15.7089 18.0575 15.7089L18.0004 15.7485C18.0086 15.7406 18.0249 15.7406 18.0412 15.7485C18.0004 15.7327 17.976 15.7565 17.976 15.804C17.9841 15.8436 18.0167 15.8832 18.0575 15.9069L21.7016 17.1501L23.0467 17.9499L21.8483 17.8549L18.2124 16.6117C18.1961 16.6038 18.1798 16.6038 18.1716 16.6117L18.1146 16.6513C18.1227 16.6433 18.139 16.6433 18.1553 16.6513C18.1146 16.6354 18.0901 16.6592 18.0983 16.7067C18.0983 16.7463 18.1309 16.7859 18.1798 16.8096L21.0902 17.7995L18.3917 17.5936C18.3673 17.6015 18.3021 17.6332 18.3021 17.6332C18.2939 17.6253 18.2695 17.6569 18.2858 17.7045C18.2939 17.744 18.3184 17.7678 18.3754 17.7916L21.8239 18.0529L23.0386 18.4646L22.0766 18.6547L18.6119 18.2588C18.5874 18.2667 18.5222 18.2984 18.5222 18.2984C18.514 18.2904 18.4896 18.3221 18.5059 18.3617C18.514 18.4013 18.5385 18.4251 18.5956 18.4488L21.4407 18.7735L18.9543 19.2644C18.938 19.2724 18.8809 19.304 18.8809 19.304C18.8646 19.304 18.8564 19.3436 18.8727 19.3911L18.9706 19.4624L22.0766 18.8527L23.169 18.9714L22.3375 19.3911L19.101 19.8029C19.0847 19.8108 19.0276 19.8425 19.0276 19.8425C19.0113 19.8425 18.995 19.8821 19.0195 19.9296L19.1173 20.0009L21.8157 19.6604L19.5575 20.7848L19.5005 20.8244C19.476 20.8403 19.4679 20.8878 19.5005 20.9274L19.5494 20.9749H19.5983L22.3701 19.5891L23.5359 19.4386L22.7858 20.1988L20.0548 21.45C20.0467 21.45 19.9896 21.4896 19.9896 21.4896C19.9651 21.4975 19.9651 21.545 19.9896 21.5846L20.0467 21.6321H20.0874L22.419 20.5631L20.544 22.4082C20.5195 22.4319 20.5277 22.4794 20.601 22.5507H20.6581L20.7152 22.5111L22.8755 20.3255L23.813 19.8979L23.2342 20.9986L20.9679 23.1684C20.9434 23.1921 20.9516 23.2396 21.0249 23.3109L21.082 23.303L21.1391 23.2634L22.9407 21.5371L21.6445 23.9919C21.6282 24.0236 21.6445 24.0711 21.7097 24.1265L21.775 24.1107L21.832 24.0711L23.4136 21.0857L24.2043 20.3335L23.919 21.64L22.3456 24.5541C22.3293 24.5858 22.3456 24.6333 22.4108 24.6887L22.4679 24.6729L22.525 24.6333L23.7478 22.3765L23.1038 25.2589C23.0956 25.2985 23.1201 25.346 23.1771 25.3777C23.2098 25.3935 23.2424 25.3856 23.2424 25.3539C23.2261 25.3777 23.2831 25.346 23.2831 25.346C23.2994 25.3222 24.0984 21.7113 24.0984 21.7113L24.4489 21.062L24.3837 22.0835L23.3157 25.536C23.3076 25.5677 23.3239 25.6231 23.381 25.6627C23.4136 25.6786 23.438 25.6707 23.4462 25.639C23.4299 25.6627 23.4869 25.6231 23.4869 25.6231C23.5032 25.5994 24.3185 22.9783 24.3185 22.9783L24.1065 26.0983C24.1065 26.1379 24.131 26.1854 24.1799 26.2091C24.2125 26.225 24.2451 26.2091 24.2451 26.1775C24.2451 26.1933 24.2369 26.2091 24.2288 26.217L24.2859 26.1775C24.294 26.1695 24.3022 26.1616 24.3022 26.1379L24.5793 22.1389L24.9462 20.9511L25.15 22.5032L24.8973 26.4784C24.8973 26.518 24.9217 26.5655 24.9707 26.5892C25.0033 26.6051 25.0359 26.5892 25.0359 26.5576C25.0359 26.5734 25.0277 26.5892 25.0196 26.5971L25.0766 26.5576C25.0848 26.5496 25.0929 26.5417 25.0929 26.518L25.2804 23.5643L25.7044 26.8822C25.7125 26.9218 25.7451 26.9614 25.7859 26.9772C25.8022 26.9852 25.8185 26.9772 25.8266 26.9693L25.8837 26.9377C25.9 26.9297 25.9082 26.9139 25.9 26.8901L25.3375 22.5349L25.4027 21.4421L25.7533 22.7407L26.1853 27.0564C26.1935 27.096 26.2261 27.1356 26.2669 27.1594C26.2832 27.1673 26.2995 27.1673 26.3076 27.1594L26.3647 27.1277C26.381 27.1198 26.3892 27.1039 26.381 27.0802L26.0712 23.9048L26.9843 27.2544C26.9924 27.2861 27.0169 27.3177 27.0739 27.3415C27.1066 27.3336 27.1636 27.3019 27.1636 27.3019C27.1799 27.294 27.1881 27.2702 27.1799 27.2386L25.9571 22.7566L25.8185 21.3233L26.5033 22.8674L27.7506 27.3811C27.7587 27.4128 27.7832 27.4524 27.8403 27.4682C27.8647 27.4603 27.9299 27.4286 27.9299 27.4286C27.9462 27.4207 27.9544 27.389 27.9462 27.3573L27.0413 24.079L28.4925 27.3732L28.5903 27.4444C28.6066 27.4365 28.6637 27.4049 28.6637 27.4049C28.6881 27.389 28.6881 27.3573 28.6718 27.3257L26.6908 22.8358L26.4299 21.8855L26.9191 22.7566L28.6392 27.2306L28.737 27.3098C28.7533 27.3019 28.8185 27.2702 28.8185 27.2702C28.8348 27.2623 28.843 27.2306 28.8348 27.199L27.5794 23.9285L29.324 27.0564L29.4218 27.1198C29.43 27.1198 29.487 27.0802 29.487 27.0802C29.4952 27.0723 29.5033 27.0564 29.5033 27.0406C29.487 26.9852 27.0984 22.717 27.0984 22.717L26.5522 21.2916L27.5223 22.5903L29.9436 26.9377L30.0414 26.9931C30.0495 26.9931 30.1148 26.9535 30.1148 26.9535C30.1311 26.9456 30.1311 26.9297 30.1311 26.9139C30.1148 26.8585 28.3539 23.6831 28.3539 23.6831L30.5142 26.5576L30.5631 26.5971H30.6121L30.6691 26.5576C30.6773 26.5496 30.6854 26.5338 30.6854 26.518C30.6854 26.4229 27.718 22.4636 27.718 22.4636L26.9598 21.1095L27.9299 22.0914L30.7996 26.0191L30.8485 26.0587H30.8974L30.9544 26.0191C30.9789 26.0112 30.9789 25.9953 30.9789 25.9795C30.9544 25.9161 28.8104 22.9862 28.8104 22.9862L31.2724 25.4806L31.3295 25.4727L31.3865 25.4331C31.3947 25.4173 31.3947 25.3935 31.3865 25.3618C31.3784 25.3381 31.3702 25.3302 31.3621 25.3143L28.0604 21.9647L27.1799 20.7531L28.2886 21.5925L31.6555 25.0847C31.6882 25.0134 31.6963 24.9421 31.7045 24.8788L29.2506 22.3211L31.7534 24.2295C31.7615 24.1582 31.7615 24.079 31.7697 24.0077L28.4109 21.45L27.4734 20.476L28.4109 20.9986L31.786 23.7543C31.7941 23.6831 31.7941 23.6039 31.8023 23.5326L29.3321 21.5054L31.8186 22.8991C31.8186 22.8278 31.8186 22.7566 31.8186 22.6853L28.5006 20.8323L27.4082 19.9375L28.5006 20.3097L31.8186 22.2735C31.8186 22.2419 31.8267 22.226 31.8267 22.2102C31.8186 22.1706 31.8023 22.1152 31.7941 22.0518ZM23.9109 16.6513L24.0087 16.9047L23.7804 16.675L23.3565 15.9148L23.9109 16.6513ZM23.6255 16.778L23.7886 17.071L23.5848 16.9126L23.0712 16.2157L23.6255 16.778ZM22.5657 17.4352L23.2668 17.6807L23.6337 17.9816L23.4543 17.9658L22.5657 17.4352ZM22.5739 18.0925L23.4136 18.1558L23.6907 18.3221L23.4054 18.3775L22.5739 18.0925ZM22.6962 18.718L23.3891 18.5834L23.707 18.6943L23.4706 18.8131L22.6962 18.718ZM22.8674 19.3119L23.4869 19.0031L23.8782 19.0427L23.7234 19.2011L22.8674 19.3119ZM23.2505 19.9534L23.813 19.3832L24.1065 19.3436L23.9598 19.6208L23.2505 19.9534ZM23.7152 20.5473L24.131 19.7633L24.3674 19.6525L24.294 19.993L23.7152 20.5473ZM24.506 20.5631L24.2859 20.9749L24.4815 20.0801L24.5386 20.0246L24.506 20.5631ZM24.5712 15.701L24.775 16.4375L24.7505 16.77L24.6609 16.5562L24.5712 15.701ZM24.6609 21.2441L24.7016 20.6264L24.881 20.2939L24.9054 20.4602L24.6609 21.2441ZM24.9788 16.4454L25.0196 15.804L25.15 16.778L25.1092 16.9126L24.9788 16.4454ZM25.2315 21.4738L25.1092 20.4998L25.15 20.3651L25.2723 20.8323L25.2315 21.4738ZM27.6772 19.1852L26.8375 19.1219L26.5604 18.9556L26.8457 18.9002L27.6772 19.1852ZM27.5468 18.5676L26.8538 18.7022L26.5359 18.5913L26.7723 18.4726L27.5468 18.5676ZM27.3837 17.9658L26.7642 18.2746L26.3729 18.235L26.5277 18.0766L27.3837 17.9658ZM25.3701 16.9839L25.3457 16.8176L25.5902 16.0336L25.5495 16.6513L25.3701 16.9839ZM25.4761 20.8403L25.5006 20.4998L25.5902 20.7136L25.6799 21.5767L25.4761 20.8403ZM25.7696 17.1977L25.7125 17.2531L25.7451 16.7067L25.9652 16.2949L25.7696 17.1977ZM25.8837 17.6332L25.9571 17.2927L26.5277 16.7384L26.112 17.5223L25.8837 17.6332ZM26.2832 17.649L26.9924 17.3244L26.4299 17.8945L26.1364 17.9341L26.2832 17.649ZM26.3402 20.6264L26.2424 20.3731L26.4707 20.6106L26.8864 21.3629L26.3402 20.6264ZM26.6256 20.4998L26.4625 20.2068L26.6745 20.3651L27.1881 21.062L26.6256 20.4998ZM26.9843 19.6049L26.6174 19.304L26.7968 19.3199L27.6935 19.8504L26.9843 19.6049Z"
        fill="#A0A0A0" />
    <path
        d="M24.2859 10.3482C19.9488 7.91711 16.4107 9.87303 16.3944 14.7272C16.3781 19.5655 19.8999 25.4966 24.2369 27.9277C28.574 30.3587 32.1121 28.3949 32.1284 23.5486C32.1365 18.7024 28.6229 12.7792 24.2859 10.3482ZM24.2369 26.9695C20.3727 24.7998 17.2341 19.5259 17.2504 15.2102C17.2667 10.8866 20.4217 9.13659 24.2859 11.3063C28.15 13.476 31.2887 18.7499 31.2724 23.0735C31.2561 27.3892 28.1011 29.1313 24.2369 26.9695Z"
        fill="#686868" />
    <path
        d="M24.8647 17.261C24.4571 17.0313 24.0821 17.0076 23.813 17.166L22.9733 17.6411C22.7043 17.7995 22.5413 18.1162 22.5413 18.5676C22.5413 19.4782 23.2016 20.5868 24.0087 21.0382C24.5141 21.3233 24.9217 21.1649 24.9054 21.1728L25.9082 20.6502C26.1691 20.4997 26.3321 20.183 26.3321 19.7316C26.3321 18.821 25.6799 17.7123 24.8647 17.261Z"
        fill="#686868" />
    <path
        d="M36.6611 15.7486C35.6339 13.4997 34.2398 11.3458 32.5931 9.53239C31.2072 7.99616 29.6501 6.69749 27.9952 5.77892C25.0685 4.13975 22.419 3.9893 20.5032 5.07416L16.2069 7.5052L32.3648 18.1796C32.3811 18.2113 32.3974 18.243 32.4056 18.2746L36.7018 15.8436C36.6855 15.8119 36.6692 15.7802 36.6611 15.7486Z"
        fill="#FFAF24" />
    <path
        d="M23.6989 8.21001C20.3727 6.3412 17.4053 6.41247 15.4651 8.01996V8.77224L32.4137 18.2747C30.5224 14.0857 27.3348 10.2451 23.6989 8.21001Z"
        fill="#CD8005" />
    <path
        d="M34.9735 27.4127C35.2752 27.8324 53.0472 37.897 54.2048 37.9525L58.982 34.5633C59.5772 34.1436 59.9848 33.5259 60.1234 32.8211C60.7348 29.7329 61.5011 24.8708 61.5582 22.2497C61.5826 21.2915 61.5337 20.3175 61.2158 19.4069C60.6533 17.7994 59.2592 16.5641 57.7021 15.7959C56.145 15.0199 54.4168 14.6477 52.7048 14.2835C51.3596 13.9984 50.0145 13.7133 48.6612 13.4203C47.4384 13.159 46.2155 12.8977 44.9845 12.6601C42.6122 12.1929 40.2318 11.8049 37.835 11.4644C36.6284 11.2902 35.4219 11.1239 34.2072 10.9655C33.5876 10.8864 31.5985 11.7416 30.5224 12.4859C30.1392 12.7552 30.1066 13.2857 30.4327 13.6183C35.4708 18.8209 34.6311 26.9376 34.9735 27.4127Z"
        fill="#4F4D4C" />
    <path opacity="0.6"
        d="M60.2457 23.9918C59.8707 22.6457 59.5853 20.2463 58.7212 18.718L53.0227 21.9884C53.0227 21.9884 57.0255 28.9014 57.0255 29.6141C57.0255 31.5463 56.9521 33.8506 56.5527 36.2817L58.9739 34.5633C59.569 34.1436 59.9766 33.526 60.1152 32.8212C60.4169 31.3087 60.7511 29.3766 61.0201 27.484C60.8163 26.3199 60.5718 25.1559 60.2457 23.9918Z"
        fill="#333333" />
    <path opacity="0.7"
        d="M33.2208 16.3029C33.2208 16.3029 36.0822 20.4998 35.8295 26.7635L39.441 25.2352L43.9981 21.8935L33.3104 15.899L33.2208 16.3029Z"
        fill="#282828" />
    <path
        d="M72.1725 42.5217C71.7649 42.2921 71.3898 42.2683 71.1208 42.4267L70.2811 42.9018C70.0121 43.0602 69.8491 43.3769 69.8491 43.8283C69.8491 44.739 70.5094 45.8476 71.3165 46.2989C71.8219 46.584 72.2295 46.4256 72.2132 46.4336L73.216 45.9109C73.4768 45.7605 73.6399 45.4437 73.6399 44.9924C73.6399 44.0817 72.9795 42.9731 72.1725 42.5217Z"
        fill="#A0A0A0" />
    <path
        d="M77.5938 37.2241C77.5611 37.1845 77.5611 37.1845 77.5938 37.2241C75.7758 35.0702 71.1127 30.4853 65.8952 32.6867C67.5827 32.0849 69.6942 32.4412 71.8464 33.6448C73.4361 34.5317 75.0421 35.8858 76.5095 37.6596C80.9688 43.0602 82.4851 50.2979 79.8927 53.8454C79.6563 54.1701 79.3954 54.4393 79.1182 54.6769C83.9281 51.0501 82.2324 43.1156 77.5938 37.2241Z"
        fill="#383838" />
    <path
        d="M79.5258 42.4901C78.7677 40.8193 77.7486 39.1722 76.5013 37.6676C76.3057 37.4301 76.11 37.2083 75.9144 36.9866C74.61 35.5454 73.216 34.4209 71.8382 33.6528C69.3762 32.275 66.9631 32.0057 65.1778 33.0114L64.8354 33.2015C66.6126 32.1958 69.0338 32.4571 71.4958 33.8429C72.8736 34.6189 74.2676 35.7355 75.572 37.1767C75.7676 37.3984 75.9633 37.6201 76.1589 37.8577C77.4062 39.3622 78.4253 41.0093 79.1834 42.6802C81.1481 46.9958 81.409 51.4699 79.5421 54.0276C79.1264 54.5899 78.6372 55.0254 78.0829 55.3421L78.4253 55.1521C78.9796 54.8353 79.4688 54.3998 79.8845 53.8376C81.7596 51.2878 81.4987 46.8137 79.5258 42.4901Z"
        fill="#4F4F4F" />
    <path
        d="M76.1671 37.8576C74.6997 36.0838 73.0937 34.7297 71.504 33.8428C69.042 32.4649 66.6289 32.1957 64.8436 33.2014C64.224 33.5656 62.3245 34.6743 61.5582 37.3983C60.3924 41.5239 62.3979 47.6134 66.3191 51.8737C68.1371 53.8454 72.9143 58.1374 78.0911 55.35C78.6454 55.0332 79.1346 54.5977 79.5503 54.0355C82.1427 50.4879 80.6264 43.2502 76.1671 37.8576ZM77.1861 53.6158C75.6617 55.6984 72.898 55.7934 70.061 54.2018C68.667 53.4178 67.2566 52.2379 65.9686 50.6779C62.0473 45.9505 60.7266 39.5918 63.0011 36.4876C64.5256 34.405 67.2892 34.3021 70.1263 35.8937C71.5203 36.6777 72.9225 37.8576 74.2187 39.4176C78.14 44.145 79.4606 50.5037 77.1861 53.6158Z"
        fill="#383838" />
    <path
        d="M74.4877 39.0612C73.1182 37.4061 71.6181 36.1392 70.1344 35.3077C67.1181 33.6131 64.1751 33.716 62.5528 35.9412C60.1315 39.2433 61.5419 46.0058 65.7159 51.0421C67.0854 52.6971 68.5855 53.9641 70.0692 54.7956C73.0855 56.4902 76.0285 56.3873 77.6508 54.17C80.0639 50.8521 78.6536 44.0895 74.4877 39.0612ZM77.1046 52.6734C76.909 52.9189 76.8437 52.9664 76.7052 53.0535C75.2948 53.8533 73.379 53.6395 71.4225 52.5467C70.167 51.8419 68.8953 50.7729 67.7295 49.3634C64.1914 45.0873 62.9848 39.3462 65.0474 36.5351C65.3735 36.0837 65.7648 35.7432 66.2458 35.474C66.3191 35.4502 66.4088 35.4106 66.4822 35.3948C68.3735 34.9593 72.4497 36.6459 75.6128 41.7535C79.9335 48.7378 77.1046 52.6734 77.1046 52.6734Z"
        fill="#1E1E1E" />
    <path
        d="M70.4116 52.8637L72.1073 51.9055C74.0557 52.9983 75.8166 53.0933 77.0965 52.3807L75.4008 53.3388C74.1209 54.0515 72.36 53.9565 70.4116 52.8637Z"
        fill="#C2C2C2" />
    <path
        d="M65.4713 36.7253L67.167 35.7671C65.9033 36.4798 65.1207 37.9923 65.1207 40.1382C65.1126 41.7774 65.561 43.5512 66.3354 45.2458L64.6397 46.204C63.8734 44.5094 63.425 42.7356 63.425 41.0964C63.425 38.9504 64.2077 37.438 65.4713 36.7253Z"
        fill="#C2C2C2" />
    <path
        d="M64.6316 46.2039L66.3273 45.2457C67.0121 46.7503 67.9496 48.1835 69.042 49.3951L67.3463 50.3533C66.2539 49.1496 65.3164 47.7084 64.6316 46.2039Z"
        fill="#E7E7E7" />
    <path
        d="M67.3545 50.3613L69.0502 49.4031C69.9714 50.4246 71.0149 51.2878 72.1073 51.9054L70.4116 52.8636C69.311 52.2459 68.2757 51.3828 67.3545 50.3613Z"
        fill="#C2C2C2" />
    <path
        d="M77.9688 47.9539L75.5475 46.5206L77.8383 47.3046C77.822 47.2333 77.8139 47.162 77.7976 47.0828L74.7405 46.0376L73.3953 45.2457L74.5856 45.3328L77.6508 46.3781C77.6345 46.3068 77.6101 46.2276 77.5938 46.1564L75.3519 45.3882L77.4063 45.5387C77.3818 45.4753 77.3655 45.4041 77.3411 45.3407L74.6182 45.1348L73.4035 44.7231L74.3655 44.533L77.1862 44.8577C77.1617 44.7864 77.1454 44.7231 77.1209 44.6518L74.9932 44.4063L76.8764 44.0341C76.8519 43.9708 76.8193 43.9154 76.7948 43.852L74.3573 44.3271L73.2649 44.2004L74.1046 43.7807L76.6155 43.464C76.5747 43.4006 76.5258 43.3452 76.4851 43.2819L74.6263 43.5194L76.1101 42.783C76.0693 42.7355 76.0367 42.68 75.9959 42.6325L74.072 43.5907L72.9144 43.7412L73.6644 42.981L75.5965 42.102C75.5557 42.0545 75.5231 41.999 75.4823 41.9515L74.0312 42.6167L75.1399 41.5002C75.0992 41.4447 75.0584 41.3972 75.0176 41.3418L73.5339 42.8384L72.5964 43.266L73.1752 42.1653L74.6019 40.7954C74.5611 40.7479 74.5204 40.6925 74.4796 40.6449L73.4687 41.6189L74.1698 40.2807C74.1209 40.2253 74.072 40.1698 74.0231 40.1144L72.9877 42.0703L72.1969 42.8226L72.4823 41.516L73.5339 39.5601C73.485 39.5047 73.4361 39.4571 73.3872 39.4017L72.6372 40.7796L73.0285 39.0137C72.9714 38.9503 72.9144 38.887 72.8573 38.8316L72.2785 41.4447L71.9279 42.0941L72.0013 41.0726L72.735 38.7128C72.6779 38.6574 72.6209 38.6098 72.5638 38.5544L72.0584 40.1777L72.1969 38.1981C72.1317 38.1347 72.0665 38.0714 72.0013 38.0159L71.7975 41.025L71.4306 42.2049L71.2268 40.6529L71.4306 37.525C71.3654 37.4695 71.3002 37.4141 71.235 37.3666L71.0882 39.5997L70.754 36.9786C70.6806 36.9232 70.6072 36.8756 70.5339 36.8202L71.023 40.6291L70.9578 41.7219L70.5991 40.4232L70.2241 36.5985C70.1507 36.551 70.0855 36.4955 70.0121 36.448L70.2893 39.275L69.4578 36.2184C69.3844 36.2105 69.3192 36.1946 69.2458 36.1788L70.4034 40.4311L70.542 41.8644L69.8572 40.3203L68.6915 36.0917C68.6181 36.0759 68.5447 36.0521 68.4795 36.0363L69.3273 39.1087L67.9088 35.8937C67.8355 35.87 67.7621 35.8621 67.6887 35.8383C67.6887 35.8621 69.6697 40.3599 69.6697 40.3599L69.9306 41.3101L69.4415 40.4391L67.7213 35.965C67.6806 35.9096 67.6561 35.9016 67.6317 35.8858C67.6072 35.8937 67.5501 35.9254 67.5501 35.9254C67.5338 35.9175 67.5175 35.9571 67.542 36.0046L68.7974 39.275L67.0528 36.1471C66.9958 36.0996 66.9795 36.0917 66.955 36.0838C66.9469 36.0838 66.8898 36.1234 66.8898 36.1234C66.8653 36.1313 66.8653 36.1709 66.8898 36.2184L69.2947 40.4945L69.8409 41.9199L68.8708 40.6212L66.4496 36.2738C66.4007 36.2263 66.3762 36.2184 66.3517 36.2105C66.3436 36.2105 66.2865 36.2501 66.2865 36.2501C66.2621 36.258 66.2539 36.2976 66.2784 36.3451L68.0474 39.5205L65.8871 36.646C65.8218 36.5985 65.8055 36.5985 65.7892 36.6064L65.7322 36.646C65.7485 36.6381 65.7648 36.6381 65.7811 36.646C65.7648 36.6381 65.7403 36.6381 65.724 36.646C65.6996 36.6698 65.6996 36.7094 65.7322 36.7569L68.6996 40.7162L69.4578 42.0703L68.4877 41.0884L65.618 37.1607C65.5528 37.1132 65.5365 37.1132 65.5202 37.1211L65.4631 37.1607C65.4795 37.1528 65.4958 37.1528 65.5121 37.1607C65.4958 37.1528 65.4713 37.1528 65.455 37.1607C65.4305 37.1766 65.4305 37.2241 65.4631 37.2637L67.6072 40.1936L65.1452 37.6992C65.1289 37.6913 65.1044 37.6913 65.0963 37.6992L65.0392 37.7388C65.0066 37.7784 65.0229 37.8259 65.0555 37.8576L68.3572 41.2072L69.2377 42.4187L68.1289 41.5793L64.762 38.0872C64.7457 38.0793 64.7213 38.0793 64.7131 38.0872L64.6561 38.1268C64.6235 38.1585 64.6398 38.2139 64.6724 38.2456L67.1751 40.8587L64.5012 38.7999C64.4849 38.792 64.4686 38.792 64.4523 38.7999L64.3952 38.8395C64.3707 38.8949 64.387 38.9424 64.4278 38.9741L68.023 41.714L68.9605 42.688L68.023 42.1653L64.5012 39.275C64.4849 39.2671 64.4686 39.2671 64.4523 39.275L64.3952 39.3146C64.3707 39.37 64.387 39.4175 64.4278 39.4492L67.1181 41.6506L64.3626 40.1144C64.3463 40.1065 64.33 40.1065 64.3137 40.1144L64.2566 40.154C64.2485 40.1619 64.2403 40.1698 64.2403 40.1936C64.2321 40.2332 64.2648 40.2807 64.3055 40.2965L67.9578 42.3395L69.0502 43.2344L67.9578 42.8622L64.2729 40.6845C64.2566 40.6766 64.2403 40.6766 64.2321 40.6845L64.1751 40.7241C64.1669 40.732 64.1588 40.74 64.1506 40.7558C64.1425 40.7875 64.1751 40.8429 64.2158 40.8667L67.0936 42.5692L64.3137 41.6189C64.2974 41.611 64.2811 41.6189 64.2729 41.6189L64.2158 41.6585C64.224 41.6506 64.2403 41.6506 64.2566 41.6585C64.2158 41.6427 64.1914 41.6665 64.1914 41.714C64.1995 41.7536 64.2321 41.7932 64.2729 41.8169L67.917 43.0601L69.2621 43.8599L68.0637 43.7649L64.4278 42.5217C64.4115 42.5138 64.3952 42.5138 64.387 42.5217L64.33 42.5613C64.3381 42.5533 64.3544 42.5533 64.3707 42.5613C64.33 42.5454 64.3055 42.5692 64.3137 42.6167C64.3137 42.6563 64.3463 42.6959 64.3952 42.7196L67.3056 43.7095L64.6072 43.5036C64.5827 43.5115 64.5175 43.5432 64.5175 43.5432C64.5093 43.5353 64.4849 43.5669 64.5012 43.6145C64.5093 43.654 64.5338 43.6778 64.5909 43.7016L68.0393 43.9629L69.254 44.3747L68.292 44.5647L64.8273 44.1688C64.8028 44.1767 64.7376 44.2084 64.7376 44.2084C64.7294 44.2004 64.705 44.2321 64.7213 44.2717C64.7294 44.3113 64.7539 44.3351 64.811 44.3588L67.6561 44.6835L65.1697 45.1744C65.1534 45.1824 65.0963 45.214 65.0963 45.214C65.08 45.214 65.0718 45.2536 65.0881 45.3011L65.186 45.3724L68.292 44.7627L69.3844 44.8814L68.5529 45.3011L65.3164 45.7129C65.3001 45.7208 65.243 45.7525 65.243 45.7525C65.2267 45.7525 65.2104 45.7921 65.2349 45.8396L65.3327 45.9109L68.0311 45.5704L65.7729 46.6948L65.7159 46.7344C65.6914 46.7503 65.6833 46.7978 65.7159 46.8374L65.7648 46.8849H65.8137L68.5855 45.4991L69.7513 45.3486L69.0012 46.1088L66.2702 47.36C66.2621 47.36 66.205 47.3996 66.205 47.3996C66.1805 47.4075 66.1805 47.455 66.205 47.4946L66.2621 47.5421H66.3028L68.6344 46.4731L66.7186 48.3023C66.6941 48.3261 66.7023 48.3736 66.7757 48.4449H66.8327L66.8898 48.4053L69.0502 46.2197L69.9877 45.7921L69.4089 46.8928L67.1425 49.0625C67.1181 49.0863 67.1262 49.1338 67.1996 49.2051L67.2567 49.1971L67.3137 49.1575L69.1154 47.4313L67.8273 49.8861C67.811 49.9177 67.8273 49.9652 67.8925 50.0207L67.9578 50.0048L68.0148 49.9652L69.5964 46.9799L70.3871 46.2276L70.1018 47.5342L68.5284 50.4483C68.5121 50.48 68.5284 50.5275 68.5936 50.5829L68.6507 50.5671L68.7078 50.5275L69.9306 48.2706L69.2947 51.1531C69.2866 51.1926 69.311 51.2402 69.3681 51.2718C69.4007 51.2877 69.4333 51.2798 69.4333 51.2481C69.417 51.2718 69.4741 51.2402 69.4741 51.2402C69.4904 51.2164 70.2893 47.6055 70.2893 47.6055L70.6399 46.9561L70.5746 47.9777L69.5067 51.4302C69.4985 51.4619 69.5148 51.5173 69.5719 51.5569C69.6045 51.5727 69.629 51.5648 69.6371 51.5332C69.6208 51.5569 69.6779 51.5173 69.6779 51.5173C69.6942 51.4936 70.5094 48.8725 70.5094 48.8725L70.2975 51.9924C70.2975 52.032 70.3219 52.0795 70.3708 52.1033C70.4034 52.1191 70.4361 52.1033 70.4361 52.0716C70.4361 52.0875 70.4279 52.1033 70.4197 52.1112L70.4768 52.0716C70.485 52.0637 70.4931 52.0558 70.4931 52.032L70.7703 48.0331L71.1372 46.8453L71.341 48.3973L71.0882 52.3725C71.0882 52.4121 71.1127 52.4596 71.1616 52.4834C71.1942 52.4992 71.2268 52.4834 71.2268 52.4517C71.2268 52.4676 71.2187 52.4834 71.2105 52.4913L71.2676 52.4517C71.2757 52.4438 71.2839 52.4359 71.2839 52.4121L71.4714 49.4585L71.8953 52.7764C71.9035 52.816 71.9279 52.8556 71.9768 52.8714C71.9931 52.8793 72.0094 52.8714 72.0176 52.8635L72.0747 52.8318C72.091 52.8239 72.0991 52.8081 72.091 52.7843L71.5285 48.429L71.5937 47.3362L71.9442 48.6349L72.3763 52.9506C72.3844 52.9902 72.4171 53.0298 72.4578 53.0535C72.4741 53.0615 72.4904 53.0615 72.4986 53.0535L72.5556 53.0219C72.572 53.0139 72.5801 52.9981 72.572 52.9744L72.2622 49.799L73.1752 53.1486C73.1834 53.1802 73.2078 53.2119 73.2649 53.2357C73.3057 53.2119 73.3709 53.1802 73.3709 53.1802C73.3872 53.1723 73.3953 53.1486 73.3872 53.1169L72.1643 48.6349L72.0257 47.2016L72.7105 48.7458L73.9578 53.2594C73.966 53.2911 73.9905 53.3307 74.0475 53.3465C74.072 53.3386 74.1372 53.3069 74.1372 53.3069C74.1535 53.299 74.1617 53.2673 74.1535 53.2357L73.2486 49.9573L74.6997 53.2515L74.7975 53.3228C74.8138 53.3149 74.8709 53.2832 74.8709 53.2832C74.8954 53.2673 74.8954 53.2357 74.8791 53.204L72.898 48.7141L72.6372 47.7639L73.1263 48.6349L74.8464 53.109L74.9443 53.1882C74.9606 53.1802 75.0258 53.1486 75.0258 53.1486C75.0421 53.1327 75.0503 53.109 75.0421 53.0773L73.7866 49.8069L75.5312 52.9348L75.6291 52.9981C75.6372 52.9981 75.6943 52.9585 75.6943 52.9585C75.7024 52.9506 75.7106 52.9348 75.7106 52.9189C75.6943 52.8635 73.3057 48.5953 73.3057 48.5953L72.7595 47.1699L73.7296 48.4686L76.1508 52.816L76.2486 52.8714C76.2568 52.8714 76.322 52.8318 76.322 52.8318C76.3383 52.8239 76.3383 52.8081 76.3383 52.7922C76.322 52.7368 74.5611 49.5614 74.5611 49.5614L76.7215 52.4359L76.7704 52.4755H76.8193L76.8764 52.4359C76.8845 52.428 76.8927 52.4121 76.8927 52.3963C76.8682 52.3329 73.9008 48.3736 73.9008 48.3736L73.1426 47.0195L74.1127 48.0014L76.9824 51.9291L77.0313 51.9687H77.0802L77.1372 51.9291C77.1454 51.9212 77.1535 51.9053 77.1535 51.8895C77.1291 51.8261 74.985 48.8962 74.985 48.8962L77.447 51.3906L77.5041 51.3827L77.5612 51.3431C77.5693 51.3273 77.5693 51.3035 77.5612 51.2718C77.553 51.2481 77.5449 51.2402 77.5367 51.2243L74.235 47.8747L73.3546 46.6632L74.4633 47.5025L77.8302 50.9947C77.8628 50.9234 77.871 50.8521 77.8791 50.7888L75.4253 48.2311L77.928 50.1395C77.9362 50.0682 77.9362 49.989 77.9443 49.9177L74.5856 47.36L73.6481 46.386L74.5856 46.9086L77.9606 49.6723C77.9688 49.601 77.9688 49.5218 77.9769 49.4505L75.5068 47.4233L77.9932 48.817C77.9932 48.7458 77.9932 48.6745 77.9932 48.6032L74.6752 46.7503L73.5828 45.8554L74.6752 46.2276L77.9932 48.1915C77.9932 48.1598 78.0014 48.1439 78.0014 48.1281C77.9932 48.0648 77.9769 48.0093 77.9688 47.9539ZM70.0855 42.5454L70.1833 42.7988L69.9551 42.5692L69.5311 41.809L70.0855 42.5454ZM69.8002 42.6721L69.9632 42.9651L69.7594 42.8067L69.2458 42.1099L69.8002 42.6721ZM68.7404 43.3294L69.4415 43.5749L69.8083 43.8758L69.629 43.8599L68.7404 43.3294ZM68.7485 43.9946L69.5882 44.0579L69.8654 44.2242L69.5801 44.2796L68.7485 43.9946ZM68.8708 44.6122L69.5638 44.4776L69.8817 44.5885L69.6453 44.7072L68.8708 44.6122ZM69.042 45.2061L69.6616 44.8973L70.0529 44.9369L69.898 45.0953L69.042 45.2061ZM69.4252 45.8475L69.9877 45.2774L70.2812 45.2378L70.1344 45.5149L69.4252 45.8475ZM69.8898 46.4414L70.3056 45.6575L70.542 45.5466L70.4687 45.8871L69.8898 46.4414ZM70.6806 46.4573L70.4605 46.869L70.6562 45.9742L70.7132 45.9188L70.6806 46.4573ZM70.7458 41.5952L70.9496 42.3316L70.9252 42.6642L70.8355 42.4504L70.7458 41.5952ZM70.8355 47.1383L70.8763 46.5206L71.0556 46.188L71.0801 46.3543L70.8355 47.1383ZM71.1535 42.3395L71.1942 41.6981L71.3246 42.6721L71.2839 42.8067L71.1535 42.3395ZM71.4062 47.3679L71.2839 46.3939L71.3246 46.2593L71.4469 46.7186L71.4062 47.3679ZM73.8519 45.0794L73.0122 45.0161L72.735 44.8498L73.0203 44.7943L73.8519 45.0794ZM73.7296 44.4618L73.0366 44.5964L72.7187 44.4855L72.9551 44.3667L73.7296 44.4618ZM73.5584 43.8679L72.9388 44.1767L72.5475 44.1371L72.7024 43.9787L73.5584 43.8679ZM71.5448 42.878L71.5203 42.7117L71.7649 41.9278L71.7241 42.5454L71.5448 42.878ZM71.6507 46.7423L71.6752 46.4018L71.7649 46.6156L71.8546 47.4788L71.6507 46.7423ZM71.9442 43.0997L71.8872 43.1552L71.9198 42.6088L72.1399 42.197L71.9442 43.0997ZM72.0584 43.5273L72.1317 43.1868L72.7024 42.6325L72.2866 43.4165L72.0584 43.5273ZM72.4578 43.5432L73.1671 43.2185L72.6046 43.7887L72.3111 43.8283L72.4578 43.5432ZM72.5149 46.5206L72.4171 46.2672L72.6453 46.5048L73.0611 47.2571L72.5149 46.5206ZM72.8002 46.4018L72.6372 46.1088L72.8491 46.2672L73.3627 46.9641L72.8002 46.4018ZM73.1589 45.4991L72.7921 45.1982L72.9714 45.214L73.8682 45.7446L73.1589 45.4991Z"
        fill="#A0A0A0" />
    <path
        d="M70.4605 36.2502C66.1234 33.8191 62.5853 35.7751 62.569 40.6292C62.5527 45.4675 66.0745 51.3986 70.4116 53.8297C74.7486 56.2607 78.2867 54.2969 78.303 49.4506C78.3111 44.5965 74.7975 38.6812 70.4605 36.2502ZM70.4116 52.8636C66.5474 50.6939 63.4087 45.42 63.425 41.1043C63.4413 36.7807 66.5963 35.0307 70.4605 37.2004C74.3247 39.3701 77.4633 44.644 77.447 48.9676C77.4307 53.2833 74.2758 55.0333 70.4116 52.8636Z"
        fill="#686868" />
    <path
        d="M71.0393 43.1552C70.6317 42.9256 70.2567 42.9018 69.9877 43.0602L69.148 43.5353C68.8789 43.6937 68.7159 44.0105 68.7159 44.4618C68.7159 45.3725 69.3762 46.4811 70.1833 46.9324C70.6888 47.2175 71.0964 47.0591 71.0801 47.0671L72.0828 46.5444C72.3437 46.394 72.5067 46.0772 72.5067 45.6259C72.5149 44.7152 71.8545 43.6066 71.0393 43.1552Z"
        fill="#686868" />
    <path
        d="M48.4166 11.1241C48.4003 11.1162 48.2699 11.0607 48.1639 11.0449C46.3541 10.7519 44.634 10.0076 43.9818 9.70664C43.3378 9.41365 41.3894 8.51092 38.6583 6.60251C37.3621 5.69978 36.2045 4.61492 34.786 3.87056C34.2887 3.60924 33.8892 3.60133 33.4246 3.84681L38.9029 9.477L48.1965 12.7157C49.0933 12.1298 48.7753 11.3458 48.4166 11.1241Z"
        fill="#333333" />
    <path
        d="M47.5933 11.1794C46.6231 11.029 44.5525 10.5538 41.7481 9.03345C41.585 8.94634 41.422 8.85132 41.2589 8.76421C39.5143 7.78229 38.0632 6.77662 36.8974 5.92932C35.7317 5.0741 34.8431 4.37725 34.2398 4.03675C33.8729 3.83086 33.6039 3.75168 33.4327 3.8467L25.9081 8.09112C30.4734 11.8921 35.2018 15.2813 40.6557 16.9838C40.6312 16.9997 48.1069 12.779 48.1069 12.779C48.1313 12.7632 48.1558 12.7473 48.1802 12.7315C48.6368 12.4306 48.1558 11.2665 47.5933 11.1794Z"
        fill="#444342" />
    <path
        d="M40.2399 15.5268C39.3024 15.0596 36.4572 15.313 29.3892 10.1738C28.2153 9.31854 27.3348 8.62961 26.7234 8.28911C26.3565 8.08322 26.0875 8.00404 25.9163 8.09906C25.7859 8.17825 25.4435 8.38413 25.3293 8.82758C24.7831 10.8627 32.2996 14.9329 32.6175 15.1071C35.2425 16.5166 38.7643 17.9974 40.5986 17.0393C40.6231 17.0234 40.6475 17.0076 40.672 16.9918C41.0877 16.6908 40.729 15.7723 40.2399 15.5268Z"
        fill="#333333" />
    <path
        d="M38.4138 16.2001C34.9165 15.3369 31.4599 13.1751 28.5577 11.0608C27.3837 10.2056 26.5196 9.5246 25.9571 9.21577C25.5087 8.98613 25.419 9.00197 25.3946 9.35831C25.3049 10.0868 28.2153 12.502 31.6637 14.4342C37.5578 17.7363 40.2481 17.2849 39.5551 16.5564C39.3024 16.2951 38.7725 16.2951 38.4138 16.2001Z"
        fill="#282828" />
    <path
        d="M55.9575 28.5372L50.6341 20.0088C50.3651 19.5812 49.7862 19.4387 49.346 19.7C48.9058 19.9613 48.7591 20.5235 49.0281 20.9511L54.3515 29.4796C54.6124 29.8913 54.7347 30.3665 54.7102 30.8495L54.5227 35.181C54.4983 35.6799 54.2537 36.1313 53.8542 36.4322L51.6124 38.0951C51.2292 38.3802 50.7075 38.4119 50.2917 38.1743L32.7072 28.0621L33.0251 27.8721L34.8512 28.7115C35.1203 28.8302 35.43 28.8302 35.6909 28.6956L40.1421 26.3913C40.2399 26.3358 40.3377 26.2725 40.4111 26.1854L44.4546 21.6638C44.797 21.2837 44.7563 20.7057 44.365 20.381C43.9737 20.0484 43.3785 20.088 43.0443 20.4681L39.1149 24.863L35.2262 26.8743L33.3675 26.0191C33.0822 25.8845 32.7398 25.9082 32.4708 26.0666L31.0686 26.9139C30.9626 26.9773 30.8648 27.0644 30.7914 27.1673C30.5387 27.5157 30.449 27.9592 30.5468 28.371C30.6365 28.7906 30.9137 29.1549 31.2887 29.3687L49.3542 39.7422C49.8352 40.0194 50.3732 40.1619 50.9113 40.1619C51.5634 40.1619 52.2156 39.956 52.77 39.5442L55.0119 37.8813C55.8597 37.2478 56.3733 36.2976 56.4141 35.2602L56.6016 30.9287C56.626 30.0814 56.4141 29.2578 55.9575 28.5372Z"
        fill="#B7B7B7" />
    <path
        d="M52.9738 35.2763C52.7945 34.8882 52.4684 34.4369 52.0282 33.9538C50.7972 32.5918 48.645 30.9447 46.1993 29.5748C43.0851 27.8248 40.4519 27.0646 39.5714 27.5635L38.1122 28.387C38.9926 27.8881 41.6258 28.6483 44.74 30.3983C47.1857 31.7683 49.3379 33.4154 50.5689 34.7774C51.0091 35.2683 51.3352 35.7118 51.5146 36.0998C51.6206 36.3215 51.6695 36.5274 51.6695 36.7095C51.6695 36.9629 51.5553 37.1451 51.3515 37.2559L52.8189 36.4245C53.0227 36.3057 53.1287 36.1315 53.1369 35.8781C53.1287 35.7039 53.0798 35.498 52.9738 35.2763Z"
        fill="#777674" />
    <path
        d="M44.74 30.3904C40.9084 28.2444 37.8024 27.5871 37.7942 28.9254C37.7942 30.2636 40.8921 33.0985 44.7237 35.2524C48.5553 37.3984 51.6613 38.0477 51.6694 36.7095C51.6776 35.3633 48.5716 32.5363 44.74 30.3904Z"
        fill="#605E5C" />
    <path d="M47.6993 23.2158L47.6911 25.5835L49.1749 24.7442L49.183 22.3844L47.6993 23.2158Z"
        fill="#777674" />
    <path d="M47.6911 19.8742L46.2074 20.7135L47.6993 23.2158L49.183 22.3844L47.6911 19.8742Z"
        fill="#898785" />
    <path d="M45.5715 18.6863L44.0878 19.5257L46.2074 20.7135L47.6911 19.8741L45.5715 18.6863Z"
        fill="#777674" />
    <path
        d="M46.2074 20.7134L44.0878 19.5256L42.596 20.3571L42.5878 22.7168L44.0715 25.2271L46.1911 26.4149L47.6911 25.5834L47.6993 23.2157L46.2074 20.7134Z"
        fill="#605E5C" />
    <path
        d="M42.759 13.2701C39.5144 17.071 47.2835 21.8618 53.8787 22.7725C58.281 23.3822 60.7756 21.7985 61.4848 17.5145C61.6234 16.6593 61.7212 15.7724 61.5093 14.933C60.0256 9.12858 45.9547 9.52451 42.759 13.2701Z"
        fill="#FFAF24" />
    <path opacity="0.6"
        d="M59.3897 13.1753C59.512 12.3596 57.1396 11.3619 54.0988 10.9501C51.0499 10.5383 48.4819 10.863 48.3596 11.6786C48.2373 12.4943 50.6096 13.492 53.6505 13.9038C56.6994 14.3235 59.2674 13.9988 59.3897 13.1753Z"
        fill="url(#paint0_linear_188_1454)" />
    <path
        d="M34.0034 26.3675C34.0034 26.3675 32.8947 25.5123 31.1582 24.3641C30.2941 23.786 29.2669 23.1367 28.1582 22.4478C27.0495 21.7668 25.8511 21.062 24.6446 20.381C22.2233 19.0111 19.7532 17.7362 17.8455 16.8651C15.946 15.9782 14.6172 15.4952 14.6172 15.4952C14.3237 15.3843 13.9813 15.4714 13.7694 15.7169C13.5003 16.0336 13.5493 16.4929 13.8754 16.7542C13.8754 16.7542 14.9678 17.6253 16.7124 18.7814C18.4406 19.9455 20.813 21.3946 23.2505 22.7408C24.4652 23.4139 25.688 24.0711 26.8538 24.665C28.0196 25.2589 29.112 25.7974 30.0577 26.2329C31.949 27.1198 33.2697 27.6266 33.2697 27.6266C33.5713 27.7375 33.9219 27.6583 34.1338 27.4049C34.3866 27.0802 34.3295 26.6209 34.0034 26.3675Z"
        fill="#B7B7B7" />
    <path
        d="M49.1259 36.9549C49.0444 36.9549 48.9629 36.9311 48.8895 36.8916C48.7428 36.8124 48.6531 36.6619 48.6531 36.4956V29.7014C48.6531 27.7534 49.7373 25.9321 51.4738 24.9581L52.3461 24.4671C52.5743 24.3404 52.8597 24.4117 52.9901 24.6334C53.1206 24.8472 53.039 25.1323 52.8189 25.259L51.9466 25.7499C50.4955 26.5656 49.5988 28.078 49.5988 29.7014V35.7037L49.7537 35.6166C49.9819 35.4899 50.2672 35.5691 50.3977 35.7829C50.5281 36.0047 50.4466 36.2818 50.2265 36.4085L49.3705 36.8916C49.289 36.9311 49.2074 36.9549 49.1259 36.9549Z"
        fill="#B7B7B7" />
    <path
        d="M47.1938 35.8699C47.1123 35.8699 47.0308 35.8461 46.9574 35.8065C46.8107 35.7274 46.721 35.5769 46.721 35.4106V28.6164C46.721 26.6684 47.8052 24.8471 49.5417 23.8731L50.9846 23.0654C51.2129 22.9387 51.4982 23.0179 51.6287 23.2317C51.7591 23.4455 51.6776 23.7305 51.4575 23.8572L50.0145 24.6649C48.5634 25.4806 47.6667 26.993 47.6667 28.6164V34.6187L47.8216 34.5316C48.0498 34.4049 48.3351 34.4841 48.4656 34.6979C48.596 34.9196 48.5145 35.1968 48.2944 35.3235L47.4384 35.8065C47.3569 35.8461 47.2753 35.8699 47.1938 35.8699Z"
        fill="#B7B7B7" />
    <path
        d="M43.4356 32.6154C43.2563 32.5124 43.0851 32.5045 42.9709 32.5758L38.5116 35.0781L39.441 36.6302L43.9003 34.1278C44.0144 34.0645 44.0878 33.922 44.0878 33.7161C44.0878 33.3043 43.8025 32.8133 43.4356 32.6154Z"
        fill="#333333" />
    <path
        d="M39.6366 36.2104C39.6366 36.6143 39.3432 36.7806 38.9845 36.5747C38.6258 36.3688 38.3323 35.8779 38.3323 35.474C38.3323 35.0702 38.6258 34.9039 38.9845 35.1097C39.3432 35.3156 39.6366 35.8066 39.6366 36.2104Z"
        fill="#262626" />
    <path
        d="M65.3001 5.85019C65.186 5.85019 65.0637 5.81851 64.9577 5.76308C64.6153 5.58095 64.493 5.16126 64.6887 4.8366L66.849 1.08313C67.0365 0.750549 67.4686 0.631769 67.8029 0.821818C68.1453 1.00395 68.2675 1.42364 68.0719 1.7483L65.9115 5.50177C65.7892 5.72349 65.5447 5.85019 65.3001 5.85019Z"
        fill="#333333" />
    <path
        d="M62.1452 13.6027C61.9495 13.6027 61.762 13.5077 61.656 13.3255C61.5011 13.0642 61.5908 12.7316 61.8598 12.5812L63.4332 11.6943C63.6207 11.5834 63.7512 11.4013 63.7838 11.1954L64.6316 5.40685C64.6724 5.10594 64.9577 4.90005 65.2675 4.93964C65.5773 4.97924 65.7892 5.25639 65.7485 5.5573L64.9006 11.3538C64.8191 11.9002 64.4849 12.3674 63.9957 12.6445L62.4223 13.5314C62.3327 13.5789 62.243 13.6027 62.1452 13.6027Z"
        fill="#4E4E4E" />
    <path
        d="M66.7349 12.0822C67.0447 12.787 65.8871 14.2123 65.0637 13.8956C64.3463 13.6184 63.58 12.0584 64.8762 11.4883C65.3898 11.2903 65.9931 11.4012 66.4903 11.7813C66.6289 11.8842 66.6942 12.003 66.7349 12.0822Z"
        fill="#333333" />
    <path
        d="M66.4659 12.193C66.2458 12.0267 65.8055 12.2246 65.4794 12.6285C65.1533 13.0323 65.0555 13.4995 65.2756 13.6658C65.4957 13.8321 65.936 13.6342 66.2621 13.2303C66.5881 12.8185 66.6778 12.3593 66.4659 12.193Z"
        fill="#E9751C" />
    <path
        d="M61.3462 12.2485L60.3109 10.5776C60.3679 10.5539 60.425 10.5222 60.4821 10.5063L61.5174 12.1772C61.4685 12.193 61.4114 12.2168 61.3462 12.2485Z"
        fill="#ADADAD" />
    <path
        d="M61.5174 12.1693L60.4821 10.4985C60.8163 10.356 61.0202 10.3164 61.0528 10.3718L62.0881 12.0427C62.0555 11.9872 61.8517 12.0268 61.5174 12.1693Z"
        fill="#4E4E4E" />
    <path
        d="M59.243 13.7055L58.2076 12.0346C58.1832 11.995 58.2321 11.9079 58.3707 11.7812C58.6152 11.5595 59.0636 11.2507 59.5446 10.9735L60.5799 12.6444C60.099 12.9215 59.6506 13.2303 59.406 13.4521C59.2674 13.5788 59.2185 13.6659 59.243 13.7055Z"
        fill="#4E4E4E" />
    <path
        d="M60.5799 12.6444L59.5446 10.9735C59.8055 10.8231 60.0663 10.6884 60.3109 10.5776L61.3462 12.2484C61.1017 12.3593 60.8408 12.4939 60.5799 12.6444Z"
        fill="#ADADAD" />
    <path
        d="M61.3462 12.2485C62.0392 11.9317 62.2919 11.9555 61.925 12.3039C61.55 12.6523 60.6859 13.1908 59.9929 13.5075C59.3 13.8243 59.0391 13.8085 59.4141 13.46C59.781 13.1116 60.6533 12.5652 61.3462 12.2485Z"
        fill="#1A1A1A" />
    <path
        d="M58.1913 14.0621L56.9929 12.5021C57.05 12.4704 57.107 12.4388 57.156 12.4071L58.3544 13.9671C58.2973 13.9987 58.2484 14.0304 58.1913 14.0621Z"
        fill="#ADADAD" />
    <path
        d="M58.3462 13.967L57.1478 12.4071C57.4658 12.2328 57.6614 12.1774 57.7022 12.2249L58.9006 13.7849C58.8598 13.7374 58.6641 13.8007 58.3462 13.967Z"
        fill="#4E4E4E" />
    <path
        d="M56.251 15.7249L55.0526 14.1649C55.0282 14.1254 55.0689 14.0382 55.1912 13.8957C55.4113 13.6502 55.8271 13.2939 56.2755 12.9771L57.4739 14.5371C57.0255 14.8618 56.6097 15.2102 56.3896 15.4557C56.2592 15.5982 56.2184 15.6853 56.251 15.7249Z"
        fill="#4E4E4E" />
    <path
        d="M57.4657 14.5371L56.2673 12.9771C56.5038 12.8029 56.7565 12.6366 56.9847 12.502L58.1831 14.062C57.9549 14.1966 57.7103 14.3629 57.4657 14.5371Z"
        fill="#ADADAD" />
    <path
        d="M58.1913 14.0619C58.8435 13.6739 59.1043 13.6739 58.7701 14.054C58.4359 14.4341 57.6288 15.0597 56.9766 15.4477C56.3163 15.8357 56.0554 15.8357 56.3978 15.4556C56.7239 15.0755 57.531 14.4499 58.1913 14.0619Z"
        fill="#1A1A1A" />
    <path d="M62.7077 13.7928L57.7755 16.5643L61.9984 27.0091L66.2784 24.6097L62.7077 13.7928Z"
        fill="#FFAF24" />
    <path
        d="M58.5663 17.8311L59.8299 20.959L64.1098 18.5597L63.05 15.3605C61.5337 16.1286 60.0092 16.9047 58.5663 17.8311Z"
        fill="#333333" />
    <path
        d="M58.6478 16.2318L70.0936 45.7052C70.1915 45.9507 70.061 46.2279 69.8083 46.3229C69.5556 46.4179 69.2784 46.2912 69.1806 46.0537L56.9032 16.897C56.7076 16.4298 56.9358 15.8993 57.4168 15.7092C57.8978 15.5192 58.444 15.7409 58.6397 16.2081C58.6397 16.216 58.6397 16.2239 58.6478 16.2318Z"
        fill="#333333" />
    <path
        d="M61.1424 11.2827L56.6994 13.7771C56.0554 14.1413 55.7619 14.8857 55.9902 15.5746L56.5853 17.3642C56.6668 17.6176 56.8462 17.8235 57.0744 17.9581L58.4277 18.7183L64.2077 15.4796C64.4686 15.337 64.6316 15.0599 64.6316 14.7669V13.389C64.6316 12.8426 64.33 12.3438 63.849 12.0666L62.4468 11.2827C62.0473 11.0609 61.55 11.0609 61.1424 11.2827Z"
        fill="#333333" />
    <path
        d="M57.8407 17.071C58.1505 17.7758 56.9929 19.2012 56.1695 18.8844C55.4521 18.6073 54.6858 17.0473 55.982 16.4771C56.4956 16.2792 57.0989 16.39 57.5961 16.7701C57.7347 16.8731 57.7999 16.9919 57.8407 17.071Z"
        fill="#333333" />
    <path
        d="M57.5717 17.1819C57.3516 17.0156 56.9114 17.2136 56.5853 17.6174C56.2592 18.0213 56.1614 18.4885 56.3815 18.6548C56.6016 18.8211 57.0418 18.6231 57.3679 18.2193C57.694 17.8075 57.7837 17.3482 57.5717 17.1819Z"
        fill="#E9751C" />
    <path
        d="M55.1179 17.277C54.6206 17.277 54.1151 17.1582 53.6586 16.9286C52.1423 16.1605 49.5743 14.9489 49.5498 14.941C49.2727 14.8064 49.1504 14.4817 49.289 14.2125C49.4276 13.9432 49.7618 13.8244 50.039 13.9591C50.0634 13.9749 52.6477 15.1865 54.1804 15.9625C54.7999 16.2792 55.5336 16.2634 56.1451 15.9229L56.675 15.622C56.944 15.4715 57.2864 15.5586 57.4413 15.8199C57.5962 16.0813 57.5065 16.4139 57.2375 16.5643L56.7076 16.8652C56.2021 17.1424 55.6641 17.277 55.1179 17.277Z"
        fill="#4E4E4E" />
    <path
        d="M43.5579 17.1107C43.2644 17.1107 42.9872 16.9286 42.8894 16.6435C42.7671 16.2872 42.9709 15.8992 43.3378 15.7804L49.5661 13.7928C49.9411 13.674 50.3325 13.872 50.4547 14.2283C50.577 14.5847 50.3732 14.9727 50.0064 15.0915L43.778 17.0791C43.7046 17.1028 43.6313 17.1107 43.5579 17.1107Z"
        fill="#333333" />
    <path
        d="M66.8898 17.5461C67.6724 19.3278 64.7457 22.915 62.6832 22.1152C60.8815 21.4104 58.9495 17.4827 62.2185 16.0574C63.5147 15.5664 65.0311 15.8436 66.2865 16.7859C66.6289 17.0393 66.8001 17.3402 66.8898 17.5461Z"
        fill="#4E4E4E" />
    <path
        d="M66.3681 17.5462C65.7485 17.0711 64.4849 17.6333 63.5474 18.7973C62.6099 19.9614 62.3408 21.2838 62.9604 21.7589C63.58 22.2341 64.8436 21.6718 65.7811 20.5078C66.7268 19.3437 66.9877 18.0213 66.3681 17.5462Z"
        fill="#F0FDFF" />
    <path
        d="M68.7485 1.66128C68.4632 2.14432 67.7458 2.2631 67.1588 1.93052C66.5718 1.59793 66.311 0.940679 66.6044 0.457639C66.8898 -0.0254015 67.6072 -0.144182 68.1941 0.188403C68.7811 0.520989 69.0338 1.17824 68.7485 1.66128Z"
        fill="#333333" />
    <path
        d="M43.5416 17.7362C42.9954 17.9104 42.384 17.5303 42.172 16.8968C41.9601 16.2633 42.2291 15.614 42.7753 15.4398C43.3215 15.2656 43.9329 15.6457 44.1449 16.2792C44.3568 16.9127 44.0878 17.5699 43.5416 17.7362Z"
        fill="#333333" />
    <path opacity="0.8"
        d="M62.9848 12.2961C63.1397 12.5574 62.0718 13.4364 60.5962 14.2599C59.1206 15.0835 57.8081 15.5427 57.6532 15.2893C57.4983 15.036 62.8299 12.0348 62.9848 12.2961Z"
        fill="#333333" />
    <path opacity="0.8"
        d="M64.0283 16.3584C63.6126 16.493 63.4088 16.7939 63.5718 17.0394C63.7349 17.277 64.2158 17.372 64.6316 17.2374C65.0474 17.1028 65.2512 16.8018 65.0881 16.5643C64.9251 16.3109 64.4523 16.2238 64.0283 16.3584Z"
        fill="#4E4E4E" />
    <defs>
        <linearGradient id="paint0_linear_188_1454" x1="48.3621" y1="12.4287" x2="59.3982"
            y2="12.4287" gradientUnits="userSpaceOnUse">
            <stop stop-color="#846918" />
            <stop offset="0.1443" stop-color="#9E7D1C" />
            <stop offset="0.4096" stop-color="#C89D21" />
            <stop offset="0.6501" stop-color="#E6B526" />
            <stop offset="0.8549" stop-color="#F8C328" />
            <stop offset="1" stop-color="#FFC829" />
        </linearGradient>
    </defs>
</svg>