<svg width="157" height="154" viewBox="0 0 157 154" fill="none" xmlns="http://www.w3.org/2000/svg">
<g id="Frame" clip-path="url(#clip0_1908_4602)">
<g id="Group">
<path id="Vector" opacity="0.35" d="M144.765 99.3489C136.553 93.6582 122.556 92.4994 113.514 96.7415C111.565 97.652 110.031 98.7694 108.869 99.9697L112.706 90.9887L90.5793 75.655L83.7776 74.6203L71.439 68.5157L72.5796 54.9409C72.5796 54.9202 72.5796 54.8788 72.5796 54.8581L72.6418 54.1959H72.5796C72.5381 51.154 70.6718 48.0086 66.8562 45.3599C58.6443 39.6692 44.6468 38.5104 35.6055 42.7525C31.4166 44.7184 29.0318 47.512 28.4927 50.5125H28.4305L28.3682 51.2161L27.518 61.3558L20.7578 42.38L19.555 60.4246L14.9307 59.1623L12.3593 61.6249L9.26945 61.8318L3.42161 64.584L8.35702 62.2663L6.28332 60.8385L1.34791 63.1562L0 79.297L2.05297 80.7248L2.98613 81.3663L2.6336 85.6292L2.65434 85.6498H2.6336L19.6794 97.4658C19.6794 97.4658 27.6632 97.8176 34.299 102.411C40.9349 107.005 45.6422 110.275 45.6422 110.275L53.5015 110.565L53.1697 114.517C53.149 114.786 53.2941 115.055 53.5223 115.324L44.8957 116.566L43.5477 132.727V134.072L46.5131 136.969L51.2412 137.363L49.997 152.324C49.9555 152.696 50.1836 153.11 50.6605 153.441C51.3449 153.917 52.361 154.103 53.2527 154C53.6259 153.959 53.9785 153.876 54.2895 153.752C54.808 153.503 55.0983 153.152 55.119 152.758L56.3632 137.797L56.7158 137.818L60.9254 135.831L61.0705 134.176L61.5267 134.528L63.3101 135.852L89.2107 138.294L100.264 133.1L100.906 131.568C105.365 138.915 118.243 138.356 120.959 136.638L121.146 134.341C128.176 135.831 136.014 135.335 141.8 132.624C146.32 130.492 148.747 127.409 149.016 124.16L150.178 110.296C151.256 106.654 149.472 102.618 144.765 99.3489ZM58.2918 114.972L58.3125 114.703L59.5153 115.655L58.1466 115.303C58.2088 115.2 58.271 115.097 58.2918 114.972ZM61.1742 110.875L65.2387 108.971L65.2179 108.951H65.2387L65.9852 99.9697L89.6254 101.936L96.6138 106.778L95.5977 109.344L88.63 112.634L58.3332 114.703L58.665 110.813L61.1742 110.875Z" fill="#C1C1C1"/>
<g id="Group_2">
<g id="Group_3">
<g id="Group_4">
<path id="Vector_2" d="M119.196 29.7571L126.475 33.4198L139.726 55.7479V67.9363L120.897 88.9815L99.6206 88.5262L84.4411 69.7159L74.9435 64.2529L50.3909 8.02902V1.5727L55.0982 4.28353V0L73.0772 10.3467C73.0772 10.3467 76.8098 17.4031 83.7982 21.4176C90.7866 25.4528 95.7635 28.3085 95.7635 28.3085L102.918 42.0903V46.5601L98.4178 43.9734L95.0792 51.0919L106.941 71.5783L118.471 78.2209L130.27 65.7221V58.0242L119.196 29.7571Z" fill="#1D2936"/>
</g>
<path id="Vector_3" d="M80.978 59.2243L95.0585 51.1125L84.3167 52.0851L80.978 59.2243Z" fill="#121A21"/>
<g id="Group_5">
<path id="Vector_4" d="M139.726 67.9364V55.748L126.475 33.4198L120.606 30.4607L132.551 58.8313V67.9571L119.839 81.2215L114.199 82.2355L118.45 87.5744L120.897 88.9815L139.726 67.9364Z" fill="#F1C40F"/>
</g>
<path id="Vector_5" d="M126.475 33.4197L112.394 41.5108L106.547 38.5724L117.599 28.743L126.475 33.4197Z" fill="#FFE578"/>
<path id="Vector_6" d="M110.383 40.5176L106.547 38.5724L117.599 28.743L124.505 32.3851L110.383 40.5176Z" fill="#D35400"/>
<g id="Group_6">
<path id="Vector_7" d="M122.099 31.3919L122.016 29.3018L125.417 31.2884V26.6324L120.295 17.7549L116.417 16.3064L120.606 30.4607L122.099 31.3919Z" fill="#F1C40F"/>
</g>
<g id="Group_7">
<path id="Vector_8" d="M120.606 30.4607L116.418 16.3064L115.215 16.8651L118.699 28.1844L120.606 30.4607Z" fill="#34495E"/>
</g>
<g id="Group_8">
<path id="Vector_9" d="M48.1718 30.2538C51.0128 28.5983 54.9528 28.8052 59.3076 31.3298C67.9757 36.3169 74.9848 48.4639 74.9848 58.4381C74.9848 63.4252 73.2222 66.9431 70.4019 68.5779L56.4252 76.6276L34.2158 38.2828L48.1718 30.2538Z" fill="#1C2833"/>
<g id="Group_9">
<path id="Vector_10" d="M51.801 38.9657L45.9324 32.6128L55.9898 29.902V35.6754L67.3952 52.7268L82.6162 80.2903L66.9805 67.9364L60.3031 51.1541L51.801 38.9657Z" fill="#0F161C"/>
</g>
<g id="Group_10">
<path id="Vector_11" d="M57.0155 76.2435C63.1349 72.7178 63.1333 61.2827 57.0118 50.7026C50.8903 40.1225 40.967 34.4038 34.8476 37.9296C28.7281 41.4553 28.7298 52.8903 34.8513 63.4704C40.9728 74.0505 50.896 79.7692 57.0155 76.2435Z" fill="#34495E"/>
</g>
<g id="Group_11">
<path id="Vector_12" d="M52.9414 69.24C42.6973 72.4061 31.0223 52.2094 38.8817 44.946C49.1465 41.7799 60.8214 61.9767 52.9414 69.24Z" fill="#ECF0F1"/>
</g>
<g id="Group_12">
<path id="Vector_13" d="M45.9323 61.1696C43.983 60.0522 42.3862 57.3 42.3862 55.0444C42.3862 52.7888 43.983 51.8783 45.9323 52.9957C47.8815 54.1132 49.4783 56.8654 49.4783 59.121C49.4576 61.3765 47.8815 62.2871 45.9323 61.1696Z" fill="#34495E"/>
</g>
</g>
<g id="Group_13">
<path id="Vector_14" d="M130.187 77.4759C133.028 75.8205 136.968 76.0274 141.323 78.552C149.991 83.5391 157 95.6861 157 105.66C157 110.647 155.237 114.165 152.417 115.8L138.44 123.85L116.252 85.5049L130.187 77.4759Z" fill="#1C2833"/>
<g id="Group_14">
<path id="Vector_15" d="M138.606 69.1779C147.171 70.0677 152.148 81.9457 151.754 85.1117L137.673 93.2235C136.429 87.8226 128.093 77.1862 124.526 77.2897L138.606 69.1779Z" fill="#F39C12"/>
</g>
<g id="Group_15">
<path id="Vector_16" d="M139.152 123.577C145.272 120.051 145.27 108.616 139.148 98.0359C133.027 87.4558 123.104 81.7371 116.984 85.2628C110.865 88.7886 110.867 100.224 116.988 110.804C123.109 121.384 133.033 127.102 139.152 123.577Z" fill="#34495E"/>
</g>
<g id="Group_16">
<path id="Vector_17" d="M135.102 116.566C124.858 119.732 113.183 99.5351 121.042 92.2717C131.286 89.1056 142.982 109.302 135.102 116.566Z" fill="#ECF0F1"/>
</g>
<g id="Group_17">
<path id="Vector_18" d="M128.072 108.495C126.123 107.378 124.526 104.626 124.526 102.37C124.526 100.114 126.123 99.204 128.072 100.321C130.021 101.439 131.618 104.191 131.618 106.447C131.618 108.702 130.042 109.633 128.072 108.495Z" fill="#34495E"/>
</g>
</g>
<g id="Group_18">
<path id="Vector_19" d="M105.116 37.8689L112.394 41.5316L125.645 63.8597V76.0481L106.816 97.114L83.487 83.6633L51.3032 35.7168L41.8056 30.2537L36.3103 16.1408V9.68451L41.0176 12.416V8.11182L58.9966 18.4585C58.9966 18.4585 62.7293 25.5149 69.7176 29.5294C76.706 33.5647 81.6829 36.4203 81.6829 36.4203L88.8372 50.2021V54.6719L84.3372 52.0852L80.9986 59.2037L92.8602 79.6902L104.39 86.3327L116.189 73.8339V66.136L105.116 37.8689Z" fill="#273747"/>
</g>
<path id="Vector_20" d="M36.3103 9.68449L41.0176 12.416L55.0773 4.30421L50.37 1.59338L36.3103 9.68449Z" fill="#FFE780"/>
<g id="Group_19">
<path id="Vector_21" d="M88.8374 54.6926L102.897 46.6014V42.1317L95.7428 28.3499C95.7428 28.3499 90.7659 25.4942 83.7775 21.459C76.7892 17.4238 73.0565 10.3881 73.0565 10.3881L55.0775 0.0413818L52.8586 17.4859L79.6924 40.1244L88.8374 54.6926Z" fill="#4C6B8A"/>
</g>
<g id="Group_20">
<path id="Vector_22" d="M84.3167 52.0852L88.8166 54.6719V50.2021L81.6624 36.4203C81.6624 36.4203 76.6855 33.5647 69.6971 29.5294C62.7087 25.4942 58.9761 18.4585 58.9761 18.4585L40.9971 8.11182V12.416L73.2639 44.3873L84.3167 52.0852Z" fill="#34495E"/>
</g>
<g id="Group_21">
<g id="Group_22">
<path id="Vector_23" d="M73.2844 41.8005L41.0176 12.416L36.3103 9.68445V16.1408L41.8056 30.233L51.3032 35.7167L73.2844 46.1048V41.8005Z" fill="#F1C40F"/>
</g>
<g id="Group_23">
<path id="Vector_24" d="M125.645 76.0481V63.8597L112.394 41.5108L106.547 38.5724L118.47 66.943V76.0688L105.759 89.3332L97.0698 84.6772L104.369 95.6861L106.816 97.0932L125.645 76.0481Z" fill="#F1C40F"/>
</g>
</g>
<g id="Group_24">
<path id="Vector_25" d="M34.1538 13.8852L36.3105 15.1268V9.68447L34.1538 8.44287V13.8852Z" fill="#C0392B"/>
</g>
<g id="Group_25">
<path id="Vector_26" d="M48.1928 0.351807L50.3702 1.59341L36.3105 9.68451L34.1538 8.44291L48.1928 0.351807Z" fill="#E74C3C"/>
</g>
<g id="Group_26">
<path id="Vector_27" d="M124.547 77.2897C133.111 78.1795 138.088 90.0575 137.694 93.2236L135.433 91.9199C134.189 86.5189 125.646 80.373 122.079 80.4558L124.547 77.2897Z" fill="#F1C40F"/>
</g>
<g id="Group_27">
<path id="Vector_28" d="M45.9324 32.6127L23.5779 34.8269L39.421 26.0529L36.3104 22.4109L37.4302 19.0378L45.9324 32.6127Z" fill="#34495E"/>
</g>
<g id="Group_28">
<path id="Vector_29" d="M108.019 39.5037L107.936 37.4136L111.358 39.3795V34.7235L106.236 25.8667L102.337 24.4182L106.547 38.5725L108.019 39.5037Z" fill="#F1C40F"/>
</g>
<g id="Group_29">
<path id="Vector_30" d="M106.547 38.5725L102.337 24.4182L101.134 24.9769L104.618 36.2962L106.547 38.5725Z" fill="#34495E"/>
</g>
</g>
<path id="Vector_31" d="M55.0775 0L41.0178 8.1118L58.9968 18.4585L73.0565 10.3674L55.0775 0Z" fill="#5B81A6"/>
<path id="Vector_32" d="M95.7428 28.3292L81.6831 36.441L88.8374 50.2228L102.876 42.111L95.7428 28.3292Z" fill="#425C78"/>
<path id="Vector_33" d="M88.8374 50.2228V54.6925L102.876 46.6014V42.111L88.8374 50.2228Z" fill="#2C3E50"/>
<path id="Vector_34" d="M116.418 16.3064L102.337 24.4182L106.236 25.8667L120.295 17.7549L116.418 16.3064Z" fill="#FFE578"/>
<path id="Vector_35" d="M120.307 17.7526L106.228 25.8644L111.35 34.7171L125.429 26.6053L120.307 17.7526Z" fill="#F39C12"/>
<path id="Vector_36" d="M119.547 20.5735L109.061 26.6184L112.12 31.9043L122.607 25.8595L119.547 20.5735Z" fill="#ECF0F1"/>
<path id="Vector_37" d="M115.215 16.8651L101.134 24.9769L102.337 24.4182L116.417 16.3064L115.215 16.8651Z" fill="#34495E"/>
<path id="Vector_38" d="M125.417 31.2883L111.358 39.3794V34.7234L125.417 26.6323V31.2883Z" fill="#E67E22"/>
<path id="Vector_39" d="M126.475 33.4198L112.395 41.5109L125.645 63.8597L139.726 55.7479L126.475 33.4198Z" fill="#F39C12"/>
<path id="Vector_40" d="M125.646 63.8597V76.0481L139.726 67.9363V55.7479L125.646 63.8597Z" fill="#E67E22"/>
<path id="Vector_41" d="M139.726 67.9363L125.645 76.0481L124.546 77.2897L138.606 69.1779L139.726 67.9363Z" fill="#D35400"/>
<g id="Group_30">
<path id="Vector_42" d="M135.703 14.3612C136.035 14.1749 136.491 14.1956 136.989 14.4853C138.005 15.0647 138.814 16.4719 138.814 17.6307C138.814 18.2101 138.606 18.624 138.274 18.8102L125.231 26.3219L122.659 21.8729L135.703 14.3612Z" fill="#34495E"/>
<path id="Vector_43" d="M138.606 16.5961C138.731 16.9479 138.814 17.2996 138.814 17.6307C138.814 18.2102 138.606 18.624 138.274 18.8103L125.231 26.3219L124.36 24.7906L138.606 16.5961Z" fill="#1C2833"/>
</g>
<g id="Group_31">
<path id="Vector_44" d="M107.438 31.8264C107.646 31.7023 107.915 31.723 108.206 31.9092C108.807 32.261 109.305 33.1094 109.305 33.7923C109.305 34.1441 109.18 34.3924 108.994 34.4959L102.586 38.1793L101.031 35.5098L107.438 31.8264Z" fill="#1C2833"/>
<path id="Vector_45" d="M102.814 33.3164C103.146 33.1301 103.602 33.1508 104.1 33.4405C105.116 34.0199 105.924 35.4271 105.924 36.5859C105.924 37.1653 105.717 37.5792 105.385 37.7654L94.7057 43.9114L92.1343 39.4623L102.814 33.3164Z" fill="#34495E"/>
<path id="Vector_46" d="M105.717 35.5305C105.841 35.8823 105.924 36.2341 105.924 36.5652C105.924 37.1446 105.717 37.5585 105.385 37.7447L94.7057 43.8906L93.8347 42.3593L105.717 35.5305Z" fill="#1C2833"/>
<g id="Group_32">
<path id="Vector_47" d="M91.5952 40.6417C91.5952 41.8006 92.404 43.2077 93.4201 43.7871C94.4362 44.3666 95.2449 43.8906 95.2449 42.7318C95.2449 41.5729 94.4362 40.1658 93.4201 39.5864C92.4247 39.007 91.5952 39.4829 91.5952 40.6417Z" fill="#2C3E50"/>
</g>
<g id="Group_33">
<path id="Vector_48" d="M92.6114 42.1524C93.7934 43.8906 95.1621 43.1042 94.2496 41.2212C93.0469 39.4829 91.699 40.2486 92.6114 42.1524Z" fill="#ECF0F1"/>
</g>
</g>
</g>
</g>
</g>
<defs>
<clipPath id="clip0_1908_4602">
<rect width="157" height="154" fill="white"/>
</clipPath>
</defs>
</svg>
