<svg width="108" height="107" viewBox="0 0 108 107" fill="none" xmlns="http://www.w3.org/2000/svg">
    <g id="Frame" clip-path="url(#clip0_1468_1238)">
        <g id="Group">
            <path id="Vector" opacity="0.35"
                d="M99.3406 68.8745C93.7356 64.9743 84.1817 64.18 78.0105 67.0875C76.6801 67.7115 75.6327 68.4774 74.84 69.3L77.4585 63.1447L62.3562 52.6352L57.7137 51.9261L49.2921 47.7421L50.0705 38.4382C50.0705 38.424 50.0705 38.3956 50.0705 38.3815L50.113 37.9276H50.0705C50.0422 35.8427 48.7684 33.6869 46.164 31.8715C40.559 27.9713 31.0051 27.177 24.8339 30.0845C21.9748 31.4319 20.3471 33.3466 19.9791 35.4031H19.9366L19.8942 35.8853L19.3139 42.8349L14.6997 29.8292L13.8787 42.1966L10.7224 41.3315L8.96728 43.0192L6.85834 43.1611L2.86691 45.0474L6.23556 43.4589L4.82016 42.4803L1.4515 44.0688L0.531494 55.1314L1.93274 56.11L2.56967 56.5497L2.32905 59.4713L2.34321 59.4855H2.32905L13.9636 67.5839C13.9636 67.5839 19.4129 67.825 23.9422 70.9736C28.4715 74.1222 31.6845 76.3631 31.6845 76.3631L37.0488 76.5616L36.8224 79.2705C36.8082 79.4549 36.9073 79.6393 37.063 79.8237L31.1749 80.6746L30.2549 91.7514V92.6733L32.2789 94.6589L35.506 94.9284L34.6568 105.183C34.6285 105.438 34.7842 105.722 35.1097 105.948C35.5768 106.275 36.2704 106.402 36.879 106.331C37.1338 106.303 37.3744 106.246 37.5867 106.161C37.9405 105.991 38.1387 105.75 38.1528 105.48L39.0021 95.2262L39.2427 95.2404L42.116 93.8788L42.215 92.7442L42.5264 92.9853L43.7437 93.893L61.422 95.5666L68.9661 92.0067L69.4049 90.9572C72.448 95.9921 81.2377 95.6091 83.0918 94.432L83.2192 92.8577C88.0174 93.8788 93.3676 93.5385 97.3166 91.6805C100.402 90.2197 102.058 88.1064 102.242 85.8797L103.035 76.3772C103.771 73.8811 102.554 71.1154 99.3406 68.8745ZM40.3184 79.5826L40.3326 79.3982L41.1535 80.0506L40.2193 79.8095C40.2618 79.7386 40.3043 79.6677 40.3184 79.5826ZM42.2858 76.7744L45.06 75.4695L45.0459 75.4554H45.06L45.5695 69.3L61.7051 70.6474L66.475 73.9662L65.7815 75.7248L61.0257 77.9799L40.3467 79.3982L40.5732 76.7318L42.2858 76.7744Z"
                fill="#C1C1C1" />
            <g id="Group_2">
                <g id="Group_3">
                    <g id="Group_4">
                        <path id="Vector_2"
                            d="M81.8885 21.1777L86.8566 23.6881L95.901 38.9914V47.3451L83.0492 61.769L68.5272 61.457L58.1664 48.5648L51.6839 44.8205L34.9255 6.28577V1.86073L38.1385 3.71868V0.782837L50.41 7.87425C50.41 7.87425 52.9577 12.7106 57.7276 15.4621C62.4975 18.2277 65.8945 20.1849 65.8945 20.1849L70.7776 29.6307V32.6942L67.7062 30.9213L65.4274 35.8002L73.5235 49.8412L81.3932 54.3939L89.4468 45.8275V40.5515L81.8885 21.1777Z"
                            fill="#1D2936" />
                    </g>
                    <path id="Vector_3"
                        d="M55.8027 41.3741L65.4133 35.8145L58.0815 36.481L55.8027 41.3741Z"
                        fill="#121A21" />
                    <g id="Group_5">
                        <path id="Vector_4"
                            d="M95.9011 47.345V38.9913L86.8567 23.6881L82.8511 21.6599L91.0038 41.1046V47.3592L82.3274 56.4504L78.4775 57.1453L81.3791 60.8045L83.0493 61.7689L95.9011 47.345Z"
                            fill="#F1C40F" />
                    </g>
                    <path id="Vector_5"
                        d="M86.8566 23.6881L77.2461 29.2336L73.2546 27.2196L80.7987 20.4828L86.8566 23.6881Z"
                        fill="#FFE578" />
                    <path id="Vector_6"
                        d="M75.8731 28.5528L73.2546 27.2196L80.7987 20.4828L85.512 22.979L75.8731 28.5528Z"
                        fill="#D35400" />
                    <g id="Group_6">
                        <path id="Vector_7"
                            d="M83.8701 22.2981L83.8135 20.8657L86.1348 22.2272V19.0361L82.6387 12.9517L79.9919 11.9589L82.8511 21.6599L83.8701 22.2981Z"
                            fill="#F1C40F" />
                    </g>
                    <g id="Group_7">
                        <path id="Vector_8"
                            d="M82.8512 21.6599L79.9921 11.9589L79.1711 12.3418L81.549 20.0998L82.8512 21.6599Z"
                            fill="#34495E" />
                    </g>
                    <g id="Group_8">
                        <path id="Vector_9"
                            d="M33.4111 21.5182C35.3502 20.3835 38.0395 20.5254 41.0119 22.2557C46.9282 25.6737 51.7123 33.999 51.7123 40.8352C51.7123 44.2532 50.5092 46.6643 48.5842 47.7847L39.0444 53.3019L23.8855 27.0211L33.4111 21.5182Z"
                            fill="#1C2833" />
                        <g id="Group_9">
                            <path id="Vector_10"
                                d="M35.8882 27.4892L31.8826 23.1351L38.7473 21.2771V25.2341L46.532 36.9208L56.921 55.8123L46.2489 47.3451L41.6913 35.8429L35.8882 27.4892Z"
                                fill="#0F161C" />
                        </g>
                        <g id="Group_10">
                            <path id="Vector_11"
                                d="M39.4473 53.0386C43.6242 50.6222 43.623 42.7848 39.4448 35.5334C35.2666 28.282 28.4935 24.3625 24.3167 26.779C20.1399 29.1955 20.141 37.0328 24.3192 44.2842C28.4974 51.5356 35.2705 55.4551 39.4473 53.0386Z"
                                fill="#34495E" />
                        </g>
                        <g id="Group_11">
                            <path id="Vector_12"
                                d="M36.6665 48.2386C29.6745 50.4086 21.7057 36.5662 27.0701 31.588C34.0764 29.418 42.0451 43.2604 36.6665 48.2386Z"
                                fill="#ECF0F1" />
                        </g>
                        <g id="Group_12">
                            <path id="Vector_13"
                                d="M31.8825 42.7073C30.552 41.9415 29.4622 40.0552 29.4622 38.5092C29.4622 36.9633 30.552 36.3393 31.8825 37.1051C33.213 37.871 34.3028 39.7573 34.3028 41.3032C34.2887 42.8492 33.213 43.4732 31.8825 42.7073Z"
                                fill="#34495E" />
                        </g>
                    </g>
                    <g id="Group_13">
                        <path id="Vector_14"
                            d="M89.3902 53.8834C91.3293 52.7488 94.0185 52.8906 96.9909 54.6209C102.907 58.039 107.691 66.3643 107.691 73.2004C107.691 76.6185 106.488 79.0295 104.563 80.15L95.0235 85.6671L79.8787 59.3863L89.3902 53.8834Z"
                            fill="#1C2833" />
                        <g id="Group_14">
                            <path id="Vector_15"
                                d="M95.1367 48.196C100.982 48.8059 104.379 56.9468 104.11 59.1168L94.4998 64.6765C93.6505 60.9748 87.9606 53.6848 85.5261 53.7557L95.1367 48.196Z"
                                fill="#F39C12" />
                        </g>
                        <g id="Group_15">
                            <path id="Vector_16"
                                d="M95.5094 85.48C99.6862 83.0636 99.685 75.2262 95.5068 67.9748C91.3286 60.7234 84.5555 56.804 80.3787 59.2204C76.2019 61.6369 76.203 69.4742 80.3812 76.7256C84.5594 83.977 91.3325 87.8965 95.5094 85.48Z"
                                fill="#34495E" />
                        </g>
                        <g id="Group_16">
                            <path id="Vector_17"
                                d="M92.7447 80.6747C85.7526 82.8446 77.7839 69.0022 83.1482 64.024C90.1403 61.854 98.1232 75.6965 92.7447 80.6747Z"
                                fill="#ECF0F1" />
                        </g>
                        <g id="Group_17">
                            <path id="Vector_18"
                                d="M87.9465 75.1434C86.616 74.3775 85.5261 72.4912 85.5261 70.9453C85.5261 69.3993 86.616 68.7753 87.9465 69.5412C89.2769 70.307 90.3668 72.1933 90.3668 73.7393C90.3668 75.2852 89.2911 75.9234 87.9465 75.1434Z"
                                fill="#34495E" />
                        </g>
                    </g>
                    <g id="Group_18">
                        <path id="Vector_19"
                            d="M72.2782 26.7374L77.2463 29.2478L86.2907 44.5511V52.9047L73.4388 67.3429L57.5156 58.124L35.5485 25.2624L29.066 21.5182L25.3152 11.8455V7.42042L28.5281 9.29256V6.34253L40.7997 13.4339C40.7997 13.4339 43.3474 18.2703 48.1173 21.0218C52.8872 23.7874 56.2842 25.7446 56.2842 25.7446L61.1673 35.1904V38.2539L58.0959 36.481L55.8171 41.3599L63.9132 55.4009L71.7828 59.9536L79.8364 51.3872V46.1112L72.2782 26.7374Z"
                            fill="#273747" />
                    </g>
                    <path id="Vector_20"
                        d="M25.3152 7.42036L28.5281 9.29249L38.1246 3.73283L34.9116 1.87488L25.3152 7.42036Z"
                        fill="#FFE780" />
                    <g id="Group_19">
                        <path id="Vector_21"
                            d="M61.1671 38.268L70.7635 32.7225V29.659L65.8804 20.2133C65.8804 20.2133 62.4834 18.256 57.7135 15.4904C52.9436 12.7247 50.3959 7.90257 50.3959 7.90257L38.1243 0.811157L36.6099 12.7673L54.9252 28.2833L61.1671 38.268Z"
                            fill="#4C6B8A" />
                    </g>
                    <g id="Group_20">
                        <path id="Vector_22"
                            d="M58.0816 36.481L61.1531 38.2539V35.1904L56.2699 25.7446C56.2699 25.7446 52.873 23.7874 48.1031 21.0218C43.3332 18.2561 40.7854 13.4339 40.7854 13.4339L28.5139 6.34253V9.29256L50.5376 31.205L58.0816 36.481Z"
                            fill="#34495E" />
                    </g>
                    <g id="Group_21">
                        <g id="Group_22">
                            <path id="Vector_23"
                                d="M50.5518 29.4322L28.5281 9.29254L25.3152 7.42041V11.8455L29.066 21.504L35.5485 25.2624L50.5518 32.3822V29.4322Z"
                                fill="#F1C40F" />
                        </g>
                        <g id="Group_23">
                            <path id="Vector_24"
                                d="M86.2906 52.9047V44.551L77.2462 29.2336L73.2548 27.2196L81.3933 46.6643V52.9189L72.7169 62.0101L66.7864 58.8189L71.7686 66.3642L73.4388 67.3286L86.2906 52.9047Z"
                                fill="#F1C40F" />
                        </g>
                    </g>
                    <g id="Group_24">
                        <path id="Vector_25"
                            d="M23.843 10.2995L25.315 11.1505V7.42043L23.843 6.56946V10.2995Z"
                            fill="#C0392B" />
                    </g>
                    <g id="Group_25">
                        <path id="Vector_26"
                            d="M33.4253 1.02393L34.9115 1.8749L25.315 7.42038L23.843 6.56941L33.4253 1.02393Z"
                            fill="#E74C3C" />
                    </g>
                    <g id="Group_26">
                        <path id="Vector_27"
                            d="M85.5403 53.7557C91.3859 54.3656 94.7829 62.5065 94.5139 64.6765L92.9711 63.783C92.1219 60.0813 86.2904 55.869 83.856 55.9257L85.5403 53.7557Z"
                            fill="#F1C40F" />
                    </g>
                    <g id="Group_27">
                        <path id="Vector_28"
                            d="M31.8825 23.135L16.6245 24.6525L27.4382 18.639L25.3151 16.1429L26.0794 13.8311L31.8825 23.135Z"
                            fill="#34495E" />
                    </g>
                    <g id="Group_28">
                        <path id="Vector_29"
                            d="M74.2595 27.8578L74.2029 26.4254L76.5383 27.7727V24.5816L73.0423 18.5114L70.3813 17.5186L73.2546 27.2196L74.2595 27.8578Z"
                            fill="#F1C40F" />
                    </g>
                    <g id="Group_29">
                        <path id="Vector_30"
                            d="M73.2547 27.2196L70.3815 17.5186L69.5605 17.9015L71.9384 25.6595L73.2547 27.2196Z"
                            fill="#34495E" />
                    </g>
                </g>
                <path id="Vector_31"
                    d="M38.1245 0.782837L28.5281 6.3425L40.7996 13.4339L50.396 7.88843L38.1245 0.782837Z"
                    fill="#5B81A6" />
                <path id="Vector_32"
                    d="M65.8804 20.1991L56.2839 25.7588L61.1671 35.2045L70.7493 29.6449L65.8804 20.1991Z"
                    fill="#425C78" />
                <path id="Vector_33"
                    d="M61.1672 35.2046V38.2681L70.7495 32.7226V29.6449L61.1672 35.2046Z"
                    fill="#2C3E50" />
                <path id="Vector_34"
                    d="M79.9919 11.9589L70.3813 17.5185L73.0423 18.5113L82.6387 12.9517L79.9919 11.9589Z"
                    fill="#FFE578" />
                <path id="Vector_35"
                    d="M82.6469 12.9501L73.0371 18.5098L76.5331 24.5772L86.1429 19.0176L82.6469 12.9501Z"
                    fill="#F39C12" />
                <path id="Vector_36"
                    d="M82.1279 14.8836L74.9705 19.0266L77.059 22.6495L84.2165 18.5064L82.1279 14.8836Z"
                    fill="#ECF0F1" />
                <path id="Vector_37"
                    d="M79.1711 12.3418L69.5605 17.9015L70.3815 17.5185L79.9921 11.9589L79.1711 12.3418Z"
                    fill="#34495E" />
                <path id="Vector_38"
                    d="M86.1347 22.2273L76.5383 27.7728V24.5816L86.1347 19.0361V22.2273Z"
                    fill="#E67E22" />
                <path id="Vector_39"
                    d="M86.8567 23.6881L77.2461 29.2336L86.2905 44.551L95.9011 38.9914L86.8567 23.6881Z"
                    fill="#F39C12" />
                <path id="Vector_40"
                    d="M86.2905 44.551V52.9047L95.9011 47.345V38.9913L86.2905 44.551Z"
                    fill="#E67E22" />
                <path id="Vector_41"
                    d="M95.901 47.3451L86.2904 52.9048L85.5403 53.7557L95.1367 48.1961L95.901 47.3451Z"
                    fill="#D35400" />
                <g id="Group_30">
                    <path id="Vector_42"
                        d="M93.1553 10.6257C93.3818 10.4981 93.6932 10.5123 94.0329 10.7108C94.7264 11.1079 95.2784 12.0724 95.2784 12.8666C95.2784 13.2637 95.1369 13.5474 94.9104 13.675L86.0075 18.8234L84.2524 15.7741L93.1553 10.6257Z"
                        fill="#34495E" />
                    <path id="Vector_43"
                        d="M95.1369 12.1575C95.2218 12.3986 95.2784 12.6397 95.2784 12.8666C95.2784 13.2637 95.1369 13.5474 94.9104 13.675L86.0076 18.8234L85.4131 17.7739L95.1369 12.1575Z"
                        fill="#1C2833" />
                </g>
                <g id="Group_31">
                    <path id="Vector_44"
                        d="M73.8633 22.596C74.0049 22.5109 74.1889 22.5251 74.387 22.6527C74.7975 22.8938 75.1372 23.4753 75.1372 23.9434C75.1372 24.1845 75.0523 24.3547 74.9249 24.4256L70.5513 26.9501L69.4897 25.1205L73.8633 22.596Z"
                        fill="#1C2833" />
                    <path id="Vector_45"
                        d="M70.7068 23.6172C70.9333 23.4895 71.2446 23.5037 71.5843 23.7023C72.2779 24.0994 72.8299 25.0638 72.8299 25.8581C72.8299 26.2552 72.6884 26.5388 72.4619 26.6665L65.1726 30.8788L63.4175 27.8295L70.7068 23.6172Z"
                        fill="#34495E" />
                    <path id="Vector_46"
                        d="M72.6884 25.1348C72.7733 25.3759 72.8299 25.617 72.8299 25.8439C72.8299 26.241 72.6884 26.5247 72.4619 26.6523L65.1726 30.8646L64.5781 29.8151L72.6884 25.1348Z"
                        fill="#1C2833" />
                    <g id="Group_32">
                        <path id="Vector_47"
                            d="M63.0496 28.6379C63.0496 29.4322 63.6016 30.3966 64.2951 30.7937C64.9887 31.1908 65.5407 30.8646 65.5407 30.0704C65.5407 29.2761 64.9887 28.3117 64.2951 27.9146C63.6157 27.5175 63.0496 27.8437 63.0496 28.6379Z"
                            fill="#2C3E50" />
                    </g>
                    <g id="Group_33">
                        <path id="Vector_48"
                            d="M63.7432 29.6732C64.55 30.8646 65.4841 30.3257 64.8613 29.035C64.0404 27.8437 63.1204 28.3684 63.7432 29.6732Z"
                            fill="#ECF0F1" />
                    </g>
                </g>
            </g>
        </g>
    </g>
    <defs>
        <clipPath id="clip0_1468_1238">
            <rect width="107.16" height="105.549" fill="white"
                transform="translate(0.531494 0.782837)" />
        </clipPath>
    </defs>
</svg>