<svg width="278" height="351" viewBox="0 0 278 351" fill="none" xmlns="http://www.w3.org/2000/svg">
<path d="M55.68 208.94L69.07 201.21C69.87 200.75 70.58 199.63 70.67 198.71L72 183.82C72.08 182.9 72.71 181.66 73.39 181.04C75.99 178.64 78.48 176 80.83 173.17C81.42 172.46 82.59 172.12 83.46 172.42L92.05 175.42C92.92 175.72 94 175.32 94.46 174.52L104.3 157.48C104.76 156.68 104.57 155.55 103.87 154.94L96.98 149C96.28 148.4 95.99 147.21 96.31 146.35C97.59 142.91 98.63 139.43 99.41 135.98C99.61 135.08 100.37 133.91 101.12 133.38L113.35 124.77C114.1 124.24 114.72 123.06 114.72 122.14V106.69C114.72 106.21 114.54 105.87 114.24 105.7L104.21 99.8704C103.94 99.7104 103.57 99.7004 103.16 99.8804L96.24 103C96.17 102.42 96.23 101.83 96.45 101.37L104.39 85.3604C104.8 84.5304 104.48 83.4904 103.69 83.0304L97.13 79.2404C97.12 79.2404 97.12 79.2304 97.12 79.2304L85.05 72.2304C84.25 71.7704 83.19 72.0204 82.68 72.7904L72.78 87.6704C72.49 88.1104 71.99 88.4504 71.44 88.6804L70.69 81.1704C70.65 80.7304 70.46 80.4204 70.18 80.2704V80.2604L60.13 74.4204C59.83 74.2504 59.44 74.2704 59.03 74.5004L45.65 82.2304C44.85 82.6904 44.14 83.8104 44.05 84.7304L42.71 99.6204C42.63 100.54 42 101.78 41.32 102.4C38.72 104.8 36.23 107.44 33.88 110.27C33.29 110.98 32.12 111.32 31.25 111.02L22.66 108.02C21.79 107.72 20.71 108.12 20.25 108.92L10.41 125.96C9.95 126.76 10.14 127.89 10.84 128.5L17.73 134.44C18.43 135.04 18.72 136.23 18.4 137.09C17.12 140.53 16.08 144.01 15.3 147.46C15.1 148.36 14.34 149.52 13.59 150.06L1.37 158.67C0.61 159.2 0 160.38 0 161.3V176.76C0 177.23 0.18 177.57 0.46 177.75L10.52 183.6C10.79 183.76 11.15 183.77 11.55 183.58L18.47 180.46C18.54 181.04 18.48 181.63 18.26 182.09L10.32 198.1C9.91 198.93 10.23 199.97 11.02 200.43L21.02 206.23C21.03 206.24 21.04 206.25 21.06 206.26L29.68 211.24C30.48 211.7 31.54 211.45 32.05 210.68L41.95 195.8C42.24 195.36 42.74 195.02 43.29 194.79L44.04 202.3C44.08 202.74 44.27 203.05 44.54 203.2L54.59 209.04C54.88 209.19 55.27 209.18 55.68 208.94ZM74.82 115.66C77.12 118.1 78.4 122.14 78.4 127.78C78.4 142.2 68.28 159.73 55.79 166.94C51.21 169.58 47.2 170.72 43.94 170.4C41.31 167.65 39.75 163.33 39.75 157.69C39.75 143.27 49.87 125.73 62.36 118.52C66.97 115.87 71.25 114.99 74.82 115.66Z" fill="#C18B1E"/>
<g opacity="0.3">
<path d="M55.68 208.94L69.07 201.21C69.87 200.75 70.58 199.63 70.67 198.71L72 183.82C72.08 182.9 72.71 181.66 73.39 181.04C75.99 178.64 78.48 176 80.83 173.17C81.42 172.46 82.59 172.12 83.46 172.42L92.05 175.42C92.92 175.72 94 175.32 94.46 174.52L104.3 157.48C104.76 156.68 104.57 155.55 103.87 154.94L96.98 149C96.28 148.4 95.99 147.21 96.31 146.35C97.59 142.91 98.63 139.43 99.41 135.98C99.61 135.08 100.37 133.91 101.12 133.38L113.35 124.77C114.1 124.24 114.72 123.06 114.72 122.14V106.69C114.72 106.21 114.54 105.87 114.24 105.7L104.21 99.8704C103.94 99.7104 103.57 99.7004 103.16 99.8804L96.24 103C96.17 102.42 96.23 101.83 96.45 101.37L104.39 85.3604C104.8 84.5304 104.48 83.4904 103.69 83.0304L97.13 79.2404C97.12 79.2404 97.12 79.2304 97.12 79.2304L85.05 72.2304C84.25 71.7704 83.19 72.0204 82.68 72.7904L72.78 87.6704C72.49 88.1104 71.99 88.4504 71.44 88.6804L70.69 81.1704C70.65 80.7304 70.46 80.4204 70.18 80.2704V80.2604L60.13 74.4204C59.83 74.2504 59.44 74.2704 59.03 74.5004L45.65 82.2304C44.85 82.6904 44.14 83.8104 44.05 84.7304L42.71 99.6204C42.63 100.54 42 101.78 41.32 102.4C38.72 104.8 36.23 107.44 33.88 110.27C33.29 110.98 32.12 111.32 31.25 111.02L22.66 108.02C21.79 107.72 20.71 108.12 20.25 108.92L10.41 125.96C9.95 126.76 10.14 127.89 10.84 128.5L17.73 134.44C18.43 135.04 18.72 136.23 18.4 137.09C17.12 140.53 16.08 144.01 15.3 147.46C15.1 148.36 14.34 149.52 13.59 150.06L1.37 158.67C0.61 159.2 0 160.38 0 161.3V176.76C0 177.23 0.18 177.57 0.46 177.75L10.52 183.6C10.79 183.76 11.15 183.77 11.55 183.58L18.47 180.46C18.54 181.04 18.48 181.63 18.26 182.09L10.32 198.1C9.91 198.93 10.23 199.97 11.02 200.43L21.02 206.23C21.03 206.24 21.04 206.25 21.06 206.26L29.68 211.24C30.48 211.7 31.54 211.45 32.05 210.68L41.95 195.8C42.24 195.36 42.74 195.02 43.29 194.79L44.04 202.3C44.08 202.74 44.27 203.05 44.54 203.2L54.59 209.04C54.88 209.19 55.27 209.18 55.68 208.94ZM74.82 115.66C77.12 118.1 78.4 122.14 78.4 127.78C78.4 142.2 68.28 159.73 55.79 166.94C51.21 169.58 47.2 170.72 43.94 170.4C41.31 167.65 39.75 163.33 39.75 157.69C39.75 143.27 49.87 125.73 62.36 118.52C66.97 115.87 71.25 114.99 74.82 115.66Z" fill="#F4B400"/>
</g>
<g opacity="0.2">
<path d="M20.86 206.13C20.22 205.62 19.98 204.68 20.35 203.92L28.29 187.92C28.43 187.66 28.5 187.34 28.53 187.02L18.48 181.19C18.45 181.51 18.39 181.82 18.26 182.07L10.32 198.09C9.91 198.92 10.22 199.97 11.01 200.42L20.86 206.13ZM54.58 209.03L54.59 209.02C54.49 208.97 54.39 208.89 54.32 208.78C54.23 208.7 54.17 208.57 54.13 208.42C54.1 208.32 54.08 208.22 54.07 208.11L52.77 195.11C52.76 194.99 52.74 194.87 52.7 194.77C52.61 194.52 52.48 194.31 52.3 194.15C52.18 194.05 52.06 193.97 51.92 193.91C51.84 193.88 51.77 193.86 51.7 193.84C51.47 193.79 51.23 193.79 50.99 193.84C50.89 193.87 50.79 193.88 50.69 193.89C48.56 194.35 46.5 194.54 44.55 194.49C44.16 194.49 43.72 194.58 43.3 194.74L44.05 202.26C44.11 202.7 44.29 203.02 44.56 203.17L44.55 203.18L54.58 209.03ZM10.43 183.53C10.18 183.34 10.04 183.01 10.03 182.58L10.04 167.12C10.04 166.48 10.33 165.73 10.76 165.14L0.73 159.33C0.29 159.92 0 160.67 0 161.3V176.75C0 177.22 0.17 177.56 0.45 177.74L10.43 183.53ZM52.36 106.78C52.57 106.33 52.71 105.86 52.75 105.46L54.09 90.5704C54.11 90.1904 54.25 89.7804 54.47 89.3904L44.45 83.5704C44.25 83.9604 44.09 84.3604 44.05 84.7404L42.71 99.6304C42.67 100.03 42.52 100.5 42.31 100.94L52.36 106.78ZM20.38 133.67C20.12 133.08 20.11 132.36 20.44 131.8L30.28 114.75C30.5 114.38 30.85 114.09 31.26 113.93L21.21 108.11C20.81 108.28 20.47 108.55 20.24 108.93L10.41 125.97C10.06 126.58 10.09 127.35 10.41 127.96L20.38 133.67Z" fill="black"/>
</g>
<path d="M70.66 198.71L72 183.82C72.08 182.9 72.71 181.67 73.39 181.04C75.99 178.64 78.48 176 80.83 173.17C81.42 172.46 82.59 172.12 83.46 172.42L92.05 175.42C92.92 175.72 94 175.32 94.46 174.52L104.3 157.48C104.76 156.68 104.57 155.55 103.87 154.94L96.98 149C96.28 148.4 95.99 147.21 96.31 146.35C97.59 142.91 98.63 139.43 99.41 135.98C99.61 135.08 100.37 133.91 101.12 133.38L113.35 124.77C114.1 124.24 114.72 123.06 114.72 122.14V106.69C114.72 105.77 114.04 105.33 113.2 105.71L101.29 111.08C100.45 111.46 99.58 111.04 99.31 110.16C98.62 107.97 97.72 106 96.66 104.25C96.18 103.46 96.07 102.19 96.48 101.36L104.42 85.3504C104.83 84.5204 104.51 83.4804 103.72 83.0204L95.1 78.0404C94.3 77.5804 93.24 77.8304 92.73 78.6004L82.83 93.4804C82.32 94.2504 81.16 94.7904 80.24 94.7704C78.19 94.7204 76.04 94.9304 73.8 95.4204C72.9 95.6204 72.1 95.0804 72.01 94.1604L70.7 81.1604C70.61 80.2404 69.89 79.8704 69.09 80.3304L55.71 88.0604C54.91 88.5204 54.2 89.6404 54.11 90.5604L52.77 105.45C52.69 106.37 52.06 107.61 51.38 108.23C48.77 110.63 46.29 113.27 43.94 116.1C43.35 116.81 42.18 117.15 41.31 116.85L32.72 113.85C31.85 113.55 30.77 113.95 30.31 114.75L20.44 131.79C19.98 132.59 20.17 133.72 20.87 134.33L27.76 140.27C28.46 140.87 28.75 142.06 28.43 142.92C27.15 146.36 26.11 149.84 25.33 153.29C25.13 154.19 24.37 155.36 23.62 155.89L11.4 164.5C10.65 165.03 10.03 166.21 10.03 167.13V182.59C10.03 183.51 10.71 183.95 11.55 183.57L23.46 178.2C24.3 177.82 25.17 178.24 25.44 179.12C26.13 181.31 27.03 183.28 28.1 185.03C28.58 185.82 28.69 187.09 28.28 187.92L20.34 203.93C19.93 204.76 20.25 205.8 21.04 206.26L29.66 211.24C30.46 211.7 31.52 211.45 32.03 210.68L41.93 195.8C42.44 195.03 43.6 194.49 44.52 194.51C46.57 194.56 48.72 194.35 50.96 193.86C51.86 193.66 52.66 194.2 52.75 195.12L54.06 208.12C54.15 209.04 54.87 209.41 55.67 208.95L69.06 201.22C69.86 200.75 70.58 199.63 70.66 198.71ZM62.37 170.75C49.88 177.96 39.76 172.11 39.76 157.7C39.76 143.28 49.88 125.74 62.37 118.53C74.86 111.32 84.98 117.17 84.98 131.59C84.98 146 74.86 163.54 62.37 170.75Z" fill="#F4B400"/>
<path d="M83.4048 274.35L92.1595 269.306C92.6826 269.006 93.1468 268.275 93.2056 267.675L94.0752 257.959C94.1275 257.359 94.5394 256.55 94.984 256.146C96.684 254.58 98.312 252.857 99.8485 251.011C100.234 250.547 100.999 250.326 101.568 250.521L107.184 252.479C107.753 252.674 108.459 252.413 108.76 251.892L115.194 240.773C115.494 240.251 115.37 239.514 114.913 239.116L110.408 235.24C109.95 234.849 109.76 234.073 109.97 233.511C110.807 231.267 111.487 228.996 111.997 226.745C112.127 226.158 112.624 225.395 113.115 225.049L121.111 219.431C121.601 219.085 122.007 218.315 122.007 217.715V207.634C122.007 207.321 121.889 207.099 121.693 206.989L115.135 203.185C114.958 203.08 114.716 203.074 114.448 203.191L109.924 205.227C109.878 204.848 109.917 204.463 110.061 204.163L115.253 193.717C115.521 193.176 115.311 192.497 114.795 192.197L110.506 189.724C110.499 189.724 110.499 189.718 110.499 189.718L102.608 185.15C102.085 184.85 101.392 185.013 101.058 185.516L94.5852 195.224C94.3956 195.512 94.0687 195.733 93.7091 195.883L93.2187 190.983C93.1926 190.696 93.0683 190.494 92.8853 190.396V190.39L86.3144 186.579C86.1182 186.468 85.8632 186.481 85.5951 186.631L76.847 191.675C76.3239 191.975 75.8597 192.706 75.8009 193.306L74.9248 203.022C74.8725 203.622 74.4606 204.431 74.016 204.835C72.316 206.401 70.688 208.124 69.1515 209.97C68.7658 210.434 68.0008 210.655 67.432 210.46L61.8156 208.502C61.2468 208.307 60.5407 208.568 60.2399 209.089L53.8063 220.208C53.5055 220.73 53.6298 221.467 54.0874 221.865L58.5923 225.741C59.05 226.132 59.2396 226.908 59.0303 227.47C58.1934 229.714 57.5135 231.985 57.0035 234.236C56.8727 234.823 56.3758 235.58 55.8855 235.932L47.8957 241.55C47.3988 241.896 47 242.666 47 243.266V253.353C47 253.66 47.1177 253.882 47.3008 253.999L53.8782 257.816C54.0547 257.92 54.2901 257.927 54.5517 257.803L59.0761 255.767C59.1219 256.146 59.0826 256.531 58.9388 256.831L53.7474 267.277C53.4794 267.818 53.6886 268.497 54.2051 268.797L60.7434 272.581C60.7499 272.588 60.7564 272.594 60.7695 272.601L66.4055 275.85C66.9285 276.15 67.6216 275.987 67.955 275.485L74.4279 265.776C74.6175 265.489 74.9444 265.267 75.304 265.117L75.7943 270.017C75.8205 270.304 75.9447 270.507 76.1213 270.604L82.6922 274.415C82.8818 274.513 83.1368 274.506 83.4048 274.35ZM95.919 213.487C97.4228 215.079 98.2597 217.715 98.2597 221.395C98.2597 230.804 91.643 242.241 83.4768 246.946C80.4823 248.668 77.8604 249.412 75.729 249.203C74.0094 247.409 72.9895 244.59 72.9895 240.91C72.9895 231.502 79.6061 220.058 87.7724 215.353C90.7865 213.624 93.5849 213.05 95.919 213.487Z" fill="#C18B1E"/>
<g opacity="0.3">
<path d="M83.4048 274.35L92.1595 269.306C92.6826 269.006 93.1468 268.275 93.2056 267.675L94.0752 257.959C94.1275 257.359 94.5394 256.55 94.984 256.146C96.684 254.58 98.312 252.857 99.8485 251.011C100.234 250.547 100.999 250.326 101.568 250.521L107.184 252.479C107.753 252.674 108.459 252.413 108.76 251.892L115.194 240.773C115.494 240.251 115.37 239.514 114.913 239.116L110.408 235.24C109.95 234.849 109.76 234.073 109.97 233.511C110.807 231.267 111.487 228.996 111.997 226.745C112.127 226.158 112.624 225.395 113.115 225.049L121.111 219.431C121.601 219.085 122.007 218.315 122.007 217.715V207.634C122.007 207.321 121.889 207.099 121.693 206.989L115.135 203.185C114.958 203.08 114.716 203.074 114.448 203.191L109.924 205.227C109.878 204.848 109.917 204.463 110.061 204.163L115.253 193.717C115.521 193.176 115.311 192.497 114.795 192.197L110.506 189.724C110.499 189.724 110.499 189.718 110.499 189.718L102.608 185.15C102.085 184.85 101.392 185.013 101.058 185.516L94.5852 195.224C94.3956 195.512 94.0687 195.733 93.7091 195.883L93.2187 190.983C93.1926 190.696 93.0683 190.494 92.8853 190.396V190.39L86.3144 186.579C86.1182 186.468 85.8632 186.481 85.5951 186.631L76.847 191.675C76.3239 191.975 75.8597 192.706 75.8009 193.306L74.9248 203.022C74.8725 203.622 74.4606 204.431 74.016 204.835C72.316 206.401 70.688 208.124 69.1515 209.97C68.7658 210.434 68.0008 210.655 67.432 210.46L61.8156 208.502C61.2468 208.307 60.5407 208.568 60.2399 209.089L53.8063 220.208C53.5055 220.73 53.6298 221.467 54.0874 221.865L58.5923 225.741C59.05 226.132 59.2396 226.908 59.0303 227.47C58.1934 229.714 57.5135 231.985 57.0035 234.236C56.8727 234.823 56.3758 235.58 55.8855 235.932L47.8957 241.55C47.3988 241.896 47 242.666 47 243.266V253.353C47 253.66 47.1177 253.882 47.3008 253.999L53.8782 257.816C54.0547 257.92 54.2901 257.927 54.5517 257.803L59.0761 255.767C59.1219 256.146 59.0826 256.531 58.9388 256.831L53.7474 267.277C53.4794 267.818 53.6886 268.497 54.2051 268.797L60.7434 272.581C60.7499 272.588 60.7564 272.594 60.7695 272.601L66.4055 275.85C66.9285 276.15 67.6216 275.987 67.955 275.485L74.4279 265.776C74.6175 265.489 74.9444 265.267 75.304 265.117L75.7943 270.017C75.8205 270.304 75.9447 270.507 76.1213 270.604L82.6922 274.415C82.8818 274.513 83.1368 274.506 83.4048 274.35ZM95.919 213.487C97.4228 215.079 98.2597 217.715 98.2597 221.395C98.2597 230.804 91.643 242.241 83.4768 246.946C80.4823 248.668 77.8604 249.412 75.729 249.203C74.0094 247.409 72.9895 244.59 72.9895 240.91C72.9895 231.502 79.6061 220.058 87.7724 215.353C90.7865 213.624 93.5849 213.05 95.919 213.487Z" fill="#F4B400"/>
</g>
<g opacity="0.2">
<path d="M60.6387 272.516C60.2203 272.183 60.0634 271.57 60.3053 271.074L65.4966 260.635C65.5882 260.465 65.6339 260.256 65.6536 260.047L59.0826 256.243C59.063 256.452 59.0238 256.655 58.9388 256.818L53.7474 267.27C53.4794 267.812 53.6821 268.497 54.1986 268.79L60.6387 272.516ZM82.6856 274.408L82.6922 274.402C82.6268 274.369 82.5614 274.317 82.5156 274.245C82.4568 274.193 82.4176 274.108 82.3914 274.01C82.3718 273.945 82.3587 273.88 82.3522 273.808L81.5022 265.326C81.4957 265.248 81.4826 265.169 81.4565 265.104C81.3976 264.941 81.3126 264.804 81.1949 264.7C81.1165 264.634 81.038 264.582 80.9465 264.543C80.8942 264.523 80.8484 264.51 80.8026 264.497C80.6523 264.465 80.4953 264.465 80.3384 264.497C80.273 264.517 80.2077 264.523 80.1423 264.53C78.7496 264.83 77.4028 264.954 76.1278 264.921C75.8728 264.921 75.5851 264.98 75.3105 265.084L75.8009 269.991C75.8401 270.278 75.9578 270.487 76.1343 270.585L76.1278 270.591L82.6856 274.408ZM53.8194 257.77C53.6559 257.646 53.5644 257.431 53.5578 257.15L53.5644 247.063C53.5644 246.646 53.754 246.156 54.0351 245.771L47.4773 241.981C47.1896 242.365 47 242.855 47 243.266V253.347C47 253.653 47.1111 253.875 47.2942 253.992L53.8194 257.77ZM81.2342 207.693C81.3715 207.4 81.463 207.093 81.4891 206.832L82.3653 197.117C82.3783 196.869 82.4699 196.601 82.6137 196.347L76.0624 192.549C75.9317 192.804 75.827 193.065 75.8009 193.313L74.9248 203.028C74.8986 203.289 74.8005 203.596 74.6632 203.883L81.2342 207.693ZM60.3249 225.238C60.1549 224.853 60.1484 224.383 60.3641 224.018L66.7978 212.893C66.9416 212.652 67.1704 212.463 67.4385 212.358L60.8676 208.561C60.606 208.672 60.3837 208.848 60.2334 209.096L53.8063 220.214C53.5775 220.612 53.5971 221.115 53.8063 221.513L60.3249 225.238Z" fill="black"/>
</g>
<path d="M93.1991 267.675L94.0752 257.959C94.1275 257.359 94.5395 256.557 94.9841 256.146C96.684 254.58 98.312 252.857 99.8485 251.011C100.234 250.547 100.999 250.326 101.568 250.521L107.184 252.479C107.753 252.674 108.459 252.413 108.76 251.891L115.194 240.773C115.494 240.251 115.37 239.514 114.913 239.116L110.408 235.24C109.95 234.849 109.76 234.073 109.97 233.511C110.807 231.267 111.487 228.996 111.997 226.745C112.127 226.158 112.624 225.395 113.115 225.049L121.111 219.431C121.601 219.085 122.007 218.315 122.007 217.715V207.634C122.007 207.034 121.562 206.747 121.013 206.995L113.226 210.499C112.676 210.747 112.108 210.473 111.931 209.899C111.48 208.47 110.892 207.184 110.199 206.042C109.885 205.527 109.813 204.698 110.081 204.157L115.272 193.711C115.54 193.169 115.331 192.491 114.814 192.19L109.179 188.941C108.655 188.641 107.962 188.804 107.629 189.307L101.156 199.015C100.823 199.518 100.064 199.87 99.4627 199.857C98.1224 199.824 96.7167 199.961 95.2521 200.281C94.6637 200.412 94.1406 200.059 94.0818 199.459L93.2253 190.977C93.1664 190.377 92.6957 190.135 92.1726 190.435L83.4245 195.479C82.9014 195.779 82.4372 196.51 82.3783 197.11L81.5022 206.825C81.4499 207.426 81.038 208.235 80.5934 208.639C78.8869 210.205 77.2655 211.928 75.729 213.774C75.3432 214.237 74.5782 214.459 74.0094 214.264L68.3931 212.306C67.8243 212.11 67.1181 212.371 66.8174 212.893L60.3641 224.011C60.0634 224.533 60.1876 225.271 60.6453 225.669L65.1501 229.544C65.6078 229.936 65.7974 230.712 65.5882 231.273C64.7513 233.518 64.0713 235.789 63.5613 238.04C63.4306 238.627 62.9337 239.39 62.4433 239.736L54.4536 245.354C53.9632 245.7 53.5578 246.469 53.5578 247.07V257.157C53.5578 257.757 54.0024 258.044 54.5517 257.796L62.3387 254.293C62.8879 254.045 63.4567 254.319 63.6333 254.893C64.0844 256.322 64.6728 257.607 65.3724 258.749C65.6863 259.264 65.7582 260.093 65.4901 260.635L60.2988 271.081C60.0307 271.622 60.2399 272.301 60.7564 272.601L66.3924 275.85C66.9154 276.15 67.6085 275.987 67.9419 275.485L74.4148 265.776C74.7482 265.274 75.5067 264.921 76.1082 264.934C77.4485 264.967 78.8542 264.83 80.3188 264.51C80.9072 264.38 81.4303 264.732 81.4891 265.332L82.3457 273.814C82.4045 274.415 82.8753 274.656 83.3983 274.356L92.153 269.312C92.6761 269.006 93.1468 268.275 93.1991 267.675ZM87.7789 249.432C79.6127 254.136 72.996 250.319 72.996 240.917C72.996 231.508 79.6127 220.064 87.7789 215.36C95.9452 210.655 102.562 214.472 102.562 223.881C102.562 233.283 95.9452 244.727 87.7789 249.432Z" fill="#F4B400"/>
<path d="M212.936 350.402C248.614 350.402 277.536 333.703 277.536 313.102C277.536 292.502 248.614 275.802 212.936 275.802C177.258 275.802 148.336 292.502 148.336 313.102C148.336 333.703 177.258 350.402 212.936 350.402Z" fill="#E0E0E0"/>
<path d="M203.906 281.522L205.886 263.882L185.796 262.072C185.796 262.072 186.646 275.672 186.526 281.912C186.466 284.852 184.396 290.382 184.396 290.382C184.396 290.382 192.806 294.742 197.176 292.962C201.546 291.172 204.426 284.292 204.326 283.032C204.206 281.772 203.906 281.522 203.906 281.522Z" fill="#FFBDA7"/>
<path d="M161.106 309.282C160.826 309.292 160.626 311.842 162.156 313.102C163.926 314.552 169.536 317.312 176.256 316.342C182.986 315.362 186.596 313.252 189.256 310.982C191.916 308.712 195.636 305.512 198.676 304.792C201.496 304.132 205.296 301.802 206.186 300.922C207.076 300.042 206.876 296.212 206.876 296.212L161.106 309.282Z" fill="#263238"/>
<path d="M203.916 281.492C203.916 281.492 204.766 281.482 204.956 282.372C205.186 283.422 205.466 286.492 205.946 288.222C206.606 290.622 207.116 295.552 206.786 297.532C206.456 299.502 201.116 301.962 198.176 303.112C195.186 304.292 191.736 306.682 188.726 309.222C185.606 311.852 178.986 314.642 174.596 314.682C169.396 314.732 163.506 313.182 162.126 310.822C160.416 307.912 159.136 304.522 166.786 300.872C168.236 300.182 173.306 297.102 175.036 295.992C179.706 292.982 182.986 290.232 185.066 285.012C185.306 284.402 185.566 283.722 186.146 283.402C186.596 283.162 187.136 283.182 187.646 283.242C188.936 283.402 194.076 284.002 195.256 284.532C196.296 285.002 197.776 285.542 197.776 286.842C197.776 287.292 197.656 287.742 197.506 288.172C197.416 288.442 197.356 288.792 197.596 288.952C197.826 289.092 198.116 288.922 198.316 288.742C199.106 288.012 199.686 287.092 200.346 286.252C200.706 285.802 201.836 284.352 202.286 283.992C202.696 283.662 203.226 283.492 203.586 283.122C204.026 282.672 203.896 282.102 203.916 281.492Z" fill="#455A64"/>
<path d="M188.716 309.222C190.036 308.102 191.446 307.022 192.866 306.062V306.052C192.866 306.052 183.896 311.632 180.186 309.232C177.796 307.682 178.886 305.732 178.926 305.122C178.976 304.502 170.556 300.302 168.256 300.072C167.626 300.432 167.096 300.742 166.756 300.882C160.776 303.352 160.036 306.432 161.106 310.252C162.496 312.602 167.756 314.962 174.486 314.852C178.886 314.772 185.596 311.852 188.716 309.222Z" fill="#37474F"/>
<path d="M179.526 303.312C174.766 305.282 176.826 306.132 178.176 306.292C179.526 306.462 187.506 301.672 192.356 297.752C197.416 293.662 201.316 288.222 203.196 286.722C203.896 286.162 204.646 285.472 205.316 284.832C205.166 283.792 205.046 282.852 204.946 282.352C204.756 281.472 203.906 281.472 203.906 281.472C203.896 282.082 204.016 282.652 203.556 283.122C203.196 283.492 202.666 283.662 202.256 283.992C201.806 284.352 200.666 285.792 200.316 286.252C199.656 287.092 199.076 288.022 198.286 288.742C194.196 294.052 184.286 301.342 179.526 303.312Z" fill="#37474F"/>
<path d="M178.506 305.592C178.616 305.592 178.716 305.552 178.806 305.482C179.006 305.312 179.036 305.022 178.856 304.822C177.476 303.212 170.986 299.452 167.466 299.892C167.206 299.922 167.026 300.162 167.056 300.412C167.086 300.672 167.296 300.842 167.586 300.822C170.876 300.412 177.036 304.152 178.136 305.432C178.226 305.542 178.366 305.602 178.506 305.592Z" fill="#263238"/>
<path d="M182.636 302.992C182.746 302.992 182.846 302.952 182.936 302.882C183.136 302.712 183.156 302.422 182.986 302.222C181.606 300.612 175.116 296.852 171.596 297.292C171.336 297.322 171.156 297.562 171.186 297.812C171.216 298.072 171.446 298.252 171.716 298.222C175.006 297.822 181.166 301.552 182.266 302.822C182.366 302.932 182.506 302.992 182.636 302.992Z" fill="#263238"/>
<path d="M186.776 300.512C186.886 300.512 186.986 300.472 187.076 300.402C187.276 300.232 187.296 299.942 187.126 299.742C185.746 298.132 179.256 294.372 175.736 294.812C175.476 294.842 175.296 295.082 175.326 295.332C175.356 295.592 175.586 295.772 175.856 295.742C179.146 295.332 185.306 299.072 186.406 300.342C186.506 300.462 186.636 300.522 186.776 300.512Z" fill="#263238"/>
<path d="M190.606 297.712C190.716 297.712 190.816 297.672 190.906 297.602C191.106 297.432 191.126 297.142 190.956 296.942C189.576 295.332 183.076 291.572 179.566 292.012C179.306 292.042 179.126 292.282 179.156 292.532C179.186 292.792 179.416 292.972 179.686 292.942C182.966 292.542 189.136 296.272 190.236 297.542C190.326 297.652 190.466 297.712 190.606 297.712Z" fill="#263238"/>
<path d="M194.346 294.902C194.446 294.902 194.556 294.862 194.636 294.792C194.836 294.632 194.866 294.332 194.696 294.132C192.796 291.852 186.016 288.732 182.496 289.172C182.236 289.202 182.056 289.442 182.086 289.692C182.116 289.952 182.346 290.122 182.616 290.102C185.786 289.712 192.276 292.702 193.966 294.732C194.066 294.842 194.216 294.902 194.346 294.902Z" fill="#263238"/>
<path d="M237.206 289.802L232.426 268.612L253.326 265.352L253.666 286.262C253.666 286.262 255.266 291.882 254.086 293.822C252.906 295.752 240.356 297.792 239.206 296.502C238.046 295.222 237.206 289.802 237.206 289.802Z" fill="#FFBDA7"/>
<path d="M239.296 323.192C239.846 327.942 240.846 331.022 242.896 333.592C244.956 336.162 248.616 336.602 252.246 335.332C255.876 334.062 260.456 331.282 261.306 327.022C262.156 322.762 261.806 319.952 260.756 315.612L239.296 323.192Z" fill="#263238"/>
<path d="M253.666 286.272C255.186 286.192 254.776 289.932 255.486 296.342C256.256 303.272 259.386 308.702 260.496 314.262C261.766 320.612 261.526 323.552 259.156 327.772C256.786 331.992 247.926 336.942 243.186 331.882C239.326 327.762 238.926 322.722 238.936 316.222C238.956 309.502 239.026 304.772 238.466 299.742C237.936 294.932 235.916 290.492 237.206 289.802C237.346 290.502 238.626 295.372 239.476 295.292C239.526 294.662 239.476 294.092 239.406 293.462C239.336 292.922 239.366 292.312 239.746 291.852C240.136 291.382 241.576 290.792 242.186 290.612C243.656 290.172 246.296 289.622 247.796 289.312C248.546 289.162 249.296 289.032 250.056 288.952C250.666 288.882 251.396 288.842 251.986 288.962C252.346 289.032 252.686 289.222 252.836 289.522C252.946 289.742 252.936 290.002 252.956 290.252C252.976 290.702 253.066 291.142 253.206 291.552C253.266 291.732 253.426 291.952 253.646 291.882C253.816 291.822 253.876 291.622 253.876 291.462C253.826 290.672 253.716 286.682 253.666 286.272Z" fill="#455A64"/>
<path d="M260.056 312.462C260.246 313.382 261.446 319.442 259.596 320.792C257.596 322.252 256.236 317.532 256.236 317.532C256.236 317.532 251.356 316.812 244.466 320.392C244.876 321.352 243.956 324.782 241.996 324.322C240.046 323.862 238.946 316.872 238.936 316.782C238.946 323.012 239.436 327.882 243.176 331.882C247.916 336.932 256.776 331.992 259.146 327.772C261.516 323.552 261.756 320.612 260.486 314.262C260.366 313.622 260.216 313.032 260.056 312.462Z" fill="#37474F"/>
<path d="M255.706 318.012C255.856 320.342 258.416 319.242 258.366 315.922C258.316 312.612 256.576 304.562 255.916 299.142C255.476 291.342 255.166 286.192 253.646 286.272C253.656 286.352 253.656 286.432 253.666 286.512C253.666 286.512 253.826 290.952 253.846 291.462C254.116 296.222 254.176 305.482 254.856 309.782C255.546 314.072 255.566 315.682 255.706 318.012Z" fill="#37474F"/>
<path d="M245.286 320.232C244.676 317.992 244.186 316.492 243.446 312.202C242.716 307.942 240.166 299.422 238.906 294.832C238.496 294.082 237.216 289.792 237.216 289.792C236.166 290.092 237.216 294.172 237.706 296.082C238.196 297.992 238.796 300.042 239.406 302.782C240.976 308.182 241.126 316.292 242.136 319.412C243.136 322.532 245.896 322.462 245.286 320.232Z" fill="#37474F"/>
<path d="M244.336 320.602C244.406 320.592 244.476 320.562 244.536 320.522C244.586 320.492 249.946 317.332 256.116 318.032C256.416 318.062 256.716 317.872 256.786 317.592C256.856 317.322 256.656 317.072 256.356 317.032C249.756 316.292 244.206 319.562 243.966 319.702C243.696 319.862 243.606 320.172 243.766 320.402C243.886 320.572 244.116 320.642 244.336 320.602Z" fill="#263238"/>
<path d="M242.826 315.682C242.886 315.672 242.946 315.642 243.006 315.612C243.066 315.582 249.106 312.262 255.976 312.822C256.276 312.842 256.576 312.642 256.626 312.372C256.686 312.092 256.476 311.852 256.176 311.832C248.906 311.242 242.736 314.632 242.476 314.782C242.206 314.932 242.096 315.242 242.246 315.472C242.366 315.652 242.596 315.732 242.826 315.682Z" fill="#263238"/>
<path d="M255.376 308.052C255.586 308.012 255.776 307.862 255.836 307.662C255.926 307.392 255.756 307.122 255.456 307.072C248.586 305.872 242.046 309.742 241.766 309.902C241.496 310.062 241.406 310.372 241.566 310.602C241.726 310.822 242.066 310.872 242.336 310.722C242.396 310.682 248.756 306.932 255.146 308.062C255.216 308.072 255.296 308.062 255.376 308.052Z" fill="#263238"/>
<path d="M254.766 303.552C254.976 303.512 255.156 303.362 255.216 303.172C255.306 302.902 255.146 302.632 254.846 302.582C247.286 301.132 241.136 305.232 240.876 305.412C240.616 305.592 240.546 305.902 240.726 306.112C240.896 306.322 241.256 306.362 241.506 306.182C241.566 306.142 247.476 302.212 254.516 303.552C254.596 303.572 254.686 303.572 254.766 303.552Z" fill="#263238"/>
<path d="M254.056 298.502C254.256 298.462 254.436 298.322 254.506 298.122C254.606 297.852 254.446 297.582 254.146 297.522C247.056 296.062 240.366 300.322 240.086 300.502C239.826 300.672 239.746 300.982 239.916 301.202C240.076 301.422 240.426 301.462 240.686 301.292C240.756 301.252 247.216 297.142 253.796 298.502C253.886 298.522 253.976 298.522 254.056 298.502Z" fill="#263238"/>
<path d="M245.636 126.432C248.516 164.032 249.776 220.122 249.776 220.122C250.036 222.972 251.656 226.972 252.986 241.052C254.386 255.912 254.326 277.122 254.326 277.122C254.326 277.122 241.766 282.482 233.966 279.712C233.966 279.712 225.576 247.892 221.516 230.402C217.676 213.842 214.846 187.952 214.846 187.952L210.286 212.902C210.286 212.902 210.856 223.622 210.586 231.122C210.276 239.842 205.566 273.252 205.566 273.252C205.566 273.252 193.896 280.242 185.776 273.582C185.776 273.582 181.826 224.562 181.556 214.062C181.036 193.482 180.446 153.002 182.886 126.452H245.636V126.432Z" fill="#37474F"/>
<path d="M214.856 187.942L210.756 161.202C210.756 161.202 201.306 159.762 196.446 155.082C196.446 155.082 199.596 161.282 208.506 163.672L212.576 188.012L210.296 212.892L214.856 187.942Z" fill="#263238"/>
<path d="M254.546 277.842C251.036 280.592 240.826 282.932 233.836 280.412L232.426 274.512C237.706 276.292 248.576 275.162 254.426 271.552L254.546 277.842Z" fill="#455A64"/>
<path d="M205.576 273.922C203.206 276.322 192.236 278.312 185.766 274.512L185.286 268.592C190.196 271.332 201.486 270.862 206.296 268.052L205.576 273.922Z" fill="#455A64"/>
<path d="M248.966 185.152C248.966 185.152 250.056 211.612 249.976 213.532C249.896 215.462 235.516 219.272 235.146 218.042C234.526 216.002 234.676 211.452 233.436 189.542C245.366 188.002 248.966 185.152 248.966 185.152Z" fill="#455A64"/>
<path d="M235.686 197.092C236.116 196.952 236.596 196.992 237.046 196.982C237.576 196.972 238.096 196.942 238.626 196.902C239.736 196.812 240.846 196.642 241.936 196.392C243.166 196.112 244.386 195.742 245.566 195.292C246.526 194.922 247.446 194.422 248.406 194.062C248.496 194.032 248.516 194.202 248.456 194.242C247.546 194.912 246.456 195.372 245.416 195.782C244.436 196.172 243.436 196.492 242.416 196.752C241.326 197.022 240.226 197.222 239.116 197.342C238.556 197.402 238.006 197.442 237.446 197.462C236.916 197.482 236.166 197.602 235.686 197.332C235.606 197.292 235.596 197.122 235.686 197.092Z" fill="#37474F"/>
<path d="M241.786 194.072C241.786 194.302 241.846 194.532 242.036 194.672C242.326 194.892 242.756 194.862 243.066 194.692C243.416 194.492 243.636 194.112 243.576 193.702C243.546 193.462 243.416 193.242 243.216 193.102C243.006 192.952 242.746 192.892 242.496 192.922C242.186 192.962 242.076 193.132 241.946 193.402C241.836 193.602 241.776 193.842 241.786 194.072ZM242.376 193.472C242.486 193.382 242.636 193.352 242.776 193.362C243.226 193.412 243.296 194.122 242.936 194.332C242.716 194.462 242.376 194.412 242.216 194.192C242.056 193.982 242.186 193.622 242.376 193.472Z" fill="#37474F"/>
<path d="M177.126 74.7224C173.086 79.8524 164.866 92.1924 164.866 92.1924C164.866 92.1924 146.496 79.4423 144.736 76.9923C141.206 72.0823 140.356 68.0224 135.746 66.8324C131.136 65.6424 125.326 64.2523 125.326 64.2523L129.666 85.8223C131.646 88.0723 134.086 87.1324 139.026 91.9824C142.696 95.5824 151.656 103.292 159.386 109.192C165.886 114.152 170.546 111.452 173.576 107.772C180.986 98.7523 187.246 91.4923 187.246 91.4923L198.266 57.7823C191.696 59.3923 186.776 62.4524 177.126 74.7224Z" fill="#FFA8A7"/>
<path d="M200.496 56.8823C191.056 56.6223 184.996 61.1623 179.046 70.1323C175.446 75.5623 164.786 91.3823 164.786 91.3823L151.696 82.2923C151.696 82.2923 149.876 88.2723 145.876 91.2723C142.406 93.8723 139.486 92.4223 139.486 92.4223C139.486 92.4223 144.526 98.3123 153.636 105.682C163.536 113.702 166.886 114.372 171.296 111.032C173.476 109.382 174.916 107.572 179.056 102.792C184.036 97.0523 187.626 92.1823 187.626 92.1823L200.496 56.8823Z" fill="#263238"/>
<path d="M210.286 56.6423C210.286 56.6423 232.056 57.8523 237.486 60.3223C239.966 61.4523 245.406 67.9123 244.276 83.4423C243.826 89.6923 241.306 102.442 241.246 107.122C241.176 113.742 247.026 135.252 247.026 135.252C226.596 147.812 190.476 143.952 183.156 137.232C183.156 137.232 185.636 109.442 186.416 95.1523C186.416 95.1523 182.496 88.5623 182.826 84.1223C183.296 77.6123 184.646 75.2923 190.616 68.0123C196.286 61.0823 200.806 56.8923 200.806 56.8923L210.286 56.6423Z" fill="#455A64"/>
<path d="M229.856 11.7823C236.876 12.5623 238.576 24.0423 236.906 30.5123C233.686 43.0023 225.256 44.4623 224.936 49.8023C220.726 47.3323 216.516 44.8623 212.316 42.4023C209.046 40.4823 205.766 38.5623 202.496 36.6423C201.596 36.1123 200.686 35.5823 199.806 35.0123C198.996 34.4923 198.296 33.8023 197.466 33.3123C196.826 32.9323 196.176 33.1523 195.506 32.9623C194.816 32.7723 194.256 32.0123 193.846 31.4723C193.326 30.7923 192.906 30.0423 192.606 29.2423C192.026 27.6923 191.916 25.9723 192.276 24.3523C191.686 25.0723 191.136 25.8423 190.806 26.7123C190.476 27.5823 190.386 28.5723 190.696 29.4423C187.786 27.5023 187.506 20.0223 193.096 17.3423C194.086 16.8723 194.726 15.2323 195.146 14.2523C195.496 13.4423 195.766 12.5523 196.296 11.8323C196.806 11.1423 197.356 10.4723 197.936 9.84233C199.096 8.57233 200.366 7.41233 201.736 6.37233C205.706 3.35233 211.746 0.472327 216.896 1.61233C222.426 2.83233 228.186 6.00233 229.856 11.7823Z" fill="#263238"/>
<path d="M224.646 54.8023L225.346 43.2223C225.346 43.2223 228.536 45.1323 231.566 41.9823C235.026 38.3923 235.366 34.4823 233.476 31.9723C231.386 29.2023 226.776 30.2523 224.776 33.6323C221.766 34.3523 220.546 30.0523 222.826 25.6323C222.826 25.6323 208.236 26.6223 201.476 15.5323C199.646 13.8123 196.586 14.1523 195.586 16.4523C194.876 18.0923 193.936 20.8423 194.606 26.4123C194.856 28.4823 193.856 30.9523 193.936 33.7423C194.246 44.7623 196.756 48.3023 199.766 50.1623C201.646 51.3223 204.776 52.0123 207.996 52.0223L207.756 54.9923C207.686 56.6023 207.306 56.6523 205.916 56.7323C204.806 56.7923 203.826 56.8523 203.826 56.8523C203.826 56.8523 195.376 67.5223 205.916 68.9723C217.486 70.5723 229.076 62.5123 231.586 58.8023C231.586 58.8023 230.656 58.6423 228.096 58.2723C225.566 57.8923 224.856 56.9723 224.646 54.8023Z" fill="#FFBDA7"/>
<path d="M211.366 39.2123L205.386 41.1423C205.886 42.8523 207.636 43.8123 209.286 43.2723C210.936 42.7423 211.866 40.9223 211.366 39.2123Z" fill="#B16668"/>
<path d="M210.986 40.5923C209.306 40.5623 207.886 41.7223 207.536 43.3023C208.086 43.4623 208.686 43.4623 209.276 43.2723C210.466 42.8923 211.266 41.8423 211.446 40.6423C211.296 40.6323 211.146 40.6023 210.986 40.5923Z" fill="#F0997A"/>
<path d="M196.636 24.2123L200.596 22.4423C200.146 21.3223 198.896 20.8023 197.796 21.2923C196.706 21.7823 196.186 23.0923 196.636 24.2123Z" fill="#263238"/>
<path d="M201.006 27.5723C201.086 28.5623 200.346 29.4423 199.346 29.5523C198.346 29.6623 197.476 28.9423 197.396 27.9623C197.316 26.9723 198.056 26.0923 199.056 25.9823C200.056 25.8723 200.926 26.5823 201.006 27.5723Z" fill="#263238"/>
<path d="M215.606 25.8123L211.746 23.7123C212.286 22.6123 213.596 22.1923 214.666 22.7723C215.726 23.3523 216.146 24.7123 215.606 25.8123Z" fill="#263238"/>
<path d="M214.706 27.9623C214.786 28.9523 214.046 29.8323 213.046 29.9423C212.046 30.0523 211.176 29.3323 211.096 28.3523C211.016 27.3623 211.756 26.4823 212.756 26.3723C213.756 26.2623 214.626 26.9723 214.706 27.9623Z" fill="#263238"/>
<path d="M207.816 24.3023L206.526 36.6823L200.496 33.4923L207.816 24.3023Z" fill="#F0997A"/>
<path d="M208.016 52.0223C215.996 52.1523 221.046 49.2323 223.206 44.4223C223.206 44.4223 222.516 48.9323 219.286 51.3723C215.656 54.1023 207.816 54.2023 207.816 54.2023L208.016 52.0223Z" fill="#F0997A"/>
<path d="M205.936 56.7224C195.566 66.8624 189.666 81.1223 188.506 93.0923C187.346 105.072 187.026 154.622 187.026 154.622C187.026 154.622 180.096 154.642 176.886 152.302C178.766 124.822 180.686 97.9224 182.026 84.1524C182.486 79.4624 184.426 75.3624 186.746 71.7324C192.906 62.1124 200.486 56.8723 200.486 56.8723L205.936 56.7224Z" fill="#F4B400"/>
<path d="M179.036 121.512C181.796 122.252 184.586 122.852 187.416 123.302C187.446 121.882 187.466 120.472 187.496 119.062C184.746 118.602 182.026 117.992 179.346 117.232C179.246 118.642 179.146 120.072 179.036 121.512Z" fill="#FAFAFA"/>
<path d="M187.246 133.882C184.226 133.362 181.246 132.672 178.306 131.792C178.206 133.212 178.106 134.642 178.006 136.082C181.026 136.942 184.096 137.622 187.196 138.122C187.206 136.762 187.226 135.332 187.246 133.882Z" fill="#FAFAFA"/>
<path d="M225.096 56.6223C224.456 66.9423 221.366 80.0423 221.226 91.1723C220.986 111.372 227.246 156.162 227.246 156.162C227.246 156.162 241.776 155.942 250.876 149.562C250.926 144.712 246.806 127.642 244.766 120.562C242.726 113.482 241.936 104.502 244.586 93.2723C247.236 82.0423 245.336 68.0623 240.106 60.2123L225.096 56.6223Z" fill="#F4B400"/>
<path d="M225.276 140.922C237.186 139.992 244.716 136.872 248.386 134.902C248.086 133.602 247.806 132.322 247.476 130.992C242.696 133.452 232.836 136.112 224.786 136.822C224.956 138.232 225.116 139.602 225.276 140.922Z" fill="#FAFAFA"/>
<path d="M244.776 120.562C244.476 119.512 244.206 118.422 243.966 117.282C237.166 119.472 230.236 120.722 223.066 120.992C223.206 122.402 223.346 123.802 223.496 125.192C230.836 124.872 238.016 123.612 245.006 121.372C244.926 121.092 244.846 120.822 244.776 120.562Z" fill="#FAFAFA"/>
<path d="M238.086 27.4923C237.686 29.7523 236.976 31.8723 235.996 33.8323C235.556 33.1823 235.056 32.5423 234.536 31.9123C231.736 28.5523 228.046 25.6323 223.896 23.2623H223.876C214.556 17.9623 202.816 15.4823 193.106 17.3623C193.616 15.4823 194.366 13.7023 195.306 12.0723C199.986 3.80232 209.506 -1.00768 219.376 0.742322C231.946 2.95232 240.306 14.9323 238.086 27.4923Z" fill="#F4B400"/>
<path d="M229.986 3.81234C228.876 3.16234 223.226 0.962336 222.766 0.782336C219.836 -0.367664 215.006 -0.697664 209.726 2.98234C202.886 7.75234 200.966 14.8923 200.966 14.8923L206.966 17.3223L208.916 17.6723C210.006 13.2023 216.756 3.92234 225.166 4.23234C225.556 4.24234 225.946 4.27234 226.346 4.34234C227.386 4.47234 228.456 4.77234 229.536 5.26234C229.536 5.26234 231.656 7.02234 232.576 8.13234C232.596 8.12234 232.656 5.35234 229.986 3.81234Z" fill="#BA68C8"/>
<path d="M229.986 3.81234C228.876 3.16234 223.226 0.962336 222.766 0.782336C219.836 -0.367664 215.006 -0.697664 209.726 2.98234C202.886 7.75234 200.966 14.8923 200.966 14.8923L206.966 17.3223L208.916 17.6723C210.006 13.2023 216.756 3.92234 225.166 4.23234C225.556 4.24234 225.946 4.27234 226.346 4.34234C227.386 4.47234 228.456 4.77234 229.536 5.26234C229.536 5.26234 231.656 7.02234 232.576 8.13234C232.596 8.12234 232.656 5.35234 229.986 3.81234Z" fill="#FFBD29"/>
<path d="M208.916 17.6723C210.196 12.4723 219.226 0.642324 229.546 5.25232C229.546 5.25232 231.676 7.01232 232.606 8.12232C232.606 8.12232 232.646 5.36232 229.986 3.81232C227.326 2.26232 221.836 1.17232 215.726 5.42232C208.886 10.1823 206.976 17.3223 206.976 17.3223L208.916 17.6723Z" fill="#F4B400"/>
<path opacity="0.3" d="M208.916 17.6723C210.196 12.4723 219.226 0.642324 229.546 5.25232C229.546 5.25232 231.676 7.01232 232.606 8.12232C232.606 8.12232 232.646 5.36232 229.986 3.81232C227.326 2.26232 221.836 1.17232 215.726 5.42232C208.886 10.1823 206.976 17.3223 206.976 17.3223L208.916 17.6723Z" fill="black"/>
<path d="M224.196 21.4623C223.776 21.0323 222.006 16.2423 214.686 11.5423C210.166 8.64232 200.496 7.74232 196.156 7.47232C188.546 6.99232 186.606 8.46232 186.416 9.57232C186.376 9.83232 186.166 11.0523 186.106 11.3323C186.046 11.6123 186.106 11.8623 186.206 12.0623C187.206 13.8823 193.106 17.3523 193.106 17.3523C202.816 15.4823 214.546 17.9523 223.876 23.2523L224.196 21.4623Z" fill="#F4B400"/>
<path opacity="0.15" d="M224.196 21.4623C223.776 21.0323 222.006 16.2423 214.686 11.5423C210.166 8.64232 200.496 7.74232 196.156 7.47232C188.546 6.99232 186.606 8.46232 186.416 9.57232C186.376 9.83232 186.166 11.0523 186.106 11.3323C186.046 11.6123 186.106 11.8623 186.206 12.0623C187.206 13.8823 193.106 17.3523 193.106 17.3523C202.816 15.4823 214.546 17.9523 223.876 23.2523L224.196 21.4623Z" fill="black"/>
<path opacity="0.3" d="M223.876 23.2523C214.556 17.9523 202.816 15.4723 193.106 17.3523C193.106 17.3523 187.206 13.8823 186.206 12.0623C185.676 11.0623 186.416 8.66233 195.826 9.26233C200.176 9.54233 209.836 10.4423 214.356 13.3323C221.686 18.0323 223.456 22.8223 223.876 23.2523Z" fill="black"/>
<path opacity="0.3" d="M223.876 23.2523C214.556 17.9523 202.816 15.4723 193.106 17.3523C193.106 17.3523 187.206 13.8823 186.206 12.0623C185.676 11.0623 186.416 8.66233 195.826 9.26233C200.176 9.54233 209.836 10.4423 214.356 13.3323C221.686 18.0323 223.456 22.8223 223.876 23.2523Z" fill="black"/>
<path d="M132.416 29.0823L127.386 30.4623L137.196 52.9123L135.016 60.9923L131.516 60.3623L121.606 37.6923L116.576 39.0723C116.356 39.6523 116.166 40.2723 115.996 40.9223C112.906 52.3823 117.246 68.5323 125.686 77.0023C129.946 81.2723 134.426 82.7623 138.216 81.7323L143.226 80.3623C143.536 80.2823 143.836 80.1723 144.136 80.0523L233.256 168.252C233.816 177.722 237.766 187.852 243.866 193.972C247.036 197.152 250.316 198.782 253.356 199.012L258.386 197.632L248.576 175.182L250.756 167.102L254.256 167.732L264.166 190.392L269.196 189.012C269.406 188.422 269.606 187.802 269.776 187.152C272.866 175.692 268.526 159.542 260.086 151.072C255.876 146.852 251.456 145.352 247.686 146.312V146.302L247.596 146.322C247.576 146.332 247.556 146.332 247.536 146.342L242.696 147.662L242.706 147.672C242.346 147.762 241.996 147.892 241.646 148.022L152.526 59.8423C151.966 50.3723 148.016 40.2423 141.916 34.1223C138.746 30.9423 135.466 29.3023 132.416 29.0823Z" fill="#B2B2B2"/>
<path opacity="0.2" d="M132.416 29.0823L127.386 30.4623L137.196 52.9123L135.016 60.9923L131.516 60.3623L121.606 37.6923L116.576 39.0723C116.356 39.6523 116.166 40.2723 115.996 40.9223C112.906 52.3823 117.246 68.5323 125.686 77.0023C129.946 81.2723 134.426 82.7623 138.216 81.7323L143.226 80.3623C143.536 80.2823 143.836 80.1723 144.136 80.0523L233.256 168.252C233.816 177.722 237.766 187.852 243.866 193.972C247.036 197.152 250.316 198.782 253.356 199.012L258.386 197.632L248.576 175.182L250.756 167.102L254.256 167.732L264.166 190.392L269.196 189.012C269.406 188.422 269.606 187.802 269.776 187.152C272.866 175.692 268.526 159.542 260.086 151.072C255.876 146.852 251.456 145.352 247.686 146.312V146.302L247.596 146.322C247.576 146.332 247.556 146.332 247.536 146.342L242.696 147.662L242.706 147.672C242.346 147.762 241.996 147.892 241.646 148.022L152.526 59.8423C151.966 50.3723 148.016 40.2423 141.916 34.1223C138.746 30.9423 135.466 29.3023 132.416 29.0823Z" fill="white"/>
<path opacity="0.2" d="M137.196 52.9123L142.226 51.5323L139.466 61.7924L135.016 60.9823L137.196 52.9123Z" fill="#A8A8A8"/>
<path opacity="0.4" d="M254.266 167.752L259.296 166.372L251.356 164.932L250.776 167.112L254.266 167.752Z" fill="#565656"/>
<path opacity="0.4" d="M233.266 168.252L238.296 166.882L147.906 77.4223L142.866 78.7923L233.266 168.252Z" fill="#8E8E8E"/>
<path d="M242.916 149.302L152.516 59.8423C151.956 50.3723 148.006 40.2423 141.906 34.1223C138.736 30.9423 135.456 29.3123 132.416 29.0823L142.226 51.5323L139.456 61.7923L131.516 60.3523L121.606 37.6923C121.396 38.2823 121.196 38.9023 121.026 39.5523C117.936 51.0023 122.276 67.1623 130.716 75.6323C136.906 81.8423 143.556 82.1723 147.896 77.4223L238.296 166.882C238.856 176.352 242.806 186.482 248.906 192.602C252.076 195.782 255.356 197.412 258.396 197.642L248.586 175.192L251.356 164.932L259.296 166.372L269.206 189.032C269.416 188.442 269.616 187.822 269.786 187.172C272.876 175.712 268.536 159.562 260.096 151.092C253.916 144.882 247.256 144.552 242.916 149.302Z" fill="#CCCCCC"/>
<path opacity="0.6" d="M242.916 149.302L152.516 59.8423C151.956 50.3723 148.006 40.2423 141.906 34.1223C138.736 30.9423 135.456 29.3123 132.416 29.0823L142.226 51.5323L139.456 61.7923L131.516 60.3523L121.606 37.6923C121.396 38.2823 121.196 38.9023 121.026 39.5523C117.936 51.0023 122.276 67.1623 130.716 75.6323C136.906 81.8423 143.556 82.1723 147.896 77.4223L238.296 166.882C238.856 176.352 242.806 186.482 248.906 192.602C252.076 195.782 255.356 197.412 258.396 197.642L248.586 175.192L251.356 164.932L259.296 166.372L269.206 189.032C269.416 188.442 269.616 187.822 269.786 187.172C272.876 175.712 268.536 159.562 260.096 151.092C253.916 144.882 247.256 144.552 242.916 149.302Z" fill="white"/>
<path opacity="0.2" d="M159.656 72.8723L233.906 146.332C235.876 148.282 236.966 151.792 236.346 154.182C235.726 156.572 233.636 156.932 231.666 154.982L157.396 81.4923C155.426 79.5423 154.336 76.0323 154.966 73.6523C155.586 71.2823 157.686 70.9323 159.656 72.8723Z" fill="#D1D1D1"/>
<path opacity="0.2" d="M231.336 147.042L157.086 73.5723C156.556 73.0523 156.016 72.7023 155.506 72.5123C155.276 72.8223 155.086 73.1923 154.966 73.6623C154.346 76.0423 155.436 79.5523 157.396 81.5023L231.666 155.002C232.196 155.522 232.726 155.862 233.236 156.062C233.466 155.752 233.656 155.372 233.786 154.902C234.396 152.502 233.306 148.982 231.336 147.042Z" fill="#A8A8A8"/>
<path opacity="0.2" d="M132.416 29.0823L142.226 51.5323L139.466 61.7923L143.126 51.5523L132.416 29.0823Z" fill="white"/>
<path opacity="0.2" d="M258.406 197.632L247.476 175.202L251.356 164.932L248.596 175.192L258.406 197.632Z" fill="white"/>
<path d="M213.416 118.392C210.586 115.982 209.836 115.722 206.846 115.612C203.856 115.512 202.486 115.422 201.326 115.482C200.156 115.542 196.166 116.442 195.396 116.922C194.016 117.782 196.156 119.862 198.406 119.802C200.656 119.742 203.586 119.432 203.586 119.432L213.416 118.392Z" fill="#F0997A"/>
<path d="M240.436 60.7224C249.506 63.1324 254.766 66.3323 256.646 71.0323C259.966 79.3523 267.396 105.272 268.566 112.042C269.726 118.812 269.126 120.582 263.566 123.662C258.936 126.232 239.696 132.022 230.826 134.392C228.416 135.032 225.846 134.492 223.896 132.952L215.736 126.522L249.416 110.612L241.786 87.7723C241.786 87.7723 234.466 71.4124 240.436 60.7224Z" fill="#FFBDA7"/>
<path d="M240.116 60.2123C246.076 61.9123 251.036 63.7423 253.876 66.6223C257.886 70.7023 257.346 70.6223 262.676 87.4523C268.006 104.282 269.536 112.622 269.906 115.982C270.276 119.352 269.826 120.832 264.606 123.712C259.386 126.592 244.766 130.352 244.766 130.352C244.766 130.352 244.516 124.972 242.676 120.572C240.836 116.172 238.196 115.902 238.196 115.902L248.466 110.222C248.466 110.222 242.156 92.4323 239.896 86.5423C237.636 80.6723 234.786 70.3523 240.116 60.2123Z" fill="#263238"/>
<path d="M226.336 129.152C225.346 128.972 224.996 124.842 223.336 124.262C221.666 123.682 221.446 123.912 220.616 122.312C219.796 120.722 218.576 120.092 217.556 120.182C216.536 120.272 216.916 118.372 215.026 117.902C213.576 117.542 209.406 117.612 207.686 117.782C205.966 117.952 202.066 120.452 200.386 121.642C198.706 122.842 199.876 123.972 200.936 124.522C201.996 125.072 204.086 124.582 204.086 124.582C204.086 124.582 202.366 126.112 202.766 126.812C203.296 127.742 205.066 128.562 207.536 127.492C205.926 128.622 206.106 129.692 207.446 130.232C208.476 130.642 209.946 130.442 211.696 129.802C213.886 128.992 216.816 128.012 218.556 128.722L220.266 130.072L226.336 129.152Z" fill="#FFBDA7"/>
<path d="M226.336 129.152C225.896 129.102 225.656 128.662 225.436 128.342C225.226 127.992 225.056 127.632 224.886 127.272C224.556 126.562 224.266 125.842 223.866 125.272C223.676 124.992 223.446 124.742 223.206 124.652L222.126 124.222C221.756 124.082 221.306 123.822 221.076 123.442C220.856 123.072 220.706 122.702 220.616 122.312C220.886 122.612 221.106 122.942 221.396 123.172C221.666 123.412 221.956 123.502 222.336 123.592C222.706 123.672 223.096 123.772 223.486 123.892C223.996 124.072 224.316 124.442 224.576 124.792C225.066 125.522 225.306 126.292 225.516 127.052L225.816 128.182C225.926 128.542 226.006 128.932 226.336 129.152Z" fill="#F0997A"/>
<path d="M204.076 124.582C204.956 123.872 205.836 123.182 206.756 122.542C207.686 121.902 208.566 121.262 209.676 120.752C210.896 120.392 211.966 120.352 213.106 120.272C214.226 120.212 215.356 120.222 216.486 120.302C215.386 120.552 214.286 120.762 213.186 120.942L211.546 121.222C211.016 121.312 210.436 121.402 210.006 121.552C209.076 121.962 208.096 122.592 207.126 123.112C206.136 123.652 205.126 124.162 204.076 124.582Z" fill="#F0997A"/>
<path d="M219.396 124.012C218.346 124.172 217.256 124.192 216.246 124.262C215.246 124.342 214.316 124.672 213.366 125.102C211.456 125.932 209.546 126.832 207.526 127.502C209.236 126.222 211.076 125.182 213.026 124.312C213.996 123.892 215.116 123.532 216.226 123.592C217.326 123.632 218.336 123.842 219.396 124.012Z" fill="#F0997A"/>
<path d="M120.126 73.1623C117.986 70.3923 117.776 69.6723 117.816 66.8523C117.856 64.0323 117.846 62.7423 117.946 61.6423C118.056 60.5423 119.096 56.8223 119.576 56.1223C120.446 54.8623 122.306 56.9723 122.146 59.0923C121.996 61.2023 121.576 63.9523 121.576 63.9523L120.126 73.1623Z" fill="#F0997A"/>
<path d="M129.666 85.8223C129.536 84.8823 125.676 84.3623 125.196 82.7723C124.726 81.1723 124.946 80.9723 123.486 80.1223C122.026 79.2723 121.496 78.1023 121.616 77.1423C121.746 76.1823 119.946 76.4623 119.586 74.6523C119.316 73.2723 119.566 69.3423 119.806 67.7323C120.046 66.1223 122.576 62.5623 123.776 61.0323C124.976 59.5023 125.996 60.6623 126.466 61.6823C126.936 62.7023 126.376 64.6423 126.376 64.6423C126.376 64.6423 127.896 63.0923 128.536 63.5023C129.386 64.0423 130.076 65.7523 128.956 68.0223C130.086 66.5523 131.096 66.7823 131.546 68.0623C131.886 69.0423 131.636 70.4323 130.946 72.0423C130.086 74.0723 129.176 76.9823 129.756 78.6523C130.286 79.4123 131.436 81.0823 131.436 81.0823L129.666 85.8223Z" fill="#FFBDA7"/>
<path d="M126.396 64.6523C125.686 65.4523 124.996 66.2423 124.356 67.0823C123.706 67.9323 123.066 68.7323 122.536 69.7523C122.146 70.8823 122.056 71.8823 121.926 72.9523C121.806 74.0023 121.766 75.0623 121.786 76.1323C122.076 75.1023 122.326 74.0823 122.536 73.0523L122.876 71.5223C122.986 71.0323 123.096 70.4823 123.266 70.0923C123.696 69.2323 124.336 68.3423 124.866 67.4523C125.426 66.5523 125.946 65.6223 126.396 64.6523Z" fill="#F0997A"/>
<path d="M125.146 79.0523C125.346 78.0723 125.406 77.0523 125.526 76.1023C125.646 75.1623 125.996 74.3023 126.446 73.4323C127.316 71.6723 128.256 69.9223 128.976 68.0423C127.696 69.5923 126.626 71.2723 125.716 73.0723C125.266 73.9623 124.886 75.0023 124.896 76.0523C124.886 77.0823 125.036 78.0523 125.146 79.0523Z" fill="#F0997A"/>
</svg>
