<svg width="143" height="143" viewBox="0 0 143 143" fill="none" xmlns="http://www.w3.org/2000/svg">
<circle cx="71.5" cy="71.5" r="71.5" fill="#D9D9D9"/>
<g clip-path="url(#clip0_2107_2404)">
<path d="M128.033 35.4635H19.0168V106.209H128.033V35.4635Z" fill="#949697"/>
<path d="M114.402 29H108.631V35.4999H114.402V29Z" fill="#949697"/>
<path d="M38.4193 29H32.6605V35.4999H38.4193V29Z" fill="#949697"/>
<path d="M126.223 34.4551H20.827V36.4719H126.223V34.4551Z" fill="#949697"/>
<path d="M126.223 104.193H20.827V106.209H126.223V104.193Z" fill="#949697"/>
<path d="M126.223 40.7971H20.827V42.8139H126.223V40.7971Z" fill="#949697"/>
<path d="M126.223 48.0988H20.827V50.1156H126.223V48.0988Z" fill="#949697"/>
<path d="M126.223 55.4006H20.827V57.4174H126.223V55.4006Z" fill="#949697"/>
<path d="M126.223 62.7145H20.827V64.7313H126.223V62.7145Z" fill="#949697"/>
<path d="M126.223 70.0163H20.827V72.0331H126.223V70.0163Z" fill="#949697"/>
<path d="M126.223 77.3302H20.827V79.347H126.223V77.3302Z" fill="#949697"/>
<path d="M126.223 84.632H20.827V86.6488H126.223V84.632Z" fill="#949697"/>
<path d="M126.223 91.9338H20.827V93.9506H126.223V91.9338Z" fill="#949697"/>
<path d="M126.223 97.8506H20.827V99.8674H126.223V97.8506Z" fill="#949697"/>
<path d="M130.05 31.8551H126.016V106.197H130.05V31.8551Z" fill="#949697"/>
<path d="M21.0336 31.8551H17V106.197H21.0336V31.8551Z" fill="#949697"/>
</g>
<g clip-path="url(#clip1_2107_2404)">
<path d="M126.033 39.4635H17.0168V110.209H126.033V39.4635Z" fill="#555E6D"/>
<path d="M112.402 33H106.631V39.4999H112.402V33Z" fill="#FF9813"/>
<path d="M36.4193 33H30.6605V39.4999H36.4193V33Z" fill="#FF9813"/>
<path d="M124.223 38.4551H18.827V40.4719H124.223V38.4551Z" fill="#9CA9B9"/>
<path d="M124.223 108.193H18.827V110.209H124.223V108.193Z" fill="#9CA9B9"/>
<path d="M124.223 44.7971H18.827V46.8139H124.223V44.7971Z" fill="#9CA9B9"/>
<path d="M124.223 52.0988H18.827V54.1156H124.223V52.0988Z" fill="#9CA9B9"/>
<path d="M124.223 59.4006H18.827V61.4174H124.223V59.4006Z" fill="#9CA9B9"/>
<path d="M124.223 66.7145H18.827V68.7313H124.223V66.7145Z" fill="#9CA9B9"/>
<path d="M124.223 74.0163H18.827V76.0331H124.223V74.0163Z" fill="#9CA9B9"/>
<path d="M124.223 81.3302H18.827V83.347H124.223V81.3302Z" fill="#9CA9B9"/>
<path d="M124.223 88.632H18.827V90.6488H124.223V88.632Z" fill="#9CA9B9"/>
<path d="M124.223 95.9338H18.827V97.9506H124.223V95.9338Z" fill="#9CA9B9"/>
<path d="M124.223 101.851H18.827V103.867H124.223V101.851Z" fill="#9CA9B9"/>
<path d="M128.05 35.8551H124.016V110.197H128.05V35.8551Z" fill="#C3CCD5"/>
<path d="M19.0336 35.8551H15V110.197H19.0336V35.8551Z" fill="#C3CCD5"/>
</g>
<defs>
<clipPath id="clip0_2107_2404">
<rect width="113.05" height="77.2093" fill="white" transform="translate(17 29)"/>
</clipPath>
<clipPath id="clip1_2107_2404">
<rect width="113.05" height="77.2093" fill="white" transform="translate(15 33)"/>
</clipPath>
</defs>
</svg>
