<svg width="143" height="143" viewBox="0 0 143 143" fill="none" xmlns="http://www.w3.org/2000/svg">
<circle cx="71.5" cy="71.5" r="71.5" fill="#D9D9D9"/>
<g clip-path="url(#clip0_511_2757)">
<g opacity="0.5">
<path d="M113.605 102.765C111.588 101.803 110.735 99.3957 111.701 97.386C111.969 96.8265 112.407 96.4203 112.806 95.9963C113.337 95.4332 114.347 94.8275 114.796 93.8903C115.245 92.9532 115.084 91.7897 115.193 91.0254C115.273 90.4499 115.318 89.8548 115.584 89.2972C116.55 87.2874 118.966 86.4376 120.982 87.3997C122.999 88.3618 123.852 90.7688 122.887 92.7786C122.618 93.338 122.18 93.7442 121.783 94.1683C121.252 94.7313 120.242 95.337 119.793 96.2742C119.345 97.2114 119.506 98.3748 119.396 99.1391C119.316 99.7146 119.271 100.31 119.003 100.867C118.039 102.877 115.622 103.727 113.605 102.765ZM118.363 92.8569C119.371 93.338 120.58 92.9122 121.063 91.9073C121.546 90.9024 121.118 89.698 120.11 89.217C119.101 88.7359 117.893 89.1618 117.41 90.1666C116.929 91.1733 117.355 92.3759 118.363 92.8569ZM114.479 100.946C115.488 101.427 116.697 101.001 117.179 99.9961C117.662 98.9913 117.235 97.7868 116.226 97.3058C115.218 96.8247 114.009 97.2506 113.526 98.2554C113.045 99.2603 113.471 100.465 114.479 100.946Z" fill="#4F5254"/>
<path d="M121.245 86.2309C119.021 86.01 117.397 84.0341 117.619 81.8177C117.682 81.2012 117.953 80.6703 118.184 80.1376C118.492 79.4267 119.234 78.5162 119.337 77.4829C119.441 76.4495 118.892 75.4108 118.733 74.6536C118.613 74.0852 118.451 73.5115 118.513 72.8951C118.735 70.6786 120.718 69.0609 122.942 69.2818C125.166 69.5027 126.79 71.4786 126.568 73.6968C126.506 74.3133 126.234 74.8442 126.003 75.3769C125.696 76.086 124.954 76.9983 124.85 78.0316C124.746 79.065 125.295 80.1037 125.454 80.8609C125.574 81.4293 125.737 82.003 125.674 82.6194C125.452 84.8341 123.47 86.4518 121.245 86.2309ZM122.34 75.3021C123.452 75.4126 124.444 74.6037 124.555 73.4955C124.666 72.3873 123.854 71.3984 122.742 71.288C121.63 71.1775 120.637 71.9864 120.526 73.0946C120.416 74.2028 121.227 75.1916 122.34 75.3021ZM121.446 84.2247C122.558 84.3352 123.55 83.5263 123.661 82.4181C123.772 81.3099 122.96 80.3211 121.848 80.2106C120.736 80.1001 119.743 80.909 119.632 82.0172C119.522 83.1254 120.333 84.1143 121.446 84.2247Z" fill="#4F5254"/>
<path d="M122.942 67.7514C120.766 68.2645 118.586 66.9211 118.072 64.7528C117.928 64.1506 118.013 63.5591 118.057 62.98C118.114 62.2086 118.52 61.1057 118.281 60.0973C118.041 59.0871 117.183 58.2818 116.786 57.6172C116.487 57.1183 116.146 56.6284 116.003 56.0262C115.488 53.8579 116.836 51.686 119.01 51.1729C121.186 50.6598 123.366 52.0031 123.881 54.1714C124.024 54.7736 123.94 55.3652 123.895 55.9442C123.838 56.7157 123.432 57.8185 123.672 58.8287C123.911 59.8389 124.769 60.6443 125.166 61.3088C125.465 61.8077 125.806 62.2977 125.95 62.8999C126.464 65.0664 125.118 67.24 122.942 67.7514ZM120.408 57.0631C121.496 56.8065 122.17 55.7215 121.914 54.6365C121.657 53.5532 120.566 52.8815 119.479 53.1381C118.392 53.3946 117.717 54.4797 117.975 55.5647C118.229 56.648 119.32 57.3179 120.408 57.0631ZM122.477 65.7897C123.564 65.5332 124.238 64.4481 123.981 63.3631C123.723 62.2798 122.635 61.6081 121.546 61.8647C120.459 62.1213 119.784 63.2063 120.042 64.2913C120.299 65.3746 121.388 66.0445 122.477 65.7897Z" fill="#4F5254"/>
<path d="M118.063 49.776C116.201 51.0107 113.689 50.5065 112.45 48.6536C112.107 48.1387 111.978 47.5561 111.817 46.9966C111.602 46.2537 111.597 45.0795 111.021 44.2154C110.444 43.3513 109.359 42.8934 108.754 42.4088C108.3 42.0454 107.808 41.7033 107.465 41.1884C106.226 39.3336 106.73 36.8304 108.591 35.5957C110.453 34.361 112.965 34.8634 114.204 36.7181C114.549 37.233 114.676 37.8174 114.837 38.3751C115.052 39.1181 115.057 40.2922 115.634 41.1563C116.212 42.0204 117.297 42.4783 117.902 42.9629C118.356 43.3264 118.848 43.6685 119.191 44.1834C120.428 46.0381 119.924 48.5413 118.063 49.776ZM111.955 40.6325C112.884 40.016 113.138 38.7635 112.518 37.837C111.897 36.9106 110.642 36.6593 109.711 37.2758C108.781 37.8923 108.527 39.1448 109.148 40.0713C109.768 40.9995 111.025 41.2507 111.955 40.6325ZM116.942 48.0977C117.871 47.4812 118.125 46.2287 117.505 45.3005C116.886 44.374 115.629 44.1228 114.698 44.7392C113.768 45.3557 113.514 46.6082 114.134 47.5347C114.755 48.4629 116.01 48.7142 116.942 48.0977Z" fill="#4F5254"/>
<path d="M107.678 34.6158C106.38 36.4295 103.851 36.8518 102.031 35.5583C101.525 35.1984 101.198 34.6995 100.848 34.2345C100.381 33.6162 99.9571 32.5205 99.1096 31.9183C98.262 31.3161 97.0837 31.2733 96.3453 31.0364C95.791 30.8582 95.2099 30.7121 94.7039 30.354C92.8837 29.0605 92.4599 26.5412 93.758 24.7275C95.0561 22.9137 97.5844 22.4915 99.4046 23.785C99.9106 24.1449 100.238 24.6437 100.588 25.1087C101.055 25.727 101.479 26.8227 102.326 27.4249C103.174 28.0271 104.352 28.0699 105.091 28.3069C105.645 28.485 106.226 28.6311 106.732 28.9892C108.552 30.2827 108.976 32.802 107.678 34.6158ZM98.7019 28.2391C99.351 27.3323 99.14 26.0726 98.2281 25.4259C97.318 24.7791 96.0538 24.9912 95.4048 25.898C94.7557 26.8049 94.9685 28.0645 95.8786 28.7113C96.7905 29.358 98.0546 29.146 98.7019 28.2391ZM106.031 33.4434C106.68 32.5365 106.467 31.2769 105.557 30.6302C104.647 29.9834 103.383 30.1954 102.734 31.1023C102.085 32.0092 102.298 33.2688 103.208 33.9156C104.118 34.5623 105.382 34.3521 106.031 33.4434Z" fill="#4F5254"/>
<path d="M92.0004 24.0504C91.4032 26.1974 89.1735 27.4552 87.019 26.8619C86.42 26.6962 85.9408 26.3399 85.4527 26.0227C84.8018 25.6005 84.0276 24.7168 83.0227 24.4388C82.0197 24.1627 80.8968 24.5244 80.1226 24.5529C79.5415 24.5742 78.9443 24.6366 78.3453 24.4709C76.1907 23.8758 74.9284 21.6541 75.5238 19.5072C76.1192 17.3602 78.3506 16.1006 80.5052 16.6957C81.1042 16.8614 81.5834 17.2195 82.0715 17.5348C82.7206 17.9571 83.4966 18.8408 84.4996 19.1188C85.5027 19.3967 86.6256 19.0332 87.3998 19.0047C87.9827 18.9833 88.5781 18.921 89.1771 19.0867C91.3335 19.68 92.5976 21.9035 92.0004 24.0504ZM81.3778 21.1196C81.6764 20.047 81.0434 18.9352 79.967 18.6377C78.8906 18.3402 77.7749 18.9709 77.4763 20.0434C77.1777 21.116 77.8089 22.2278 78.887 22.5253C79.9652 22.8229 81.0792 22.1939 81.3778 21.1196ZM90.0497 23.5124C90.3483 22.4398 89.7153 21.328 88.6389 21.0305C87.5607 20.733 86.4468 21.3619 86.1482 22.4362C85.8496 23.5106 86.4808 24.6206 87.5589 24.9181C88.6371 25.2156 89.7511 24.5849 90.0497 23.5124Z" fill="#4F5254"/>
<path d="M74.2471 19.3735C74.3937 21.5971 72.7041 23.5159 70.4726 23.662C69.8522 23.703 69.2818 23.5213 68.7168 23.3823C67.964 23.197 66.9395 22.6162 65.9006 22.6857C64.8618 22.7534 63.9213 23.4625 63.1989 23.744C62.6572 23.956 62.1136 24.209 61.4949 24.25C59.2635 24.3961 57.3378 22.7124 57.1912 20.4889C57.0446 18.2653 58.7342 16.3465 60.9657 16.2004C61.5861 16.1594 62.1565 16.3411 62.7215 16.4801C63.4743 16.6654 64.4988 17.2462 65.5377 17.1785C66.5765 17.1108 67.517 16.4017 68.2394 16.1202C68.7829 15.91 69.3247 15.6552 69.9433 15.6142C72.173 15.4663 74.1005 17.15 74.2471 19.3735ZM63.2472 20.0933C63.1739 18.9816 62.2102 18.1406 61.0944 18.2137C59.9787 18.2867 59.1348 19.247 59.2081 20.3588C59.2814 21.4706 60.2451 22.3115 61.3608 22.2385C62.4766 22.1636 63.3205 21.2051 63.2472 20.0933ZM72.2267 19.5054C72.1533 18.3936 71.1896 17.5527 70.0739 17.6239C68.9581 17.697 68.1142 18.6573 68.1875 19.7691C68.2608 20.8808 69.2246 21.7218 70.3403 21.6487C71.456 21.5757 72.3 20.6171 72.2267 19.5054Z" fill="#4F5254"/>
<path d="M55.9127 20.9646C56.8407 22.9921 55.9431 25.3831 53.9102 26.3078C53.3451 26.5644 52.7462 26.5982 52.1686 26.6677C51.398 26.7604 50.234 26.5786 49.2863 27.0098C48.3387 27.441 47.7129 28.4351 47.1371 28.9536C46.7044 29.3438 46.2878 29.7714 45.7228 30.028C43.688 30.9526 41.2885 30.0582 40.3605 28.0325C39.4325 26.0049 40.3301 23.6139 42.3631 22.6892C42.9281 22.4327 43.5271 22.4006 44.1046 22.3293C44.8753 22.2367 46.0393 22.4184 46.9869 21.9873C47.9346 21.5561 48.5604 20.5619 49.1361 20.0434C49.5688 19.655 49.9855 19.2257 50.5505 18.9691C52.5852 18.0444 54.9848 18.937 55.9127 20.9646ZM45.8837 25.5221C45.4206 24.5083 44.2191 24.0611 43.2035 24.5244C42.1861 24.9876 41.7373 26.1831 42.2022 27.1969C42.6653 28.2106 43.8668 28.6578 44.8824 28.1946C45.8998 27.7314 46.3468 26.5359 45.8837 25.5221ZM54.0711 21.8002C53.6062 20.7864 52.4064 20.3392 51.3891 20.8024C50.3717 21.2639 49.9229 22.4612 50.3878 23.4732C50.8509 24.4869 52.0524 24.9341 53.068 24.4709C54.0872 24.0112 54.5342 22.814 54.0711 21.8002Z" fill="#4F5254"/>
<path d="M39.0249 28.9554C40.5823 30.5518 40.5465 33.1067 38.9444 34.6585C38.4992 35.0897 37.9467 35.3213 37.4264 35.5814C36.7326 35.9271 35.574 36.148 34.8284 36.8714C34.081 37.5947 33.8289 38.7421 33.4624 39.4227C33.187 39.9341 32.9402 40.4775 32.4932 40.9086C30.8912 42.4605 28.3272 42.4248 26.7698 40.8285C25.2106 39.2321 25.2482 36.6772 26.8502 35.1253C27.2955 34.6942 27.848 34.4625 28.3683 34.2024C29.062 33.8568 30.2207 33.6358 30.9663 32.9125C31.7137 32.1891 31.9658 31.0417 32.3323 30.3611C32.6077 29.8498 32.8544 29.3064 33.3014 28.8752C34.9035 27.3216 37.4675 27.3572 39.0249 28.9554ZM31.1218 36.6112C30.3423 35.8131 29.062 35.7935 28.2592 36.5703C27.4582 37.3471 27.4403 38.6245 28.2199 39.4227C28.9994 40.2209 30.2797 40.2387 31.0807 39.4637C31.8835 38.6869 31.9014 37.4094 31.1218 36.6112ZM37.573 30.3611C36.7934 29.5629 35.5132 29.5451 34.7104 30.3201C33.9094 31.097 33.8915 32.3744 34.6693 33.1726C35.4488 33.9708 36.7309 33.9886 37.5319 33.2136C38.3347 32.4368 38.3526 31.1593 37.573 30.3611Z" fill="#4F5254"/>
<path d="M26.0796 42.2805C28.0876 43.2622 28.9154 45.6782 27.9302 47.679C27.6566 48.2349 27.215 48.6375 26.8127 49.058C26.2763 49.6157 25.2607 50.2125 24.8012 51.1444C24.3416 52.0762 24.4918 53.2414 24.3756 54.0057C24.2898 54.5794 24.2397 55.1745 23.9662 55.7304C22.981 57.7312 20.5564 58.5561 18.5485 57.5762C16.5423 56.5945 15.7127 54.1786 16.6979 52.1777C16.9714 51.6219 17.4131 51.2192 17.8154 50.8005C18.3518 50.2411 19.3674 49.646 19.8269 48.7142C20.2864 47.7823 20.1362 46.6171 20.2524 45.8528C20.3383 45.2791 20.3883 44.684 20.6619 44.1281C21.6471 42.1255 24.0734 41.2988 26.0796 42.2805ZM21.2251 52.1403C20.222 51.6504 19.008 52.0619 18.5163 53.0632C18.0246 54.0627 18.4376 55.2725 19.4425 55.7625C20.4455 56.2524 21.6578 55.8409 22.1513 54.8396C22.643 53.84 22.2282 52.6321 21.2251 52.1403ZM25.1874 44.0907C24.1843 43.6008 22.9702 44.0123 22.4785 45.0136C21.9868 46.0131 22.4016 47.2211 23.4047 47.7129C24.4078 48.2046 25.6201 47.7912 26.1136 46.7899C26.6053 45.7904 26.1922 44.5807 25.1874 44.0907Z" fill="#4F5254"/>
<path d="M18.0407 58.9909C20.2721 59.137 21.96 61.0594 21.8116 63.2829C21.7705 63.9012 21.5166 64.441 21.3038 64.9809C21.0213 65.7007 20.3079 66.636 20.2399 67.6712C20.1702 68.7063 20.7531 69.7272 20.939 70.4791C21.0785 71.0439 21.2591 71.6123 21.218 72.2287C21.0696 74.4522 19.1421 76.1341 16.9106 75.988C14.6792 75.8402 12.9913 73.9195 13.1397 71.696C13.1808 71.0777 13.4347 70.5379 13.6475 69.9981C13.93 69.2783 14.6434 68.3429 14.7114 67.3077C14.7811 66.2726 14.1982 65.2517 14.0123 64.4998C13.8728 63.9368 13.6922 63.3667 13.7333 62.7502C13.8817 60.5267 15.8092 58.843 18.0407 58.9909ZM17.3129 69.9499C16.1972 69.8769 15.2335 70.7179 15.1602 71.8278C15.0869 72.9396 15.9308 73.8999 17.0465 73.973C18.1623 74.046 19.126 73.2051 19.1993 72.0933C19.2726 70.9851 18.4269 70.023 17.3129 69.9499ZM17.9066 61.0024C16.7908 60.9293 15.8271 61.7703 15.7538 62.882C15.6805 63.9938 16.5244 64.9541 17.6401 65.0272C18.7559 65.1002 19.7196 64.2593 19.7929 63.1475C19.8662 62.0375 19.0223 61.0772 17.9066 61.0024Z" fill="#4F5254"/>
<path d="M16.7801 77.531C18.94 76.9573 21.159 78.2365 21.7347 80.3888C21.8939 80.9874 21.8277 81.5789 21.8009 82.1598C21.7651 82.9312 21.3914 84.0466 21.6596 85.0496C21.9278 86.0527 22.8093 86.8331 23.2259 87.4852C23.5388 87.9751 23.8947 88.4562 24.0538 89.0531C24.6295 91.2053 23.3457 93.4164 21.1858 93.9901C19.0259 94.5638 16.8069 93.2845 16.2312 91.1323C16.0703 90.5336 16.1382 89.9421 16.165 89.3613C16.2008 88.5898 16.5745 87.4745 16.3063 86.4714C16.0381 85.4683 15.1566 84.688 14.74 84.0359C14.4271 83.5459 14.0713 83.0649 13.9121 82.468C13.3364 80.3157 14.622 78.1047 16.7801 77.531ZM19.6213 88.1444C18.5413 88.4313 17.8994 89.5359 18.1873 90.612C18.4752 91.6882 19.5837 92.3278 20.6637 92.0409C21.7437 91.7541 22.3856 90.6494 22.0977 89.5733C21.8098 88.4972 20.7012 87.8576 19.6213 88.1444ZM17.3022 79.4801C16.2223 79.767 15.5804 80.8716 15.8682 81.9495C16.1561 83.0257 17.2647 83.6653 18.3446 83.3784C19.4246 83.0916 20.0665 81.9869 19.7786 80.9108C19.4908 79.8329 18.3822 79.1933 17.3022 79.4801Z" fill="#4F5254"/>
<path d="M21.8045 95.3335C23.639 94.0596 26.1619 94.5103 27.4403 96.3383C27.7961 96.8461 27.9356 97.4269 28.1072 97.981C28.3379 98.7187 28.3683 99.8928 28.9637 100.744C29.5591 101.596 30.6534 102.031 31.2685 102.503C31.7298 102.857 32.2286 103.189 32.5827 103.697C33.8611 105.525 33.4087 108.039 31.576 109.313C29.7415 110.586 27.2186 110.136 25.9402 108.308C25.5843 107.8 25.4449 107.219 25.2732 106.665C25.0426 105.927 25.0122 104.753 24.4168 103.902C23.8213 103.05 22.7271 102.615 22.112 102.143C21.6507 101.788 21.1518 101.457 20.796 100.949C19.5194 99.1213 19.9699 96.6074 21.8045 95.3335ZM28.1054 104.347C27.1882 104.983 26.9629 106.241 27.6012 107.155C28.2395 108.069 29.5019 108.293 30.4191 107.657C31.3364 107.021 31.5617 105.763 30.9234 104.849C30.2833 103.935 29.0227 103.709 28.1054 104.347ZM22.9613 96.9887C22.0441 97.6247 21.8188 98.8826 22.4571 99.7966C23.0954 100.711 24.3578 100.935 25.275 100.299C26.1923 99.6629 26.4176 98.4051 25.7792 97.4911C25.1409 96.5771 23.8786 96.3526 22.9613 96.9887Z" fill="#4F5254"/>
<path d="M32.5397 110.175C33.8557 108.374 36.3876 107.976 38.1953 109.288C38.6977 109.651 39.0195 110.155 39.3646 110.622C39.8241 111.244 40.2372 112.345 41.0793 112.956C41.9215 113.567 43.0998 113.621 43.8347 113.866C44.3872 114.05 44.9665 114.201 45.4689 114.567C47.2766 115.878 47.6754 118.401 46.3594 120.202C45.0434 122.003 42.5115 122.401 40.7039 121.089C40.2014 120.724 39.8796 120.222 39.5345 119.755C39.075 119.131 38.6619 118.032 37.8198 117.421C36.9776 116.81 35.7993 116.756 35.0644 116.51C34.5119 116.327 33.9326 116.175 33.4302 115.81C31.6225 114.497 31.2238 111.974 32.5397 110.175ZM41.4512 116.639C40.7933 117.54 40.9917 118.802 41.8965 119.457C42.7994 120.113 44.0653 119.915 44.7233 119.014C45.3813 118.114 45.1828 116.853 44.2781 116.197C43.3752 115.539 42.1092 115.739 41.4512 116.639ZM34.1758 111.361C33.5178 112.261 33.7163 113.523 34.621 114.18C35.524 114.836 36.7899 114.636 37.4479 113.736C38.1059 112.837 37.9074 111.575 37.0026 110.92C36.0997 110.262 34.8338 110.462 34.1758 111.361Z" fill="#4F5254"/>
<path d="M47.9901 120.815C48.5622 118.661 50.7776 117.376 52.9375 117.946C53.5383 118.105 54.021 118.456 54.5128 118.768C55.1672 119.183 55.9539 120.058 56.9606 120.323C57.9672 120.589 59.0847 120.213 59.8589 120.177C60.44 120.149 61.0355 120.081 61.6362 120.239C63.798 120.81 65.0871 123.017 64.5149 125.169C63.9428 127.323 61.7274 128.608 59.5675 128.038C58.9667 127.879 58.4839 127.527 57.9922 127.217C57.3378 126.803 56.5511 125.927 55.5444 125.661C54.5378 125.396 53.4203 125.77 52.6461 125.807C52.065 125.836 51.4695 125.903 50.8688 125.745C48.707 125.177 47.4179 122.969 47.9901 120.815ZM58.6467 123.621C58.3606 124.697 59.006 125.802 60.086 126.087C61.166 126.372 62.2746 125.729 62.5606 124.653C62.8467 123.577 62.203 122.472 61.1213 122.187C60.0395 121.904 58.9327 122.545 58.6467 123.621ZM49.9461 121.33C49.6601 122.406 50.3055 123.511 51.3855 123.796C52.4655 124.081 53.574 123.438 53.8601 122.361C54.1462 121.285 53.5025 120.181 52.4208 119.896C51.339 119.611 50.2322 120.254 49.9461 121.33Z" fill="#4F5254"/>
<path d="M65.8381 125.321C65.6414 123.103 67.2882 121.145 69.5143 120.949C70.1329 120.893 70.7087 121.063 71.2772 121.189C72.0354 121.357 73.0724 121.914 74.1095 121.823C75.1465 121.733 76.0691 121.002 76.7861 120.705C77.3243 120.482 77.8607 120.216 78.4794 120.161C80.7055 119.965 82.6705 121.606 82.8672 123.824C83.0639 126.042 81.4171 128 79.191 128.196C78.5724 128.252 77.9984 128.082 77.428 127.956C76.6699 127.788 75.6329 127.231 74.5958 127.322C73.5588 127.413 72.6344 128.143 71.9191 128.441C71.3809 128.663 70.8463 128.929 70.2259 128.984C67.9998 129.18 66.0348 127.539 65.8381 125.321ZM76.8183 124.355C76.9167 125.465 77.8983 126.285 79.0122 126.187C80.1262 126.089 80.9487 125.111 80.8503 124.001C80.752 122.891 79.7703 122.071 78.6564 122.169C77.5443 122.267 76.72 123.245 76.8183 124.355ZM67.855 125.143C67.9533 126.253 68.9349 127.072 70.0489 126.974C71.1628 126.876 71.9853 125.898 71.887 124.788C71.7886 123.678 70.807 122.859 69.6931 122.957C68.5791 123.055 67.7566 124.033 67.855 125.143Z" fill="#4F5254"/>
<path d="M84.3262 123.639C83.3589 121.631 84.2082 119.222 86.2233 118.256C86.7829 117.989 87.3801 117.945 87.9577 117.863C88.7265 117.754 89.8941 117.913 90.8328 117.464C91.7715 117.015 92.3777 116.008 92.9445 115.479C93.3682 115.082 93.7759 114.645 94.3373 114.376C96.3524 113.412 98.7716 114.258 99.7372 116.266C100.704 118.274 99.8552 120.685 97.8401 121.647C97.2804 121.914 96.6832 121.959 96.1057 122.041C95.3368 122.149 94.1693 121.991 93.2306 122.44C92.2918 122.889 91.6857 123.895 91.1189 124.426C90.6951 124.824 90.2857 125.26 89.726 125.529C87.7127 126.493 85.2935 125.647 84.3262 123.639ZM94.264 118.885C94.7468 119.89 95.9573 120.313 96.9639 119.831C97.9706 119.35 98.3961 118.144 97.9134 117.141C97.4306 116.136 96.2201 115.714 95.2135 116.195C94.205 116.678 93.7795 117.882 94.264 118.885ZM86.1518 122.766C86.6345 123.771 87.845 124.193 88.8517 123.712C89.8583 123.231 90.2839 122.025 89.8011 121.022C89.3184 120.017 88.1079 119.595 87.1012 120.076C86.0928 120.557 85.6672 121.761 86.1518 122.766Z" fill="#4F5254"/>
<path d="M101.085 115.44C99.5011 113.866 99.4976 111.313 101.076 109.735C101.514 109.296 102.063 109.056 102.58 108.789C103.268 108.432 104.422 108.194 105.158 107.46C105.893 106.724 106.129 105.573 106.485 104.887C106.752 104.37 106.991 103.823 107.431 103.385C109.01 101.808 111.572 101.803 113.156 103.376C114.74 104.949 114.744 107.502 113.165 109.081C112.727 109.519 112.178 109.76 111.661 110.027C110.973 110.383 109.82 110.622 109.083 111.356C108.348 112.092 108.112 113.243 107.756 113.929C107.488 114.444 107.25 114.992 106.811 115.431C105.232 117.009 102.668 117.013 101.085 115.44ZM108.867 107.661C109.659 108.447 110.939 108.445 111.729 107.656C112.518 106.866 112.516 105.591 111.724 104.803C110.932 104.017 109.652 104.019 108.861 104.808C108.073 105.598 108.075 106.875 108.867 107.661ZM102.514 114.011C103.306 114.796 104.588 114.795 105.377 114.005C106.165 113.216 106.163 111.94 105.371 111.153C104.579 110.367 103.299 110.369 102.509 111.158C101.72 111.948 101.722 113.225 102.514 114.011Z" fill="#4F5254"/>
<g opacity="0.5">
<path d="M113.605 102.765C111.588 101.803 110.735 99.3957 111.701 97.386C111.969 96.8265 112.407 96.4203 112.806 95.9963C113.337 95.4332 114.347 94.8275 114.796 93.8903C115.245 92.9532 115.084 91.7897 115.193 91.0254C115.273 90.4499 115.318 89.8548 115.584 89.2972C116.55 87.2874 118.966 86.4376 120.982 87.3997C122.999 88.3618 123.852 90.7688 122.887 92.7786C122.618 93.338 122.18 93.7442 121.783 94.1683C121.252 94.7313 120.242 95.337 119.793 96.2742C119.345 97.2114 119.506 98.3748 119.396 99.1391C119.316 99.7146 119.271 100.31 119.003 100.867C118.039 102.877 115.622 103.727 113.605 102.765ZM118.363 92.8569C119.371 93.338 120.58 92.9122 121.063 91.9073C121.546 90.9024 121.118 89.698 120.11 89.217C119.101 88.7359 117.893 89.1618 117.41 90.1666C116.929 91.1733 117.355 92.3759 118.363 92.8569ZM114.479 100.946C115.488 101.427 116.697 101.001 117.179 99.9961C117.662 98.9913 117.235 97.7868 116.226 97.3058C115.218 96.8247 114.009 97.2506 113.526 98.2554C113.045 99.2603 113.471 100.465 114.479 100.946Z" fill="#4F5254"/>
<path d="M121.245 86.2309C119.021 86.01 117.397 84.0341 117.619 81.8177C117.682 81.2012 117.954 80.6703 118.184 80.1376C118.492 79.4267 119.234 78.5162 119.337 77.4829C119.441 76.4495 118.892 75.4108 118.733 74.6536C118.613 74.0852 118.451 73.5115 118.513 72.8951C118.735 70.6786 120.718 69.0609 122.942 69.2818C125.166 69.5027 126.79 71.4786 126.568 73.6968C126.506 74.3133 126.234 74.8442 126.003 75.3769C125.696 76.086 124.954 76.9983 124.85 78.0316C124.746 79.065 125.295 80.1037 125.454 80.8609C125.574 81.4293 125.737 82.003 125.674 82.6194C125.453 84.8341 123.47 86.4518 121.245 86.2309ZM122.34 75.3021C123.452 75.4126 124.444 74.6037 124.555 73.4955C124.666 72.3873 123.854 71.3984 122.742 71.288C121.63 71.1775 120.637 71.9864 120.527 73.0946C120.416 74.2028 121.227 75.1916 122.34 75.3021ZM121.446 84.2247C122.558 84.3352 123.55 83.5263 123.661 82.4181C123.772 81.3099 122.96 80.3211 121.848 80.2106C120.736 80.1001 119.743 80.909 119.633 82.0172C119.522 83.1254 120.333 84.1143 121.446 84.2247Z" fill="#4F5254"/>
<path d="M122.942 67.7514C120.766 68.2645 118.587 66.9211 118.072 64.7528C117.929 64.1506 118.013 63.5591 118.057 62.98C118.114 62.2086 118.52 61.1057 118.281 60.0973C118.041 59.0871 117.183 58.2818 116.786 57.6172C116.487 57.1183 116.146 56.6284 116.003 56.0262C115.488 53.8579 116.836 51.686 119.01 51.1729C121.186 50.6598 123.366 52.0031 123.881 54.1714C124.024 54.7736 123.94 55.3652 123.895 55.9442C123.838 56.7157 123.432 57.8185 123.672 58.8287C123.911 59.8389 124.77 60.6443 125.166 61.3088C125.465 61.8077 125.807 62.2977 125.95 62.8999C126.465 65.0664 125.118 67.24 122.942 67.7514ZM120.409 57.0631C121.496 56.8065 122.17 55.7215 121.914 54.6365C121.657 53.5532 120.566 52.8815 119.479 53.1381C118.392 53.3946 117.718 54.4797 117.975 55.5647C118.229 56.648 119.32 57.3179 120.409 57.0631ZM122.477 65.7897C123.564 65.5332 124.238 64.4481 123.981 63.3631C123.724 62.2798 122.635 61.6081 121.546 61.8647C120.459 62.1213 119.785 63.2063 120.042 64.2913C120.299 65.3746 121.388 66.0445 122.477 65.7897Z" fill="#4F5254"/>
<path d="M118.063 49.776C116.201 51.0107 113.689 50.5065 112.45 48.6536C112.107 48.1387 111.978 47.5561 111.817 46.9966C111.602 46.2537 111.597 45.0795 111.021 44.2154C110.444 43.3513 109.359 42.8934 108.754 42.4088C108.3 42.0454 107.808 41.7033 107.465 41.1884C106.226 39.3336 106.73 36.8304 108.591 35.5957C110.453 34.361 112.965 34.8634 114.204 36.7181C114.549 37.233 114.676 37.8174 114.837 38.3751C115.052 39.1181 115.057 40.2922 115.634 41.1563C116.212 42.0204 117.297 42.4783 117.902 42.9629C118.356 43.3264 118.848 43.6685 119.191 44.1834C120.428 46.0381 119.924 48.5413 118.063 49.776ZM111.955 40.6325C112.884 40.016 113.138 38.7635 112.518 37.837C111.897 36.9106 110.642 36.6593 109.711 37.2758C108.781 37.8923 108.527 39.1448 109.148 40.0713C109.768 40.9995 111.025 41.2507 111.955 40.6325ZM116.942 48.0977C117.871 47.4812 118.125 46.2287 117.505 45.3005C116.886 44.374 115.629 44.1228 114.698 44.7392C113.768 45.3557 113.514 46.6082 114.134 47.5347C114.755 48.4629 116.01 48.7142 116.942 48.0977Z" fill="#4F5254"/>
<path d="M32.5397 110.175C33.8557 108.374 36.3876 107.976 38.1953 109.288C38.6977 109.651 39.0195 110.155 39.3646 110.622C39.8241 111.244 40.2372 112.345 41.0793 112.956C41.9215 113.567 43.0998 113.621 43.8347 113.866C44.3872 114.05 44.9665 114.201 45.4689 114.567C47.2766 115.878 47.6754 118.401 46.3594 120.202C45.0434 122.003 42.5115 122.401 40.7039 121.089C40.2014 120.724 39.8796 120.222 39.5345 119.755C39.075 119.131 38.6619 118.032 37.8198 117.421C36.9776 116.81 35.7993 116.756 35.0644 116.51C34.5119 116.327 33.9326 116.176 33.4302 115.81C31.6225 114.497 31.2238 111.974 32.5397 110.175ZM41.4512 116.639C40.7933 117.54 40.9917 118.802 41.8965 119.457C42.7994 120.113 44.0653 119.915 44.7233 119.014C45.3813 118.114 45.1828 116.853 44.2781 116.197C43.3752 115.539 42.1092 115.739 41.4512 116.639ZM34.1758 111.361C33.5178 112.261 33.7163 113.523 34.621 114.18C35.524 114.836 36.7899 114.636 37.4479 113.736C38.1059 112.837 37.9074 111.575 37.0026 110.92C36.0997 110.262 34.8338 110.462 34.1758 111.361Z" fill="#4F5254"/>
<path d="M47.9901 120.815C48.5622 118.661 50.7776 117.376 52.9375 117.946C53.5383 118.105 54.021 118.456 54.5128 118.768C55.1672 119.183 55.9539 120.058 56.9606 120.323C57.9672 120.589 59.0847 120.213 59.8589 120.177C60.44 120.149 61.0355 120.081 61.6362 120.239C63.798 120.81 65.0871 123.017 64.5149 125.169C63.9428 127.323 61.7274 128.608 59.5675 128.038C58.9667 127.879 58.4839 127.527 57.9922 127.217C57.3378 126.803 56.5511 125.927 55.5444 125.661C54.5378 125.396 53.4203 125.77 52.6461 125.807C52.065 125.836 51.4695 125.903 50.8688 125.745C48.707 125.177 47.4179 122.969 47.9901 120.815ZM58.6467 123.621C58.3606 124.697 59.006 125.802 60.086 126.087C61.166 126.372 62.2746 125.729 62.5606 124.653C62.8467 123.577 62.203 122.472 61.1213 122.187C60.0395 121.904 58.9327 122.545 58.6467 123.621ZM49.9461 121.33C49.6601 122.406 50.3055 123.511 51.3855 123.796C52.4655 124.081 53.574 123.438 53.8601 122.361C54.1462 121.285 53.5025 120.181 52.4208 119.896C51.339 119.611 50.2322 120.254 49.9461 121.33Z" fill="#4F5254"/>
<path d="M65.8381 125.321C65.6414 123.103 67.2882 121.145 69.5143 120.949C70.1329 120.893 70.7087 121.063 71.2772 121.189C72.0354 121.357 73.0724 121.914 74.1095 121.823C75.1465 121.733 76.0691 121.002 76.7861 120.705C77.3243 120.482 77.8607 120.216 78.4794 120.161C80.7055 119.965 82.6705 121.606 82.8672 123.824C83.0639 126.042 81.4171 128 79.191 128.196C78.5724 128.252 77.9984 128.082 77.428 127.956C76.6699 127.788 75.6329 127.231 74.5958 127.322C73.5588 127.413 72.6344 128.143 71.9191 128.441C71.3809 128.663 70.8463 128.929 70.2259 128.984C67.9998 129.18 66.0348 127.539 65.8381 125.321ZM76.8183 124.355C76.9167 125.465 77.8983 126.285 79.0122 126.187C80.1262 126.089 80.9487 125.111 80.8503 124.001C80.752 122.891 79.7703 122.071 78.6564 122.169C77.5443 122.267 76.72 123.245 76.8183 124.355ZM67.855 125.143C67.9533 126.253 68.9349 127.072 70.0489 126.974C71.1628 126.876 71.9853 125.898 71.887 124.788C71.7886 123.678 70.807 122.859 69.6931 122.957C68.5791 123.055 67.7566 124.033 67.855 125.143Z" fill="#4F5254"/>
<path d="M84.3262 123.639C83.3589 121.631 84.2082 119.222 86.2233 118.256C86.7829 117.989 87.3801 117.945 87.9577 117.863C88.7265 117.754 89.8941 117.913 90.8328 117.464C91.7715 117.015 92.3777 116.008 92.9445 115.479C93.3682 115.082 93.7759 114.645 94.3373 114.376C96.3524 113.412 98.7716 114.258 99.7372 116.266C100.704 118.274 99.8552 120.685 97.8401 121.647C97.2804 121.914 96.6832 121.959 96.1057 122.041C95.3368 122.149 94.1693 121.991 93.2306 122.44C92.2918 122.889 91.6857 123.895 91.1189 124.426C90.6951 124.824 90.2857 125.26 89.726 125.529C87.7127 126.493 85.2935 125.647 84.3262 123.639ZM94.264 118.885C94.7468 119.89 95.9573 120.313 96.9639 119.831C97.9706 119.35 98.3961 118.144 97.9134 117.141C97.4306 116.136 96.2201 115.714 95.2135 116.195C94.205 116.678 93.7795 117.882 94.264 118.885ZM86.1518 122.766C86.6345 123.771 87.845 124.193 88.8517 123.712C89.8583 123.231 90.2839 122.025 89.8011 121.022C89.3184 120.017 88.1079 119.595 87.1012 120.076C86.0928 120.557 85.6672 121.761 86.1518 122.766Z" fill="#4F5254"/>
<path d="M101.085 115.44C99.5012 113.866 99.4976 111.313 101.076 109.735C101.515 109.296 102.063 109.056 102.58 108.789C103.269 108.432 104.422 108.194 105.158 107.46C105.893 106.724 106.129 105.573 106.485 104.887C106.752 104.37 106.991 103.823 107.431 103.385C109.01 101.808 111.572 101.803 113.156 103.376C114.741 104.949 114.744 107.502 113.165 109.081C112.727 109.519 112.178 109.76 111.662 110.027C110.973 110.383 109.82 110.622 109.083 111.356C108.348 112.092 108.112 113.243 107.756 113.929C107.488 114.444 107.25 114.992 106.811 115.431C105.232 117.009 102.668 117.013 101.085 115.44ZM108.867 107.661C109.659 108.447 110.939 108.445 111.729 107.656C112.518 106.866 112.516 105.591 111.724 104.803C110.932 104.017 109.652 104.019 108.861 104.808C108.073 105.598 108.075 106.875 108.867 107.661ZM102.514 114.011C103.306 114.796 104.588 114.795 105.377 114.005C106.165 113.216 106.163 111.94 105.371 111.153C104.579 110.367 103.299 110.369 102.509 111.158C101.72 111.948 101.722 113.225 102.514 114.011Z" fill="#4F5254"/>
</g>
</g>
<path d="M112.474 101.161C110.457 100.199 109.605 97.7922 110.57 95.7825C110.838 95.223 111.276 94.8168 111.675 94.3927C112.206 93.8297 113.216 93.224 113.665 92.2868C114.114 91.3496 113.953 90.1862 114.062 89.4219C114.143 88.8464 114.187 88.2513 114.454 87.6936C115.419 85.6839 117.835 84.8341 119.852 85.7962C121.869 86.7583 122.721 89.1653 121.756 91.175C121.488 91.7345 121.05 92.1407 120.653 92.5647C120.122 93.1278 119.111 93.7335 118.663 94.6707C118.214 95.6079 118.375 96.7713 118.266 97.5356C118.185 98.1111 118.141 98.7062 117.872 99.2638C116.909 101.274 114.491 102.123 112.474 101.161ZM117.232 91.2534C118.241 91.7345 119.449 91.3087 119.932 90.3038C120.415 89.2989 119.988 88.0945 118.979 87.6135C117.971 87.1324 116.762 87.5582 116.279 88.5631C115.798 89.5698 116.224 90.7724 117.232 91.2534ZM113.349 99.3422C114.357 99.8233 115.566 99.3975 116.049 98.3926C116.531 97.3877 116.104 96.1833 115.096 95.7023C114.087 95.2212 112.878 95.647 112.396 96.6519C111.915 97.6568 112.34 98.8612 113.349 99.3422Z" fill="#4F5254"/>
<path d="M120.115 84.6274C117.89 84.4064 116.267 82.4306 116.488 80.2142C116.551 79.5977 116.823 79.0668 117.053 78.534C117.361 77.8232 118.103 76.9127 118.207 75.8793C118.31 74.846 117.762 73.8073 117.602 73.05C117.483 72.4817 117.32 71.908 117.382 71.2915C117.604 69.0751 119.587 67.4574 121.811 67.6783C124.036 67.8992 125.659 69.8751 125.438 72.0933C125.375 72.7097 125.103 73.2407 124.872 73.7734C124.565 74.4825 123.823 75.3947 123.719 76.4281C123.616 77.4615 124.164 78.5002 124.324 79.2574C124.443 79.8258 124.606 80.3995 124.543 81.0159C124.322 83.2305 122.339 84.8483 120.115 84.6274ZM121.209 73.6986C122.321 73.809 123.313 73.0002 123.424 71.892C123.535 70.7838 122.723 69.7949 121.611 69.6845C120.499 69.574 119.507 70.3829 119.396 71.4911C119.285 72.5993 120.097 73.5881 121.209 73.6986ZM120.315 82.6212C121.427 82.7317 122.419 81.9228 122.53 80.8146C122.641 79.7064 121.829 78.7176 120.717 78.6071C119.605 78.4966 118.613 79.3055 118.502 80.4137C118.391 81.5219 119.203 82.5107 120.315 82.6212Z" fill="#4F5254"/>
<path d="M121.811 66.1479C119.635 66.661 117.456 65.3176 116.941 63.1493C116.798 62.5471 116.882 61.9556 116.926 61.3765C116.984 60.6051 117.39 59.5022 117.15 58.4938C116.91 57.4836 116.052 56.6782 115.655 56.0137C115.357 55.5148 115.015 55.0249 114.872 54.4226C114.357 52.2543 115.705 50.0825 117.879 49.5694C120.056 49.0562 122.235 50.3996 122.75 52.5679C122.893 53.1701 122.809 53.7616 122.764 54.3407C122.707 55.1122 122.301 56.215 122.541 57.2252C122.78 58.2354 123.639 59.0407 124.036 59.7053C124.334 60.2042 124.676 60.6941 124.819 61.2963C125.334 63.4629 123.987 65.6365 121.811 66.1479ZM119.278 55.4596C120.365 55.203 121.039 54.118 120.783 53.0329C120.526 51.9497 119.435 51.278 118.348 51.5345C117.261 51.7911 116.587 52.8761 116.844 53.9612C117.098 55.0444 118.189 55.7144 119.278 55.4596ZM121.346 64.1862C122.434 63.9297 123.108 62.8446 122.85 61.7596C122.593 60.6763 121.504 60.0046 120.415 60.2612C119.328 60.5178 118.654 61.6028 118.911 62.6878C119.169 63.7711 120.258 64.441 121.346 64.1862Z" fill="#4F5254"/>
<path d="M116.932 48.1725C115.071 49.4072 112.558 48.903 111.319 47.0501C110.976 46.5352 110.847 45.9526 110.686 45.3931C110.472 44.6502 110.466 43.476 109.891 42.6119C109.313 41.7478 108.228 41.2899 107.623 40.8053C107.169 40.4418 106.678 40.0998 106.334 39.5849C105.095 37.7301 105.599 35.2269 107.461 33.9922C109.322 32.7575 111.834 33.2599 113.073 35.1146C113.418 35.6295 113.545 36.2139 113.706 36.7716C113.921 37.5145 113.926 38.6887 114.504 39.5528C115.081 40.4169 116.167 40.8748 116.771 41.3594C117.225 41.7229 117.717 42.0649 118.06 42.5798C119.297 44.4346 118.793 46.9378 116.932 48.1725ZM110.824 39.029C111.754 38.4125 112.008 37.16 111.387 36.2335C110.767 35.307 109.512 35.0558 108.58 35.6723C107.65 36.2888 107.396 37.5413 108.017 38.4677C108.637 39.396 109.894 39.6472 110.824 39.029ZM115.811 46.4942C116.741 45.8777 116.994 44.6252 116.374 43.697C115.755 42.7705 114.498 42.5193 113.567 43.1357C112.637 43.7522 112.383 45.0047 113.004 45.9312C113.624 46.8594 114.879 47.1106 115.811 46.4942Z" fill="#4F5254"/>
<path d="M106.547 33.0123C105.249 34.826 102.721 35.2483 100.9 33.9548C100.394 33.5949 100.067 33.096 99.7168 32.631C99.2501 32.0127 98.8264 30.917 97.9788 30.3148C97.1313 29.7126 95.953 29.6698 95.2146 29.4329C94.6603 29.2547 94.0792 29.1086 93.5732 28.7505C91.7529 27.457 91.3292 24.9377 92.6273 23.124C93.9254 21.3102 96.4537 20.888 98.2739 22.1815C98.7799 22.5413 99.1071 23.0402 99.4575 23.5052C99.9242 24.1235 100.348 25.2192 101.195 25.8214C102.043 26.4236 103.221 26.4664 103.96 26.7033C104.514 26.8815 105.095 27.0276 105.601 27.3857C107.421 28.6792 107.845 31.1985 106.547 33.0123ZM97.5712 26.6356C98.2202 25.7288 98.0092 24.4691 97.0973 23.8224C96.1872 23.1756 94.9231 23.3876 94.2741 24.2945C93.625 25.2014 93.8378 26.461 94.7479 27.1078C95.6598 27.7545 96.9239 27.5425 97.5712 26.6356ZM104.9 31.8399C105.549 30.933 105.337 29.6734 104.426 29.0266C103.516 28.3799 102.252 28.5919 101.603 29.4988C100.954 30.4057 101.167 31.6653 102.077 32.3121C102.987 32.9588 104.251 32.7486 104.9 31.8399Z" fill="#4F5254"/>
<path d="M90.8697 22.4469C90.2725 24.5938 88.0428 25.8517 85.8882 25.2584C85.2892 25.0927 84.81 24.7364 84.3219 24.4192C83.6711 23.997 82.8969 23.1133 81.892 22.8353C80.8889 22.5592 79.766 22.9208 78.9918 22.9494C78.4107 22.9707 77.8135 23.0331 77.2145 22.8674C75.06 22.2723 73.7976 20.0506 74.393 17.9036C74.9884 15.7567 77.2199 14.4971 79.3745 15.0922C79.9734 15.2579 80.4526 15.616 80.9408 15.9313C81.5898 16.3536 82.3658 17.2373 83.3689 17.5152C84.372 17.7932 85.4949 17.4297 86.2691 17.4012C86.852 17.3798 87.4474 17.3175 88.0464 17.4832C90.2027 18.0765 91.4669 20.3 90.8697 22.4469ZM80.247 19.5161C80.5456 18.4435 79.9127 17.3317 78.8363 17.0342C77.7599 16.7367 76.6441 17.3674 76.3456 18.4399C76.047 19.5125 76.6781 20.6243 77.7563 20.9218C78.8345 21.2193 79.9484 20.5904 80.247 19.5161ZM88.9189 21.9089C89.2175 20.8363 88.5846 19.7245 87.5082 19.427C86.43 19.1294 85.3161 19.7584 85.0175 20.8327C84.7189 21.9071 85.35 23.0171 86.4282 23.3146C87.5064 23.6121 88.6203 22.9814 88.9189 21.9089Z" fill="#4F5254"/>
<path d="M73.1164 17.77C73.263 19.9936 71.5733 21.9124 69.3419 22.0585C68.7214 22.0995 68.151 21.9178 67.586 21.7788C66.8333 21.5935 65.8087 21.0127 64.7699 21.0822C63.7311 21.1499 62.7906 21.859 62.0682 22.1405C61.5264 22.3525 60.9829 22.6055 60.3642 22.6465C58.1328 22.7926 56.2071 21.1089 56.0604 18.8854C55.9138 16.6618 57.6035 14.743 59.835 14.5969C60.4554 14.5559 61.0258 14.7376 61.5908 14.8766C62.3435 15.0619 63.3681 15.6427 64.4069 15.575C65.4458 15.5073 66.3863 14.7982 67.1086 14.5167C67.6522 14.3064 68.194 14.0517 68.8126 14.0107C71.0423 13.8628 72.9698 15.5465 73.1164 17.77ZM62.1165 18.4898C62.0432 17.3781 61.0794 16.5371 59.9637 16.6102C58.848 16.6832 58.004 17.6435 58.0773 18.7553C58.1506 19.8671 59.1144 20.708 60.2301 20.635C61.3458 20.5601 62.1898 19.6016 62.1165 18.4898ZM71.0959 17.9019C71.0226 16.7901 70.0589 15.9492 68.9431 16.0204C67.8274 16.0935 66.9835 17.0538 67.0568 18.1656C67.1301 19.2773 68.0938 20.1183 69.2095 20.0452C70.3253 19.9722 71.1692 19.0136 71.0959 17.9019Z" fill="#4F5254"/>
<path d="M54.782 19.3611C55.71 21.3886 54.8124 23.7796 52.7794 24.7043C52.2144 24.9609 51.6154 24.9947 51.0379 25.0642C50.2673 25.1568 49.1033 24.9751 48.1556 25.4063C47.2079 25.8374 46.5821 26.8316 46.0064 27.3501C45.5737 27.7403 45.1571 28.1679 44.5921 28.4244C42.5573 29.3491 40.1578 28.4547 39.2298 26.429C38.3018 24.4014 39.1994 22.0104 41.2324 21.0857C41.7974 20.8292 42.3964 20.7971 42.9739 20.7258C43.7445 20.6332 44.9086 20.8149 45.8562 20.3837C46.8039 19.9526 47.4297 18.9584 48.0054 18.4399C48.4381 18.0515 48.8547 17.6221 49.4197 17.3656C51.4545 16.4409 53.854 17.3335 54.782 19.3611ZM44.753 23.9186C44.2899 22.9048 43.0883 22.4576 42.0728 22.9208C41.0554 23.3841 40.6066 24.5796 41.0715 25.5934C41.5346 26.6071 42.7361 27.0543 43.7517 26.5911C44.7691 26.1279 45.2161 24.9324 44.753 23.9186ZM52.9403 20.1967C52.4755 19.1829 51.2757 18.7357 50.2583 19.1989C49.2409 19.6604 48.7921 20.8577 49.257 21.8697C49.7201 22.8834 50.9217 23.3306 51.9373 22.8674C52.9564 22.4077 53.4034 21.2104 52.9403 20.1967Z" fill="#4F5254"/>
<path d="M37.8942 27.3519C39.4515 28.9483 39.4158 31.5032 37.8137 33.055C37.3685 33.4862 36.816 33.7178 36.2957 33.9779C35.6019 34.3236 34.4433 34.5445 33.6977 35.2679C32.9503 35.9912 32.6982 37.1386 32.3316 37.8192C32.0563 38.3306 31.8095 38.874 31.3625 39.3051C29.7604 40.857 27.1964 40.8213 25.639 39.225C24.0799 37.6286 24.1174 35.0737 25.7195 33.5218C26.1647 33.0906 26.7172 32.859 27.2375 32.5989C27.9313 32.2533 29.0899 32.0323 29.8355 31.309C30.5811 30.5856 30.835 29.4382 31.2016 28.7576C31.4769 28.2463 31.7237 27.7029 32.1707 27.2717C33.7728 25.7181 36.3368 25.7537 37.8942 27.3519ZM29.9911 35.0077C29.2115 34.2095 27.9313 34.1899 27.1285 34.9668C26.3274 35.7436 26.3096 37.021 27.0891 37.8192C27.8687 38.6174 29.1489 38.6352 29.95 37.8602C30.7528 37.0834 30.7707 35.8059 29.9911 35.0077ZM36.4423 28.7576C35.6627 27.9594 34.3825 27.9416 33.5797 28.7166C32.7786 29.4934 32.7607 30.7709 33.5385 31.5691C34.3181 32.3673 35.6001 32.3851 36.4012 31.6101C37.204 30.8333 37.2219 29.5558 36.4423 28.7576Z" fill="#4F5254"/>
<path d="M24.9489 40.677C26.9568 41.6587 27.7847 44.0747 26.7995 46.0755C26.5259 46.6314 26.0843 47.034 25.682 47.4545C25.1455 48.0122 24.13 48.609 23.6704 49.5409C23.2109 50.4727 23.3611 51.6379 23.2449 52.4022C23.1591 52.9759 23.109 53.571 22.8354 54.1269C21.8502 56.1277 19.4257 56.9526 17.4177 55.9727C15.4116 54.991 14.5819 52.575 15.5671 50.5742C15.8407 50.0183 16.2823 49.6157 16.6846 49.197C17.221 48.6375 18.2366 48.0425 18.6962 47.1106C19.1557 46.1788 19.0055 45.0136 19.1217 44.2493C19.2075 43.6756 19.2576 43.0805 19.5312 42.5246C20.5164 40.522 22.9427 39.6953 24.9489 40.677ZM20.0944 50.5368C19.0913 50.0469 17.8772 50.4584 17.3855 51.4597C16.8938 52.4592 17.3069 53.669 18.3117 54.159C19.3148 54.6489 20.5271 54.2374 21.0206 53.236C21.5123 52.2365 21.0975 51.0286 20.0944 50.5368ZM24.0566 42.4872C23.0536 41.9972 21.8395 42.4088 21.3478 43.4101C20.8561 44.4096 21.2709 45.6176 22.274 46.1093C23.2771 46.6011 24.4893 46.1877 24.9828 45.1864C25.4745 44.1869 25.0615 42.9772 24.0566 42.4872Z" fill="#4F5254"/>
<path d="M16.9099 57.3873C19.1414 57.5334 20.8293 59.4559 20.6809 61.6794C20.6397 62.2976 20.3858 62.8375 20.1731 63.3773C19.8906 64.0971 19.1771 65.0325 19.1092 66.0677C19.0395 67.1028 19.6224 68.1237 19.8083 68.8756C19.9478 69.4404 20.1284 70.0087 20.0872 70.6252C19.9388 72.8487 18.0113 74.5306 15.7799 74.3845C13.5484 74.2367 11.8606 72.316 12.009 70.0925C12.0501 69.4742 12.304 68.9344 12.5168 68.3945C12.7993 67.6747 13.5127 66.7394 13.5806 65.7042C13.6504 64.6691 13.0675 63.6482 12.8815 62.8963C12.742 62.3333 12.5615 61.7631 12.6026 61.1467C12.751 58.9232 14.6785 57.2395 16.9099 57.3873ZM16.1822 68.3464C15.0665 68.2734 14.1027 69.1143 14.0294 70.2243C13.9561 71.3361 14.8001 72.2964 15.9158 72.3695C17.0315 72.4425 17.9953 71.6016 18.0686 70.4898C18.1419 69.378 17.2961 68.4195 16.1822 68.3464ZM16.7758 59.3989C15.6601 59.3258 14.6964 60.1668 14.623 61.2785C14.5497 62.3903 15.3937 63.3506 16.5094 63.4237C17.6251 63.4967 18.5889 62.6558 18.6622 61.544C18.7355 60.4322 17.8916 59.4737 16.7758 59.3989Z" fill="#4F5254"/>
<path d="M15.6494 75.9275C17.8093 75.3538 20.0282 76.633 20.604 78.7853C20.7631 79.3839 20.697 79.9754 20.6701 80.5563C20.6344 81.3277 20.2607 82.443 20.5289 83.4461C20.7971 84.4492 21.6786 85.2296 22.0952 85.8817C22.4081 86.3716 22.7639 86.8527 22.923 87.4496C23.4988 89.6018 22.215 91.8129 20.0551 92.3866C17.8951 92.9603 15.6762 91.681 15.1005 89.5288C14.9395 88.9301 15.0075 88.3386 15.0343 87.7578C15.0701 86.9863 15.4438 85.871 15.1756 84.8679C14.9073 83.8648 14.0259 83.0844 13.6092 82.4324C13.2963 81.9424 12.9405 81.4613 12.7814 80.8645C12.2056 78.7122 13.4912 76.5012 15.6494 75.9275ZM18.4905 86.5409C17.4106 86.8277 16.7687 87.9324 17.0566 89.0085C17.3444 90.0847 18.453 90.7243 19.533 90.4374C20.6129 90.1506 21.2548 89.0459 20.967 87.9698C20.6791 86.8937 19.5705 86.254 18.4905 86.5409ZM16.1715 77.8766C15.0915 78.1635 14.4496 79.2681 14.7375 80.346C15.0254 81.4221 16.1339 82.0618 17.2139 81.7749C18.2939 81.4881 18.9358 80.3834 18.6479 79.3073C18.36 78.2294 17.2514 77.5898 16.1715 77.8766Z" fill="#4F5254"/>
<path d="M20.6737 93.73C22.5082 92.4561 25.0311 92.9068 26.3096 94.7348C26.6654 95.2426 26.8048 95.8234 26.9765 96.3775C27.2072 97.1151 27.2375 98.2893 27.833 99.1409C28.4284 99.9925 29.5226 100.427 30.1377 100.899C30.599 101.254 31.0979 101.585 31.4519 102.093C32.7304 103.921 32.278 106.435 30.4453 107.709C28.6107 108.983 26.0878 108.532 24.8094 106.704C24.4536 106.196 24.3141 105.616 24.1425 105.061C23.9118 104.324 23.8814 103.15 23.286 102.298C22.6906 101.446 21.5963 101.012 20.9813 100.54C20.5199 100.185 20.0211 99.8536 19.6653 99.3458C18.3886 97.5178 18.8392 95.0039 20.6737 93.73ZM26.9747 102.743C26.0575 103.38 25.8322 104.637 26.4705 105.551C27.1088 106.465 28.3712 106.69 29.2884 106.054C30.2057 105.418 30.431 104.16 29.7926 103.246C29.1525 102.332 27.892 102.106 26.9747 102.743ZM21.8306 95.3851C20.9133 96.0212 20.688 97.2791 21.3263 98.1931C21.9647 99.1071 23.227 99.3315 24.1443 98.6955C25.0615 98.0594 25.2868 96.8016 24.6485 95.8876C24.0102 94.9736 22.7478 94.7491 21.8306 95.3851Z" fill="#4F5254"/>
<path d="M31.409 108.571C32.725 106.77 35.2568 106.373 37.0645 107.684C37.5669 108.047 37.8888 108.552 38.2339 109.019C38.6934 109.64 39.1064 110.741 39.9486 111.352C40.7907 111.964 41.969 112.017 42.7039 112.263C43.2564 112.446 43.8357 112.598 44.3382 112.963C46.1459 114.274 46.5446 116.797 45.2286 118.599C43.9126 120.4 41.3808 120.797 39.5731 119.486C39.0707 119.121 38.7488 118.618 38.4037 118.151C37.9442 117.528 37.5312 116.428 36.689 115.817C35.8469 115.206 34.6685 115.153 33.9337 114.907C33.3812 114.723 32.8018 114.572 32.2994 114.207C30.4917 112.894 30.093 110.371 31.409 108.571ZM40.3205 115.035C39.6625 115.937 39.861 117.198 40.7657 117.854C41.6687 118.509 42.9346 118.312 43.5926 117.41C44.2506 116.51 44.0521 115.249 43.1473 114.593C42.2444 113.936 40.9785 114.135 40.3205 115.035ZM33.045 109.758C32.387 110.658 32.5855 111.919 33.4902 112.577C34.3932 113.232 35.6591 113.033 36.3171 112.133C36.9751 111.233 36.7766 109.972 35.8719 109.316C34.9689 108.659 33.703 108.858 33.045 109.758Z" fill="#4F5254"/>
<path d="M46.8593 119.211C47.4314 117.057 49.6468 115.773 51.8067 116.343C52.4075 116.502 52.8903 116.853 53.382 117.164C54.0364 117.579 54.8231 118.454 55.8298 118.72C56.8364 118.985 57.954 118.609 58.7282 118.574C59.3093 118.545 59.9047 118.477 60.5055 118.636C62.6672 119.206 63.9563 121.414 63.3842 123.566C62.812 125.72 60.5967 127.005 58.4367 126.434C57.8359 126.276 57.3532 125.923 56.8615 125.613C56.2071 125.2 55.4203 124.323 54.4137 124.058C53.407 123.792 52.2895 124.166 51.5153 124.204C50.9342 124.232 50.3388 124.3 49.738 124.141C47.5763 123.573 46.2871 121.366 46.8593 119.211ZM57.5159 122.018C57.2298 123.094 57.8753 124.198 58.9552 124.483C60.0352 124.769 61.1438 124.125 61.4299 123.049C61.716 121.973 61.0723 120.868 59.9905 120.583C58.9088 120.3 57.802 120.941 57.5159 122.018ZM48.8154 119.726C48.5293 120.803 49.1748 121.907 50.2547 122.192C51.3347 122.477 52.4433 121.834 52.7294 120.758C53.0154 119.682 52.3718 118.577 51.29 118.292C50.2082 118.007 49.1015 118.65 48.8154 119.726Z" fill="#4F5254"/>
<path d="M64.7073 123.717C64.5107 121.499 66.1574 119.541 68.3835 119.345C69.0022 119.29 69.5779 119.459 70.1465 119.586C70.9046 119.753 71.9417 120.311 72.9787 120.22C74.0158 120.129 74.9384 119.399 75.6554 119.101C76.1936 118.878 76.73 118.613 77.3487 118.558C79.5747 118.362 81.5398 120.003 81.7365 122.221C81.9331 124.439 80.2864 126.397 78.0603 126.593C77.4416 126.648 76.8677 126.479 76.2973 126.352C75.5392 126.185 74.5021 125.627 73.4651 125.718C72.428 125.809 71.5036 126.54 70.7884 126.837C70.2502 127.06 69.7156 127.325 69.0951 127.38C66.8691 127.576 64.904 125.936 64.7073 123.717ZM75.6876 122.752C75.7859 123.862 76.7675 124.681 77.8815 124.583C78.9954 124.485 79.8179 123.507 79.7196 122.397C79.6212 121.287 78.6396 120.468 77.5257 120.566C76.4135 120.664 75.5892 121.642 75.6876 122.752ZM66.7242 123.539C66.8226 124.649 67.8042 125.469 68.9181 125.371C70.0321 125.273 70.8546 124.295 70.7562 123.185C70.6579 122.075 69.6763 121.255 68.5623 121.353C67.4484 121.451 66.6259 122.429 66.7242 123.539Z" fill="#4F5254"/>
<path d="M83.1955 122.035C82.2281 120.027 83.0775 117.619 85.0926 116.653C85.6522 116.386 86.2494 116.341 86.8269 116.259C87.5958 116.151 88.7634 116.309 89.7021 115.86C90.6408 115.411 91.2469 114.405 91.8137 113.875C92.2375 113.478 92.6452 113.042 93.2066 112.773C95.2217 111.809 97.6409 112.655 98.6064 114.663C99.5737 116.671 98.7244 119.081 96.7093 120.044C96.1497 120.311 95.5525 120.355 94.975 120.437C94.2061 120.546 93.0385 120.387 92.0998 120.836C91.1611 121.285 90.555 122.292 89.9882 122.823C89.5644 123.22 89.1549 123.657 88.5953 123.926C86.582 124.89 84.1628 124.043 83.1955 122.035ZM93.1333 117.282C93.6161 118.287 94.8265 118.709 95.8332 118.228C96.8399 117.747 97.2654 116.541 96.7826 115.538C96.2999 114.533 95.0894 114.111 94.0827 114.592C93.0743 115.074 92.6487 116.279 93.1333 117.282ZM85.021 121.162C85.5038 122.167 86.7143 122.59 87.7209 122.108C88.7276 121.627 89.1532 120.421 88.6704 119.418C88.1876 118.413 86.9771 117.991 85.9705 118.472C84.962 118.953 84.5365 120.158 85.021 121.162Z" fill="#4F5254"/>
<path d="M99.9546 113.836C98.3704 112.263 98.3668 109.71 99.9456 108.131C100.384 107.693 100.933 107.452 101.449 107.185C102.138 106.829 103.291 106.59 104.028 105.856C104.763 105.12 104.999 103.969 105.354 103.283C105.621 102.767 105.86 102.22 106.3 101.781C107.879 100.205 110.441 100.199 112.026 101.772C113.61 103.346 113.613 105.899 112.034 107.477C111.596 107.916 111.047 108.156 110.531 108.423C109.842 108.78 108.689 109.019 107.952 109.753C107.218 110.488 106.982 111.639 106.626 112.325C106.357 112.84 106.12 113.389 105.68 113.827C104.101 115.406 101.537 115.409 99.9546 113.836ZM107.736 106.057C108.528 106.843 109.808 106.841 110.599 106.052C111.387 105.263 111.385 103.987 110.593 103.2C109.801 102.414 108.521 102.416 107.731 103.205C106.942 103.994 106.944 105.272 107.736 106.057ZM101.383 112.407C102.175 113.193 103.457 113.191 104.246 112.402C105.034 111.613 105.033 110.337 104.24 109.549C103.448 108.764 102.168 108.766 101.378 109.555C100.589 110.344 100.591 111.622 101.383 112.407Z" fill="#4F5254"/>
<g opacity="0.5">
<path d="M112.474 101.161C110.457 100.199 109.605 97.7922 110.57 95.7824C110.838 95.223 111.276 94.8168 111.675 94.3927C112.206 93.8297 113.216 93.224 113.665 92.2868C114.114 91.3496 113.953 90.1862 114.062 89.4219C114.143 88.8464 114.187 88.2513 114.454 87.6936C115.419 85.6839 117.835 84.8341 119.852 85.7962C121.869 86.7583 122.721 89.1653 121.756 91.175C121.488 91.7345 121.05 92.1407 120.653 92.5647C120.122 93.1277 119.111 93.7335 118.663 94.6707C118.214 95.6078 118.375 96.7713 118.266 97.5356C118.185 98.1111 118.141 98.7062 117.872 99.2638C116.909 101.274 114.491 102.123 112.474 101.161ZM117.232 91.2534C118.241 91.7345 119.449 91.3087 119.932 90.3038C120.415 89.2989 119.988 88.0945 118.979 87.6135C117.971 87.1324 116.762 87.5582 116.279 88.5631C115.798 89.5697 116.224 90.7724 117.232 91.2534ZM113.349 99.3422C114.357 99.8233 115.566 99.3975 116.049 98.3926C116.531 97.3877 116.104 96.1833 115.096 95.7023C114.087 95.2212 112.878 95.647 112.396 96.6519C111.915 97.6568 112.34 98.8612 113.349 99.3422Z" fill="#4F5254"/>
<path d="M120.115 84.6274C117.89 84.4065 116.267 82.4306 116.488 80.2142C116.551 79.5977 116.823 79.0668 117.053 78.534C117.361 77.8232 118.103 76.9127 118.207 75.8794C118.31 74.846 117.762 73.8073 117.602 73.0501C117.483 72.4817 117.32 71.908 117.382 71.2915C117.604 69.0751 119.587 67.4574 121.811 67.6783C124.036 67.8992 125.659 69.8751 125.438 72.0933C125.375 72.7098 125.103 73.2407 124.872 73.7734C124.565 74.4825 123.823 75.3947 123.719 76.4281C123.616 77.4615 124.164 78.5002 124.324 79.2574C124.443 79.8258 124.606 80.3995 124.543 81.0159C124.322 83.2305 122.339 84.8483 120.115 84.6274ZM121.209 73.6986C122.321 73.8091 123.313 73.0002 123.424 71.892C123.535 70.7838 122.723 69.7949 121.611 69.6845C120.499 69.574 119.507 70.3829 119.396 71.4911C119.285 72.5993 120.097 73.5881 121.209 73.6986ZM120.315 82.6212C121.427 82.7317 122.419 81.9228 122.53 80.8146C122.641 79.7064 121.829 78.7176 120.717 78.6071C119.605 78.4966 118.613 79.3055 118.502 80.4137C118.391 81.5219 119.203 82.5107 120.315 82.6212Z" fill="#4F5254"/>
<path d="M121.811 66.1478C119.635 66.661 117.456 65.3176 116.941 63.1493C116.798 62.5471 116.882 61.9556 116.926 61.3765C116.984 60.6051 117.39 59.5022 117.15 58.4938C116.91 57.4836 116.052 56.6782 115.655 56.0137C115.357 55.5148 115.015 55.0248 114.872 54.4226C114.357 52.2543 115.705 50.0825 117.879 49.5694C120.056 49.0562 122.235 50.3996 122.75 52.5679C122.893 53.1701 122.809 53.7616 122.764 54.3407C122.707 55.1121 122.301 56.215 122.541 57.2252C122.78 58.2354 123.639 59.0407 124.036 59.7053C124.334 60.2042 124.676 60.6941 124.819 61.2963C125.334 63.4629 123.987 65.6365 121.811 66.1478ZM119.278 55.4596C120.365 55.203 121.039 54.118 120.783 53.0329C120.526 51.9497 119.435 51.278 118.348 51.5345C117.261 51.7911 116.587 52.8761 116.844 53.9612C117.098 55.0444 118.189 55.7144 119.278 55.4596ZM121.346 64.1862C122.434 63.9297 123.108 62.8446 122.85 61.7596C122.593 60.6763 121.504 60.0046 120.415 60.2612C119.328 60.5178 118.654 61.6028 118.911 62.6878C119.169 63.7711 120.258 64.441 121.346 64.1862Z" fill="#4F5254"/>
<path d="M116.932 48.1725C115.071 49.4072 112.558 48.903 111.319 47.0501C110.976 46.5352 110.847 45.9526 110.686 45.3931C110.472 44.6502 110.466 43.476 109.891 42.6119C109.313 41.7478 108.228 41.2899 107.623 40.8053C107.169 40.4418 106.678 40.0998 106.334 39.5849C105.095 37.7301 105.599 35.2269 107.461 33.9922C109.322 32.7575 111.834 33.2599 113.073 35.1146C113.418 35.6295 113.545 36.2139 113.706 36.7716C113.921 37.5145 113.926 38.6887 114.504 39.5528C115.081 40.4169 116.167 40.8748 116.771 41.3594C117.225 41.7229 117.717 42.0649 118.06 42.5798C119.297 44.4346 118.793 46.9378 116.932 48.1725ZM110.824 39.029C111.754 38.4125 112.008 37.16 111.387 36.2335C110.767 35.307 109.512 35.0558 108.58 35.6723C107.65 36.2888 107.396 37.5413 108.017 38.4677C108.637 39.396 109.894 39.6472 110.824 39.029ZM115.811 46.4942C116.741 45.8777 116.994 44.6252 116.374 43.697C115.755 42.7705 114.498 42.5193 113.567 43.1357C112.637 43.7522 112.383 45.0047 113.004 45.9312C113.624 46.8594 114.879 47.1106 115.811 46.4942Z" fill="#4F5254"/>
<path d="M31.409 108.571C32.725 106.77 35.2568 106.373 37.0645 107.684C37.5669 108.048 37.8888 108.552 38.2339 109.019C38.6934 109.64 39.1064 110.741 39.9486 111.353C40.7907 111.964 41.969 112.017 42.7039 112.263C43.2564 112.446 43.8357 112.598 44.3382 112.963C46.1459 114.274 46.5446 116.797 45.2286 118.599C43.9126 120.4 41.3808 120.797 39.5731 119.486C39.0707 119.121 38.7488 118.618 38.4037 118.151C37.9442 117.528 37.5312 116.428 36.689 115.817C35.8469 115.206 34.6685 115.153 33.9337 114.907C33.3812 114.723 32.8018 114.572 32.2994 114.207C30.4917 112.894 30.093 110.371 31.409 108.571ZM40.3205 115.035C39.6625 115.937 39.861 117.198 40.7657 117.854C41.6687 118.51 42.9346 118.312 43.5926 117.41C44.2506 116.51 44.0521 115.249 43.1473 114.593C42.2444 113.936 40.9785 114.135 40.3205 115.035ZM33.045 109.758C32.387 110.658 32.5855 111.919 33.4902 112.577C34.3932 113.232 35.6591 113.033 36.3171 112.133C36.9751 111.233 36.7766 109.972 35.8719 109.316C34.9689 108.659 33.703 108.858 33.045 109.758Z" fill="#4F5254"/>
<path d="M46.8593 119.211C47.4314 117.057 49.6468 115.773 51.8067 116.343C52.4075 116.502 52.8903 116.853 53.382 117.164C54.0364 117.579 54.8231 118.454 55.8298 118.72C56.8364 118.985 57.954 118.609 58.7282 118.574C59.3093 118.545 59.9047 118.477 60.5055 118.636C62.6672 119.206 63.9563 121.414 63.3842 123.566C62.812 125.72 60.5967 127.005 58.4367 126.434C57.8359 126.276 57.3532 125.923 56.8615 125.613C56.2071 125.2 55.4203 124.323 54.4137 124.058C53.407 123.792 52.2895 124.166 51.5153 124.204C50.9342 124.232 50.3388 124.3 49.738 124.141C47.5763 123.573 46.2871 121.366 46.8593 119.211ZM57.5159 122.018C57.2298 123.094 57.8753 124.198 58.9552 124.483C60.0352 124.769 61.1438 124.125 61.4299 123.049C61.716 121.973 61.0723 120.868 59.9905 120.583C58.9088 120.3 57.802 120.941 57.5159 122.018ZM48.8154 119.726C48.5293 120.803 49.1748 121.907 50.2547 122.192C51.3347 122.477 52.4433 121.834 52.7294 120.758C53.0154 119.682 52.3718 118.577 51.29 118.292C50.2082 118.007 49.1015 118.65 48.8154 119.726Z" fill="#4F5254"/>
<path d="M64.7073 123.717C64.5107 121.499 66.1574 119.541 68.3835 119.345C69.0022 119.29 69.5779 119.459 70.1465 119.586C70.9046 119.753 71.9417 120.311 72.9787 120.22C74.0158 120.129 74.9384 119.399 75.6554 119.101C76.1936 118.878 76.73 118.613 77.3487 118.558C79.5747 118.362 81.5398 120.003 81.7365 122.221C81.9331 124.439 80.2864 126.397 78.0603 126.593C77.4416 126.648 76.8677 126.479 76.2973 126.352C75.5392 126.185 74.5021 125.627 73.4651 125.718C72.428 125.809 71.5036 126.54 70.7884 126.837C70.2502 127.06 69.7156 127.325 69.0951 127.38C66.8691 127.576 64.904 125.936 64.7073 123.717ZM75.6876 122.752C75.7859 123.862 76.7675 124.681 77.8815 124.583C78.9954 124.485 79.8179 123.507 79.7196 122.397C79.6212 121.287 78.6396 120.468 77.5257 120.566C76.4135 120.664 75.5892 121.642 75.6876 122.752ZM66.7242 123.539C66.8226 124.649 67.8042 125.469 68.9181 125.371C70.0321 125.273 70.8546 124.295 70.7562 123.185C70.6579 122.075 69.6763 121.255 68.5623 121.353C67.4484 121.451 66.6259 122.429 66.7242 123.539Z" fill="#4F5254"/>
<path d="M83.1955 122.035C82.2281 120.027 83.0775 117.619 85.0926 116.653C85.6522 116.386 86.2494 116.341 86.8269 116.259C87.5958 116.151 88.7634 116.309 89.7021 115.86C90.6408 115.411 91.2469 114.405 91.8137 113.875C92.2375 113.478 92.6452 113.042 93.2066 112.773C95.2217 111.809 97.6409 112.655 98.6064 114.663C99.5737 116.671 98.7244 119.081 96.7093 120.044C96.1497 120.311 95.5525 120.355 94.975 120.437C94.2061 120.546 93.0385 120.387 92.0998 120.836C91.1611 121.285 90.555 122.292 89.9882 122.823C89.5644 123.22 89.1549 123.657 88.5953 123.926C86.582 124.89 84.1628 124.043 83.1955 122.035ZM93.1333 117.282C93.6161 118.287 94.8265 118.709 95.8332 118.228C96.8399 117.747 97.2654 116.541 96.7826 115.538C96.2999 114.533 95.0894 114.111 94.0827 114.592C93.0743 115.074 92.6487 116.279 93.1333 117.282ZM85.021 121.162C85.5038 122.167 86.7143 122.59 87.7209 122.108C88.7276 121.627 89.1532 120.421 88.6704 119.418C88.1876 118.413 86.9771 117.991 85.9705 118.472C84.962 118.953 84.5365 120.158 85.021 121.162Z" fill="#4F5254"/>
<path d="M99.9546 113.836C98.3704 112.263 98.3668 109.71 99.9456 108.131C100.384 107.693 100.933 107.452 101.449 107.185C102.138 106.829 103.291 106.59 104.028 105.856C104.763 105.12 104.999 103.969 105.354 103.283C105.621 102.767 105.86 102.22 106.3 101.781C107.879 100.205 110.441 100.199 112.026 101.772C113.61 103.346 113.613 105.899 112.034 107.477C111.596 107.916 111.047 108.156 110.531 108.423C109.842 108.78 108.689 109.019 107.952 109.753C107.218 110.488 106.982 111.639 106.626 112.325C106.357 112.84 106.12 113.389 105.68 113.827C104.101 115.406 101.537 115.409 99.9546 113.836ZM107.736 106.057C108.528 106.843 109.808 106.841 110.599 106.052C111.387 105.263 111.385 103.987 110.593 103.2C109.801 102.414 108.521 102.416 107.731 103.205C106.942 103.994 106.944 105.272 107.736 106.057ZM101.383 112.407C102.175 113.193 103.457 113.191 104.246 112.402C105.034 111.613 105.033 110.337 104.24 109.549C103.448 108.764 102.168 108.766 101.378 109.555C100.589 110.344 100.591 111.622 101.383 112.407Z" fill="#4F5254"/>
</g>
</g>
<g clip-path="url(#clip1_511_2757)">
<g opacity="0.5">
<path d="M79.6107 72C79.4626 80.7003 66.5619 80.6987 66.4154 72C66.5635 63.3013 79.4642 63.3013 79.6107 72Z" fill="#4F5254"/>
<path d="M114.901 74.8868C115.033 72.9825 115.033 71.0191 114.901 69.1148L111.039 67.5891C110.958 66.8798 110.857 66.1737 110.736 65.4755L114.019 62.9226C113.605 61.0311 113.065 59.1875 112.407 57.4014L108.255 57.0292C107.978 56.3774 107.683 55.7352 107.371 55.1041L109.811 51.7061C108.884 50.0175 107.846 48.3992 106.704 46.8623L102.595 47.6851C102.15 47.1435 101.693 46.6179 101.222 46.1035L102.617 42.1367C101.257 40.7804 99.8059 39.5199 98.2737 38.3601L94.5421 40.3123C93.9703 39.9225 93.389 39.5487 92.7965 39.1892L93.0258 34.9668C91.3519 34.0546 89.6096 33.2558 87.8066 32.5769L84.763 35.5228C84.1132 35.3135 83.457 35.1218 82.7929 34.9477L81.8166 30.8148C79.9627 30.417 78.0658 30.1422 76.1307 30L74.0284 33.7064C73.3547 33.6888 72.6714 33.6904 71.9993 33.7111L69.8954 30C67.9603 30.1422 66.0618 30.417 64.2095 30.8148L63.2237 34.9796C62.5739 35.1537 61.9288 35.3439 61.2917 35.5515L58.2163 32.5769C56.415 33.2574 54.671 34.0546 52.9971 34.9668L53.2312 39.2547C52.6594 39.603 52.0988 39.9688 51.5477 40.3458L47.7508 38.3569C46.2186 39.5167 44.7677 40.7772 43.4108 42.1335L44.8362 46.1881C44.3887 46.6818 43.9523 47.1866 43.5286 47.7026L39.3239 46.8607C38.182 48.3976 37.142 50.0159 36.215 51.7045L38.7219 55.1968C38.4305 55.7959 38.1517 56.4014 37.8905 57.018L33.6174 57.4014C32.9596 59.1891 32.4197 61.0311 32.0056 62.9226L35.39 65.5554C35.2785 66.212 35.1846 66.8734 35.1065 67.5412L31.1233 69.1148C30.9911 71.0191 30.9911 72.9825 31.1233 74.8868L35.0986 76.4572C35.1766 77.1298 35.2706 77.7944 35.3805 78.4542L32.0056 81.079C32.4197 82.9705 32.9596 84.8141 33.6174 86.6002L37.8587 86.9788C38.1231 87.6066 38.405 88.2249 38.7012 88.832L36.2166 92.2955C37.1452 93.9841 38.182 95.6024 39.3239 97.1393L43.4808 96.307C43.914 96.8358 44.36 97.3566 44.8203 97.8614L43.4108 101.866C44.7709 103.223 46.2218 104.483 47.754 105.643L51.4936 103.683C52.0622 104.074 52.6419 104.453 53.2312 104.812L53.0019 109.032C54.6758 109.944 56.4182 110.743 58.2211 111.422L61.2408 108.5C61.9033 108.717 62.5707 108.915 63.246 109.095L64.2143 113.185C66.0682 113.583 67.9651 113.858 69.9002 114L71.9643 110.359C72.6651 110.382 73.3722 110.383 74.073 110.364L76.1339 114C78.069 113.858 79.9675 113.583 81.8198 113.185L82.7802 109.127C83.4682 108.947 84.1499 108.746 84.822 108.528L87.813 111.423C89.6143 110.743 91.3583 109.945 93.0322 109.033L92.8061 104.88C93.4176 104.51 94.0181 104.124 94.6058 103.72L98.2785 105.643C99.8107 104.483 101.262 103.223 102.619 101.866L101.242 97.9525C101.725 97.4253 102.195 96.8837 102.649 96.3277L106.705 97.1393C107.847 95.6024 108.887 93.9841 109.814 92.2955L107.395 88.9278C107.71 88.284 108.011 87.6322 108.29 86.9692L112.41 86.6002C113.068 84.8125 113.608 82.9705 114.022 81.079L110.749 78.534C110.867 77.8327 110.967 77.1234 111.049 76.4109L114.901 74.8868ZM73.0123 99.4765C37.0066 98.8599 37.0114 45.1353 73.0139 44.5235C109.02 45.1417 109.013 98.8647 73.0123 99.4765Z" fill="#4F5254"/>
<path d="M73.0122 38.3073C28.8584 39.0646 28.8664 104.942 73.0138 105.693C117.166 104.935 117.16 39.0582 73.0122 38.3073ZM73.0122 103.287C32.012 102.585 32.0183 41.4098 73.0138 40.7133C114.014 41.4146 114.008 102.592 73.0122 103.287Z" fill="#4F5254"/>
<path d="M102.904 70.8593H75.8408L95.0374 51.6055L93.4288 49.9935L74.1494 69.3321V42.0169H71.8767V69.1627L52.7645 49.9935L51.1575 51.6055L70.3525 70.8593H43.1209V73.1407H70.3525L51.1575 92.3945L52.7645 94.0081L71.8767 74.8373V101.983H74.1494V74.6679L93.4288 94.0081L95.0374 92.3945L75.8408 73.1407H102.904V70.8593Z" fill="#4F5254"/>
<path d="M85.4733 58.4015C74.4871 47.5557 54.0578 56.28 54.6009 72C54.6009 82.1989 62.8446 90.4679 73.0138 90.4679C89.6159 90.7011 97.737 69.3305 85.4733 58.4015ZM73.0122 84.3588C56.8163 84.0808 56.8195 59.9176 73.0122 59.6428C89.2082 59.9192 89.205 84.084 73.0122 84.3588Z" fill="#4F5254"/>
<path d="M76.2119 72C76.1403 76.2176 69.8842 76.2176 69.8141 72C69.8858 67.7824 76.1403 67.7824 76.2119 72Z" fill="#4F5254"/>
</g>
<path d="M76.5846 72C76.4365 80.7003 63.5358 80.6987 63.3893 72C63.5374 63.3013 76.4381 63.3013 76.5846 72Z" fill="#C6C6C6"/>
<path d="M111.875 74.8868C112.007 72.9825 112.007 71.0191 111.875 69.1148L108.013 67.5891C107.932 66.8798 107.831 66.1737 107.71 65.4755L110.993 62.9226C110.579 61.0311 110.039 59.1875 109.381 57.4014L105.229 57.0292C104.952 56.3774 104.657 55.7352 104.345 55.1041L106.785 51.7061C105.856 50.0175 104.82 48.3992 103.678 46.8623L99.5686 47.6851C99.1242 47.1435 98.6671 46.6179 98.1957 46.1035L99.5909 42.1367C98.2307 40.7804 96.7798 39.5199 95.2476 38.3601L91.516 40.3123C90.9442 39.9225 90.3629 39.5487 89.7704 39.1892L89.9998 34.9668C88.3259 34.0546 86.5835 33.2558 84.7806 32.5769L81.7369 35.5228C81.0871 35.3135 80.4309 35.1218 79.7668 34.9477L78.7905 30.8148C76.9366 30.417 75.0397 30.1422 73.1046 30L71.0023 33.7064C70.3286 33.6888 69.6453 33.6904 68.9732 33.7111L66.8693 30C64.9342 30.1422 63.0357 30.417 61.1834 30.8148L60.1976 34.9796C59.5478 35.1537 58.9027 35.3439 58.2657 35.5515L55.1902 32.5769C53.3889 33.2574 51.6449 34.0546 49.971 34.9668L50.2051 39.2547C49.6333 39.603 49.0727 39.9688 48.5217 40.3458L44.7247 38.3569C43.1926 39.5167 41.7416 40.7772 40.3847 42.1335L41.8101 46.1881C41.3626 46.6818 40.9262 47.1866 40.5025 47.7026L36.2979 46.8607C35.1559 48.3976 34.1159 50.0159 33.189 51.7045L35.6958 55.1968C35.4044 55.7959 35.1256 56.4014 34.8644 57.018L30.5913 57.4014C29.9335 59.1891 29.3936 61.0311 28.9795 62.9226L32.3639 65.5554C32.2525 66.212 32.1585 66.8734 32.0804 67.5412L28.0972 69.1148C27.965 71.0191 27.965 72.9825 28.0972 74.8868L32.0725 76.4572C32.1505 77.1298 32.2445 77.7944 32.3544 78.4542L28.9811 81.079C29.3952 82.9705 29.9351 84.8141 30.5929 86.6002L34.8342 86.9788C35.0986 87.6066 35.3805 88.2249 35.6767 88.832L33.1921 92.2955C34.1207 93.9841 35.1575 95.6024 36.2994 97.1393L40.4563 96.307C40.8895 96.8358 41.3355 97.3566 41.7958 97.8614L40.3863 101.866C41.7464 103.223 43.1973 104.483 44.7295 105.643L48.4691 103.683C49.0377 104.074 49.6174 104.453 50.2067 104.812L49.9774 109.032C51.6513 109.944 53.3937 110.743 55.1966 111.422L58.2163 108.5C58.8788 108.717 59.5462 108.915 60.2215 109.095L61.1898 113.185C63.0437 113.583 64.9406 113.858 66.8757 114L68.9398 110.359C69.6406 110.382 70.3477 110.383 71.0485 110.364L73.1094 114C75.0445 113.858 76.943 113.583 78.7953 113.185L79.7557 109.127C80.4437 108.947 81.1254 108.746 81.7975 108.528L84.7885 111.423C86.5898 110.743 88.3338 109.945 90.0077 109.033L89.7816 104.88C90.3931 104.51 90.9936 104.124 91.5813 103.72L95.254 105.643C96.7862 104.483 98.2371 103.223 99.594 101.866L98.218 97.9525C98.7006 97.4253 99.1704 96.8837 99.6243 96.3277L103.681 97.1393C104.823 95.6024 105.863 93.9841 106.79 92.2955L104.37 88.9278C104.686 88.284 104.987 87.6322 105.266 86.9692L109.386 86.6002C110.044 84.8125 110.584 82.9705 110.998 81.079L107.725 78.534C107.843 77.8327 107.943 77.1234 108.024 76.4109L111.875 74.8868ZM69.9862 99.4765C33.9805 98.8599 33.9853 45.1353 69.9878 44.5235C105.993 45.1417 105.987 98.8647 69.9862 99.4765Z" fill="#C6C6C6"/>
<path d="M69.9862 38.3073C25.8324 39.0646 25.8403 104.942 69.9877 105.693C114.14 104.935 114.134 39.0582 69.9862 38.3073ZM69.9862 103.287C28.9859 102.585 28.9922 41.4098 69.9877 40.7133C110.988 41.4146 110.982 102.592 69.9862 103.287Z" fill="#575757"/>
<path d="M99.8775 70.8593H72.8148L92.0113 51.6055L90.4027 49.9935L71.1233 69.3321V42.0169H68.8506V69.1627L49.7384 49.9935L48.1314 51.6055L67.3264 70.8593H40.0948V73.1407H67.3264L48.1314 92.3945L49.7384 94.0081L68.8506 74.8373V101.983H71.1233V74.6679L90.4027 94.0081L92.0113 92.3945L72.8148 73.1407H99.8775V70.8593Z" fill="#C6C6C6"/>
<path d="M82.4473 58.4015C71.461 47.5557 51.0317 56.28 51.5748 72C51.5748 82.1989 59.8185 90.4679 69.9878 90.4679C86.5898 90.7011 94.7109 69.3305 82.4473 58.4015ZM69.9862 84.3588C53.7902 84.0808 53.7934 59.9176 69.9862 59.6428C86.1821 59.9192 86.1789 84.084 69.9862 84.3588Z" fill="#575757"/>
<path d="M73.1859 72C73.1142 76.2176 66.8598 76.2176 66.7881 72C66.8598 67.7824 73.1142 67.7824 73.1859 72Z" fill="#575757"/>
</g>
<defs>
<clipPath id="clip0_511_2757">
<rect width="119" height="115" fill="white" transform="translate(12 14)"/>
</clipPath>
<clipPath id="clip1_511_2757">
<rect width="87" height="84" fill="white" transform="translate(28 30)"/>
</clipPath>
</defs>
</svg>
