<svg width="143" height="143" viewBox="0 0 143 143" fill="none" xmlns="http://www.w3.org/2000/svg">
<circle cx="71.5" cy="71.5" r="71.5" fill="#D9D9D9"/>
<g clip-path="url(#clip0_511_2782)">
<g opacity="0.5">
<path d="M104.645 42.4626C87.666 23.047 58.1658 21.0702 38.7528 38.0513C7.91805 63.202 25.4576 116.779 64.4825 119.636C105.732 124.796 132.783 73.7427 104.645 42.4626ZM71.4719 37.1724L71.3074 40.2163C68.2096 40.0499 65.0829 40.3139 62.0882 40.9994L61.4083 38.0278C64.6796 37.2791 68.0921 36.9897 71.4719 37.1724ZM36.9951 88.9008C35.5212 85.8514 34.4868 82.6122 33.9208 79.2735L36.9245 78.7634C37.4417 81.8182 38.3875 84.7825 39.7384 87.5714L36.9951 88.9008ZM39.704 58.9084L36.9571 57.5881C38.4219 54.5424 40.3098 51.7137 42.5667 49.1834L44.8398 51.2145C42.7729 53.5295 41.0459 56.1195 39.704 58.9084ZM61.4896 108.401C58.1893 107.654 55.012 106.443 52.0463 104.8L53.5219 102.133C56.2363 103.636 59.1442 104.742 62.1624 105.428L61.4896 108.401ZM79.7887 84.9778C63.8803 98.1736 44.0351 75.3668 59.2002 61.4314C75.0399 48.2556 94.9846 70.9701 79.7887 84.9778ZM83.3042 106.555L82.136 103.739C84.9932 102.554 87.6714 100.971 90.0983 99.0308L92.0007 101.413C89.3514 103.531 86.4255 105.26 83.3042 106.555ZM96.4096 54.0468C94.6102 51.5238 92.4673 49.2648 90.0404 47.3332L91.9374 44.9476C94.5867 47.0547 96.9268 49.5216 98.8907 52.2762L96.4096 54.0468ZM104.171 83.209L101.242 82.3662C102.102 79.3784 102.535 76.2675 102.527 73.1278H105.576C105.582 76.5641 105.108 79.9517 104.171 83.209Z" fill="#4F5254"/>
<path d="M69.4935 50.8492C40.1091 51.352 40.1145 95.0645 69.4953 95.5619C98.878 95.0609 98.8726 51.3465 69.4935 50.8492ZM79.7634 85.0122C63.855 98.2079 44.0098 75.4012 59.1749 61.4658C75.0163 48.2881 94.961 71.0026 79.7634 85.0122Z" fill="#4F5254"/>
<path d="M119.121 74.4571C120.788 45.2623 92.2738 19.7589 64.0829 23.7813L64.7249 61.5345C75.4703 57.0383 86.3224 69.326 80.3276 79.4796L117.674 85.1497C118.535 81.6717 119.031 78.0888 119.121 74.4571Z" fill="#4F5254"/>
<path d="M76.7144 38.0966C91.9953 41.6469 104.13 55.7487 105.327 71.4078L114.544 71.9739C114.338 51.0553 97.7785 31.9726 77.1484 28.7514L76.7144 38.0966Z" fill="#4F5254"/>
<path d="M86.1831 51.0915C86.0927 56.4342 78.1449 56.4342 78.0544 51.0915C78.1449 45.7488 86.0927 45.7488 86.1831 51.0915Z" fill="#4F5254"/>
<path d="M95.5813 65.8263C95.4909 71.169 87.5431 71.169 87.4526 65.8263C87.5449 60.4837 95.4909 60.4837 95.5813 65.8263Z" fill="#4F5254"/>
</g>
<path d="M106.453 42.1009C89.4744 22.6853 59.9742 20.7085 40.5612 37.6896C9.72646 62.8403 27.266 116.417 66.2909 119.275C107.54 124.435 134.592 73.381 106.453 42.1009ZM73.2803 36.8106L73.1158 39.8545C70.018 39.6882 66.8913 39.9522 63.8966 40.6377L63.2167 37.6661C66.488 36.9173 69.9005 36.628 73.2803 36.8106ZM38.8035 88.539C37.3296 85.4897 36.2953 82.2505 35.7292 78.9117L38.733 78.4017C39.2502 81.4565 40.1959 84.4208 41.5468 87.2097L38.8035 88.539ZM41.5124 58.5466L38.7655 57.2264C40.2303 54.1806 42.1182 51.352 44.3751 48.8217L46.6483 50.8528C44.5813 53.1678 42.8543 55.7578 41.5124 58.5466ZM63.2981 108.04C59.9978 107.293 56.8204 106.081 53.8547 104.439L55.3303 101.771C58.0447 103.274 60.9526 104.381 63.9708 105.066L63.2981 108.04ZM81.5971 84.6161C65.6887 97.8118 45.8435 75.0051 61.0086 61.0697C76.8483 47.8939 96.793 70.6084 81.5971 84.6161ZM85.1126 106.193L83.9444 103.377C86.8016 102.192 89.4799 100.61 91.9067 98.6691L93.8091 101.051C91.1598 103.169 88.2339 104.898 85.1126 106.193ZM98.218 53.6851C96.4186 51.162 94.2757 48.9031 91.8488 46.9715L93.7458 44.5859C96.3951 46.6929 98.7352 49.1599 100.699 51.9144L98.218 53.6851ZM105.98 82.8473L103.05 82.0045C103.911 79.0166 104.343 75.9058 104.336 72.766H107.385C107.39 76.2024 106.916 79.59 105.98 82.8473Z" fill="#E6E6E6"/>
<path d="M71.3019 50.4874C41.9175 50.9902 41.9229 94.7028 71.3038 95.2002C100.686 94.6992 100.681 50.9848 71.3019 50.4874ZM81.5718 84.6505C65.6634 97.8462 45.8182 75.0395 60.9833 61.104C76.8248 47.9264 96.7694 70.6409 81.5718 84.6505Z" fill="#C6C6C6"/>
<path d="M120.93 74.0954C122.597 44.9006 94.0822 19.3972 65.8913 23.4196L66.5333 61.1728C77.2787 56.6765 88.1308 68.9643 82.136 79.1179L119.483 84.7879C120.344 81.31 120.839 77.7271 120.93 74.0954Z" fill="#FFB846"/>
<path d="M78.5228 37.7348C93.8037 41.2852 105.938 55.387 107.135 71.046L116.352 71.6121C116.146 50.6936 99.5869 31.6108 78.9568 28.3897L78.5228 37.7348Z" fill="#F6E362"/>
<path d="M87.9915 50.7298C87.9011 56.0725 79.9533 56.0725 79.8629 50.7298C79.9533 45.3871 87.9011 45.3871 87.9915 50.7298Z" fill="#F6E362"/>
<path d="M97.3897 65.4646C97.2993 70.8073 89.3515 70.8073 89.261 65.4646C89.3533 60.122 97.2993 60.122 97.3897 65.4646Z" fill="#F6E362"/>
</g>
<defs>
<clipPath id="clip0_511_2782">
<rect width="98" height="97" fill="white" transform="translate(23 23)"/>
</clipPath>
</defs>
</svg>
