<svg width="143" height="143" viewBox="0 0 143 143" fill="none" xmlns="http://www.w3.org/2000/svg">
<circle cx="71.5" cy="71.5" r="71.5" fill="#D9D9D9"/>
<path d="M56.5999 121.989C28.9895 122.702 10.944 89.8204 26.1596 66.9079C32.4374 53.4429 85.242 32.1435 97.1579 24.282L97.194 24.3218C109.88 18.4817 125.29 28.5 124.996 42.5051C124.996 47.0229 123.435 51.445 120.597 54.9585L86.4781 106.058L86.4727 106.055C79.7684 116.049 68.6711 121.989 56.5999 121.989ZM96.8868 26.2149L41.2307 55.3089C-9.55183 85.7632 51.9448 151.992 86.1293 103.654L86.1564 103.677C86.1691 103.677 119.32 53.9884 119.34 53.9884C121.964 50.7514 123.409 46.6743 123.409 42.5051C123.711 29.1901 108.6 19.9774 96.8868 26.2149Z" fill="#949697"/>
<path d="M52.9858 120.363C25.3755 121.077 7.33002 88.1947 22.5456 65.2822C28.8234 51.8172 81.628 30.5178 93.5439 22.6563L93.58 22.6961C106.266 16.856 121.676 26.8743 121.382 40.8794C121.382 45.3972 119.821 49.8193 116.983 53.3328L82.8641 104.433L82.8586 104.429C76.1544 114.424 65.0571 120.363 52.9858 120.363ZM93.2728 24.5892L37.6166 53.6832C-13.1658 84.1375 48.3308 150.366 82.5153 102.028L82.5424 102.052C82.5551 102.052 115.706 52.3627 115.726 52.3627C118.35 49.1257 119.795 45.0486 119.795 40.8794C120.097 27.5644 104.986 18.3517 93.2728 24.5892Z" fill="#FFB846"/>
</svg>
