<svg width="143" height="143" viewBox="0 0 143 143" fill="none" xmlns="http://www.w3.org/2000/svg">
<circle cx="71.5" cy="71.5" r="71.5" fill="#D9D9D9"/>
<g clip-path="url(#clip0_511_2785)">
<g opacity="0.5">
<path d="M118.918 39.5088H25.6351V108.212H118.918V39.5088Z" fill="#4F5254"/>
<path d="M122 39.443H22.5545V48.9783H122V39.443Z" fill="#4F5254"/>
<path d="M122 98.7767H22.5545V108.312H122V98.7767Z" fill="#4F5254"/>
<path d="M97.3502 36.4772H47.2026V39.4447H97.3502V36.4772Z" fill="#4F5254"/>
<path d="M42.1298 39.443H30.4438V34.666C30.4438 33.7934 31.1531 33.0861 32.0282 33.0861C42.2347 33.5841 42.3735 30.6622 42.1298 39.443Z" fill="#4F5254"/>
<path d="M115.014 39.443H103.327V34.666C103.327 33.7934 104.036 33.0861 104.911 33.0861C115.119 33.5841 115.258 30.6622 115.014 39.443Z" fill="#4F5254"/>
<path d="M118.838 48.9783H25.5555V53.4278H118.838V48.9783Z" fill="#4F5254"/>
<path d="M112.889 57.1683H105.341V58.5879H112.889V57.1683Z" fill="#4F5254"/>
<path d="M40.1156 57.1683H37.0536V54.1148H35.6301V57.1683H32.5681V58.5896H35.6301V61.6431H37.0536V58.5896H40.1156V57.1683Z" fill="#4F5254"/>
<path d="M97.3773 61.6938H47.2297V89.4524H97.3773V61.6938Z" fill="#4F5254"/>
<path d="M76.194 66.5771L71.8896 73.729H77.8663L68.5416 84.5792L71.1719 77.9016H66.6289L68.6618 66.5771H76.194Z" fill="#4F5254"/>
</g>
<path d="M115.363 41.1968H22.0806V109.9H115.363V41.1968Z" fill="#C6C6C6"/>
<path d="M118.445 41.131H19V50.6663H118.445V41.131Z" fill="#575757"/>
<path d="M118.445 100.465H19V110H118.445V100.465Z" fill="#575757"/>
<path d="M93.7957 38.1652H43.6481V41.1326H93.7957V38.1652Z" fill="#C6C6C6"/>
<path d="M38.5753 41.131H26.8893V36.354C26.8893 35.4813 27.5986 34.7741 28.4736 34.7741C38.6802 35.272 38.819 32.3501 38.5753 41.131Z" fill="#A8D4DD"/>
<path d="M111.46 41.131H99.7723V36.354C99.7723 35.4813 100.482 34.7741 101.357 34.7741C111.565 35.272 111.704 32.3501 111.46 41.131Z" fill="#EE6E6F"/>
<path d="M115.284 50.6663H22.001V55.1158H115.284V50.6663Z" fill="#B2B2B2"/>
<path d="M109.334 58.8563H101.787V60.2759H109.334V58.8563Z" fill="#F6E362"/>
<path d="M36.5611 58.8563H33.4991V55.8028H32.0756V58.8563H29.0136V60.2776H32.0756V63.3311H33.4991V60.2776H36.5611V58.8563Z" fill="#F6E362"/>
<path d="M93.8228 63.3817H43.6752V91.1404H93.8228V63.3817Z" fill="#E6E6E6"/>
<path d="M72.6395 68.265L68.3351 75.4169H74.3118L64.9871 86.2672L67.6174 79.5896H63.0744L65.1072 68.265H72.6395Z" fill="#FFDB83"/>
</g>
<defs>
<clipPath id="clip0_511_2785">
<rect width="103" height="77" fill="white" transform="translate(19 33)"/>
</clipPath>
</defs>
</svg>
