<svg width="143" height="143" viewBox="0 0 143 143" fill="none" xmlns="http://www.w3.org/2000/svg">
<circle cx="71.5" cy="71.5" r="71.5" fill="#D9D9D9"/>
<g clip-path="url(#clip0_511_2762)">
<g opacity="0.5">
<path d="M79.6849 86.6946C80.5407 87.5484 81.9288 87.5484 82.7847 86.6946L91.8806 77.6204C92.7364 76.7667 92.7364 75.3819 91.8806 74.5281L80.0015 62.6774L67.8058 74.844L79.6849 86.6946Z" fill="#4F5254"/>
<path d="M70.682 53.3837L58.4872 65.5494L64.174 71.2226L76.3688 59.0569L70.682 53.3837Z" fill="#4F5254"/>
<path d="M75.9584 48.1192L71.9844 52.0837L77.6712 57.7569L81.6452 53.7924L75.9584 48.1192Z" fill="#4F5254"/>
<path d="M57.1859 66.8452L53.2119 70.8098L58.8987 76.483L62.8727 72.5184L57.1859 66.8452Z" fill="#4F5254"/>
<path d="M65.6982 48.4102L53.5034 60.5758L56.3463 63.4119L68.5411 51.2463L65.6982 48.4102Z" fill="#4F5254"/>
<path d="M70.9747 43.1466L67.0007 47.1111L69.8436 49.9472L73.8176 45.9827L70.9747 43.1466Z" fill="#4F5254"/>
<path d="M52.2022 61.8728L48.2282 65.8374L51.0711 68.6735L55.0451 64.709L52.2022 61.8728Z" fill="#4F5254"/>
<path d="M65.7513 75.3901L80.549 60.6278L79.248 58.0983L63.2157 74.0922L65.7513 75.3901Z" fill="#4F5254"/>
<path d="M73.4758 48.3758L72.0725 48.511L53.6055 66.9339L53.47 68.3338L54.8733 68.1987L73.3403 49.7758L73.4758 48.3758Z" fill="#4F5254"/>
<path d="M93.7029 78.2622L83.4261 88.5143L86.1664 91.248L96.4431 80.9959L93.7029 78.2622Z" fill="#4F5254"/>
<path d="M69.4499 42.2079L47.2864 64.3184L48.0567 65.087L70.2203 42.9764L69.4499 42.2079Z" fill="#4F5254"/>
<path d="M65.0995 43.4377L48.5191 59.9785L49.5466 61.0035L66.127 44.4628L65.0995 43.4377Z" fill="#4F5254"/>
<path d="M63.61 41.9501L47.0296 58.4909L48.0571 59.5159L64.6375 42.9752L63.61 41.9501Z" fill="#4F5254"/>
<path d="M62.1195 40.4636L45.5391 57.0043L46.5666 58.0293L63.147 41.4886L62.1195 40.4636Z" fill="#4F5254"/>
<path d="M60.629 38.977L44.0486 55.5177L45.0761 56.5428L61.6565 40.002L60.629 38.977Z" fill="#4F5254"/>
<path d="M59.1385 37.4904L42.5581 54.0311L43.5856 55.0561L60.166 38.5154L59.1385 37.4904Z" fill="#4F5254"/>
<path d="M57.649 36.0047L41.0686 52.5455L42.0961 53.5705L58.6765 37.0298L57.649 36.0047Z" fill="#4F5254"/>
<path d="M56.1585 34.5181L39.5781 51.0588L40.6056 52.0839L57.186 35.5431L56.1585 34.5181Z" fill="#4F5254"/>
<path d="M54.669 33.0304L38.0886 49.5712L39.1161 50.5962L55.6965 34.0554L54.669 33.0304Z" fill="#4F5254"/>
<path d="M53.1784 31.544L36.598 48.0847L37.6255 49.1098L54.2059 32.569L53.1784 31.544Z" fill="#4F5254"/>
<path d="M51.6879 30.0573L35.1075 46.5981L36.135 47.6231L52.7154 31.0824L51.6879 30.0573Z" fill="#4F5254"/>
<path d="M50.1975 28.5707L33.6171 45.1115L34.6445 46.1365L51.2249 29.5958L50.1975 28.5707Z" fill="#4F5254"/>
<path d="M48.708 27.0851L32.1276 43.6259L33.155 44.6509L49.7354 28.1102L48.708 27.0851Z" fill="#4F5254"/>
<path d="M46.6179 25L41.6849 29.9212L40.3314 28.5709L38.8244 30.0743L36.9924 28.2468L33.2927 31.9377L35.126 33.7666L33.619 35.27L34.9725 36.6203L31.8617 39.7237C31.2852 38.6934 30.0381 36.0617 30.8884 33.8259C31.8714 31.237 34.1665 29.1185 34.1665 29.1185L32.6249 27.5806C32.6249 27.5806 30.5704 28.8192 28.7883 32.946C26.9729 37.15 30.3298 41.2505 30.3298 41.2505L30.0381 41.5416L31.6654 43.1649L48.2452 26.6234L46.6179 25Z" fill="#4F5254"/>
<path d="M97.471 82.0196L87.1943 92.2717L89.9345 95.0054L100.211 84.7533L97.471 82.0196Z" fill="#4F5254"/>
<path d="M101.239 85.7807L90.9624 96.0328L93.7027 98.7665L103.979 88.5144L101.239 85.7807Z" fill="#4F5254"/>
<path d="M105.007 89.5389L94.7306 99.7911L97.4709 102.525L107.748 92.2726L105.007 89.5389Z" fill="#4F5254"/>
<path d="M101.514 104.917L103.158 103.278L108.751 108.857C109.956 110.059 111.911 110.059 113.117 108.857L114.094 107.882C115.3 106.679 115.3 104.729 114.094 103.526L108.502 97.9467L110.146 96.3067L107.954 94.1178L99.3216 102.73L101.514 104.917Z" fill="#4F5254"/>
<g opacity="0.5">
<path d="M73.8616 68.8041L87.2905 82.201L91.8806 77.6218C92.7365 76.768 92.7365 75.3832 91.8806 74.5295L80.0016 62.6788L73.8616 68.8041Z" fill="#4F5254"/>
<path d="M70.6836 53.3816L64.5432 59.5073L70.23 65.1805L76.3704 59.0548L70.6836 53.3816Z" fill="#4F5254"/>
<path d="M75.9585 48.1192L71.9844 52.0837L77.6712 57.7569L81.6453 53.7924L75.9585 48.1192Z" fill="#4F5254"/>
<path d="M65.698 48.4099L59.5576 54.5356L62.4005 57.3718L68.5409 51.246L65.698 48.4099Z" fill="#4F5254"/>
<path d="M70.9747 43.1466L67.0007 47.1111L69.8436 49.9472L73.8176 45.9827L70.9747 43.1466Z" fill="#4F5254"/>
<path d="M71.189 66.138L73.1067 68.0511L80.549 60.6278L79.248 58.0983L71.189 66.138Z" fill="#4F5254"/>
<path d="M72.0725 48.511L62.7954 57.7645L64.0632 59.0293L73.3403 49.7758L73.4758 48.3758L72.0725 48.511Z" fill="#4F5254"/>
<path d="M93.7031 78.2617L88.5217 83.4307L91.262 86.1644L96.4434 80.9954L93.7031 78.2617Z" fill="#4F5254"/>
<path d="M69.4479 42.206L58.3252 53.3053L59.0957 54.0737L70.2184 42.9744L69.4479 42.206Z" fill="#4F5254"/>
<path d="M65.0995 43.4367L56.7663 51.7499L57.7938 52.775L66.127 44.4617L65.0995 43.4367Z" fill="#4F5254"/>
<path d="M63.609 41.9501L55.2758 50.2634L56.3033 51.2884L64.6365 42.9752L63.609 41.9501Z" fill="#4F5254"/>
<path d="M62.1174 40.4612L53.7854 48.7757L54.813 49.8005L63.1451 41.4861L62.1174 40.4612Z" fill="#4F5254"/>
<path d="M60.6289 38.9747L52.2969 47.2892L53.3245 48.314L61.6565 39.9996L60.6289 38.9747Z" fill="#4F5254"/>
<path d="M59.1384 37.4882L50.8064 45.8027L51.834 46.8275L60.1661 38.5131L59.1384 37.4882Z" fill="#4F5254"/>
<path d="M57.6479 36.0017L49.3159 44.3162L50.3435 45.341L58.6755 37.0266L57.6479 36.0017Z" fill="#4F5254"/>
<path d="M56.1585 34.5172L47.8253 42.8304L48.8528 43.8555L57.186 35.5422L56.1585 34.5172Z" fill="#4F5254"/>
<path d="M54.6681 33.0306L46.3348 41.3439L47.3623 42.3689L55.6955 34.0557L54.6681 33.0306Z" fill="#4F5254"/>
<path d="M53.1785 31.545L44.8453 39.8583L45.8728 40.8833L54.206 32.57L53.1785 31.545Z" fill="#4F5254"/>
<path d="M51.6879 30.0557L43.3558 38.3702L44.3835 39.3951L52.7155 31.0806L51.6879 30.0557Z" fill="#4F5254"/>
<path d="M50.1985 28.5708L41.8653 36.8841L42.8928 37.9091L51.226 29.5958L50.1985 28.5708Z" fill="#4F5254"/>
<path d="M48.708 27.0842L40.3748 35.3975L41.4023 36.4225L49.7355 28.1092L48.708 27.0842Z" fill="#4F5254"/>
<path d="M41.6849 29.9212L40.3328 28.5709L38.8244 30.0757L36.9925 28.2468L35.0997 30.135L39.9125 34.9362L48.2452 26.6234L46.618 25L41.6849 29.9212Z" fill="#4F5254"/>
<path d="M97.4721 82.021L92.2908 87.1899L95.031 89.9237L100.212 84.7547L97.4721 82.021Z" fill="#4F5254"/>
<path d="M101.24 85.7836L96.0582 90.9526L98.7985 93.6863L103.98 88.5173L101.24 85.7836Z" fill="#4F5254"/>
<path d="M105.008 89.5394L99.8271 94.7084L102.567 97.4421L107.749 92.2731L105.008 89.5394Z" fill="#4F5254"/>
<path d="M103.595 98.468L113.564 108.413L114.094 107.883C115.3 106.68 115.3 104.73 114.094 103.527L108.502 97.9481L110.146 96.3081L107.954 94.1178L103.595 98.468Z" fill="#4F5254"/>
</g>
</g>
<path d="M76.4359 89.9359C77.2917 90.7897 78.6798 90.7897 79.5356 89.9359L88.6316 80.8617C89.4874 80.0079 89.4874 78.6231 88.6316 77.7694L76.7525 65.9187L64.5568 78.0852L76.4359 89.9359Z" fill="#A9E1F5"/>
<path d="M67.4329 56.6249L55.2381 68.7906L60.9249 74.4638L73.1197 62.2982L67.4329 56.6249Z" fill="#4F5254"/>
<path d="M72.7094 51.3604L68.7354 55.3249L74.4222 60.9981L78.3962 57.0336L72.7094 51.3604Z" fill="#4F5254"/>
<path d="M53.937 70.0865L49.963 74.051L55.6498 79.7242L59.6238 75.7597L53.937 70.0865Z" fill="#4F5254"/>
<path d="M62.4491 51.6514L50.2543 63.817L53.0972 66.6531L65.292 54.4875L62.4491 51.6514Z" fill="#4F5254"/>
<path d="M67.7256 46.3878L63.7516 50.3523L66.5945 53.1885L70.5685 49.2239L67.7256 46.3878Z" fill="#4F5254"/>
<path d="M48.9533 65.1141L44.9793 69.0786L47.8222 71.9147L51.7962 67.9502L48.9533 65.1141Z" fill="#4F5254"/>
<path d="M62.5023 78.6314L77.3 63.8691L75.999 61.3395L59.9667 77.3335L62.5023 78.6314Z" fill="#F4B400"/>
<path d="M70.2267 51.6171L68.8234 51.7523L50.3564 70.1751L50.2209 71.5751L51.6242 71.4399L70.0912 53.0171L70.2267 51.6171Z" fill="#F4B400"/>
<path d="M90.4538 81.5034L80.1771 91.7556L82.9174 94.4893L93.1941 84.2371L90.4538 81.5034Z" fill="#A9E1F5"/>
<path d="M66.2009 45.4491L44.0373 67.5597L44.8077 68.3282L66.9712 46.2176L66.2009 45.4491Z" fill="#F4B400"/>
<path d="M61.8504 46.679L45.27 63.2197L46.2975 64.2447L62.8779 47.704L61.8504 46.679Z" fill="#727679"/>
<path d="M60.3609 45.1914L43.7805 61.7321L44.808 62.7571L61.3884 46.2164L60.3609 45.1914Z" fill="#727679"/>
<path d="M58.8704 43.7048L42.29 60.2455L43.3175 61.2706L59.8979 44.7298L58.8704 43.7048Z" fill="#727679"/>
<path d="M57.38 42.2182L40.7996 58.759L41.827 59.784L58.4074 43.2432L57.38 42.2182Z" fill="#727679"/>
<path d="M55.8894 40.7316L39.309 57.2724L40.3365 58.2974L56.9169 41.7566L55.8894 40.7316Z" fill="#727679"/>
<path d="M54.3999 39.246L37.8195 55.7867L38.847 56.8117L55.4274 40.271L54.3999 39.246Z" fill="#727679"/>
<path d="M52.9094 37.7593L36.329 54.3001L37.3565 55.3251L53.9369 38.7843L52.9094 37.7593Z" fill="#727679"/>
<path d="M51.4199 36.2716L34.8395 52.8124L35.867 53.8374L52.4474 37.2967L51.4199 36.2716Z" fill="#727679"/>
<path d="M49.9294 34.7852L33.349 51.326L34.3765 52.351L50.9569 35.8102L49.9294 34.7852Z" fill="#727679"/>
<path d="M48.4389 33.2986L31.8585 49.8393L32.886 50.8643L49.4664 34.3236L48.4389 33.2986Z" fill="#727679"/>
<path d="M46.9484 31.812L30.368 48.3527L31.3955 49.3777L47.9759 32.837L46.9484 31.812Z" fill="#727679"/>
<path d="M45.4589 30.3264L28.8785 46.8671L29.906 47.8921L46.4864 31.3514L45.4589 30.3264Z" fill="#727679"/>
<path d="M43.3689 28.2413L38.4358 33.1625L37.0823 31.8122L35.5753 33.3156L33.7434 31.4881L30.0436 35.179L31.8769 37.0079L30.3699 38.5113L31.7235 39.8616L28.6127 42.9649C28.0361 41.9346 26.789 39.303 27.6393 37.0672C28.6223 34.4783 30.9174 32.3598 30.9174 32.3598L29.3758 30.8219C29.3758 30.8219 27.3213 32.0605 25.5392 36.1872C23.7239 40.3912 27.0808 44.4918 27.0808 44.4918L26.789 44.7828L28.4163 46.4062L44.9962 29.8647L43.3689 28.2413Z" fill="#F4B400"/>
<path d="M94.222 85.2608L83.9453 95.5129L86.6855 98.2466L96.9622 87.9945L94.222 85.2608Z" fill="#A9E1F5"/>
<path d="M97.9901 89.0219L87.7134 99.274L90.4536 102.008L100.73 91.7556L97.9901 89.0219Z" fill="#A9E1F5"/>
<path d="M101.758 92.7801L91.4816 103.032L94.2218 105.766L104.499 95.5139L101.758 92.7801Z" fill="#A9E1F5"/>
<path d="M98.2653 108.159L99.9092 106.519L105.502 112.098C106.707 113.301 108.662 113.301 109.868 112.098L110.845 111.123C112.051 109.92 112.051 107.97 110.845 106.767L105.253 101.188L106.897 99.548L104.704 97.3605L96.0712 105.973L98.2653 108.159Z" fill="#F4B400"/>
<g opacity="0.5">
<path d="M70.6125 72.0454L84.0414 85.4422L88.6316 80.8631C89.4874 80.0093 89.4874 78.6245 88.6316 77.7708L76.7525 65.9201L70.6125 72.0454Z" fill="#A9E1F5"/>
<path d="M67.4345 56.6228L61.2941 62.7485L66.9809 68.4217L73.1213 62.296L67.4345 56.6228Z" fill="#4F5254"/>
<path d="M72.7094 51.3604L68.7354 55.3249L74.4222 60.9981L78.3962 57.0336L72.7094 51.3604Z" fill="#4F5254"/>
<path d="M62.4489 51.6511L56.3085 57.7769L59.1514 60.613L65.2919 54.4873L62.4489 51.6511Z" fill="#4F5254"/>
<path d="M67.7256 46.3878L63.7516 50.3523L66.5945 53.1885L70.5685 49.2239L67.7256 46.3878Z" fill="#4F5254"/>
<path d="M67.9399 69.3793L69.8576 71.2923L77.3 63.8691L75.999 61.3395L67.9399 69.3793Z" fill="#F4B400"/>
<path d="M68.8235 51.7523L59.5464 61.0058L60.8142 62.2706L70.0913 53.0171L70.2268 51.6171L68.8235 51.7523Z" fill="#F4B400"/>
<path d="M90.454 81.5029L85.2726 86.6719L88.0129 89.4056L93.1943 84.2366L90.454 81.5029Z" fill="#A9E1F5"/>
<path d="M66.199 45.4472L55.0762 56.5465L55.8467 57.3149L66.9694 46.2157L66.199 45.4472Z" fill="#F4B400"/>
<path d="M61.8505 46.6779L53.5173 54.9912L54.5447 56.0162L62.878 47.7029L61.8505 46.6779Z" fill="#727679"/>
<path d="M60.36 45.1914L52.0268 53.5047L53.0543 54.5297L61.3875 46.2164L60.36 45.1914Z" fill="#727679"/>
<path d="M58.8686 43.7024L50.5366 52.0169L51.5642 53.0417L59.8962 44.7273L58.8686 43.7024Z" fill="#727679"/>
<path d="M57.3801 42.2159L49.048 50.5304L50.0757 51.5553L58.4077 43.2408L57.3801 42.2159Z" fill="#727679"/>
<path d="M55.8896 40.7294L47.5576 49.0439L48.5852 50.0688L56.9172 41.7543L55.8896 40.7294Z" fill="#727679"/>
<path d="M54.3991 39.2429L46.067 47.5574L47.0946 48.5823L55.4267 40.2678L54.3991 39.2429Z" fill="#727679"/>
<path d="M52.9095 37.7584L44.5763 46.0717L45.6038 47.0967L53.937 38.7834L52.9095 37.7584Z" fill="#727679"/>
<path d="M51.419 36.2719L43.0858 44.5851L44.1133 45.6102L52.4465 37.2969L51.419 36.2719Z" fill="#727679"/>
<path d="M49.9295 34.7862L41.5963 43.0995L42.6238 44.1246L50.957 35.8113L49.9295 34.7862Z" fill="#727679"/>
<path d="M48.439 33.297L40.107 41.6114L41.1346 42.6363L49.4667 34.3218L48.439 33.297Z" fill="#727679"/>
<path d="M46.9495 31.8121L38.6163 40.1253L39.6437 41.1504L47.977 32.8371L46.9495 31.8121Z" fill="#727679"/>
<path d="M45.459 30.3254L37.1258 38.6387L38.1533 39.6638L46.4865 31.3505L45.459 30.3254Z" fill="#727679"/>
<path d="M38.4358 33.1625L37.0837 31.8122L35.5753 33.317L33.7434 31.4881L31.8506 33.3763L36.6634 38.1775L44.9962 29.8647L43.3689 28.2413L38.4358 33.1625Z" fill="#F4B400"/>
<path d="M94.2231 85.2622L89.0417 90.4312L91.7819 93.1649L96.9633 87.9959L94.2231 85.2622Z" fill="#A9E1F5"/>
<path d="M97.9903 89.0248L92.809 94.1938L95.5492 96.9275L100.731 91.7585L97.9903 89.0248Z" fill="#A9E1F5"/>
<path d="M101.759 92.7806L96.578 97.9496L99.3183 100.683L104.5 95.5143L101.759 92.7806Z" fill="#A9E1F5"/>
<path d="M100.346 101.709L110.314 111.654L110.845 111.124C112.051 109.921 112.051 107.971 110.845 106.768L105.253 101.189L106.897 99.5494L104.704 97.3619L100.346 101.709Z" fill="#F4B400"/>
</g>
</g>
<defs>
<clipPath id="clip0_511_2762">
<rect width="90" height="88" fill="white" transform="translate(25 25)"/>
</clipPath>
</defs>
</svg>
