<svg width="143" height="143" viewBox="0 0 143 143" fill="none" xmlns="http://www.w3.org/2000/svg">
<circle cx="71.5" cy="71.5" r="71.5" fill="#D9D9D9"/>
<g clip-path="url(#clip0_511_2758)">
<g opacity="0.5">
<path d="M108.706 56.6334C106.5 53.3576 103.424 50.6318 99.7522 48.8176C102.248 30.1933 101.88 36.321 84.1022 25.0174C82.2544 23.9213 79.7717 24.1332 78.1379 25.529L68.9792 33.1731L62.1421 29.6964H39.6332V117.998H112.671C111.496 107.9 116.033 64.5772 108.706 56.6334ZM81.378 29.4004C81.6616 29.3109 95.8534 37.5469 95.9449 37.8118L94.9478 46.3767L73.875 35.6633L81.378 29.4004Z" fill="#4F5254"/>
<path d="M63.0496 29.6964H38.9544C38.4403 29.6964 38.025 29.2816 38.025 28.7682V18.9281C38.025 18.4147 38.4403 18 38.9544 18H63.0496C63.5582 17.9982 63.979 18.4129 63.979 18.9281V28.7701C63.979 29.2816 63.5619 29.6964 63.0496 29.6964Z" fill="#4F5254"/>
<path d="M55.4807 62.0358H39.6332V65.7062H55.4807V62.0358Z" fill="#4F5254"/>
<path d="M55.4807 89.4059H39.6332V93.0763H55.4807V89.4059Z" fill="#4F5254"/>
<path d="M55.4807 103.092H39.6332V106.762H55.4807V103.092Z" fill="#4F5254"/>
<path d="M55.4807 75.7218H39.6332V79.3922H55.4807V75.7218Z" fill="#4F5254"/>
<path d="M63.7485 51.7152V106.76H98.2008V68.4577L63.7485 51.7152Z" fill="#4F5254"/>
<path d="M88.2901 86.1977C85.8184 101.535 61.3957 91.5873 80.8603 68.9162C80.8603 68.9162 88.2901 76.6535 88.2901 86.1977Z" fill="#4F5254"/>
<path d="M91.2393 97.9379H70.4813V100.339H91.2393V97.9379Z" fill="#4F5254"/>
<path d="M112.671 114.788H39.6332V118H112.671V114.788Z" fill="#4F5254"/>
<path d="M41.9293 20.5231H40.7803V27.6337H41.9293V20.5231Z" fill="#4F5254"/>
<path d="M46.7538 20.5231H45.6049V27.6337H46.7538V20.5231Z" fill="#4F5254"/>
<path d="M51.5765 20.5231H50.4276V27.6337H51.5765V20.5231Z" fill="#4F5254"/>
<path d="M56.3992 20.5231H55.2502V27.6337H56.3992V20.5231Z" fill="#4F5254"/>
<path d="M61.2237 20.5231H60.0748V27.6337H61.2237V20.5231Z" fill="#4F5254"/>
</g>
<path d="M104.681 56.6334C102.475 53.3576 99.3991 50.6318 95.7272 48.8176C98.2227 30.1933 97.855 36.321 80.0772 25.0174C78.2294 23.9213 75.7467 24.1332 74.1129 25.529L64.9541 33.1731L58.1171 29.6964H35.6082V117.998H108.646C107.471 107.9 112.008 64.5772 104.681 56.6334ZM77.353 29.4004C77.6366 29.3109 91.8284 37.5469 91.9199 37.8118L90.9228 46.3767L69.85 35.6633L77.353 29.4004Z" fill="#F6E362"/>
<path d="M59.0246 29.6964H34.9294C34.4153 29.6964 34 29.2816 34 28.7701V18.9281C34 18.4147 34.4153 18 34.9294 18H59.0246C59.5332 17.9982 59.954 18.4129 59.954 18.9281V28.7701C59.954 29.2816 59.5369 29.6964 59.0246 29.6964Z" fill="#3C3C3C"/>
<path d="M51.4557 62.0358H35.6082V65.7062H51.4557V62.0358Z" fill="#FFB846"/>
<path d="M51.4557 89.4059H35.6082V93.0763H51.4557V89.4059Z" fill="#FFB846"/>
<path d="M51.4557 103.092H35.6082V106.762H51.4557V103.092Z" fill="#FFB846"/>
<path d="M51.4557 75.7218H35.6082V79.3922H51.4557V75.7218Z" fill="#FFB846"/>
<path d="M59.7235 51.7152V106.76H94.1758V68.4577L59.7235 51.7152Z" fill="white"/>
<path d="M84.2651 86.1977C81.7933 101.535 57.3707 91.5873 76.8353 68.9162C76.8353 68.9162 84.2651 76.6535 84.2651 86.1977Z" fill="#575757"/>
<path d="M87.2143 97.9379H66.4562V100.339H87.2143V97.9379Z" fill="#575757"/>
<path d="M108.646 114.788H35.6082V118H108.646V114.788Z" fill="#575757"/>
<path d="M37.9043 20.5231H36.7553V27.6337H37.9043V20.5231Z" fill="#333333"/>
<path d="M42.7288 20.5231H41.5798V27.6337H42.7288V20.5231Z" fill="#333333"/>
<path d="M47.5515 20.5231H46.4025V27.6337H47.5515V20.5231Z" fill="#333333"/>
<path d="M52.3742 20.5231H51.2252V27.6337H52.3742V20.5231Z" fill="#333333"/>
<path d="M57.1987 20.5231H56.0497V27.6337H57.1987V20.5231Z" fill="#333333"/>
</g>
<defs>
<clipPath id="clip0_511_2758">
<rect width="79" height="100" fill="white" transform="translate(34 18)"/>
</clipPath>
</defs>
</svg>
