<svg width="143" height="143" viewBox="0 0 143 143" fill="none" xmlns="http://www.w3.org/2000/svg">
<circle cx="71.5" cy="71.5" r="71.5" fill="#D9D9D9"/>
<g clip-path="url(#clip0_511_2760)">
<path opacity="0.5" d="M28.4701 110.619C24.7207 114.369 24.7207 120.448 28.4701 124.197C30.3764 126.104 32.8832 127.029 35.3808 126.998C35.4316 126.998 35.4809 126.986 35.5302 126.985C36.0799 126.969 36.6281 126.921 37.1685 126.812C37.3348 126.778 37.495 126.709 37.6597 126.667C38.0817 126.558 38.5051 126.455 38.9116 126.287C39.2073 126.167 39.4814 125.99 39.7647 125.837C40.028 125.696 40.3036 125.585 40.5561 125.417C41.0828 125.068 41.5832 124.663 42.0482 124.199C44.6598 121.589 45.4081 117.858 44.3841 114.561C45.8038 115.105 47.5839 114.797 49.0282 113.697L44.1824 108.851L38.9717 103.641C37.8738 105.085 37.5643 106.865 38.1078 108.285C34.8126 107.259 31.0816 108.009 28.4701 110.619Z" fill="#4F5254"/>
<path opacity="0.5" d="M39.1072 113.562C39.1703 113.625 39.2134 113.699 39.272 113.764C40.239 114.828 40.7132 116.181 40.6901 117.525C40.6886 117.564 40.6809 117.602 40.6794 117.642C40.6686 117.936 40.6393 118.232 40.5808 118.522C40.5592 118.623 40.5192 118.72 40.493 118.82C40.433 119.047 40.3745 119.276 40.2836 119.495C40.2143 119.663 40.1158 119.818 40.028 119.98C39.9495 120.126 39.8863 120.277 39.794 120.417C39.5969 120.713 39.369 120.995 39.1087 121.256C38.847 121.518 38.5652 121.745 38.2695 121.942C38.1294 122.034 37.9785 122.097 37.8322 122.176C37.6705 122.263 37.515 122.362 37.3472 122.431C37.1285 122.522 36.9006 122.579 36.6727 122.641C36.5727 122.667 36.4757 122.708 36.374 122.73C36.0845 122.79 35.7904 122.818 35.4948 122.829C35.4548 122.83 35.4163 122.839 35.3778 122.839C34.0335 122.862 32.68 122.388 31.616 121.421C31.5513 121.363 31.4774 121.32 31.4143 121.256C29.2893 119.131 29.2893 115.687 31.4143 113.562C33.5377 111.437 36.9823 111.437 39.1072 113.562Z" fill="#4F5254"/>
<path opacity="0.5" d="M51.0762 111.734L63.7135 99.0966L64.5635 98.2466L68.3483 102.032C68.778 102.461 69.5771 102.363 70.1299 101.808L70.6319 101.306L71.9638 99.9743L75.9643 95.9738L76.9374 95.0006L79.3442 96.9639C80.0679 97.5059 81.2289 97.2519 81.9357 96.3972L82.9966 95.1161C83.7049 94.2615 83.6911 93.1282 82.9674 92.5861L80.9764 90.9631L81.9496 89.99L86.2518 85.6877L87.225 84.7145L89.6317 86.6778C90.3554 87.2198 91.5164 86.9657 92.2232 86.1111L93.2842 84.83C93.9925 83.9754 93.9786 82.842 93.2549 82.3015L91.2655 80.6724L92.2386 79.6992L95.3444 76.5918L96.3176 75.6186L98.7243 77.5819C99.4481 78.124 100.609 77.8699 101.316 77.0153L102.377 75.7341C103.085 74.8795 103.071 73.7462 102.348 73.2042L100.357 71.5812L101.331 70.608L102.996 68.9419L103.969 67.9687L106.376 69.932C107.099 70.474 108.26 70.22 108.967 69.3654L110.028 68.0842C110.736 67.2296 110.723 66.0963 109.999 65.5542L108.008 63.9313L108.981 62.9581L109.206 62.7333L110.056 61.8833L110.906 61.0333L112.992 58.9468L113.702 59.6567L113.855 59.5042C116.657 56.7017 117.033 52.5349 114.694 50.1974L114.183 49.6862C117.519 49.9064 120.932 48.7515 123.482 46.2C124.065 45.6164 124.575 44.9881 125.012 44.326C125.183 44.0689 125.292 43.7855 125.44 43.5191C125.673 43.1003 125.927 42.6907 126.107 42.2534C126.261 41.8777 126.343 41.485 126.456 41.0985C126.56 40.7474 126.697 40.4056 126.768 40.0499C126.86 39.5833 126.877 39.1106 126.914 38.6394C126.935 38.353 126.994 38.0696 126.995 37.7817C126.998 37.2597 126.926 36.7423 126.863 36.2234C126.834 35.9862 126.838 35.7476 126.795 35.512C126.695 34.9684 126.52 34.4402 126.344 33.9121C126.278 33.7104 126.242 33.5025 126.164 33.3054C125.959 32.7834 125.68 32.2891 125.4 31.7933C125.294 31.6054 125.217 31.4068 125.1 31.2235C124.801 30.7569 124.43 30.3289 124.061 29.8993C123.916 29.7314 123.81 29.5436 123.654 29.3819L123.645 29.3911C123.583 29.328 123.543 29.2525 123.482 29.1909C118.784 24.4929 111.168 24.4929 106.47 29.1909C103.918 31.7424 102.765 35.1532 102.983 38.49L102.472 37.9788C100.133 35.6398 95.9665 36.0155 93.1656 38.818L93.0131 38.9705L93.723 39.6803L91.6365 41.7668L88.8295 44.5739L88.7294 44.674L86.78 46.6235L84.3732 44.6602C83.6495 44.1181 82.4885 44.3722 81.7817 45.2268L80.7208 46.508C80.0125 47.3626 80.0263 48.4959 80.75 49.0379L82.741 50.6609L79.1286 54.2734L76.7219 52.3101C75.9982 51.7681 74.8371 52.0221 74.1304 52.8767L73.0694 54.1579C72.3611 55.0125 72.375 56.1458 73.0987 56.6878L75.0897 58.3108L74.1165 59.284L71.0107 62.3899L70.0375 63.3631L67.6308 61.3998C66.9071 60.8577 65.746 61.1118 65.0393 61.9664L63.9783 63.2476C63.27 64.1022 63.2839 65.2355 64.0076 65.7775L65.9986 67.4021L65.0254 68.3752L60.7232 72.6775L59.75 73.6507L57.3433 71.6874C56.6195 71.1454 55.4585 71.3995 54.7517 72.2541L53.6908 73.5352C52.9825 74.3898 52.9964 75.5232 53.7201 76.0652L55.7111 77.6897L54.7379 78.6629L52.6945 80.7063L51.3626 82.0382L50.8606 82.5402C50.3063 83.0946 50.2062 83.8922 50.6374 84.3218L54.4222 88.1067L53.5722 88.9567L48.5386 93.9905L38.9301 103.599L44.1824 108.851L49.0714 113.74L51.0762 111.734Z" fill="#4F5254"/>
<path opacity="0.5" d="M110.159 32.8681C112.821 30.2057 117.138 30.2057 119.8 32.8681C119.861 32.9297 119.905 33.0036 119.963 33.0682C121.2 34.4033 121.808 36.1094 121.785 37.8063C121.785 37.8494 121.774 37.891 121.772 37.9341C121.76 38.3129 121.725 38.6902 121.649 39.0628C121.623 39.1891 121.572 39.3092 121.54 39.4339C121.464 39.7219 121.392 40.0114 121.277 40.2901C121.187 40.5057 121.059 40.7074 120.947 40.9153C120.852 41.0939 120.775 41.2802 120.661 41.4511C120.413 41.8238 120.126 42.1779 119.798 42.5075C119.47 42.8354 119.115 43.1219 118.744 43.3698C118.571 43.4837 118.383 43.5607 118.205 43.6577C117.998 43.7686 117.798 43.8964 117.584 43.9842C117.304 44.0997 117.014 44.172 116.723 44.2475C116.6 44.2798 116.48 44.3306 116.355 44.3568C115.986 44.4323 115.61 44.4661 115.233 44.48C115.187 44.4815 115.142 44.4923 115.097 44.4923C113.4 44.5154 111.696 43.9072 110.361 42.6722C110.296 42.6122 110.221 42.5691 110.158 42.5059C107.497 39.8466 107.497 35.5304 110.159 32.8681Z" fill="#4F5254"/>
<path d="M56.381 89.1089L46.2399 78.9677L30.2704 94.9374L40.4115 105.079L56.381 89.1089Z" fill="#727679"/>
<path d="M105.909 48.7097L86.64 29.4408L42.7056 73.3758L61.9742 92.6447L105.909 48.7097Z" fill="#1195C2"/>
<path d="M105.199 50.8395C108.002 48.037 108.377 43.8702 106.038 41.5327L105.527 41.0215C108.864 41.2401 112.276 40.0868 114.826 37.5353C119.524 32.8372 119.524 25.2212 114.826 20.5231C110.128 15.8251 102.512 15.8251 97.8143 20.5231C95.2628 23.0747 94.1095 26.4854 94.3281 29.8222L93.8169 29.311C91.4779 26.972 87.3112 27.3477 84.5087 30.1502L84.3563 30.3027L105.047 50.992L105.199 50.8395ZM111.141 24.2095C113.804 26.8719 113.804 31.1881 111.141 33.8505C108.479 36.5128 104.163 36.5128 101.501 33.8505C98.8383 31.1881 98.8383 26.8719 101.501 24.2095C104.163 21.5471 108.479 21.5471 111.141 24.2095Z" fill="#4F5254"/>
<path d="M44.9131 80.2962L32.2753 92.9342L42.4165 103.075L55.0542 90.4375L44.9131 80.2962Z" fill="#4F5254"/>
<path d="M35.7257 105.901C37.1455 106.445 38.9255 106.137 40.3698 105.037L30.3133 94.9806C29.2154 96.4249 28.9059 98.205 29.4495 99.6247C26.1527 98.5992 22.4217 99.3491 19.8117 101.961C16.0623 105.71 16.0623 111.789 19.8117 115.539C23.5612 119.288 29.6404 119.288 33.3898 115.539C36.0014 112.929 36.7513 109.198 35.7257 105.901ZM22.7543 112.598C20.6294 110.473 20.6294 107.028 22.7543 104.903C24.8793 102.778 28.3238 102.778 30.4488 104.903C32.5737 107.028 32.5737 110.473 30.4488 112.598C28.3238 114.721 24.8793 114.723 22.7543 112.598Z" fill="#4F5254"/>
<path d="M92.6728 61.9479L94.3374 60.2818L73.1125 42.9694L71.4464 44.6355L92.6728 61.9479Z" fill="#4F5254"/>
<path d="M56.3685 59.7136L52.0663 64.0159L73.2911 81.3284L77.5934 77.026L56.3685 59.7136Z" fill="#4F5254"/>
<path d="M65.4596 50.6224L62.3538 53.7283L83.5802 71.0391L86.686 67.9333L65.4596 50.6224Z" fill="#4F5254"/>
<path d="M42.2037 73.8786C41.6494 74.433 41.5493 75.2306 41.9805 75.6602L59.6899 93.3699C60.1195 93.7995 60.9187 93.701 61.4715 93.1466L61.9735 92.6462L42.7057 73.3782L42.2037 73.8786Z" fill="#4F5254"/>
<path d="M44.0361 72.0462L63.3054 91.3142L67.3059 87.3137L46.0795 70.0028L44.0361 72.0462Z" fill="#4F5254"/>
<path d="M79.5043 36.5775L79.0978 36.984L100.324 54.2949L100.549 54.0701L101.401 53.2186L102.25 52.3686L82.9812 33.1006L80.1741 35.9077L79.5043 36.5775Z" fill="#4F5254"/>
<path d="M72.0947 40.3717L97.7173 61.2704C98.441 61.8124 99.602 61.5583 100.309 60.7037L101.37 59.4226C102.078 58.568 102.064 57.4346 101.34 56.8926L75.7179 35.9939C74.9942 35.4519 73.8332 35.706 73.1264 36.5606L72.0654 37.8417C71.3587 38.6979 71.371 39.8297 72.0947 40.3717Z" fill="#F4B400"/>
<path d="M74.3089 83.9261L48.6864 63.0274C47.9627 62.4853 46.8016 62.7394 46.0949 63.594L45.0339 64.8752C44.3256 65.7298 44.3395 66.8631 45.0632 67.4036L70.6858 88.3023C71.4095 88.8443 72.5705 88.5902 73.2773 87.7356L74.3382 86.4545C75.045 85.5999 75.0327 84.4681 74.3089 83.9261Z" fill="#F4B400"/>
<path d="M84.5965 73.6369L58.9739 52.7381C58.2502 52.1961 57.0892 52.4502 56.3824 53.3048L55.3215 54.586C54.6131 55.4406 54.627 56.5739 55.3507 57.1159L80.9733 78.0146C81.697 78.5566 82.858 78.3026 83.5648 77.448L84.6257 76.1668C85.3341 75.3122 85.3202 74.1789 84.5965 73.6369Z" fill="#F4B400"/>
<path d="M93.6891 64.5456L68.0666 43.6469C67.3428 43.1049 66.1818 43.359 65.475 44.2136L64.4141 45.4947C63.7058 46.3493 63.7196 47.4827 64.4434 48.0247L90.0659 68.9234C90.7897 69.4654 91.9507 69.2113 92.6575 68.3567L93.7184 67.0756C94.4252 66.2194 94.4128 65.0877 93.6891 64.5456Z" fill="#F4B400"/>
<g opacity="0.5">
<path d="M51.4926 84.222L35.5231 100.192L40.4119 105.081L56.3814 89.1108L51.4926 84.222Z" fill="#727679"/>
<path d="M96.4547 39.2593L52.5203 83.1943L61.9722 92.6463L105.907 48.7113L96.4547 39.2593Z" fill="#1195C2"/>
<path d="M106.038 41.5327L105.527 41.0215C108.864 41.2401 112.276 40.0868 114.826 37.5353C119.463 32.8988 119.515 25.4245 114.999 20.7141L111.303 24.4097C113.781 27.0829 113.739 31.2497 111.14 33.8505C108.541 36.4497 104.374 36.4913 101.701 34.0137L94.8856 40.829L105.048 50.992L105.201 50.8395C108.002 48.0385 108.376 43.8717 106.038 41.5327Z" fill="#4F5254"/>
<path d="M50.1665 85.5488L37.5287 98.1867L42.4175 103.076L55.0553 90.4376L50.1665 85.5488Z" fill="#4F5254"/>
<path d="M35.7257 105.901C37.1455 106.445 38.9255 106.137 40.3698 105.037L35.524 100.191L30.612 105.103C32.5537 107.239 32.5106 110.534 30.4488 112.598C28.387 114.66 25.0902 114.703 22.9545 112.761L20.0119 115.704C23.7737 119.268 29.702 119.227 33.3898 115.54C36.0014 112.929 36.7513 109.198 35.7257 105.901Z" fill="#4F5254"/>
<path d="M83.9252 51.7896L82.2606 53.4542L92.6729 61.9479L94.3374 60.2818L83.9252 51.7896Z" fill="#4F5254"/>
<path d="M67.1812 68.5338L62.8789 72.8361L73.2912 81.3283L77.5934 77.026L67.1812 68.5338Z" fill="#4F5254"/>
<path d="M76.2738 59.441L73.168 62.5469L83.5802 71.0391L86.686 67.9333L76.2738 59.441Z" fill="#4F5254"/>
<path d="M52.5206 83.1946L51.0162 84.6991L59.69 93.373C60.1196 93.8026 60.9187 93.704 61.4715 93.1497L61.9735 92.6493L52.5206 83.1946Z" fill="#4F5254"/>
<path d="M56.8936 78.8215L53.8525 81.8627L63.3054 91.3142L67.3059 87.3137L56.8936 78.8215Z" fill="#4F5254"/>
<path d="M92.7976 42.917L89.912 45.8027L100.324 54.2949L102.251 52.3686L92.7976 42.917Z" fill="#4F5254"/>
<path d="M101.37 59.4226C102.078 58.568 102.064 57.4347 101.34 56.8926L88.9373 46.7759L84.8983 50.8149L97.7158 61.2704C98.4395 61.8124 99.6005 61.5583 100.307 60.7037L101.37 59.4226Z" fill="#F4B400"/>
<path d="M74.3367 86.4545C75.045 85.5999 75.0311 84.4665 74.3074 83.9245L61.9042 73.8078L57.8652 77.8468L70.6827 88.3023C71.4064 88.8443 72.5674 88.5902 73.2742 87.7356L74.3367 86.4545Z" fill="#F4B400"/>
<path d="M84.6257 76.1668C85.3341 75.3122 85.3202 74.1789 84.5965 73.6384L72.1932 63.5216L68.1543 67.5606L80.9733 78.0161C81.697 78.5582 82.858 78.3041 83.5648 77.4495L84.6257 76.1668Z" fill="#F4B400"/>
<path d="M93.7184 67.0741C94.4267 66.2194 94.4128 65.0861 93.6891 64.5456L81.2859 54.4289L77.2469 58.4679L90.0644 68.9234C90.7881 69.4654 91.9491 69.2114 92.6559 68.3567L93.7184 67.0741Z" fill="#F4B400"/>
</g>
</g>
<defs>
<clipPath id="clip0_511_2760">
<rect width="110" height="110" fill="white" transform="translate(17 17)"/>
</clipPath>
</defs>
</svg>
