<svg width="54" height="48" viewBox="0 0 54 48" fill="none" xmlns="http://www.w3.org/2000/svg">
<path fill-rule="evenodd" clip-rule="evenodd" d="M54 23.8235C54 24.726 53.6445 25.5915 53.0116 26.2296C52.3787 26.8678 51.5204 27.2263 50.6254 27.2263H11.527L26.0176 41.8309C26.3314 42.1472 26.5803 42.5228 26.7501 42.9362C26.9199 43.3496 27.0073 43.7926 27.0073 44.24C27.0073 44.6874 26.9199 45.1305 26.7501 45.5438C26.5803 45.9572 26.3314 46.3328 26.0176 46.6492C25.7039 46.9655 25.3314 47.2165 24.9214 47.3877C24.5115 47.5589 24.0721 47.6471 23.6284 47.6471C23.1847 47.6471 22.7453 47.5589 22.3353 47.3877C21.9254 47.2165 21.5529 46.9655 21.2392 46.6492L0.991422 26.2327C0.677155 25.9166 0.427818 25.5411 0.257693 25.1277C0.0875689 24.7143 0 24.2711 0 23.8235C0 23.376 0.0875689 22.9328 0.257693 22.5194C0.427818 22.106 0.677155 21.7305 0.991422 21.4144L21.2392 0.997901C21.8728 0.358956 22.7323 0 23.6284 0C24.5245 0 25.384 0.358956 26.0176 0.997901C26.6513 1.63685 27.0073 2.50344 27.0073 3.40705C27.0073 4.31065 26.6513 5.17725 26.0176 5.81619L11.527 20.4208H50.6254C51.5204 20.4208 52.3787 20.7793 53.0116 21.4174C53.6445 22.0556 54 22.9211 54 23.8235Z" fill="#333333"/>
</svg>
