<svg width="27" height="25" viewBox="0 0 27 25" fill="none" xmlns="http://www.w3.org/2000/svg">
<path d="M25.1848 18.6623L5.77516 24.6215C5.45356 24.7201 5.10596 24.6869 4.8088 24.5293C4.51164 24.3716 4.28927 24.1024 4.19059 23.7808L1.92082 16.3894L0.0364862 10.251L0 10.1336L0.258515 9.83546L8.69363 0.109394C8.73226 0.0643663 8.78287 0.0312214 8.83958 0.0138088C8.8963 -0.00360366 8.95679 -0.00456811 9.01403 0.0110256L21.4589 3.33084L21.8349 3.43075L21.9506 3.80508L26.0254 17.0763C26.1239 17.3981 26.0906 17.7458 25.933 18.0432C25.7754 18.3405 25.5063 18.5632 25.1848 18.6623Z" fill="#616872"/>
<path d="M25.2072 18.6551C25.1927 18.6599 25.1772 18.6599 25.1627 18.6551L13.2825 14.2441C13.2729 14.2404 13.2643 14.2346 13.2574 14.227C13.2505 14.2195 13.2455 14.2104 13.2427 14.2005C13.2399 14.1906 13.2395 14.1803 13.2414 14.1702C13.2434 14.1601 13.2477 14.1507 13.254 14.1426L15.2398 11.6651L21.7589 3.52667C21.766 3.51742 21.7756 3.51031 21.7865 3.50614C21.7974 3.50197 21.8092 3.50089 21.8207 3.50302C21.8322 3.50515 21.8429 3.51041 21.8515 3.51822C21.8602 3.52603 21.8666 3.53608 21.8699 3.54728L25.9971 16.9913L26.0241 17.077C26.1221 17.3946 26.0914 17.738 25.9386 18.0332C25.7858 18.3285 25.5231 18.5518 25.2072 18.6551Z" fill="#B3B7BC"/>
<path d="M13.1472 14.2843L5.78904 24.6022C5.78059 24.615 5.76753 24.6241 5.75256 24.6276C5.43309 24.7194 5.09034 24.6821 4.79812 24.5237C4.50589 24.3652 4.28758 24.0984 4.19019 23.7806L1.92042 16.3891L0.0360847 10.2508C0.0326108 10.2395 0.0322711 10.2275 0.0351025 10.2161C0.0379338 10.2047 0.0438288 10.1942 0.052152 10.1859C0.0604753 10.1776 0.0709113 10.1717 0.0823355 10.1689C0.0937596 10.1661 0.105739 10.1664 0.116983 10.1699L12.4159 13.9703L13.1137 14.186C13.1234 14.189 13.1322 14.1943 13.1394 14.2014C13.1467 14.2084 13.1521 14.2171 13.1554 14.2267C13.1587 14.2363 13.1596 14.2465 13.1582 14.2565C13.1567 14.2665 13.153 14.276 13.1472 14.2843Z" fill="#B3B7BC"/>
<path d="M25.1844 18.6631L5.77603 24.6222C5.48217 24.7114 5.16594 24.6914 4.8857 24.5658C4.60546 24.4401 4.38014 24.2173 4.25134 23.9385C4.22962 23.8909 4.21999 23.8386 4.22329 23.7864C4.22659 23.7342 4.24273 23.6836 4.27027 23.6391L12.0053 11.0395C12.0457 10.9736 12.1087 10.9248 12.1825 10.9022C12.2563 10.8795 12.3359 10.8845 12.4063 10.9163L25.8791 17.0044C25.9269 17.0258 25.9687 17.0586 26.0007 17.1C26.0327 17.1414 26.054 17.1901 26.0628 17.2417C26.1126 17.5447 26.0511 17.8556 25.8897 18.1168C25.7283 18.3781 25.4778 18.5721 25.1844 18.6631Z" fill="#8391A1"/>
</svg>
