<svg width="867" height="89" viewBox="0 0 867 89" fill="none" xmlns="http://www.w3.org/2000/svg">
<path fill-rule="evenodd" clip-rule="evenodd" d="M420.45 11.1543C420.931 8.91644 421.418 6.7466 421.897 4.66406C421.897 4.66406 419.154 8.59051 417.181 12.4863C415.89 13.0808 414.632 13.7442 413.412 14.4737C401.785 21.4253 394 34.1388 394 48.6707C394 70.6604 411.826 88.4867 433.816 88.4867C455.806 88.4867 473.632 70.6604 473.632 48.6707C473.645 40.3141 471.017 32.1671 466.123 25.3937C478.285 14.3971 493.689 18.1428 494 18.2204C479.747 14.4527 470.48 16.7903 463.704 22.364C449.71 33.8707 446.333 59.1809 431.589 73.0314C423.328 80.7913 419.054 75.314 417.04 66.1506C413.428 49.7159 416.746 28.4138 420.45 11.1537" fill="#F4B400"/>
<path fill-rule="evenodd" clip-rule="evenodd" d="M462.886 1.12944C455.586 2.95464 450.019 7.77442 446.919 11.0626C443.492 9.8698 439.917 9.15307 436.295 8.93246C438.813 4.02879 441.439 0.849427 441.439 0.849427C438.552 3.12186 435.99 5.82735 433.771 8.8565C426.681 18.534 423.1 31.5156 423.67 44.2212C424.455 61.772 432.895 47.8869 442.849 24.0499C444.861 19.2318 447.194 15.3343 449.844 12.2139C458.928 1.51716 471.735 -0.0404991 488.09 1.78867C488.09 1.78867 474.411 -1.75177 462.886 1.12944Z" fill="#F4B400"/>
<path d="M0 56L343 44V56H0Z" fill="#F4B400"/>
<path d="M867 44L524 56L524 44L867 44Z" fill="#F4B400"/>
</svg>
