<svg width="33" height="29" viewBox="0 0 33 29" fill="none" xmlns="http://www.w3.org/2000/svg">
<g id="Group 1">
<path id="Vector" fill-rule="evenodd" clip-rule="evenodd" d="M8.66852 3.65586C8.82605 2.92244 8.98563 2.21132 9.1426 1.52881C9.1426 1.52881 8.24367 2.81563 7.59701 4.09242C7.17398 4.28724 6.76172 4.50466 6.36202 4.74372C2.55153 7.02199 0 11.1886 0 15.9511C0 23.1578 5.84224 29.0001 13.0489 29.0001C20.2557 29.0001 26.0979 23.1578 26.0979 15.9511C26.1022 13.2124 25.2408 10.5424 23.6368 8.32255C27.6227 4.71864 32.6711 5.9462 32.7731 5.97165C28.102 4.73685 25.065 5.50296 22.8442 7.32962C18.2579 11.1007 17.1511 19.3957 12.3191 23.9349C9.61167 26.4781 8.21097 24.683 7.55094 21.6799C6.36722 16.2937 7.45452 9.31233 8.66852 3.65567" fill="#F4B400"/>
<path id="Vector_2" fill-rule="evenodd" clip-rule="evenodd" d="M22.5762 0.370153C20.1839 0.968328 18.3593 2.54792 17.3435 3.62556C16.2203 3.23464 15.0487 2.99974 13.8617 2.92744C14.6868 1.32036 15.5475 0.278384 15.5475 0.278384C14.6014 1.02313 13.7615 1.9098 13.0342 2.90255C10.7108 6.07418 9.53733 10.3287 9.72384 14.4927C9.98132 20.2446 12.7474 15.694 16.0097 7.88189C16.669 6.30286 17.4336 5.02552 18.3021 4.00286C21.2792 0.49722 25.4765 -0.0132728 30.8364 0.586203C30.8364 0.586203 26.3535 -0.574108 22.5762 0.370153Z" fill="#F4B400"/>
</g>
</svg>
