<svg width="338" height="35" viewBox="0 0 338 35" fill="none" xmlns="http://www.w3.org/2000/svg">
<path fill-rule="evenodd" clip-rule="evenodd" d="M163.912 4.34858C164.1 3.47615 164.29 2.63024 164.476 1.81836C164.476 1.81836 163.407 3.34909 162.638 4.86788C162.135 5.09964 161.644 5.35826 161.169 5.64263C156.636 8.35273 153.601 13.3091 153.601 18.9743C153.601 27.547 160.55 34.4966 169.123 34.4966C177.696 34.4966 184.645 27.547 184.645 18.9743C184.651 15.7165 183.626 12.5404 181.718 9.89981C186.459 5.6128 192.465 7.07303 192.586 7.10331C187.029 5.63446 183.417 6.54578 180.775 8.71867C175.319 13.2046 174.003 23.0717 168.255 28.4714C165.034 31.4966 163.368 29.3613 162.583 25.7889C161.175 19.3818 162.468 11.0772 163.912 4.34836" fill="#F4B400"/>
<path fill-rule="evenodd" clip-rule="evenodd" d="M180.456 0.440313C177.61 1.15187 175.44 3.03086 174.231 4.31276C172.895 3.84774 171.502 3.56832 170.09 3.48232C171.071 1.57062 172.095 0.331149 172.095 0.331149C170.969 1.21706 169.97 2.27179 169.105 3.45271C166.341 7.22549 164.946 12.2864 165.167 17.2396C165.474 24.0818 168.764 18.6687 172.645 9.37584C173.429 7.49752 174.339 5.97806 175.372 4.76157C178.913 0.591464 183.906 -0.0157886 190.282 0.697313C190.282 0.697313 184.949 -0.682926 180.456 0.440313Z" fill="#F4B400"/>
<path d="M0 21.8316L133.719 17.1534V21.8316H0Z" fill="#F4B400"/>
<path d="M338 17.1534L204.281 21.8316L204.281 17.1534L338 17.1534Z" fill="#F4B400"/>
</svg>
