<svg width="77" height="68" viewBox="0 0 77 68" fill="none" xmlns="http://www.w3.org/2000/svg">
<g id="Group 1">
<path id="Vector" fill-rule="evenodd" clip-rule="evenodd" d="M20.3214 8.56988C20.6907 6.85056 21.0647 5.18349 21.4327 3.5835C21.4327 3.5835 19.3254 6.60015 17.8094 9.59328C16.8177 10.05 15.8513 10.5597 14.9143 11.1201C5.98148 16.461 0 26.2286 0 37.3933C0 54.2878 13.6958 67.9836 30.5903 67.9836C47.4847 67.9836 61.1805 54.2878 61.1805 37.3933C61.1906 30.973 59.1713 24.7138 55.4111 19.5099C64.755 11.0613 76.59 13.9391 76.829 13.9987C65.8786 11.104 58.7592 12.9 53.5529 17.1822C42.8014 26.0226 40.2068 45.4682 28.8792 56.1095C22.5323 62.0714 19.2487 57.8632 17.7014 50.823C14.9265 38.1964 17.4754 21.8302 20.3214 8.56944" fill="#F4B400"/>
<path id="Vector_2" fill-rule="evenodd" clip-rule="evenodd" d="M52.9246 0.86774C47.3164 2.27002 43.039 5.97301 40.6577 8.4993C38.0246 7.58288 35.2781 7.03221 32.4953 6.86272C34.4297 3.09528 36.4474 0.652607 36.4474 0.652607C34.2294 2.39849 32.2605 4.47709 30.5556 6.80436C25.1089 14.2395 22.3579 24.2131 22.7951 33.9747C23.3987 47.4588 29.8832 36.791 37.5309 18.4773C39.0764 14.7756 40.8689 11.7812 42.9048 9.38378C49.884 1.16562 59.7235 -0.0311151 72.2888 1.37422C72.2888 1.37422 61.7795 -1.34587 52.9246 0.86774Z" fill="#F4B400"/>
</g>
</svg>
