<svg width="64" height="53" viewBox="0 0 64 53" fill="none" xmlns="http://www.w3.org/2000/svg">
<g clip-path="url(#clip0_1720_1587)">
<path fill-rule="evenodd" clip-rule="evenodd" d="M63.0586 12.3592C61.6877 12.0998 56.5151 11.3219 51.1035 13.5721C51.057 13.5888 51.0126 13.6097 50.966 13.6285C50.6889 13.7456 50.4117 13.8711 50.1346 14.0049C50.2425 14.2914 50.3377 14.5821 50.4266 14.8749C50.6804 15.7156 50.8624 16.5855 50.966 17.4785C51.0316 18.0515 51.0655 18.6328 51.0655 19.2226V39.2753C51.0655 39.8629 51.0316 40.4401 50.966 41.0089C50.8454 42.0566 50.6191 43.073 50.2933 44.0454C50.1769 44.3925 50.05 44.7355 49.9082 45.0701C48.7383 47.8765 46.7455 50.2584 44.2258 51.9251C44.1941 51.946 44.1624 51.967 44.1285 51.9879C44.0968 52.0046 44.0651 52.0192 44.0312 52.0339C42.6709 52.6529 41.154 53 39.5568 53H39.542L37.2529 52.9958L13.6729 52.9707L11.075 52.9666C9.85218 52.9645 8.67804 52.7616 7.58429 52.3873C7.23311 52.2702 6.8925 52.1322 6.56036 51.9795C3.82282 50.7185 1.71995 48.3491 0.850456 45.4611C0.704482 44.9802 0.592358 44.4825 0.518313 43.9743C0.461193 43.5895 0.427344 43.1984 0.416766 42.8011C0.143858 41.6718 0 40.4903 0 39.2753V19.2226C0 17.972 0.152321 16.7549 0.442153 15.5922C0.509851 15.3203 0.583895 15.0506 0.666402 14.785C0.666402 14.785 0.666402 14.7829 0.666402 14.7808C0.778527 14.4169 0.905461 14.0572 1.04509 13.7059C2.47521 10.0672 5.28468 7.11018 8.83882 5.45602C8.93191 5.41211 9.02499 5.37028 9.11808 5.32846C11.0327 4.48151 13.1546 4.01099 15.3886 4.01099H18.1769C18.1029 4.37904 18.0161 4.74501 17.9294 5.11515C17.7263 6.02693 17.5105 6.95334 17.2926 7.91112C14.9591 18.5847 12.8563 31.7678 15.1178 41.9291C16.1692 46.7159 18.2467 49.8799 21.9955 47.8702C21.9976 47.8702 21.9976 47.8702 21.9997 47.8681C22.6386 47.5001 23.3262 46.9857 24.0624 46.306C33.354 37.755 35.5076 22.0917 44.3189 14.9857C45.07 14.3835 45.8696 13.8397 46.7243 13.3692C46.7751 13.3399 46.8238 13.3128 46.8745 13.2856C47.6404 12.8548 48.4549 12.4846 49.3201 12.1814C49.3265 12.1939 49.3328 12.2044 49.337 12.217C49.4238 12.1877 49.5105 12.1584 49.5973 12.1312C50.0394 11.989 50.4964 11.8656 50.966 11.7569C51.0126 11.7464 51.057 11.736 51.1035 11.7276C54.3361 11.0187 58.233 11.1358 63.0586 12.3592Z" fill="url(#paint0_linear_1720_1587)"/>
<path fill-rule="evenodd" clip-rule="evenodd" d="M63.7991 13.0826C63.9239 13.114 63.9852 13.1286 64 13.1286C63.9387 13.114 63.8604 13.0973 63.7991 13.0826Z" fill="#F4B400"/>
<path d="M44.0186 0.690116C42.8508 0.974523 41.7549 1.38022 40.7352 1.8612C39.3707 2.50321 38.1437 3.27905 37.0732 4.07372C36.6141 4.03189 36.1466 4.01098 35.6769 4.01098H28.0884C28.5961 3.15567 29.0806 2.42792 29.4804 1.8612C30.0643 1.03517 30.4684 0.545822 30.5086 0.497723C29.9543 0.928516 29.417 1.38231 28.9008 1.8612C28.1688 2.53458 27.4749 3.25187 26.8233 4.01098C26.8021 4.03189 26.7831 4.0549 26.7641 4.0779C26.3917 4.51915 26.0194 4.97504 25.6788 5.44556C21.2171 11.4327 18.9492 19.4589 19.2961 27.3219C19.7785 38.1816 25.1097 29.595 31.3929 14.8498C32.6496 11.8719 34.122 9.46908 35.7954 7.54097C36.8638 6.30506 38.0146 5.27199 39.2395 4.42086C39.4024 4.30793 39.5632 4.19919 39.7282 4.09254C41.2091 3.12221 42.8 2.39028 44.5031 1.8612C48.8928 0.493541 54.0252 0.466355 59.8769 1.11882C59.8769 1.11882 51.2771 -1.08115 44.0186 0.690116Z" fill="url(#paint1_linear_1720_1587)"/>
</g>
<defs>
<linearGradient id="paint0_linear_1720_1587" x1="0" y1="28.505" x2="63.0586" y2="28.505" gradientUnits="userSpaceOnUse">
<stop stop-color="#F4B400"/>
<stop offset="1" stop-color="#FFA300"/>
</linearGradient>
<linearGradient id="paint1_linear_1720_1587" x1="19.2615" y1="16.1054" x2="59.8769" y2="16.1054" gradientUnits="userSpaceOnUse">
<stop stop-color="#F4B400"/>
<stop offset="1" stop-color="#FFA300"/>
</linearGradient>
<clipPath id="clip0_1720_1587">
<rect width="64" height="53" fill="white"/>
</clipPath>
</defs>
</svg>
