<svg width="41" height="36" viewBox="0 0 41 36" fill="none" xmlns="http://www.w3.org/2000/svg">
<g id="Group 1">
<path id="Vector" fill-rule="evenodd" clip-rule="evenodd" d="M10.7609 4.5383C10.9564 3.62785 11.1545 2.74508 11.3494 1.89783C11.3494 1.89783 10.2335 3.49525 9.43074 5.08022C8.9056 5.32208 8.39383 5.59198 7.89765 5.88874C3.16741 8.71692 0 13.8892 0 19.8014C0 28.7476 7.25241 36 16.1986 36C25.1449 36 32.3973 28.7476 32.3973 19.8014C32.4026 16.4016 31.3333 13.0871 29.3422 10.3314C34.2901 5.85761 40.5571 7.38147 40.6837 7.41306C34.8851 5.88021 31.1151 6.83124 28.3582 9.09881C22.6649 13.7802 21.2909 24.0773 15.2926 29.7122C11.9317 32.8692 10.1929 30.6409 9.37354 26.9129C7.90411 20.2266 9.25386 11.5601 10.7609 4.53806" fill="#F4B400"/>
<path id="Vector_2" fill-rule="evenodd" clip-rule="evenodd" d="M28.0254 0.459499C25.0556 1.20206 22.7906 3.16292 21.5296 4.50068C20.1353 4.0154 18.681 3.72381 17.2073 3.63406C18.2317 1.63906 19.3001 0.345579 19.3001 0.345579C18.1256 1.27009 17.083 2.37078 16.1802 3.60315C13.296 7.54033 11.8392 12.8217 12.0708 17.9908C12.3904 25.1312 15.8242 19.4822 19.8739 9.78438C20.6923 7.82421 21.6415 6.23855 22.7196 4.96905C26.4153 0.617236 31.6257 -0.0164765 38.2794 0.727697C38.2794 0.727697 32.7144 -0.712684 28.0254 0.459499Z" fill="#F4B400"/>
</g>
</svg>
