<svg width="97" height="91" viewBox="0 0 97 91" fill="none" xmlns="http://www.w3.org/2000/svg">
<path fill-rule="evenodd" clip-rule="evenodd" d="M67.4407 91H29.5593C13.2351 91 0 77.7833 0 61.4818V29.5182C0 13.2167 13.2351 0 29.5593 0H67.4407C83.7649 0 97 13.2167 97 29.5182V61.4818C97 77.7833 83.7649 91 67.4407 91Z" fill="url(#paint0_linear_1763_3539)"/>
<path fill-rule="evenodd" clip-rule="evenodd" d="M77.6732 17.509C67.7049 17.098 59.713 19.0564 53.7686 26.0428C51.711 28.4629 49.9023 31.4817 48.3425 35.2158C40.6148 53.6939 34.0608 64.455 33.4511 50.8526C33.0091 41.0048 35.7882 30.9388 41.2905 23.44C42.7741 21.4156 44.4609 19.579 46.3306 17.9859C48.749 16.0833 50.644 15.0229 50.7863 14.9468C48.439 15.6419 46.1781 16.6312 44.0239 17.8692L32.0691 20.2031C31.7033 21.8114 31.3274 23.4907 30.9514 25.2208C28.0757 38.5999 25.5049 55.1094 28.3044 67.8492C29.8692 74.9522 33.1869 79.1988 39.5987 73.1815C51.0454 62.4458 53.667 42.8313 64.5295 33.9119C66.7294 32.1057 69.2647 30.7358 72.2826 29.9697C73.9287 29.5486 75.7222 29.3102 77.6732 29.2797C77.9932 29.2746 78.3235 29.2746 78.6537 29.2797V17.5597C78.3235 17.5343 77.9983 17.5191 77.6732 17.509Z" fill="white"/>
<path fill-rule="evenodd" clip-rule="evenodd" d="M59.022 49.6451C59.022 49.6451 59.8299 43.3792 63.9401 39.5334C68.0504 35.6877 73.1209 36.4183 73.1209 36.4183C73.1209 36.4183 63.5591 36.6719 59.022 49.6451Z" fill="white"/>
<defs>
<linearGradient id="paint0_linear_1763_3539" x1="0" y1="45.4993" x2="96.9992" y2="45.4993" gradientUnits="userSpaceOnUse">
<stop stop-color="#F4B400"/>
<stop offset="1" stop-color="#FFA300"/>
</linearGradient>
</defs>
</svg>
